<svg width="114" height="114" viewBox="0 0 114 114" fill="none" xmlns="http://www.w3.org/2000/svg">
<g clip-path="url(#clip0_1053_87483)">
<path fill-rule="evenodd" clip-rule="evenodd" d="M70.3386 66.1559C63.8976 70.9154 54.5781 73.4234 46.5411 73.4234C35.2836 73.4234 25.1376 69.2624 17.4426 62.3369C16.8441 61.7954 17.3856 61.0544 18.0981 61.4819C26.3916 66.2984 36.6231 69.2054 47.1966 69.2054C54.3216 69.2054 62.1876 67.7234 69.3981 64.6739C70.5096 64.1894 71.4216 65.3864 70.3386 66.1559ZM73.0176 63.1064C72.1911 62.0519 67.5741 62.6219 65.4936 62.8499C64.8666 62.9354 64.7526 62.3654 65.3226 61.9949C68.9991 59.4014 75.0411 60.1424 75.7536 61.0259C76.4661 61.9094 75.5826 67.9514 72.1056 70.8299C71.5641 71.2859 71.0796 71.0294 71.3076 70.4594C72.1056 68.5214 73.8441 64.1609 73.0176 63.1064Z" fill="#FF9900"/>
<path fill-rule="evenodd" clip-rule="evenodd" d="M65.636 43.6968V41.1888C65.636 40.8183 65.921 40.5618 66.263 40.5618H77.549C77.9195 40.5618 78.2045 40.8183 78.2045 41.1888V43.3548C78.2045 43.7253 77.891 44.1813 77.3495 44.9508L71.507 53.3013C73.673 53.2443 75.9815 53.5578 77.948 54.6693C78.404 54.9258 78.518 55.2963 78.5465 55.6383V58.3173C78.5465 58.6878 78.1475 59.1153 77.72 58.8873C74.243 57.0633 69.6545 56.8638 65.807 58.9158C65.408 59.1153 65.009 58.7163 65.009 58.3458V55.7808C65.009 55.3818 65.009 54.6693 65.4365 54.0423L72.191 44.3238H66.2915C65.9495 44.3238 65.636 44.0673 65.636 43.6968ZM24.5105 59.4003H21.0905C20.7485 59.3718 20.492 59.1438 20.492 58.8303V41.2173C20.492 40.8753 20.777 40.5903 21.1475 40.5903H24.3395C24.6815 40.6188 24.938 40.8468 24.9665 41.1888V43.4973H25.0235C25.85 41.2743 27.4175 40.2483 29.5265 40.2483C31.664 40.2483 33.0035 41.2743 33.9725 43.4973C34.799 41.2743 36.68 40.2483 38.7035 40.2483C40.1285 40.2483 41.7245 40.8468 42.665 42.1863C43.748 43.6683 43.52 45.8058 43.52 47.7153V58.8303C43.52 59.1723 43.235 59.4573 42.8645 59.4573H39.4445C39.1025 59.4288 38.8175 59.1723 38.8175 58.8303V49.5108C38.8175 48.7698 38.8745 46.9173 38.732 46.2048C38.4755 45.0363 37.706 44.6943 36.7085 44.6943C35.882 44.6943 34.9985 45.2358 34.6565 46.1478C34.3145 47.0313 34.343 48.5133 34.343 49.5108V58.8303C34.343 59.1723 34.058 59.4573 33.6875 59.4573H30.2675C29.9255 59.4288 29.6405 59.1723 29.6405 58.8303V49.5108C29.6405 47.5443 29.954 44.6658 27.5315 44.6658C25.0805 44.6658 25.166 47.4873 25.166 49.5108V58.8303C25.1945 59.1153 24.881 59.4003 24.5105 59.4003ZM87.923 40.2198C93.0245 40.2198 95.7605 44.5803 95.7605 50.1378C95.7605 55.4958 92.711 59.7708 87.923 59.7708C82.9355 59.7708 80.1995 55.4103 80.1995 49.9668C80.1995 44.4663 82.964 40.2198 87.923 40.2198ZM87.9515 43.8108C85.415 43.8108 85.2725 47.2593 85.2725 49.3968C85.2725 51.5343 85.244 56.1513 87.923 56.1513C90.5735 56.1513 90.716 52.4463 90.716 50.1948C90.716 48.7128 90.659 46.9458 90.203 45.5208C89.804 44.2953 89.0345 43.8108 87.9515 43.8108ZM102.344 59.4003H98.924C98.582 59.3718 98.297 59.1153 98.297 58.7733V41.1603C98.3255 40.8468 98.6105 40.5903 98.9525 40.5903H102.145C102.43 40.6188 102.686 40.8183 102.743 41.0748V43.7538H102.8C103.769 41.3598 105.109 40.1913 107.474 40.1913C109.013 40.1913 110.524 40.7328 111.464 42.2718C112.348 43.6683 112.348 46.0623 112.348 47.7438V58.8303C112.319 59.1438 112.034 59.3718 111.692 59.3718H108.301C107.987 59.3433 107.731 59.1153 107.702 58.8303V49.2828C107.702 47.3448 107.93 44.5518 105.565 44.5518C104.738 44.5518 103.969 45.1218 103.57 45.9483C103.085 47.0313 103.028 48.0858 103.028 49.2828V58.7733C103.028 59.1153 102.715 59.4003 102.344 59.4003ZM56.6585 50.9928C56.6585 52.3323 56.687 53.4438 56.003 54.6408C55.4615 55.6098 54.578 56.2083 53.6375 56.2083C52.3265 56.2083 51.557 55.2108 51.557 53.7288C51.557 50.7933 54.179 50.2803 56.6585 50.2803V50.9928ZM60.107 59.3718C59.879 59.5713 59.5655 59.5998 59.309 59.4573C58.169 58.5168 57.9695 58.0608 57.3425 57.1773C55.4615 59.0868 54.122 59.6853 51.6995 59.6853C48.821 59.6853 46.5695 57.9183 46.5695 54.3273C46.5695 51.5343 48.08 49.6533 50.2175 48.7128C52.07 47.8863 54.692 47.7438 56.6585 47.5158V47.0598C56.6585 46.2333 56.7155 45.2928 56.231 44.5803C55.8035 43.9533 55.0055 43.6968 54.293 43.6968C52.982 43.6968 51.8135 44.3808 51.5285 45.7488C51.4715 46.0623 51.2435 46.3473 50.93 46.3758L47.5955 46.0053C47.3105 45.9483 46.997 45.7203 47.0825 45.2928C47.852 41.2458 51.5 40.0488 54.749 40.0488C56.4305 40.0488 58.5965 40.5048 59.9075 41.7588C61.589 43.3263 61.418 45.4068 61.418 47.6583V53.0163C61.418 54.6123 62.0735 55.3248 62.7005 56.2083C62.9285 56.5218 62.957 56.8923 62.672 57.1203C62.045 57.6903 60.8195 58.7733 60.107 59.3718ZM11.6855 50.9928C11.6855 52.3323 11.714 53.4438 11.03 54.6408C10.4885 55.6098 9.6335 56.2083 8.6645 56.2083C7.3535 56.2083 6.584 55.2108 6.584 53.7288C6.584 50.7933 9.206 50.2803 11.6855 50.2803V50.9928ZM15.1625 59.3718C14.9345 59.5713 14.621 59.5998 14.3645 59.4573C13.2245 58.5168 13.025 58.0608 12.398 57.1773C10.517 59.0868 9.1775 59.6853 6.755 59.6853C3.8765 59.6853 1.625 57.9183 1.625 54.3273C1.625 51.5343 3.1355 49.6533 5.273 48.7128C7.1255 47.8863 9.7475 47.7438 11.714 47.5158V47.0598C11.714 46.2333 11.771 45.2928 11.2865 44.5803C10.859 43.9533 10.061 43.6968 9.3485 43.6968C8.0375 43.6968 6.869 44.3808 6.584 45.7488C6.527 46.0623 6.299 46.3473 5.9855 46.3758L2.651 46.0053C2.366 45.9483 2.0525 45.7203 2.138 45.2928C2.9075 41.2458 6.5555 40.0488 9.8045 40.0488C11.486 40.0488 13.652 40.5048 14.963 41.7588C16.6445 43.3263 16.4735 45.4068 16.4735 47.6583V53.0163C16.4735 54.6123 17.129 55.3248 17.756 56.2083C17.984 56.5218 18.0125 56.8923 17.756 57.1203C17.1005 57.6903 15.8465 58.7733 15.1625 59.3718Z" fill="black"/>
</g>
<defs>
<clipPath id="clip0_1053_87483">
<rect width="112" height="34" fill="white" transform="translate(1 40)"/>
</clipPath>
</defs>
</svg>
