<svg width="102" height="23" viewBox="0 0 102 23" fill="none" xmlns="http://www.w3.org/2000/svg">
<path d="M0 8.98994L9.29175 8.99174L14.9418 8.99268V3.56348L0 8.98994Z" fill="#FF9D28"/>
<path d="M14.9395 3.56366V22.7315L21.9962 1L14.9395 3.56366Z" fill="#68C5ED"/>
<path d="M14.9391 8.99312L9.28906 8.99219L14.9391 22.7317V8.99312Z" fill="#044D80"/>
<path d="M0 8.99023L10.7406 12.5174L9.29175 8.99203L0 8.99023Z" fill="#E54747"/>
<path d="M34.2272 17.6857C34.1453 17.7652 34.0088 17.8643 33.8179 17.9834C33.6267 18.1026 33.3778 18.2217 33.0709 18.3409C32.7639 18.4598 32.3885 18.5622 31.9453 18.6486C31.5016 18.7344 30.9936 18.7775 30.4206 18.7775C29.3153 18.7775 28.3601 18.6054 27.5552 18.2615C26.75 17.9176 26.0849 17.4375 25.5598 16.8223C25.0344 16.2069 24.6491 15.4792 24.4035 14.6386C24.1579 13.7983 24.0352 12.8753 24.0352 11.8694C24.0352 10.8639 24.1682 9.93395 24.4342 9.08038C24.7002 8.22673 25.0993 7.48923 25.6314 6.86693C26.1636 6.2451 26.8287 5.75868 27.6269 5.40786C28.4251 5.05744 29.363 4.88184 30.441 4.88184C30.9731 4.88184 31.4541 4.9283 31.8839 5.02078C32.3137 5.11345 32.6888 5.22272 33.0096 5.34833C33.3299 5.47427 33.5961 5.60634 33.8077 5.74534C34.0191 5.88429 34.1794 6.00036 34.2887 6.0927C34.4115 6.19883 34.5171 6.32444 34.6059 6.46985C34.6945 6.61565 34.7389 6.77446 34.7389 6.94634C34.7389 7.21122 34.6366 7.47576 34.432 7.74038C34.2273 8.00526 34.0022 8.25007 33.7565 8.47488C33.5928 8.31607 33.4086 8.1542 33.204 7.98859C32.9993 7.82318 32.7707 7.67777 32.5184 7.55183C32.2658 7.42623 31.9792 7.32042 31.6588 7.23422C31.338 7.14828 30.9799 7.10515 30.5844 7.10515C29.8885 7.10515 29.3053 7.24102 28.8345 7.5121C28.3638 7.78351 27.9851 8.1374 27.6986 8.57415C27.4121 9.01091 27.2074 9.51053 27.0846 10.0729C26.9618 10.6355 26.9005 11.2078 26.9005 11.79C26.9005 12.4122 26.9618 13.0077 27.0846 13.5765C27.2074 14.1456 27.4187 14.6487 27.7191 15.0852C28.019 15.5219 28.4114 15.8727 28.8959 16.1373C29.38 16.4022 29.9837 16.5343 30.7071 16.5343C31.0889 16.5343 31.4404 16.4881 31.7611 16.3955C32.0815 16.3029 32.3648 16.1903 32.6104 16.0578C32.856 15.9258 33.0709 15.7869 33.2551 15.6412C33.4393 15.4956 33.5928 15.37 33.7156 15.2639C33.7975 15.3567 33.8927 15.4693 34.0021 15.6014C34.112 15.735 34.2145 15.8741 34.3091 16.0183C34.4044 16.1641 34.4863 16.3095 34.5547 16.4549C34.6228 16.6007 34.6569 16.7329 34.6569 16.8518C34.6569 17.0241 34.6228 17.1696 34.5547 17.2886C34.4862 17.4078 34.3771 17.5403 34.2272 17.6857ZM44.7742 16.1633C44.7742 17.2151 44.9318 17.9807 45.2477 18.46C45.0007 18.553 44.7707 18.6196 44.558 18.6596C44.345 18.6996 44.1221 18.7195 43.8888 18.7195C43.3947 18.7195 43.0206 18.6262 42.7668 18.4399C42.5127 18.2537 42.3514 17.9874 42.2829 17.6411C41.9808 17.9476 41.5828 18.2071 41.0887 18.4202C40.5946 18.6328 39.9904 18.7396 39.2769 18.7396C38.9062 18.7396 38.5357 18.6897 38.1651 18.5905C37.7944 18.4905 37.458 18.3282 37.1561 18.1029C36.854 17.8771 36.607 17.5751 36.4149 17.1968C36.2225 16.8186 36.1266 16.3575 36.1266 15.8134C36.1266 15.1366 36.2946 14.5856 36.6311 14.1612C36.9673 13.7363 37.3894 13.4013 37.8974 13.1556C38.4051 12.9103 38.9542 12.7414 39.5446 12.6483C40.1346 12.5553 40.677 12.4957 41.1711 12.4689C41.3359 12.4557 41.497 12.4489 41.655 12.4489H42.0976V12.0854C42.0976 11.5736 41.9567 11.2101 41.6755 10.9948C41.394 10.7795 40.9375 10.6715 40.3063 10.6715C39.716 10.6715 39.1909 10.7648 38.7312 10.9511C38.2712 11.1377 37.8217 11.3505 37.3827 11.5902C37.1903 11.3639 37.0357 11.1143 36.9194 10.8413C36.8027 10.5686 36.7444 10.3654 36.7444 10.2322C36.7444 10.0459 36.8505 9.86615 37.0635 9.69294C37.2762 9.52013 37.568 9.36346 37.9386 9.22365C38.3093 9.08384 38.7345 8.9709 39.2152 8.88417C39.6955 8.7977 40.2034 8.75436 40.7388 8.75436C41.48 8.75436 42.108 8.8277 42.6226 8.97404C43.1374 9.12071 43.556 9.34692 43.8786 9.653C44.201 9.95949 44.431 10.342 44.5683 10.8013C44.7054 11.2607 44.7743 11.7968 44.7743 12.4089V16.1633H44.7742ZM42.1387 13.8467H41.8505C41.7542 13.8467 41.6581 13.8537 41.5623 13.8668C41.2189 13.8936 40.8792 13.9335 40.5431 13.9865C40.2066 14.0399 39.908 14.1331 39.6475 14.2662C39.3866 14.3994 39.1739 14.5726 39.0092 14.7853C38.8445 14.9985 38.7621 15.2715 38.7621 15.6042C38.7621 15.977 38.8718 16.2931 39.0915 16.5527C39.3109 16.8124 39.6815 16.9422 40.2034 16.9422C40.4639 16.9422 40.7111 16.9092 40.9446 16.8422C41.1778 16.776 41.3837 16.6894 41.5623 16.5828C41.7405 16.4763 41.8814 16.3599 41.9844 16.2332C42.0873 16.1069 42.1387 15.9905 42.1387 15.8838V13.8467H42.1387ZM49.9006 9.91255C50.1194 9.6598 50.4617 9.40333 50.9269 9.14365C51.3921 8.88403 51.9804 8.75423 52.6921 8.75423C53.1985 8.75423 53.6808 8.8375 54.1393 9.00384C54.5973 9.17045 55.0046 9.44013 55.3604 9.81268C55.7162 10.1856 56.0001 10.6783 56.2124 11.2905C56.4244 11.903 56.5305 12.6554 56.5305 13.5471C56.5305 14.5856 56.4072 15.4412 56.161 16.1134C55.9145 16.786 55.5966 17.3185 55.2068 17.7111C54.8168 18.1039 54.3821 18.3802 53.9035 18.5398C53.4244 18.6996 52.9454 18.7796 52.4667 18.7796C52.0698 18.7796 51.7241 18.7363 51.4302 18.6498C51.1358 18.563 50.8862 18.4668 50.6809 18.3602C50.4757 18.2538 50.3184 18.1474 50.2091 18.0406C50.0996 17.9342 50.0311 17.8608 50.0038 17.8208V22.73H47.2036V9.03377C47.2725 9.02071 47.3555 9.00731 47.4526 8.99391C47.5357 8.98084 47.6324 8.97077 47.7431 8.9639C47.8537 8.95737 47.9851 8.95397 48.1372 8.95397C48.5934 8.95397 48.9807 9.02731 49.2988 9.17365C49.6168 9.32032 49.8177 9.56647 49.9006 9.91255ZM53.6068 13.607C53.6068 13.2076 53.5726 12.8351 53.5044 12.4887C53.4363 12.1427 53.3237 11.8431 53.1667 11.5901C53.0097 11.3373 52.7979 11.1407 52.5319 11.0009C52.2655 10.8611 51.9416 10.7913 51.5596 10.7913C50.9865 10.7913 50.5872 10.898 50.3619 11.1107C50.1368 11.3239 50.0242 11.557 50.0242 11.8098V16.0436C50.1332 16.1503 50.3275 16.2765 50.6074 16.423C50.8873 16.5696 51.2112 16.6426 51.5799 16.6426C52.2761 16.6426 52.7879 16.3765 53.1155 15.8438C53.4431 15.3114 53.6068 14.5656 53.6068 13.607ZM58.6917 17.0421C58.5955 16.776 58.5338 16.4962 58.5064 16.2033C58.4788 15.9105 58.4652 15.6177 58.4652 15.3244V6.05816C58.5611 6.04509 58.6641 6.03169 58.7741 6.01823C58.8698 6.00516 58.9728 5.99522 59.0828 5.98829C59.1926 5.98176 59.3023 5.97836 59.4122 5.97836C59.6317 5.97836 59.8515 5.99836 60.0712 6.03823C60.2905 6.07823 60.4896 6.1581 60.6684 6.27784C60.8466 6.39764 60.9907 6.56092 61.1006 6.76713C61.2104 6.97367 61.2653 7.24335 61.2653 7.5759V8.99377H64.1479V11.0109H61.2653V15.2696C61.2653 16.1983 61.6565 16.6625 62.439 16.6625C62.6311 16.6625 62.8128 16.6327 62.9846 16.5727C63.1561 16.5128 63.3105 16.4463 63.4479 16.3731C63.585 16.2999 63.7052 16.2233 63.8082 16.1434C63.9112 16.0635 63.9832 16.0037 64.0243 15.9637C64.2302 16.2568 64.3878 16.5105 64.4979 16.7246C64.6076 16.9389 64.6626 17.14 64.6626 17.328C64.6626 17.5029 64.5907 17.6743 64.4464 17.8422C64.3021 18.0101 64.0996 18.1649 63.8389 18.3059C63.5781 18.4469 63.2626 18.5611 62.8919 18.6485C62.5213 18.7359 62.1162 18.7797 61.6771 18.7797C60.8258 18.7797 60.1637 18.6198 59.6902 18.3004C59.2167 17.9807 58.8836 17.5613 58.6917 17.0421ZM71.2398 16.7824C71.5841 16.7824 71.8871 16.746 72.1491 16.6726C72.4106 16.5996 72.6447 16.5097 72.8514 16.4031C73.0579 16.2967 73.2371 16.1802 73.3887 16.0537C73.5401 15.9272 73.6778 15.8108 73.8021 15.704C73.9671 15.9036 74.1392 16.1602 74.3184 16.4728C74.4974 16.786 74.587 17.0421 74.587 17.2417C74.587 17.5347 74.4153 17.801 74.0724 18.0406C73.7841 18.2538 73.3754 18.4368 72.8473 18.5897C72.3187 18.7427 71.6975 18.8194 70.984 18.8194C70.3385 18.8194 69.7038 18.7396 69.0795 18.5798C68.4548 18.4201 67.8987 18.1404 67.4117 17.7409C66.9243 17.3417 66.5296 16.8059 66.2277 16.1335C65.9257 15.4612 65.7748 14.6126 65.7748 13.5871C65.7748 12.7483 65.9087 12.0263 66.1761 11.4204C66.4439 10.8147 66.8007 10.312 67.2471 9.91262C67.6929 9.5132 68.1973 9.22052 68.7603 9.03384C69.3229 8.84763 69.8996 8.75429 70.4899 8.75429C71.2585 8.75429 71.9104 8.87103 72.4457 9.10378C72.9812 9.33686 73.4167 9.6498 73.7532 10.0424C74.0893 10.4352 74.3329 10.8845 74.4841 11.3904C74.6349 11.8965 74.7106 12.4289 74.7106 12.988V13.2676C74.7106 13.3744 74.7071 13.4873 74.7003 13.6071C74.6932 13.727 74.6865 13.8437 74.6798 13.9565C74.6726 14.07 74.6623 14.1597 74.649 14.2262H68.5749C68.63 14.9585 68.8641 15.5676 69.2773 16.0537C69.6902 16.5397 70.3445 16.7824 71.2398 16.7824ZM72.1781 12.7284C72.1781 12.0893 72.0502 11.5701 71.7949 11.1707C71.5394 10.7713 71.0802 10.5715 70.418 10.5715C69.8516 10.5715 69.3996 10.7613 69.0615 11.1407C68.7231 11.5202 68.5543 12.0494 68.5543 12.7283H72.1781V12.7284ZM79.5835 9.96302C79.6657 9.84421 79.7755 9.71221 79.9129 9.56673C80.0499 9.42139 80.2182 9.28932 80.4173 9.17051C80.6162 9.05164 80.8359 8.95237 81.0762 8.87317C81.3161 8.7939 81.5736 8.75429 81.8484 8.75429C82.013 8.75429 82.1881 8.76769 82.3733 8.7939C82.5587 8.82043 82.7301 8.87003 82.888 8.94244C83.0457 9.01517 83.1729 9.11404 83.269 9.23952C83.3649 9.36499 83.4131 9.52006 83.4131 9.70481C83.4131 9.99529 83.3374 10.3289 83.1866 10.7055C83.0354 11.0825 82.8847 11.4039 82.7337 11.67C82.5001 11.4837 82.2668 11.3406 82.0336 11.2407C81.8001 11.1409 81.5256 11.0909 81.21 11.0909C80.7844 11.0909 80.4276 11.2111 80.1395 11.4513C79.851 11.6916 79.707 11.9787 79.707 12.3125V18.7774H76.9069V9.03377C76.9754 9.02071 77.0577 9.00731 77.1539 8.99391C77.2362 8.98084 77.3323 8.97077 77.4422 8.9639C77.552 8.95737 77.6822 8.95397 77.8334 8.95397C78.2725 8.95397 78.6534 9.03657 78.9761 9.20145C79.2984 9.36612 79.5012 9.62014 79.5835 9.96302ZM87.5447 9.96302C87.627 9.84421 87.7367 9.71221 87.8741 9.56673C88.0112 9.42139 88.1794 9.28932 88.3786 9.17051C88.5774 9.05164 88.797 8.95237 89.0374 8.87317C89.2774 8.7939 89.5348 8.75429 89.8095 8.75429C89.9741 8.75429 90.1491 8.76769 90.3344 8.7939C90.5197 8.82043 90.6912 8.87003 90.8492 8.94244C91.007 9.01517 91.1338 9.11404 91.2303 9.23952C91.3261 9.36499 91.3743 9.52006 91.3743 9.70481C91.3743 9.99529 91.2986 10.3289 91.1479 10.7055C90.9965 11.0825 90.8457 11.4039 90.6948 11.67C90.4614 11.4837 90.2279 11.3406 89.9948 11.2407C89.7613 11.1409 89.4868 11.0909 89.1712 11.0909C88.7457 11.0909 88.3888 11.2111 88.1006 11.4513C87.8123 11.6916 87.6683 11.9787 87.6683 12.3125V18.7774H84.8681V9.03377C84.9366 9.02071 85.019 9.00731 85.1152 8.99391C85.1976 8.98084 85.2936 8.97077 85.4034 8.9639C85.5131 8.95737 85.6434 8.95397 85.7945 8.95397C86.2338 8.95397 86.6147 9.03657 86.9372 9.20145C87.2595 9.36612 87.4622 9.62014 87.5447 9.96302ZM100.907 16.1633C100.907 17.2151 101.065 17.9807 101.381 18.46C101.134 18.553 100.904 18.6196 100.691 18.6596C100.478 18.6996 100.255 18.7195 100.022 18.7195C99.5278 18.7195 99.1537 18.6262 98.8999 18.4399C98.6457 18.2537 98.4846 17.9874 98.416 17.6411C98.114 17.9476 97.716 18.2071 97.2218 18.4202C96.7277 18.6328 96.1235 18.7396 95.41 18.7396C95.0393 18.7396 94.6688 18.6897 94.2981 18.5905C93.9275 18.4905 93.5909 18.3282 93.2892 18.1029C92.9871 17.8771 92.7401 17.5751 92.548 17.1968C92.3557 16.8186 92.2599 16.3575 92.2599 15.8134C92.2599 15.1366 92.4276 14.5856 92.7643 14.1612C93.1004 13.7363 93.5226 13.4013 94.0306 13.1556C94.5382 12.9103 95.0872 12.7414 95.6777 12.6483C96.2676 12.5553 96.8101 12.4957 97.3042 12.4689C97.469 12.4557 97.6301 12.4489 97.7882 12.4489H98.2308V12.0854C98.2308 11.5736 98.0898 11.2101 97.8086 10.9948C97.527 10.7795 97.0707 10.6715 96.4394 10.6715C95.8492 10.6715 95.3242 10.7648 94.8644 10.9511C94.4043 11.1377 93.9549 11.3505 93.5157 11.5902C93.3235 11.3639 93.1688 11.1143 93.0525 10.8413C92.9358 10.5686 92.8775 10.3654 92.8775 10.2322C92.8775 10.0459 92.9837 9.86615 93.1967 9.69294C93.4093 9.52013 93.7011 9.36346 94.0717 9.22365C94.4424 9.08384 94.8676 8.9709 95.3482 8.88417C95.8285 8.7977 96.3365 8.75436 96.8718 8.75436C97.613 8.75436 98.241 8.8277 98.7558 8.97404C99.2704 9.12071 99.689 9.34692 100.012 9.653C100.334 9.95949 100.564 10.342 100.701 10.8013C100.838 11.2607 100.907 11.7968 100.907 12.4089V16.1633ZM98.2718 13.8467H97.9836C97.8874 13.8467 97.7912 13.8537 97.6954 13.8668C97.3522 13.8936 97.0123 13.9335 96.6762 13.9865C96.3397 14.0399 96.0412 14.1331 95.7806 14.2662C95.5197 14.3994 95.307 14.5726 95.1423 14.7853C94.9776 14.9985 94.8952 15.2715 94.8952 15.6042C94.8952 15.977 95.005 16.2931 95.2246 16.5527C95.444 16.8124 95.8148 16.9422 96.3365 16.9422C96.5971 16.9422 96.8443 16.9092 97.0777 16.8422C97.311 16.776 97.5168 16.6894 97.6954 16.5828C97.8735 16.4763 98.0146 16.3599 98.1174 16.2332C98.2204 16.1069 98.2719 15.9905 98.2719 15.8838V13.8467H98.2718Z" fill="#044D80"/>
</svg>
