<svg width="114" height="114" viewBox="0 0 114 114" fill="none" xmlns="http://www.w3.org/2000/svg">
<g clip-path="url(#clip0_1685_12463)">
<path d="M59.9517 63.3911L58.6215 62.0987L58.2894 61.7761L57.9596 62.1011L57.8194 62.2393C55.622 64.4058 53.681 65.2894 51.1198 65.2894C50.0365 65.2944 48.9638 65.0749 47.9695 64.6448C46.9752 64.2146 46.0808 63.5832 45.3426 62.7902C43.7948 61.099 42.9512 58.8806 42.9842 56.5883V56.5288C42.9485 54.2529 43.7828 52.0492 45.3167 50.3676C46.0555 49.5778 46.9499 48.9496 47.9435 48.5226C48.9372 48.0957 50.0085 47.8793 51.09 47.887C52.324 47.8753 53.5464 48.1256 54.6764 48.6214C55.8064 49.1172 56.8184 49.8472 57.6453 50.7631L57.7894 50.9026L58.1284 51.2305L58.4574 50.8926L59.8433 49.4693L60.1835 49.1198L59.8239 48.7903L59.6711 48.6502C58.5641 47.508 57.2332 46.6066 55.7618 46.0025C54.2904 45.3984 52.71 45.1046 51.1198 45.1395C49.6326 45.1281 48.1591 45.4231 46.7908 46.006C45.4226 46.5888 44.189 47.4472 43.1669 48.5275C41.1246 50.7118 40.0008 53.598 40.0282 56.5883V56.6479C39.9911 59.6406 41.1141 62.5316 43.1616 64.7146C44.182 65.7777 45.4091 66.6209 46.7675 67.1923C48.1258 67.7637 49.5867 68.0511 51.0602 68.037C52.7054 68.0505 54.3349 67.7168 55.8423 67.0576C57.3497 66.3985 58.701 65.4287 59.8081 64.2116L59.9544 64.0672L60.2983 63.7278L59.9517 63.3911Z" fill="#151B26"/>
<path d="M82.9722 67.0079L73.0833 45.6222L72.9563 45.3477H70.6058L70.4789 45.6222L60.5899 67.0079L60.2793 67.6796H63.3757L63.5017 67.4021L66.0247 61.8459H77.4482L79.971 67.4021L80.0971 67.6796H83.2827L82.9722 67.0079ZM67.2945 59.0984L71.7497 49.3452L76.1807 59.0984H67.2945Z" fill="#151B26"/>
<path d="M96.6537 45.4971H80.1791H79.7051V45.9701V47.8008V48.2748H80.1791H86.9676V67.2066V67.6806H87.4407H89.3911H89.8641V67.2066V48.2748H96.6537H97.1267V47.8008V45.9701V45.4971H96.6537Z" fill="#151B26"/>
<path d="M112.17 57.4158C110.531 56.2184 108.623 55.4416 106.614 55.1537C102.426 54.2959 101.082 53.3499 101.082 51.2606V51.2011C101.082 49.3154 102.939 47.9467 105.497 47.9467C107.633 47.9052 109.703 48.6886 111.277 50.134L111.434 50.2702L111.805 50.5903L112.112 50.2087L113.351 48.6692L113.648 48.3002L113.279 48.0037L113.122 47.8775C111.03 46.0594 108.326 45.1023 105.556 45.1991C101.354 45.1991 98.1854 47.8433 98.1854 51.3499V51.4095C98.1467 52.2094 98.2933 53.0074 98.6137 53.7414C98.934 54.4754 99.4195 55.1255 100.032 55.641C101.721 56.8642 103.685 57.6518 105.75 57.9339C109.802 58.7493 111.103 59.6663 111.103 61.7077V61.7672C111.102 62.2383 110.992 62.7028 110.783 63.1248C110.573 63.5468 110.27 63.915 109.895 64.2008C108.912 64.9111 107.721 65.2733 106.509 65.23C105.202 65.2568 103.903 65.0114 102.695 64.5092C101.488 64.0071 100.398 63.2592 99.4954 62.3132L99.3434 62.173L98.9856 61.8429L98.6659 62.2098L97.3873 63.6763L97.0801 64.0287L97.4288 64.3401L97.5771 64.4726C99.9476 66.7605 103.125 68.0201 106.42 67.9774C108.36 68.0321 110.261 67.4203 111.806 66.2439C112.497 65.6884 113.053 64.9836 113.433 64.1825C113.813 63.3815 114.006 62.5048 113.999 61.6183V61.5588C114.033 60.7742 113.885 59.9923 113.568 59.2739C113.251 58.5554 112.773 57.9196 112.17 57.4158Z" fill="#151B26"/>
<path d="M32.5916 57.5356C32.2774 57.0365 31.8533 56.6158 31.3517 56.3056C30.8502 55.9953 30.2844 55.8038 29.6975 55.7455C28.4515 55.6161 27.236 54.38 26.5111 53.232L26.1961 52.7334L24.2862 49.677L23.9762 49.1753C23.2622 48.0205 22.684 46.3861 23.114 45.2095C23.3188 44.6565 23.3947 44.0639 23.3357 43.4771C23.2767 42.8904 23.0845 42.3248 22.7737 41.8236C22.2633 40.9894 21.4514 40.3837 20.5065 40.1321V40.1319L20.4994 40.1303C20.4428 40.1153 20.3858 40.1011 20.3282 40.0885C20.0607 40.0301 19.7876 40.0004 19.5137 40C19.1022 39.9999 18.6934 40.0675 18.3038 40.2001L18.2898 40.2047C18.2402 40.2218 18.1909 40.2396 18.1418 40.2587C18.1055 40.2728 18.0696 40.2881 18.0337 40.3033L18.0049 40.3154C17.9657 40.3324 17.9267 40.3502 17.8881 40.3686L17.8762 40.3744C17.7907 40.4155 17.706 40.4589 17.6234 40.5068C17.5889 40.5268 17.555 40.5475 17.5212 40.5685L17.5068 40.5772L17.4704 40.6007C17.4431 40.6181 17.4157 40.6354 17.3887 40.6535C17.312 40.7051 17.2384 40.7601 17.1663 40.8169L17.1437 40.8347C17.1131 40.8591 17.083 40.884 17.0532 40.9093L17.0146 40.9429C16.9899 40.9646 16.965 40.9861 16.9409 41.0084C16.9003 41.0457 16.8607 41.0839 16.822 41.1229L16.8205 41.1245C16.5279 41.418 16.286 41.7578 16.1044 42.1303C15.9848 42.3766 15.8917 42.6351 15.8269 42.9012C15.8126 42.9601 15.7999 43.0191 15.7884 43.0782L15.7878 43.0807C15.5998 44.0403 15.7883 45.0354 16.3143 45.8598C16.6285 46.3589 17.0525 46.7796 17.5541 47.0898C18.0557 47.4001 18.6214 47.5916 19.2083 47.6499C20.4544 47.7793 21.6699 49.0155 22.3948 50.1634L22.7103 50.6628L24.6192 53.7177L24.9297 54.2202C25.6437 55.375 26.2219 57.0094 25.7919 58.186C25.587 58.7391 25.5112 59.3316 25.5702 59.9184C25.6291 60.5052 25.8214 61.0707 26.1322 61.5719C26.6426 62.406 27.4543 63.0117 28.3992 63.2634L28.4017 63.264C28.4599 63.2795 28.5185 63.2941 28.5777 63.307C28.8453 63.3654 29.1183 63.395 29.3922 63.3955C29.8066 63.3956 30.2181 63.3271 30.6101 63.1928L30.6122 63.1921C30.6642 63.1743 30.7159 63.1556 30.7672 63.1355C30.7979 63.1236 30.8281 63.1106 30.8584 63.0979L30.9056 63.0779C30.9414 63.0623 30.977 63.0461 31.0123 63.0293L31.0381 63.0168C31.1208 62.9769 31.2026 62.9348 31.2825 62.8885C31.3106 62.8722 31.3382 62.8552 31.3658 62.8382L31.4029 62.8158L31.417 62.8067C31.4507 62.7855 31.4842 62.7641 31.5173 62.7419C31.5966 62.6886 31.6727 62.6316 31.7471 62.5727L31.7575 62.5645C31.791 62.5378 31.824 62.5106 31.8565 62.4828L31.8801 62.4623C31.9095 62.4367 31.939 62.4111 31.9675 62.3846C32.0062 62.349 32.044 62.3126 32.081 62.2753L32.0912 62.2647C32.3812 61.9727 32.6211 61.6349 32.8015 61.265C32.9212 61.0186 33.0142 60.7602 33.079 60.4941C33.093 60.4368 33.1052 60.3793 33.1165 60.3219L33.1181 60.3149L33.118 60.3148C33.306 59.3552 33.1175 58.36 32.5916 57.5356Z" fill="url(#paint0_linear_1685_12463)"/>
<path d="M27.7968 67.3475C27.4825 66.8484 27.0585 66.4277 26.5569 66.1174C26.0554 65.8072 25.4896 65.6156 24.9027 65.5573C23.6567 65.4279 22.4412 64.1918 21.7162 63.0438L21.4012 62.5453L13.3663 49.6867L13.0563 49.1851C12.3423 48.0302 11.7642 46.3959 12.1941 45.2192C12.399 44.6662 12.4748 44.0737 12.4158 43.4869C12.3569 42.9001 12.1647 42.3345 11.8538 41.8333C11.3434 40.9992 10.5316 40.3935 9.58664 40.1418V40.1417L9.57957 40.1401C9.52295 40.125 9.46597 40.1108 9.40837 40.0983C9.1408 40.0399 8.86775 40.0102 8.59388 40.0098C8.18233 40.0097 7.77358 40.0773 7.38397 40.2099L7.36995 40.2145C7.32033 40.2315 7.27099 40.2494 7.222 40.2685C7.18564 40.2826 7.14976 40.2978 7.11383 40.313L7.08504 40.3252C7.04581 40.3422 7.00689 40.3599 6.96827 40.3784L6.95639 40.3841C6.87083 40.4252 6.78618 40.4686 6.70358 40.5165C6.66906 40.5365 6.63513 40.5573 6.60136 40.5783L6.58696 40.587L6.55056 40.6105C6.52322 40.6279 6.4958 40.6451 6.4688 40.6633C6.39218 40.7148 6.31853 40.7699 6.2464 40.8267L6.22374 40.8445C6.19317 40.8689 6.163 40.8938 6.13324 40.9191L6.09464 40.9528C6.0699 40.9745 6.04501 40.996 6.0209 41.0183C5.98035 41.0556 5.94074 41.0937 5.90207 41.1328L5.90054 41.1344C5.60798 41.4278 5.36602 41.7677 5.18447 42.1401C5.0648 42.3865 4.97177 42.6449 4.90697 42.911C4.89261 42.9699 4.87998 43.029 4.86843 43.0881L4.8679 43.0905C4.6799 44.0501 4.86842 45.0452 5.39435 45.8696C5.70857 46.3687 6.13264 46.7894 6.6342 47.0997C7.13576 47.4099 7.70155 47.6015 8.28842 47.6598C9.53449 47.7891 10.75 49.0253 11.4749 50.1733L11.7904 50.6726L19.8243 63.5296L20.1348 64.0321C20.8488 65.1869 21.427 66.8213 20.9971 67.998C20.7922 68.551 20.7163 69.1435 20.7753 69.7303C20.8343 70.3171 21.0265 70.8826 21.3373 71.3838C21.8477 72.2179 22.6595 72.8236 23.6044 73.0753L23.6069 73.0758C23.6651 73.0913 23.7236 73.1059 23.7829 73.1188C24.0505 73.1772 24.3235 73.2069 24.5974 73.2073C25.0118 73.2074 25.4233 73.1389 25.8153 73.0046L25.8174 73.0039C25.8693 72.9861 25.9211 72.9674 25.9724 72.9473C26.0031 72.9354 26.0332 72.9225 26.0636 72.9097L26.1107 72.8898C26.1466 72.8742 26.1821 72.858 26.2175 72.8411L26.2433 72.8287C26.326 72.7887 26.4078 72.7467 26.4877 72.7004C26.5158 72.6841 26.5433 72.667 26.571 72.6501L26.6081 72.6277L26.6222 72.6185C26.6558 72.5974 26.6894 72.576 26.7225 72.5537C26.8018 72.5004 26.8779 72.4434 26.9523 72.3845L26.9627 72.3763C26.9962 72.3496 27.0292 72.3224 27.0617 72.2947L27.0853 72.2741C27.1147 72.2485 27.1441 72.223 27.1727 72.1965C27.2114 72.1608 27.2492 72.1244 27.2861 72.0872L27.2964 72.0766C27.5864 71.7845 27.8263 71.4468 28.0067 71.0768C28.1263 70.8305 28.2194 70.5721 28.2842 70.306C28.2981 70.2486 28.3103 70.1912 28.3217 70.1337L28.3233 70.1266L28.3232 70.1266C28.5112 69.167 28.3227 68.1718 27.7968 67.3475Z" fill="url(#paint1_linear_1685_12463)"/>
<path d="M16.8748 67.3569C16.5606 66.8578 16.1365 66.4371 15.635 66.1268C15.1334 65.8166 14.5676 65.625 13.9807 65.5667C12.7347 65.4373 11.5192 64.2012 10.7943 63.0532L10.4793 62.5547L8.5694 59.4982L8.25939 58.9966C7.5454 57.8418 6.96721 56.2074 7.39717 55.0308C7.60204 54.4777 7.67788 53.8852 7.61891 53.2984C7.55994 52.7116 7.36771 52.1461 7.0569 51.6449C6.5465 50.8107 5.73465 50.205 4.78969 49.9533V49.9532L4.78263 49.9516C4.72599 49.9366 4.66902 49.9224 4.61143 49.9098C4.34386 49.8514 4.07082 49.8217 3.79694 49.8213C3.3854 49.8212 2.97664 49.8888 2.58703 50.0214L2.57301 50.026C2.5234 50.043 2.47405 50.0609 2.42504 50.08C2.3887 50.0941 2.3528 50.1093 2.31689 50.1245L2.2881 50.1367C2.24887 50.1537 2.20995 50.1715 2.17132 50.1899L2.15945 50.1957C2.07388 50.2367 1.98924 50.2802 1.90663 50.328C1.8721 50.3481 1.83818 50.3688 1.80441 50.3898L1.79002 50.3985L1.75361 50.422C1.72626 50.4394 1.69885 50.4567 1.67185 50.4748C1.59523 50.5263 1.52157 50.5814 1.44944 50.6382L1.4269 50.656C1.39633 50.6804 1.36616 50.7053 1.33639 50.7306L1.2978 50.7642C1.27306 50.7859 1.24817 50.8074 1.22406 50.8297C1.18352 50.867 1.14391 50.9052 1.10523 50.9442L1.10369 50.9458C0.811137 51.2393 0.569178 51.5791 0.387631 51.9516C0.267956 52.1979 0.174926 52.4564 0.110122 52.7225C0.0957631 52.7814 0.083136 52.8404 0.0715875 52.8995L0.0710135 52.902C-0.116968 53.8616 0.0715461 54.8567 0.597472 55.6811C0.91169 56.1802 1.33575 56.6009 1.83731 56.9111C2.33886 57.2213 2.90465 57.4129 3.49152 57.4712C4.73759 57.6006 5.95308 58.8367 6.67803 59.9847L6.99353 60.4841L8.90243 63.539L9.21293 64.0415C9.92693 65.1963 10.5051 66.8307 10.0751 68.0073C9.87028 68.5604 9.79444 69.1529 9.85342 69.7397C9.91239 70.3265 10.1046 70.892 10.4154 71.3932C10.9258 72.2273 11.7376 72.833 12.6825 73.0847L12.6849 73.0853C12.7431 73.1008 12.8017 73.1153 12.861 73.1283C13.1285 73.1867 13.4016 73.2163 13.6754 73.2168C14.0898 73.2169 14.5013 73.1484 14.8933 73.0141L14.8954 73.0134C14.9474 72.9956 14.9991 72.9769 15.0504 72.9568C15.0811 72.9449 15.1113 72.9319 15.1416 72.9192L15.1888 72.8992C15.2246 72.8836 15.2602 72.8674 15.2955 72.8506L15.3214 72.8381C15.404 72.7982 15.4858 72.7561 15.5657 72.7098C15.5939 72.6935 15.6214 72.6765 15.649 72.6595L15.6861 72.6371L15.7003 72.628C15.7339 72.6068 15.7674 72.5854 15.8006 72.5632C15.8798 72.5099 15.9559 72.4529 16.0304 72.3939L16.0407 72.3858C16.0742 72.3591 16.1072 72.3319 16.1398 72.3041L16.1633 72.2836C16.1928 72.258 16.2222 72.2324 16.2508 72.2059C16.2894 72.1703 16.3271 72.1337 16.3642 72.0966L16.3745 72.086C16.6644 71.794 16.9044 71.4562 17.0847 71.0863C17.2044 70.8399 17.2974 70.5815 17.3622 70.3154C17.3762 70.2581 17.3884 70.2007 17.3997 70.1432L17.4013 70.1362L17.4013 70.1361C17.5893 69.1764 17.4008 68.1812 16.8748 67.3569Z" fill="url(#paint2_linear_1685_12463)"/>
</g>
<defs>
<linearGradient id="paint0_linear_1685_12463" x1="6.06432" y1="40.2073" x2="45.0343" y2="64.5584" gradientUnits="userSpaceOnUse">
<stop offset="0.03736" stop-color="#47C0F5"/>
<stop offset="0.9023" stop-color="#4B2B6E"/>
</linearGradient>
<linearGradient id="paint1_linear_1685_12463" x1="-9.87006" y1="254.867" x2="1058.86" y2="729.563" gradientUnits="userSpaceOnUse">
<stop offset="0.03736" stop-color="#47C0F5"/>
<stop offset="0.9023" stop-color="#4B2B6E"/>
</linearGradient>
<linearGradient id="paint2_linear_1685_12463" x1="-151.357" y1="315.876" x2="634.274" y2="682.504" gradientUnits="userSpaceOnUse">
<stop offset="0.03736" stop-color="#47C0F5"/>
<stop offset="0.9023" stop-color="#4B2B6E"/>
</linearGradient>
<clipPath id="clip0_1685_12463">
<rect width="114" height="33.2168" fill="white" transform="translate(0 40)"/>
</clipPath>
</defs>
</svg>
