<svg width="114" height="114" viewBox="0 0 114 114" fill="none" xmlns="http://www.w3.org/2000/svg">
<g clip-path="url(#clip0_1685_12505)">
<path d="M102.931 66.4812V53.6516H105.181V64.2442H114.001V66.496H102.931V66.4812ZM98.7758 66.4812L96.8258 63.2664H90.6458L91.7108 61.4294H95.7158L92.8208 56.5997L86.8658 66.4812H84.2708L91.8008 54.1701C91.9208 53.9479 92.0708 53.7997 92.2658 53.6516C92.4608 53.5331 92.6858 53.459 92.9108 53.459C93.1808 53.459 93.3758 53.5331 93.5558 53.6516C93.7058 53.7997 93.8558 53.9479 94.0208 54.1701L101.536 66.4812H98.7758ZM75.4358 62.9257V60.7182H80.6558C81.4508 60.7182 82.1108 60.5257 82.5308 60.0812C82.9958 59.6368 83.2208 59.0294 83.2208 58.2886C83.2208 57.5331 82.9958 56.9849 82.5308 56.5257C82.1108 56.0812 81.4658 55.8886 80.6558 55.8886H73.7558V66.4812H71.5058V53.6516H80.6558C81.4208 53.6516 82.1108 53.7701 82.6808 53.9479C83.2958 54.1701 83.7908 54.4664 84.1658 54.8812C84.5858 55.2516 84.8858 55.7405 85.1258 56.3034C85.3508 56.896 85.4258 57.5331 85.4258 58.2145C85.4258 58.9257 85.3508 59.5627 85.1258 60.1257C84.9008 60.6886 84.5858 61.2071 84.1658 61.6219C83.7908 62.0368 83.2808 62.3331 82.6808 62.5553C82.1108 62.8219 81.4208 62.9257 80.6558 62.9257H75.4358ZM66.8108 66.4812V53.6516H69.1058V66.496H66.8108V66.4812ZM57.0008 60.9108V58.9997H64.2458V60.9108H57.0008ZM53.0708 66.4812V53.6516H64.7108V55.8886H55.3208V64.2294H64.7408V66.4812H53.0708ZM44.1458 66.4812C43.2308 66.4812 42.3908 66.3331 41.6258 65.9923C40.8608 65.6516 40.1708 65.1627 39.6008 64.6145C39.0308 64.0219 38.6108 63.3405 38.2658 62.5257C37.9658 61.7405 37.8008 60.8812 37.8008 59.9479C37.8008 59.0145 37.9508 58.1553 38.2658 57.3701C38.6108 56.5849 39.0308 55.9034 39.6008 55.3849C40.1708 54.8219 40.8608 54.4071 41.6258 54.1108C42.3908 53.8145 43.2308 53.6664 44.1458 53.6664H51.2408V55.8886H44.1458C43.5758 55.8886 43.0358 55.9627 42.5408 56.1849C42.0458 56.3775 41.5808 56.6738 41.2508 57.0442C40.8758 57.4145 40.6058 57.8294 40.4108 58.3479C40.1858 58.8368 40.1108 59.3997 40.1108 60.0368C40.1108 60.6294 40.1858 61.1923 40.4108 61.6812C40.6058 62.1997 40.8758 62.659 41.2508 63.0294C41.5958 63.3997 42.0458 63.696 42.5408 63.9331C43.0358 64.1257 43.5758 64.2294 44.1458 64.2294H51.2408V66.4812H44.1458Z" fill="#23356E"/>
<path fill-rule="evenodd" clip-rule="evenodd" d="M22.8741 57.6811C21.6741 57.9182 20.8341 58.8515 20.7891 60.1256C21.7791 60.6589 22.4241 61.7404 22.4841 62.9108C22.5891 62.6737 22.7391 62.4663 22.8291 62.2293L23.0841 61.6959L23.5791 62.0367C24.1191 62.4219 24.7191 62.7626 25.4241 62.8663C25.7241 62.9108 26.0691 62.9108 26.3691 62.8663V60.1256C26.3691 58.9108 25.4691 57.8885 24.2841 57.6811C24.9291 57.4441 25.3341 56.8071 25.3341 56.1256C25.3341 55.1478 24.5841 54.4219 23.6391 54.4219C22.6491 54.4219 21.8991 55.1478 21.8991 56.1256C21.8241 56.8515 22.2741 57.4441 22.8741 57.6811Z" fill="#159BD7"/>
<path fill-rule="evenodd" clip-rule="evenodd" d="M13.2745 57.6811C12.0745 57.9182 11.1895 58.8959 11.1895 60.1256V62.2737C11.2945 62.5108 11.4895 62.8071 11.7295 62.9997C11.8795 63.1034 12.0745 63.2367 12.2695 63.2959C12.6595 63.4441 13.0645 63.4885 13.5145 63.3997C14.0095 63.2959 14.4595 63.1626 14.8645 62.8663L15.0595 62.7626C15.1645 61.6811 15.7495 60.6737 16.6495 60.1256C16.6495 58.9552 15.7495 57.933 14.5645 57.6811C15.2095 57.4441 15.6595 56.8071 15.6595 56.1256C15.6595 55.1478 14.8645 54.4219 13.9195 54.4219C12.9745 54.4219 12.1795 55.1478 12.1795 56.1256C12.1795 56.8515 12.6295 57.4441 13.2745 57.6811Z" fill="#74AA4E"/>
<path fill-rule="evenodd" clip-rule="evenodd" d="M17.9998 60.022C16.6048 60.259 15.5098 61.3849 15.4648 62.8072L15.5698 63.0442C16.3198 64.2146 17.5648 65.0887 19.0048 65.0887C19.3948 65.0887 19.7548 64.9849 20.0998 64.8961C20.9398 64.659 21.6448 64.0664 22.1398 63.3849V62.9998C22.1398 61.4887 21.0448 60.2738 19.6048 60.022C20.3548 59.7257 20.9548 58.9405 20.9548 58.0664C20.9548 56.8961 20.0098 55.9775 18.8248 55.9775C17.6248 55.9775 16.6948 56.9109 16.6948 58.0664C16.6498 58.9553 17.2048 59.7257 17.9998 60.022Z" fill="#F99D22"/>
<path d="M27.645 67H5.07C2.28 67 0 64.763 0 62.0222C0 59.4148 2.07 57.2519 4.68 57.0593C5.13 53.7407 8.07 51.1481 11.535 51.1481C12.21 51.1481 12.87 51.237 13.5 51.4C14.79 48.7037 17.49 47 20.58 47C24.885 47 28.38 50.437 28.38 54.6593C28.38 54.6889 28.38 54.7185 28.38 54.7481C31.5 55.0889 33.945 57.6963 33.945 60.8519C33.9 64.2444 31.065 67 27.645 67ZM5.07 58.5111C3.105 58.5111 1.485 60.0815 1.485 62.0222C1.485 63.963 3.09 65.5333 5.07 65.5333H27.645C30.3 65.5333 32.43 63.4741 32.46 60.837C32.46 58.2593 30.315 56.1704 27.69 56.1704H26.715L26.865 55.3259C26.91 55.0889 26.91 54.8963 26.91 54.6741C26.91 51.2519 24.075 48.4815 20.595 48.4815C17.895 48.4815 15.555 50.0963 14.64 52.5852L14.37 53.2963L13.65 53C13.005 52.7481 12.285 52.6148 11.535 52.6148C8.64 52.6148 6.195 54.9407 6.12 57.8L6.09 58.5111H5.07Z" fill="#23356E"/>
</g>
<defs>
<clipPath id="clip0_1685_12505">
<rect width="114" height="20" fill="white" transform="translate(0 47)"/>
</clipPath>
</defs>
</svg>
