<svg width="114" height="114" viewBox="0 0 114 114" fill="none" xmlns="http://www.w3.org/2000/svg">
<g clip-path="url(#clip0_1685_12582)">
<path d="M77.0945 48.1869C77.3108 48.1869 77.5222 48.252 77.702 48.374C77.8819 48.496 78.022 48.6694 78.1048 48.8722C78.1875 49.0751 78.2092 49.2983 78.167 49.5137C78.1248 49.729 78.0207 49.9268 77.8677 50.0821C77.7148 50.2373 77.52 50.3431 77.3078 50.3859C77.0957 50.4287 76.8758 50.4068 76.676 50.3227C76.4762 50.2387 76.3054 50.0964 76.1853 49.9138C76.0651 49.7313 76.001 49.5166 76.001 49.2971C76.0002 49.1511 76.028 49.0064 76.0827 48.8713C76.1374 48.7363 76.2179 48.6136 76.3196 48.5104C76.4213 48.4072 76.5421 48.3254 76.6751 48.2699C76.8082 48.2144 76.9507 48.1861 77.0945 48.1869ZM77.0945 47.9541C76.8363 47.9541 76.5839 48.0318 76.3692 48.1775C76.1546 48.3231 75.9872 48.5301 75.8884 48.7722C75.7896 49.0144 75.7638 49.2809 75.8141 49.538C75.8645 49.795 75.9888 50.0312 76.1714 50.2165C76.354 50.4019 76.5866 50.5281 76.8398 50.5792C77.093 50.6304 77.3555 50.6041 77.5941 50.5038C77.8326 50.4035 78.0365 50.2337 78.1799 50.0157C78.3234 49.7978 78.3999 49.5415 78.3999 49.2794C78.3977 48.9286 78.2594 48.5929 78.0151 48.3448C77.7707 48.0968 77.44 47.9564 77.0945 47.9541Z" fill="#1E1E29"/>
<path d="M76.8463 49.4411V50.068H76.5996V48.4923H77.0408C77.1953 48.4808 77.3495 48.5184 77.482 48.5998C77.5324 48.6394 77.5719 48.6916 77.5965 48.7512C77.6212 48.8108 77.6302 48.8759 77.6228 48.9402C77.6237 49.0326 77.595 49.1228 77.5409 49.1971C77.4868 49.2714 77.4104 49.3258 77.3231 49.352L77.7643 50.0504H77.482L77.1112 49.4234L76.8463 49.4411ZM76.8463 49.2444H77.0226C77.1157 49.2462 77.2075 49.2215 77.2875 49.173C77.3411 49.1216 77.3729 49.0511 77.3761 48.9763C77.3785 48.9386 77.3717 48.901 77.3562 48.8666C77.3408 48.8323 77.3172 48.8024 77.2875 48.7796C77.2491 48.7532 77.2059 48.7348 77.1604 48.7256C77.1149 48.7163 77.0681 48.7164 77.0226 48.7259H76.8463V49.2444Z" fill="#1E1E29"/>
<path d="M9.19105 64.485C10.2654 64.4811 11.3277 64.2555 12.3135 63.8219C13.27 63.432 14.1186 62.8116 14.786 62.0142L16.0211 63.3395C15.1329 64.2625 14.07 64.9934 12.8962 65.4884C11.694 66.0001 10.4046 66.2679 9.10091 66.2766C7.86828 66.2789 6.6466 66.0419 5.50167 65.5783C4.41982 65.1237 3.43741 64.4559 2.61118 63.6137C1.78495 62.7714 1.13128 61.7714 0.687919 60.6712C0.231502 59.5337 -0.00215545 58.3168 1.49829e-05 57.0886C-0.00212968 55.8489 0.231444 54.6205 0.687919 53.4707C1.13502 52.3696 1.79226 51.3691 2.62181 50.5269C3.45136 49.6848 4.43682 49.0175 5.52144 48.5636C6.66166 48.0842 7.88671 47.8476 9.12068 47.8685C10.4472 47.8686 11.7604 48.1366 12.984 48.6567C14.1474 49.1486 15.1975 49.8803 16.0677 50.8056L14.7979 52.1703C14.0986 51.3687 13.2302 50.7376 12.2574 50.324C11.2649 49.8921 10.1973 49.6666 9.11752 49.661C8.1465 49.6579 7.1854 49.8591 6.29474 50.2518C5.44631 50.6288 4.67458 51.1632 4.01912 51.8275C3.38565 52.5142 2.87344 53.3066 2.50494 54.1699C2.13076 55.0893 1.9446 56.0763 1.95778 57.0709C1.95493 58.0647 2.14071 59.0496 2.50494 59.972C2.87409 60.8366 3.3874 61.6301 4.02228 62.3176C4.67775 62.9819 5.44947 63.5163 6.2979 63.8933C7.21108 64.2933 8.19658 64.4948 9.19105 64.485Z" fill="#1E1E29"/>
<path d="M18.6305 66.0267V53.2745H20.4831V55.0831C20.8231 54.4471 21.3299 53.9192 21.9475 53.5579C22.5704 53.1953 23.2757 53.0038 23.9938 53.0024C24.2003 52.9966 24.4069 53.0087 24.6113 53.0385C24.7986 53.073 24.9819 53.1268 25.1585 53.1991V54.9185C24.9451 54.8482 24.7268 54.7945 24.5054 54.758C24.2913 54.7077 24.072 54.6837 23.8522 54.6865C23.1188 54.6864 22.4036 54.9181 21.8059 55.3496C21.1708 55.855 20.698 56.5407 20.4475 57.3195V66.0773H18.6289V66.0235L18.6305 66.0267Z" fill="#1E1E29"/>
<path d="M37.0111 64.6837C35.6551 65.7218 33.9992 66.2758 32.3009 66.2595C31.4466 66.2669 30.5993 66.1013 29.8087 65.7723C29.0182 65.4432 28.3002 64.9575 27.6967 64.3434C27.1033 63.743 26.6406 63.023 26.3383 62.2298C25.8491 61.0147 25.7121 59.6831 25.9434 58.3916C26.1747 57.1002 26.7646 55.9027 27.6437 54.9402C28.2093 54.3467 28.8799 53.8665 29.6205 53.525C30.3887 53.1853 31.2171 53.0086 32.055 53.0056C32.8701 52.992 33.6778 53.1634 34.4192 53.5073C35.1326 53.8507 35.7735 54.3313 36.3066 54.9226C36.8404 55.5322 37.2591 56.2364 37.5417 57C37.8615 57.8265 38.0173 58.709 38.0003 59.5968V60.1877H27.6422C27.7467 61.3942 28.3021 62.5143 29.1943 63.3183C30.0634 64.1441 31.2151 64.5938 32.4053 64.5722C33.0477 64.5733 33.6857 64.4647 34.2927 64.2511C34.8584 64.0655 35.3849 63.7739 35.8448 63.3913L37.0111 64.6837ZM31.9831 54.7259C30.9324 54.7098 29.918 55.1154 29.1603 55.8545C28.3647 56.6078 27.8584 57.6234 27.7315 58.7203H36.1643C36.0253 57.6375 35.5202 56.6373 34.7355 55.8906C34.3752 55.5217 33.9464 55.2289 33.474 55.0291C33.0016 54.8293 32.4948 54.7265 31.9831 54.7267V54.7259Z" fill="#1E1E29"/>
<path d="M42.4288 47.7402V66.0264H40.5762V48.1697L42.4288 47.7402Z" fill="#1E1E29"/>
<path d="M49.574 66.2592C48.3701 66.3112 47.1856 65.9379 46.2223 65.2028C45.4999 64.5875 45.0476 63.7062 44.9649 62.7525C44.8822 61.7988 45.1757 60.8508 45.7811 60.1168C45.9396 59.9259 46.1168 59.7519 46.31 59.5974C47.3791 58.8314 48.6737 58.4587 49.9797 58.541C50.6334 58.5378 51.285 58.616 51.92 58.7738C52.522 58.9208 53.1074 59.1309 53.6667 59.4007V57.715C53.7031 57.2903 53.6459 56.8626 53.4995 56.4631C53.353 56.0635 53.1209 55.702 52.8198 55.4047C52.1171 54.848 51.2398 54.5681 50.3497 54.6165C49.7227 54.6153 49.0987 54.7059 48.4971 54.8854C47.7775 55.1191 47.0758 55.4065 46.3978 55.7451L45.7099 54.2946C46.5152 53.8842 47.3609 53.5613 48.233 53.3313C48.9889 53.1355 49.7643 53.0278 50.5442 53.0102C51.8609 52.9295 53.1626 53.3299 54.2138 54.1388C54.6496 54.5606 54.9892 55.0742 55.2086 55.6435C55.428 56.2128 55.5219 56.824 55.4837 57.434V66.0256H53.6311V64.7726C52.4839 65.7213 51.0529 66.2456 49.5733 66.2592H49.574ZM46.7165 62.3724C46.7199 62.7169 46.8012 63.0559 46.9542 63.3634C47.1072 63.6709 47.3278 63.9385 47.5989 64.1457C48.2691 64.6058 49.0659 64.8379 49.8745 64.8087C50.5724 64.8166 51.2658 64.6953 51.9208 64.4507C52.5602 64.1971 53.138 63.806 53.6145 63.3044V60.9219C53.1086 60.5662 52.5472 60.2997 51.954 60.1336C51.3083 59.9669 50.6435 59.8886 49.9773 59.9008C49.1288 59.8598 48.2892 60.0919 47.5783 60.5639C47.3047 60.7754 47.0841 61.0493 46.9342 61.3635C46.7843 61.6777 46.7095 62.0234 46.7157 62.3724H46.7165Z" fill="#1E1E29"/>
<path d="M59.6291 63.1952V54.8862H56.9297V53.2743H59.6291V50.0144L61.4477 49.5488V53.2743H65.243V54.8862H61.4477V62.7304C61.423 62.9912 61.4509 63.2543 61.5298 63.5037C61.6086 63.7531 61.7367 63.9835 61.9063 64.181C62.3192 64.5152 62.8458 64.6696 63.3707 64.6104C63.6833 64.6044 63.9953 64.5806 64.3053 64.539C64.6058 64.4889 64.9012 64.411 65.1877 64.3062V65.9542C64.8421 66.0846 64.4795 66.163 64.1116 66.187C63.7233 66.2231 63.3351 66.2584 62.9469 66.2584C62.0448 66.3178 61.1528 66.0371 60.4419 65.4702C60.1626 65.166 59.9467 64.8077 59.807 64.4168C59.6673 64.0259 59.6068 63.6104 59.6291 63.1952Z" fill="#1E1E29"/>
<path d="M77.4283 64.6837C76.7662 65.2 76.0197 65.594 75.2231 65.8476C74.4158 66.1206 73.569 66.2539 72.7181 66.2418C71.8635 66.25 71.0157 66.0851 70.2246 65.7566C69.4335 65.4282 68.7148 64.9428 68.1108 64.3289C67.5174 63.7285 67.0546 63.0085 66.7524 62.2153C66.2632 61.0002 66.1262 59.6686 66.3575 58.3771C66.5888 57.0857 67.1787 55.8882 68.0578 54.9257C68.6234 54.3322 69.294 53.852 70.0345 53.5105C70.8001 53.1645 71.6312 52.9932 72.4691 53.0088C73.2841 52.9951 74.0919 53.1665 74.8333 53.5105C75.5466 53.8539 76.1876 54.3345 76.7206 54.9257C77.2545 55.5353 77.6732 56.2396 77.9557 57.0032C78.2755 57.8297 78.4314 58.7122 78.4143 59.6V60.1908H68.0965C68.2011 61.3973 68.7565 62.5174 69.6487 63.3214C70.5178 64.1472 71.6695 64.597 72.8597 64.5753C73.5005 64.5733 74.1372 64.4707 74.7471 64.2711C75.3128 64.0855 75.8393 63.7939 76.2992 63.4113L77.4283 64.6837ZM72.4003 54.7258C71.3496 54.7098 70.3352 55.1154 69.5775 55.8545C68.7819 56.6077 68.2756 57.6233 68.1487 58.7202H76.5815C76.4348 57.6399 75.9311 56.6421 75.1527 55.8906C74.7924 55.5216 74.3636 55.2288 73.8912 55.029C73.4188 54.8293 72.9121 54.7265 72.4003 54.7266V54.7258Z" fill="#1E1E29"/>
<path d="M90.3613 45H114.002V69H90.3613V45Z" fill="#008EEC"/>
<path d="M100.064 67.2259C99.6404 67.2615 99.2145 67.2065 98.8135 67.0647C98.4124 66.9228 98.045 66.6972 97.7351 66.4023C97.1877 65.7443 96.9098 64.8982 96.9586 64.0383C97.0609 62.1651 97.7327 60.3702 98.8816 58.9008C100.17 57.0546 101.405 56.125 102.622 56.125C102.922 56.1392 103.215 56.2283 103.473 56.3846C103.731 56.5408 103.948 56.7594 104.103 57.0208C104.501 57.5528 104.723 58.1993 104.736 58.8671C104.795 59.2916 104.687 59.7224 104.436 60.0672C104.272 60.2474 104.045 60.3564 103.804 60.3714C103.171 60.3714 102.886 59.9596 102.763 59.0999C102.728 58.4577 102.534 58.1688 102.289 58.1688C101.814 58.1688 101.142 58.8495 100.366 60.2639C99.6778 61.3693 99.2716 62.6311 99.1837 63.9356C99.1686 64.1127 99.1931 64.2909 99.2553 64.4571C99.3176 64.6232 99.4159 64.773 99.5431 64.8952C99.6702 65.0174 99.8228 65.1089 99.9897 65.1629C100.156 65.2169 100.333 65.232 100.506 65.2071C101.604 65.1652 102.663 64.784 103.541 64.1146C103.86 63.8239 104.261 63.6422 104.688 63.5952C105.059 63.5952 105.199 63.7381 105.199 64.1146C105.199 64.5962 104.635 65.2071 103.539 65.9954C102.546 66.7835 101.324 67.2162 100.064 67.2259Z" fill="white"/>
<path d="M114 56.9467C113.668 56.7697 113.299 56.6774 112.924 56.6777C112.429 56.7277 111.95 56.8807 111.515 57.1272C111.081 57.3738 110.702 57.7085 110.401 58.1106C109.426 59.2337 108.606 60.4872 107.966 61.8361L107.825 62.1403L108.09 60.6713C108.125 60.2729 108.215 59.8813 108.355 59.5074C108.558 58.9094 108.694 58.2901 108.76 57.6611C108.751 57.4216 108.657 57.1934 108.495 57.0189C108.354 56.7861 108.09 56.7147 107.719 56.7147C107.4 56.717 107.091 56.8237 106.837 57.0189C106.625 57.1948 106.451 57.4134 106.326 57.6611C106.204 58.0753 106.127 58.5016 106.096 58.9326C106.096 59.0755 106.062 59.3091 106.062 59.5748C105.956 60.6312 105.832 61.527 105.832 62.3153C105.832 63.1036 105.797 63.7482 105.797 64.1616C105.767 64.9706 105.856 65.7796 106.062 66.5617C106.106 66.7751 106.221 66.9665 106.388 67.1035C106.555 67.2406 106.764 67.3149 106.979 67.3139C107.338 67.3296 107.692 67.2225 107.985 67.0097C108.275 66.721 108.445 66.3297 108.459 65.9171C108.667 64.1273 109.343 62.4266 110.418 60.9916C111.494 59.5411 112.27 58.7889 112.746 58.7889C112.887 58.7889 113.046 58.8965 113.258 59.0931C113.478 59.2877 113.729 59.4449 113.999 59.5587V56.9467H114Z" fill="white"/>
</g>
<defs>
<clipPath id="clip0_1685_12582">
<rect width="114" height="24" fill="white" transform="translate(0 45)"/>
</clipPath>
</defs>
</svg>
