<svg width="114" height="114" viewBox="0 0 114 114" fill="none" xmlns="http://www.w3.org/2000/svg">
<g clip-path="url(#clip0_1053_87534)">
<path d="M107.611 64.1648C107.611 62.4736 108.989 61.1582 110.618 61.1582C112.309 61.1582 113.625 62.5362 113.625 64.1648C113.625 65.7934 112.246 67.1714 110.618 67.1714C108.989 67.1714 107.611 65.856 107.611 64.1648Z" fill="#86BC25"/>
<path d="M17.2879 56.0845C17.2879 59.5922 16.411 62.2229 14.5319 64.1021C12.6527 65.9812 10.022 66.9207 6.63956 66.9207H0V46.0625H7.01538C10.3352 46.0625 12.8407 46.8768 14.5945 48.6306C16.411 50.3218 17.2879 52.8273 17.2879 56.0845ZM11.5253 56.2724C11.5253 54.3306 11.1495 52.9526 10.3978 52.0131C9.70879 51.1361 8.51868 50.635 7.01538 50.635H5.51209V62.2856H6.76484C8.45604 62.2856 9.64615 61.7845 10.4604 60.7823C11.1495 59.7801 11.5253 58.2768 11.5253 56.2724Z" fill="#0F0B0B"/>
<path d="M40.7145 46H35.5156V66.9209H40.7145V46Z" fill="#0F0B0B"/>
<path d="M57.8771 59.0918C57.8771 61.5973 57.2507 63.6017 55.8727 65.0423C54.4947 66.483 52.6156 67.172 50.2354 67.172C47.9178 67.172 46.1013 66.483 44.7233 64.9797C43.3453 63.4764 42.6562 61.5347 42.6562 59.0918C42.6562 56.5863 43.2826 54.5819 44.6606 53.2039C46.0387 51.7632 47.9178 51.0742 50.298 51.0742C51.8013 51.0742 53.1167 51.3874 54.2442 52.0138C55.4343 52.6402 56.2486 53.5797 56.8749 54.7698C57.6266 56.0852 57.8771 57.4632 57.8771 59.0918ZM48.0431 59.0918C48.0431 60.4698 48.231 61.4094 48.5442 62.0984C48.8573 62.7874 49.4211 63.1006 50.298 63.1006C51.1749 63.1006 51.676 62.7874 52.0519 62.0984C52.365 61.4094 52.553 60.3445 52.553 59.0918C52.553 57.7138 52.365 56.7742 52.0519 56.0852C51.7387 55.4588 51.1749 55.083 50.298 55.083C49.5464 55.083 48.92 55.3962 48.5442 56.0852C48.231 56.7742 48.0431 57.7138 48.0431 59.0918Z" fill="#0F0B0B"/>
<path d="M65.2048 51.3242H60.0059V66.8583H65.2048V51.3242Z" fill="#0F0B0B"/>
<path d="M65.2048 46H60.0059V49.5077H65.2048V46Z" fill="#0F0B0B"/>
<path d="M75.7903 62.9128C76.4793 62.9128 77.3562 62.7249 78.2958 62.4117V66.3579C77.6068 66.671 76.9178 66.859 76.2914 66.9842C75.665 67.1095 74.9134 67.1721 74.0365 67.1721C72.2826 67.1721 71.0299 66.7337 70.2156 65.7941C69.4639 64.9172 69.0255 63.5392 69.0255 61.7227V55.3337H67.209V51.3249H69.0255V47.4414L74.287 46.5645V51.4502H77.6694V55.3963H74.287V61.4095C74.4123 62.4743 74.8507 62.9128 75.7903 62.9128Z" fill="#0F0B0B"/>
<path d="M87.9426 62.9128C88.6317 62.9128 89.5086 62.7249 90.4481 62.4117V66.3579C89.7591 66.671 89.0701 66.859 88.4437 66.9842C87.8174 67.1095 87.0657 67.1721 86.1888 67.1721C84.435 67.1721 83.1822 66.7337 82.3679 65.7941C81.6163 64.9172 81.1778 63.5392 81.1778 61.7227V55.3337H79.3613V51.3249H81.1778V47.3787L86.4394 46.5645V51.4502H89.8218V55.3963H86.4394V61.4095C86.502 62.4743 87.0031 62.9128 87.9426 62.9128Z" fill="#0F0B0B"/>
<path d="M104.479 52.8907C103.226 51.638 101.473 51.0742 99.2177 51.0742C96.8374 51.0742 94.9583 51.7632 93.6429 53.2039C92.3275 54.6445 91.7012 56.6489 91.7012 59.2797C91.7012 61.7852 92.3902 63.7896 93.7682 65.1676C95.2089 66.5456 97.1506 67.2347 99.6561 67.2347C100.909 67.2347 101.911 67.172 102.788 66.9841C103.602 66.7962 104.542 66.5456 105.293 66.1072L104.542 62.5995C103.978 62.85 103.352 63.038 102.851 63.1632C102.099 63.3511 101.222 63.4138 100.345 63.4138C99.3429 63.4138 98.5286 63.1632 97.9649 62.7248C97.4012 62.2237 97.088 61.5347 97.088 60.6577H106.421V58.2149C106.358 55.8973 105.669 54.1434 104.479 52.8907ZM97.088 57.2127C97.1506 56.3984 97.4012 55.7094 97.777 55.3336C98.1528 54.9577 98.6539 54.7698 99.3429 54.7698C99.9693 54.7698 100.596 54.9577 100.972 55.3962C101.347 55.8347 101.535 56.3984 101.598 57.2127H97.088Z" fill="#0F0B0B"/>
<path d="M31.6315 52.8907C30.3162 51.638 28.6249 51.0742 26.37 51.0742C23.9898 51.0742 22.1107 51.7632 20.7953 53.2039C19.4799 54.6445 18.8535 56.6489 18.8535 59.2797C18.8535 61.7852 19.5425 63.7896 20.9205 65.1676C22.3612 66.5456 24.303 67.2347 26.8085 67.2347C28.0612 67.2347 29.0634 67.172 29.9403 66.9841C30.7546 66.7962 31.6942 66.5456 32.4458 66.1072L31.6942 62.5369C31.1304 62.7874 30.5041 62.9753 30.003 63.1006C29.2513 63.2885 28.3744 63.3511 27.4975 63.3511C26.4953 63.3511 25.681 63.1006 25.1172 62.6621C24.5535 62.161 24.2403 61.472 24.2403 60.5951H33.5733V58.2149C33.5107 55.8973 32.8216 54.1434 31.6315 52.8907ZM24.1777 57.2127C24.2403 56.3984 24.4909 55.7094 24.8667 55.3336C25.2425 54.9577 25.7436 54.7698 26.4326 54.7698C27.1216 54.7698 27.6854 54.9577 28.0612 55.3962C28.437 55.8347 28.6249 56.3984 28.6876 57.2127H24.1777Z" fill="#0F0B0B"/>
</g>
<defs>
<clipPath id="clip0_1053_87534">
<rect width="114" height="21.2967" fill="white" transform="translate(0 46)"/>
</clipPath>
</defs>
</svg>
