<svg width="114" height="114" viewBox="0 0 114 114" fill="none" xmlns="http://www.w3.org/2000/svg">
<g clip-path="url(#clip0_1053_87729)">
<path d="M21.9918 55.2049H12.4217C12.303 55.205 12.1893 55.2522 12.1054 55.3361C12.0216 55.42 11.9744 55.5338 11.9744 55.6524V60.3312C11.9744 60.5783 12.1748 60.779 12.4217 60.779H16.155V66.5925C16.155 66.5925 15.3167 66.878 12.9991 66.878C10.2649 66.878 6.44548 65.8792 6.44548 57.4801C6.44548 49.0791 10.4228 47.9738 14.1566 47.9738C17.3889 47.9738 18.7814 48.5429 19.6673 48.8171C19.9457 48.9019 20.2033 48.625 20.2033 48.3781L21.2709 43.8572C21.2709 43.7415 21.2317 43.6023 21.1001 43.5079C20.7404 43.2511 18.5452 42.0227 12.9991 42.0227C6.61053 42.0227 0.0568848 44.7411 0.0568848 57.8076C0.0568848 70.8743 7.56005 72.8215 13.883 72.8215C19.1181 72.8215 22.2939 70.5843 22.2939 70.5843C22.4248 70.5122 22.439 70.3291 22.439 70.2454V55.6524C22.4391 55.5937 22.4275 55.5355 22.4051 55.4812C22.3826 55.4269 22.3496 55.3776 22.3081 55.336C22.2666 55.2945 22.2173 55.2615 22.163 55.239C22.1087 55.2165 22.0505 55.2049 21.9918 55.2049M71.312 43.5883C71.3126 43.5296 71.3015 43.4713 71.2794 43.4168C71.2574 43.3624 71.2247 43.3129 71.1835 43.271C71.1422 43.2292 71.0931 43.196 71.0389 43.1733C70.9847 43.1505 70.9266 43.1387 70.8679 43.1385H65.4793C65.4205 43.1387 65.3623 43.1505 65.308 43.1733C65.2538 43.196 65.2045 43.2292 65.1631 43.271C65.1217 43.3128 65.0889 43.3623 65.0666 43.4167C65.0443 43.4712 65.033 43.5295 65.0332 43.5883L65.0344 54.0022H56.6353V43.5883C56.6353 43.3393 56.4371 43.1385 56.1905 43.1385H50.8021C50.6835 43.1392 50.57 43.187 50.4866 43.2713C50.4032 43.3557 50.3567 43.4697 50.3572 43.5883V71.7854C50.3572 72.0339 50.5572 72.2365 50.8021 72.2365H56.1905C56.4371 72.2365 56.6353 72.0339 56.6353 71.7854V59.7244H65.0344L65.0199 71.7854C65.0199 72.0339 65.2194 72.2365 65.4665 72.2365H70.8674C71.114 72.2365 71.3113 72.0339 71.3118 71.7854L71.312 43.5883ZM32.1602 47.2884C32.1602 45.3484 30.6045 43.7804 28.6853 43.7804C26.768 43.7804 25.2112 45.3484 25.2112 47.2884C25.2112 49.2268 26.768 50.7991 28.6853 50.7991C30.6045 50.7991 32.1602 49.2268 32.1602 47.2884ZM31.7748 65.8374V52.8214C31.7748 52.5746 31.5756 52.3725 31.329 52.3725H25.9577C25.7111 52.3725 25.4906 52.6263 25.4906 52.8736V71.5215C25.4906 72.0693 25.8321 72.2324 26.2741 72.2324H31.1137C31.6446 72.2324 31.7748 71.9716 31.7748 71.5127V65.8374ZM91.7909 52.4147H86.4438C86.1984 52.4147 85.9989 52.6168 85.9989 52.8658V66.6914C85.9989 66.6914 84.6401 67.6855 82.7121 67.6855C80.7842 67.6855 80.2724 66.8104 80.2724 64.9228V52.8655C80.2724 52.6165 80.0732 52.4145 79.8278 52.4145H74.4008C74.1561 52.4145 73.9552 52.6165 73.9552 52.8655V65.8353C73.9552 71.4427 77.0805 72.8148 81.3796 72.8148C84.9071 72.8148 87.7509 70.866 87.7509 70.866C87.7509 70.866 87.8861 71.8931 87.9478 72.0147C88.0087 72.1361 88.1683 72.259 88.3409 72.259L91.7935 72.2438C92.0382 72.2438 92.2388 72.0413 92.2388 71.7935L92.2369 52.8655C92.2369 52.6165 92.0373 52.4145 91.7909 52.4145M104.297 67.6684C102.442 67.6117 101.184 66.7703 101.184 66.7703V57.8408C101.184 57.8408 102.425 57.08 103.948 56.9441C105.873 56.7717 107.729 57.3532 107.729 61.9469C107.729 66.7905 106.892 67.7467 104.297 67.6684M106.406 51.7813C103.369 51.7813 101.303 53.1366 101.303 53.1366V43.5883C101.303 43.3393 101.104 43.1385 100.858 43.1385H95.4545C95.3957 43.1388 95.3376 43.1506 95.2834 43.1734C95.2292 43.1962 95.1801 43.2294 95.1388 43.2712C95.0974 43.313 95.0647 43.3625 95.0425 43.4169C95.0203 43.4713 95.009 43.5295 95.0094 43.5883V71.7854C95.0094 72.0344 95.2088 72.2367 95.4552 72.2367H99.2044C99.3732 72.2367 99.5011 72.1494 99.5957 71.9969C99.6889 71.8454 99.8233 70.6972 99.8233 70.6972C99.8233 70.6972 102.033 72.7909 106.216 72.7909C111.127 72.7909 113.943 70.3 113.943 61.6085C113.943 52.9172 109.445 51.7813 106.406 51.7813M47.2618 52.3699H43.2198L43.2136 47.0297C43.2136 46.8277 43.1097 46.7266 42.8757 46.7266H37.3676C37.1537 46.7266 37.0384 46.821 37.0384 47.0269V52.5452C37.0384 52.5452 34.2781 53.2113 34.0917 53.2654C33.9986 53.2923 33.9167 53.3488 33.8584 53.4263C33.8002 53.5038 33.7687 53.5981 33.7687 53.6951V57.1628C33.7687 57.4118 33.9679 57.6133 34.2143 57.6133H37.0387V65.9555C37.0387 72.1516 41.3848 72.7603 44.3175 72.7603C45.6578 72.7603 47.2609 72.3299 47.5255 72.2322C47.6856 72.1734 47.7788 72.0078 47.7788 71.8281L47.7833 68.0134C47.7833 67.7644 47.573 67.5629 47.3365 67.5629C47.1008 67.5629 46.4982 67.6589 45.8779 67.6589C43.8925 67.6589 43.2195 66.736 43.2195 65.5412V57.6131H47.2618C47.3207 57.6128 47.379 57.601 47.4332 57.5782C47.4875 57.5554 47.5368 57.5221 47.5782 57.4802C47.6196 57.4384 47.6524 57.3888 47.6747 57.3343C47.6969 57.2798 47.7082 57.2214 47.7079 57.1625V52.8193C47.7079 52.5703 47.5082 52.3699 47.2618 52.3699" fill="#0F0E0F"/>
</g>
<defs>
<clipPath id="clip0_1053_87729">
<rect width="114" height="30.8442" fill="white" transform="translate(0 42)"/>
</clipPath>
</defs>
</svg>
