<svg width="69" height="23" viewBox="0 0 69 23" fill="none" xmlns="http://www.w3.org/2000/svg">
<path d="M29.383 12.1038C29.383 15.4128 26.839 17.8512 23.7169 17.8512C20.5948 17.8512 18.0508 15.4128 18.0508 12.1038C18.0508 8.77145 20.5948 6.35645 23.7169 6.35645C26.839 6.35645 29.383 8.77145 29.383 12.1038ZM26.9026 12.1038C26.9026 10.036 25.4282 8.62116 23.7169 8.62116C22.0056 8.62116 20.5312 10.036 20.5312 12.1038C20.5312 14.1509 22.0056 15.5864 23.7169 15.5864C25.4282 15.5864 26.9026 14.1483 26.9026 12.1038Z" fill="#DE3F32"/>
<path d="M41.6096 12.1038C41.6096 15.4128 39.0656 17.8512 35.9435 17.8512C32.8214 17.8512 30.2773 15.4128 30.2773 12.1038C30.2773 8.77405 32.8214 6.35645 35.9435 6.35645C39.0656 6.35645 41.6096 8.77145 41.6096 12.1038ZM39.1292 12.1038C39.1292 10.036 37.6548 8.62116 35.9435 8.62116C34.2322 8.62116 32.7577 10.036 32.7577 12.1038C32.7577 14.1509 34.2322 15.5864 35.9435 15.5864C37.6548 15.5864 39.1292 14.1483 39.1292 12.1038Z" fill="#EEB207"/>
<path d="M53.3241 6.70362V17.022C53.3241 21.2664 50.8641 23 47.956 23C45.2184 23 43.5708 21.1369 42.9494 19.6132L45.1089 18.6985C45.4934 19.6339 46.4356 20.7378 47.9534 20.7378C49.8149 20.7378 50.9685 19.5692 50.9685 17.3692V16.5426H50.882C50.3268 17.2396 49.2573 17.8486 47.9075 17.8486C45.0834 17.8486 42.4961 15.3455 42.4961 12.1245C42.4961 8.88027 45.0834 6.35645 47.9075 6.35645C49.2547 6.35645 50.3243 6.96534 50.882 7.64166H50.9685V6.70623H53.3241V6.70362ZM51.1442 12.1245C51.1442 10.1008 49.8175 8.62116 48.1291 8.62116C46.4178 8.62116 44.9841 10.1008 44.9841 12.1245C44.9841 14.1275 46.4178 15.5864 48.1291 15.5864C49.8175 15.5864 51.1442 14.1275 51.1442 12.1245Z" fill="#3E7EE8"/>
<path d="M57.2044 0.65625V17.4993H54.7852V0.65625H57.2044Z" fill="#319F4F"/>
<path d="M66.6317 13.9951L68.5572 15.3011C67.9356 16.2365 66.4384 17.8483 63.8509 17.8483C60.6424 17.8483 58.2461 15.3244 58.2461 12.1009C58.2461 8.68305 60.6626 6.35352 63.5737 6.35352C66.5044 6.35352 67.9386 8.72706 68.4067 10.0097L68.6643 10.6627L61.1135 13.8448C61.6917 14.9979 62.5905 15.5861 63.8509 15.5861C65.1143 15.5861 65.9899 14.9538 66.6317 13.9951ZM60.7061 11.9273L65.7532 9.79468C65.476 9.0769 64.6403 8.57677 63.6576 8.57677C62.3972 8.57677 60.6424 9.70916 60.7061 11.9273Z" fill="#DE3F32"/>
<path d="M8.89517 10.6086V8.17021H16.9703C17.0492 8.59516 17.09 9.09783 17.09 9.64202C17.09 11.4714 16.5985 13.7336 15.0146 15.3454C13.4739 16.9778 11.5054 17.8485 8.89773 17.8485C4.06432 17.8485 0 13.8424 0 8.92424C0 4.00606 4.06432 0 8.89773 0C11.5716 0 13.4764 1.06759 14.9076 2.45909L13.2167 4.17968C12.1904 3.20018 10.8 2.43836 8.89517 2.43836C5.36562 2.43836 2.60514 5.33277 2.60514 8.92424C2.60514 12.5157 5.36562 15.4101 8.89517 15.4101C11.1845 15.4101 12.4883 14.4747 13.3237 13.6248C14.0011 12.9355 14.4467 11.9508 14.6224 10.606L8.89517 10.6086Z" fill="#3E7EE8"/>
</svg>
