<svg width="114" height="114" viewBox="0 0 114 114" fill="none" xmlns="http://www.w3.org/2000/svg">
<g clip-path="url(#clip0_1053_87526)">
<path d="M48.5451 57.9976C48.5451 63.4647 44.3419 67.4933 39.1837 67.4933C34.0254 67.4933 29.8223 63.4647 29.8223 57.9976C29.8223 52.492 34.0254 48.502 39.1837 48.502C44.3419 48.502 48.5451 52.492 48.5451 57.9976ZM44.4471 57.9976C44.4471 54.5812 42.011 52.2437 39.1837 52.2437C36.3563 52.2437 33.9203 54.5812 33.9203 57.9976C33.9203 61.3798 36.3563 63.7515 39.1837 63.7515C42.011 63.7515 44.4471 61.3755 44.4471 57.9976Z" fill="#DE3F32"/>
<path d="M68.7443 57.9976C68.7443 63.4647 64.5412 67.4933 59.3829 67.4933C54.2246 67.4933 50.0215 63.4647 50.0215 57.9976C50.0215 52.4963 54.2246 48.502 59.3829 48.502C64.5412 48.502 68.7443 52.492 68.7443 57.9976ZM64.6463 57.9976C64.6463 54.5812 62.2102 52.2437 59.3829 52.2437C56.5556 52.2437 54.1195 54.5812 54.1195 57.9976C54.1195 61.3798 56.5556 63.7515 59.3829 63.7515C62.2102 63.7515 64.6463 61.3755 64.6463 57.9976Z" fill="#EEB207"/>
<path d="M88.1007 49.0756V66.1233C88.1007 73.1359 84.0364 76 79.2316 76C74.7086 76 71.9865 72.9218 70.9599 70.4045L74.5277 68.8932C75.1631 70.4387 76.7197 72.2625 79.2274 72.2625C82.3029 72.2625 84.2089 70.3317 84.2089 66.697V65.3313H84.0659C83.1487 66.4829 81.3816 67.489 79.1516 67.489C74.4856 67.489 70.2109 63.3534 70.2109 58.0319C70.2109 52.6718 74.4856 48.502 79.1516 48.502C81.3773 48.502 83.1444 49.508 84.0659 50.6254H84.2089V49.0799H88.1007V49.0756ZM84.4992 58.0319C84.4992 54.6883 82.3071 52.2437 79.5177 52.2437C76.6903 52.2437 74.3215 54.6883 74.3215 58.0319C74.3215 61.3412 76.6903 63.7515 79.5177 63.7515C82.3071 63.7515 84.4992 61.3412 84.4992 58.0319Z" fill="#3E7EE8"/>
<path d="M94.5107 39.084V66.9117H90.5137V39.084H94.5107Z" fill="#319F4F"/>
<path d="M110.087 61.1213L113.268 63.279C112.241 64.8245 109.768 67.4874 105.493 67.4874C100.192 67.4874 96.2324 63.3175 96.2324 57.9917C96.2324 52.3449 100.225 48.4961 105.035 48.4961C109.877 48.4961 112.246 52.4176 113.02 54.5368L113.445 55.6157L100.97 60.873C101.925 62.7781 103.41 63.7499 105.493 63.7499C107.58 63.7499 109.027 62.7053 110.087 61.1213ZM100.297 57.7049L108.635 54.1815C108.177 52.9956 106.797 52.1693 105.173 52.1693C103.091 52.1693 100.192 54.0402 100.297 57.7049Z" fill="#DE3F32"/>
<path d="M14.6964 55.5272V51.4986H28.0379C28.1683 52.2007 28.2356 53.0312 28.2356 53.9303C28.2356 56.9528 27.4237 60.6903 24.8067 63.3532C22.2612 66.0503 19.0089 67.4888 14.7006 67.4888C6.71496 67.4888 0 60.8701 0 52.7444C0 44.6187 6.71496 38 14.7006 38C19.1183 38 22.2654 39.7638 24.63 42.0628L21.8362 44.9056C20.1407 43.2873 17.8435 42.0286 14.6964 42.0286C8.86493 42.0286 4.30414 46.8107 4.30414 52.7444C4.30414 58.6781 8.86493 63.4602 14.6964 63.4602C18.4788 63.4602 20.6329 61.9147 22.013 60.5105C23.1322 59.3717 23.8685 57.7448 24.1588 55.5229L14.6964 55.5272Z" fill="#3E7EE8"/>
</g>
<defs>
<clipPath id="clip0_1053_87526">
<rect width="114" height="38" fill="white" transform="translate(0 38)"/>
</clipPath>
</defs>
</svg>
