<svg width="114" height="114" viewBox="0 0 114 114" fill="none" xmlns="http://www.w3.org/2000/svg">
<g clip-path="url(#clip0_1053_87493)">
<path d="M23.6366 42.0527H17.9512V47.7381H23.6366V42.0527Z" fill="#00C7FD"/>
<path d="M23.4939 71.6725V51.1768H18.0918V71.6522H23.4939V71.6725ZM59.2653 71.8748V66.8571C58.4762 66.8571 57.8085 66.8166 57.323 66.7357C56.7564 66.6548 56.3316 66.4524 56.0483 66.1692C55.765 65.8859 55.5829 65.4813 55.4818 64.935C55.4009 64.4292 55.3604 63.7615 55.3604 62.9522V55.8101H59.2653V51.1768H55.3604V43.2051H49.9583V63.0129C49.9583 64.6922 50.0999 66.1085 50.3832 67.2415C50.6664 68.3543 51.152 69.2648 51.8197 69.9527C52.4874 70.6406 53.3776 71.1262 54.4499 71.4297C55.5425 71.7332 56.9183 71.8748 58.5572 71.8748H59.2653V71.8748ZM90.1808 71.6725V41.627H84.7787V71.6725H90.1808ZM44.7585 53.2C43.2612 51.5814 41.157 50.7721 38.4863 50.7721C37.1914 50.7721 35.9977 51.0351 34.9456 51.5612C33.8733 52.0872 32.983 52.8156 32.2547 53.7463L31.9714 54.1307V53.7868V51.1768H26.6502V71.6522H32.0119V60.7468V61.4954C32.0119 61.374 32.0119 61.2527 32.0119 61.1313C32.0726 59.2092 32.5379 57.7929 33.4282 56.8824C34.3791 55.9112 35.5324 55.4256 36.8475 55.4256C38.4054 55.4256 39.5991 55.9112 40.3882 56.8419C41.157 57.7726 41.5617 59.0878 41.5617 60.7671V60.8278V71.6522H47.0043V60.0387C47.0245 57.1252 46.2557 54.8187 44.7585 53.2ZM81.9866 61.3943C81.9866 59.9173 81.7236 58.5415 81.2178 57.2466C80.6917 55.9719 79.9633 54.8389 79.0529 53.8677C78.1222 52.8966 77.0094 52.1479 75.7145 51.6017C74.4196 51.0554 72.9831 50.7924 71.4251 50.7924C69.9482 50.7924 68.5521 51.0756 67.2572 51.6219C65.9623 52.1884 64.8293 52.937 63.8783 53.888C62.9274 54.8389 62.1586 55.9719 61.6123 57.2668C61.0458 58.5617 60.7827 59.9578 60.7827 61.4347C60.7827 62.9117 61.0458 64.3078 61.5718 65.6027C62.0979 66.8976 62.8465 68.0306 63.7772 68.9815C64.7079 69.9325 65.8612 70.7013 67.1965 71.2476C68.5319 71.8141 70.0088 72.0974 71.587 72.0974C76.1596 72.0974 78.9922 70.0134 80.6917 68.0711L76.807 65.1171C75.9977 66.0883 74.0554 67.4034 71.6275 67.4034C70.11 67.4034 68.8556 67.0594 67.9047 66.3513C66.9537 65.6634 66.3063 64.6922 65.9623 63.4985L65.9016 63.3164H81.9866V61.3943V61.3943ZM65.9421 59.5126C65.9421 58.0154 67.6619 55.4054 71.3644 55.3852C75.067 55.3852 76.807 57.9952 76.807 59.4924L65.9421 59.5126ZM96.3316 69.0827C96.2304 68.8399 96.0888 68.6376 95.9067 68.4555C95.7246 68.2734 95.5223 68.1318 95.2795 68.0306C95.0367 67.9294 94.7736 67.8687 94.5106 67.8687C94.2274 67.8687 93.9846 67.9294 93.7418 68.0306C93.499 68.1318 93.2967 68.2734 93.1146 68.4555C92.9325 68.6376 92.7908 68.8399 92.6897 69.0827C92.5885 69.3255 92.5278 69.5885 92.5278 69.8515C92.5278 70.1348 92.5885 70.3776 92.6897 70.6204C92.7908 70.8632 92.9325 71.0655 93.1146 71.2476C93.2967 71.4297 93.499 71.5713 93.7418 71.6725C93.9846 71.7736 94.2476 71.8343 94.5106 71.8343C94.7939 71.8343 95.0367 71.7736 95.2795 71.6725C95.5223 71.5713 95.7246 71.4297 95.9067 71.2476C96.0888 71.0655 96.2304 70.8632 96.3316 70.6204C96.4327 70.3776 96.4934 70.1146 96.4934 69.8515C96.4934 69.5885 96.4327 69.3255 96.3316 69.0827ZM96.0078 70.499C95.9269 70.7013 95.8055 70.8834 95.6639 71.025C95.5223 71.1667 95.3402 71.2881 95.1378 71.369C94.9355 71.4499 94.7332 71.4904 94.4904 71.4904C94.2678 71.4904 94.0453 71.4499 93.8429 71.369C93.6406 71.2881 93.4585 71.1667 93.3169 71.025C93.1753 70.8834 93.0539 70.7013 92.9729 70.499C92.892 70.2967 92.8515 70.0943 92.8515 69.8515C92.8515 69.629 92.892 69.4064 92.9729 69.2041C93.0539 69.0018 93.1753 68.8197 93.3169 68.678C93.4585 68.5364 93.6406 68.415 93.8429 68.3341C94.0453 68.2532 94.2476 68.2127 94.4904 68.2127C94.7129 68.2127 94.9355 68.2532 95.1378 68.3341C95.3402 68.415 95.5223 68.5364 95.6639 68.678C95.8055 68.8197 95.9269 69.0018 96.0078 69.2041C96.0888 69.4064 96.1292 69.6087 96.1292 69.8515C96.1292 70.0943 96.0888 70.2967 96.0078 70.499ZM94.8748 70.0336C95.0367 70.0134 95.1581 69.9527 95.2592 69.8515C95.3604 69.7504 95.4211 69.6087 95.4211 69.4064C95.4211 69.1839 95.3604 69.022 95.2188 68.9006C95.0974 68.7792 94.8748 68.7185 94.6118 68.7185H93.7215V71.0048H94.1464V70.0741H94.4499L95.0164 71.0048H95.4616L94.8748 70.0336ZM94.6522 69.6897C94.5915 69.6897 94.5309 69.6897 94.4499 69.6897H94.1464V69.0422H94.4499C94.5106 69.0422 94.5713 69.0422 94.6522 69.0422C94.7129 69.0422 94.7736 69.0625 94.8343 69.0827C94.895 69.1029 94.9355 69.1434 94.9557 69.1839C94.9962 69.2243 94.9962 69.285 94.9962 69.366C94.9962 69.4469 94.976 69.5076 94.9557 69.548C94.9153 69.5885 94.8748 69.629 94.8343 69.6492C94.7736 69.6694 94.7129 69.6897 94.6522 69.6897Z" fill="#272727"/>
</g>
<defs>
<clipPath id="clip0_1053_87493">
<rect width="80" height="31.5427" fill="white" transform="translate(17 41)"/>
</clipPath>
</defs>
</svg>
