<svg width="114" height="114" viewBox="0 0 114 114" fill="none" xmlns="http://www.w3.org/2000/svg">
<g clip-path="url(#clip0_1685_12401)">
<path d="M39.4398 53.0439V47.1024H56.9292V53.0439L47.5826 61.6732H56.8584V67.4732H39.4398V61.6732L47.9366 53.0439H39.4398ZM75.1975 47.1024V53.0439L66.0634 61.6732H75.1975V67.4732H57.6373V61.6732L66.1342 53.0439H57.6373V47.1024H75.1975ZM9.70062 43H17.4894V53.6098C18.8348 49.5073 22.3043 46.7488 26.6944 46.7488C29.3851 46.7488 31.3677 47.739 32.5006 49.6488H32.5714L32.8547 47.0317H38.5901V67.4732H32.8547L32.6422 65.0683H32.5714C31.3677 66.9781 29.4559 67.9683 26.7652 67.9683C22.3043 67.9683 18.764 65.139 17.4894 60.9659C16.9938 67.5439 12.0373 72.0707 4.7441 72.0707H0V65.0683H4.7441C7.71801 65.0683 9.70062 62.1683 9.70062 59.1268V43ZM23.154 57.3585C23.154 59.6927 25.1366 61.6732 27.4733 61.6732C29.8099 61.6732 31.7925 59.6927 31.7925 57.3585C31.7925 55.0244 29.8099 53.0439 27.4733 53.0439C25.0658 53.0439 23.154 55.0244 23.154 57.3585Z" fill="url(#paint0_linear_1685_12401)"/>
<g opacity="0.6">
<path d="M87.8009 54.7533H81.8531V47.1143H76.0469V67.5557H81.8531V60.1289H87.8009V67.5557H93.5363V47.1143H87.8009V54.7533Z" fill="#949799"/>
<path d="M103.238 56.3094C103.167 56.3094 103.167 56.3094 103.167 56.3094H100.193V51.5704H103.238C104.371 51.5704 105.221 52.6313 105.221 53.9045C105.292 55.2484 104.371 56.2386 103.238 56.3094ZM111.098 53.4094C111.098 49.9435 108.478 47.1143 104.725 47.1143H100.123H94.3164V67.5557H100.123V60.6947H102.459L106 67.5557H112.443L108.053 58.6435C110.036 57.5118 111.098 55.6728 111.098 53.4094Z" fill="#949799"/>
<path opacity="0.6" d="M110.883 47.1147C110.883 47.1147 110.812 47.1147 110.883 47.1147L110.812 47.4683C110.812 47.4683 110.812 47.5391 110.883 47.5391H111.237V48.883C111.237 48.883 111.237 48.9537 111.308 48.9537H111.591C111.591 48.9537 111.662 48.9537 111.662 48.883V47.4683H112.016C112.016 47.4683 112.087 47.4683 112.087 47.3976V47.1147C112.087 47.1147 112.087 47.0439 112.016 47.0439H110.883V47.1147Z" fill="#949799"/>
<path opacity="0.6" d="M113.927 47.1147C113.927 47.1147 113.927 47.0439 113.927 47.1147L113.856 47.0439C113.856 47.0439 113.856 47.0439 113.785 47.0439L113.219 48.1757L112.582 47.1147C112.582 47.1147 112.582 47.1147 112.511 47.1147H112.44C112.44 47.1147 112.369 47.1147 112.369 47.1854L112.086 48.883C112.086 48.883 112.086 48.9537 112.157 48.9537H112.44C112.44 48.9537 112.511 48.9537 112.511 48.883L112.723 48.0342L113.148 48.883C113.148 48.883 113.148 48.883 113.219 48.883H113.29H113.36L113.715 48.0342L113.856 48.8122C113.856 48.8122 113.856 48.883 113.927 48.883H114.21C114.21 48.883 114.281 48.883 114.281 48.8122L113.927 47.1147Z" fill="#949799"/>
</g>
</g>
<defs>
<linearGradient id="paint0_linear_1685_12401" x1="11.1383" y1="43" x2="33.6218" y2="111.234" gradientUnits="userSpaceOnUse">
<stop stop-color="#6C07AE"/>
<stop offset="1" stop-color="#01AEDF"/>
</linearGradient>
<clipPath id="clip0_1685_12401">
<rect width="114" height="29" fill="white" transform="translate(0 43)"/>
</clipPath>
</defs>
</svg>
