<svg width="114" height="114" viewBox="0 0 114 114" fill="none" xmlns="http://www.w3.org/2000/svg">
<path d="M105.968 56.9225C105.968 54.1321 107.43 51.4706 111.072 51.4706C113.2 51.4706 113.944 52.6855 113.944 53.7446V54.9848H113.816C113.303 54.7777 112.714 54.5713 111.816 54.5713C110.277 54.5713 109.43 55.4245 109.43 57.5428V65.5529H108.482C106.943 65.5529 105.968 64.7784 105.968 63.3307V56.9225ZM10.6352 58.9931C10.6352 54.8198 13.071 51.4706 17.6284 51.4706C21.872 51.4706 24.3082 54.8198 24.3082 58.5036C24.3082 62.6769 21.872 66 17.3146 66C13.071 66 10.6352 62.6769 10.6352 58.9931ZM14.2761 58.5036C14.2761 61.2604 15.2974 62.9093 17.6284 62.9093C19.6718 62.9093 20.6669 61.2604 20.6669 58.9931C20.6669 56.2109 19.6193 54.562 17.3146 54.562C15.2974 54.562 14.2761 56.2109 14.2761 58.5036ZM5.04964 47.7455H6.25327C7.84888 47.7455 8.65978 48.5662 8.65978 50.1313V60.5988C8.65978 63.473 7.01138 65.6278 3.323 65.6278C1.36012 65.6278 0 64.6782 0 63.6012V61.9843H0.130656C0.706836 62.3185 1.75323 62.5495 2.82582 62.5495C4.44763 62.5495 5.04964 61.8561 5.04964 60.4453V47.7455ZM26.2072 47H27.4124C28.774 47 29.7175 47.7693 29.7175 49.3854V53.4127C30.4243 52.4124 31.6291 51.3093 33.5418 51.3093C37.1303 51.3093 39.8809 54.182 39.8809 58.261C39.8809 62.4165 37.1562 65.7765 32.8608 65.7765C29.2458 65.7765 26.2072 62.8777 26.2072 58.723V47ZM29.7433 58.2353C29.7433 61.4162 31.1315 62.7242 33.227 62.7242C34.9825 62.7242 36.2397 61.082 36.2397 58.8504C36.2397 55.4904 35.0083 54.3616 32.8608 54.3616C31.0791 54.3616 29.7433 56.0805 29.7433 58.2353ZM49.3983 47.7455H50.8641C52.3039 47.7455 53.2721 48.5189 53.7696 49.369C55.3922 52.231 58.0889 59.8358 58.7954 65.4043H57.3297C55.8374 65.4043 55.0523 64.5534 54.9209 63.7025C54.7644 62.5424 54.6071 61.6401 54.4241 60.8924H47.2775C46.9113 62.3881 46.5972 63.9089 46.3351 65.4043H44.9477C43.7699 65.4043 43.2989 64.7851 43.2989 63.7025C43.2989 61.1505 46.6496 50.7616 49.3983 47.7455ZM50.8375 50.9934C49.7903 52.8237 48.6649 55.6335 48.0633 58.0826H53.6124C53.0108 55.6081 51.7806 52.6434 50.8375 50.9934ZM70.3296 47H71.4109C73.098 47 73.8364 47.9489 73.8364 49.334V59.0814C73.8364 63.1086 71.8853 65.7765 67.0077 65.7765C63.2643 65.7765 60.3906 62.596 60.3906 58.7997C60.3906 54.2595 62.6573 51.3093 66.7969 51.3093C68.2205 51.3093 69.7758 52.2842 70.3296 53.4894V47ZM63.8701 58.1325C63.8701 61.0052 65.3996 62.8777 67.4293 62.8777C69.4066 62.8777 70.2772 61.4415 70.2772 58.9279C70.2772 55.4647 68.7211 54.2081 66.8235 54.2081C65.0304 54.2081 63.8701 55.9009 63.8701 58.1325ZM85.9024 47H86.9829C88.6701 47 89.4084 47.9489 89.4084 49.334V59.0814C89.4084 63.1086 87.4573 65.7765 82.5801 65.7765C78.8363 65.7765 75.9634 62.596 75.9634 58.7997C75.9634 54.2595 78.2301 51.3093 82.3689 51.3093C83.7929 51.3093 85.3478 52.2842 85.9024 53.4894V47ZM79.4429 58.1325C79.4429 61.0052 80.9724 62.8777 83.0021 62.8777C84.979 62.8777 85.8492 61.4415 85.8492 58.9279C85.8492 55.4647 84.2939 54.2081 82.3955 54.2081C80.6032 54.2081 79.4429 55.9009 79.4429 58.1325ZM91.5354 59.0192C91.5354 54.3813 94.4076 51.4706 98.4294 51.4706C101.353 51.4706 104.069 53.5315 104.069 56.8547C104.069 59.4051 102.111 60.2292 97.4635 60.2292H95.1653C95.4266 61.9817 97.045 63.0889 99.1082 63.0889C100.57 63.0889 102.294 62.8058 103.417 61.7753H103.547V62.8572C103.547 64.635 102.32 66 98.4553 66C94.9564 66 91.5354 63.27 91.5354 59.0192ZM95.1653 57.3181L95.1387 57.7823H96.7058C100.022 57.7823 100.78 57.4217 100.78 56.4426C100.78 55.0515 99.7352 54.3556 98.1157 54.3556C96.4187 54.3556 95.2435 55.7214 95.1653 57.3181Z" fill="#0069B2"/>
</svg>
