<svg width="114" height="114" viewBox="0 0 114 114" fill="none" xmlns="http://www.w3.org/2000/svg">
<g clip-path="url(#clip0_1053_87503)">
<path d="M67.3106 65.5894C67.3106 78.8667 61.7262 82.2179 50.41 87.8597C51.8641 88.8354 53.8239 90.0019 57.1534 91.5926C65.8776 87.4355 74.3068 81.9846 74.3068 67.4558V36.8076H67.3106V65.5894V65.5894ZM60.6726 36.8076H40V42.8948H53.6974V62.3867C53.6974 71.2948 53.1706 72.122 41.6648 77.3396C42.4655 79.3758 43.6245 81.3695 45.1418 83.1723C58.1438 77.3396 60.6726 74.3278 60.6726 64.2319V36.8076ZM42.7184 23.0212V28.4297C42.7184 29.8084 41.9176 30.7416 40.2318 30.7416H40V29.5963H40.2107C40.9904 29.5963 41.433 29.1933 41.433 28.3873V24.1453H40.2529V23.0212H42.7184ZM45.0364 29.6387H46.2165V23.0212H47.4809V29.5326C47.4809 30.3386 47.0594 30.7628 46.2165 30.7628H45.0364C44.1935 30.7628 43.7721 30.3386 43.7721 29.5326V23.0212H45.0364V29.6387ZM51.0001 27.7298V23.0212H52.2645V27.7722C52.2645 29.9144 51.1476 30.7204 49.1457 30.7204H48.5135V23.0212H49.7779V29.469H49.8411C50.684 29.469 51.0001 28.6842 51.0001 27.7298ZM54.5825 24.1878V26.2451H56.0576L55.8469 27.348H54.6036V29.5538H56.4369L56.2262 30.7204H53.297V23.0212H56.1208L56.3315 24.1878H54.5825ZM59.7032 23.0212H60.9255V30.7204H59.7032V28.0904L58.5021 25.4179H58.4388V30.7204H57.2166V23.0212H58.4178L59.6189 25.927H59.7032V23.0212V23.0212ZM65.3297 24.1878H64.1075V30.7204H62.8431V24.1878H61.6209L61.8316 23.0212H65.119L65.3297 24.1878ZM67.2684 29.6387H68.4485V23.0212H69.7129V29.5114C69.7129 30.3174 69.2914 30.7416 68.4485 30.7416H67.2684C66.4255 30.7416 66.004 30.3174 66.004 29.5114V23.0212H67.2684V29.6387ZM70.6612 28.1752H71.9045V29.7023H73.0635V28.6206C73.0635 28.0904 72.937 27.8571 72.5367 27.6237L71.3355 26.8602C70.893 26.5633 70.6822 26.0542 70.6822 25.6512V24.2302C70.6822 23.4242 71.2091 23 71.8623 23H73.0424C73.8853 23 74.2225 23.4242 74.2225 24.2302V25.1846L73.0003 25.524V23.9969H71.9045V25.1634C71.9045 25.5452 72.0309 25.7997 72.3891 26.033L73.5482 26.7541C74.0328 27.0511 74.2857 27.5177 74.2857 28.1328V29.6175C74.2857 30.4447 73.7589 30.7628 73.0846 30.7628H71.9255C71.0826 30.7628 70.6612 30.4234 70.6612 29.6175V28.1752V28.1752Z" fill="black"/>
</g>
<defs>
<clipPath id="clip0_1053_87503">
<rect width="34.2857" height="68.5714" fill="white" transform="translate(40 23)"/>
</clipPath>
</defs>
</svg>
