<svg width="114" height="114" viewBox="0 0 114 114" fill="none" xmlns="http://www.w3.org/2000/svg">
<g clip-path="url(#clip0_1053_87454)">
<path d="M114 55.8419V53.837H111.51V50.7202L111.426 50.746L109.088 51.4615L109.042 51.4755V53.8371H105.351V52.5215C105.351 51.9089 105.488 51.4401 105.758 51.1275C106.026 50.8186 106.409 50.6615 106.899 50.6615C107.25 50.6615 107.614 50.7444 107.98 50.9077L108.072 50.9487V48.8373L108.029 48.8214C107.687 48.6986 107.223 48.6367 106.646 48.6367C105.92 48.6367 105.26 48.7947 104.685 49.1079C104.109 49.4216 103.656 49.8693 103.339 50.4386C103.023 51.0072 102.862 51.6639 102.862 52.3906V53.837H101.129V55.8419H102.862V64.288H105.351V55.8419H109.042V61.2092C109.042 63.4198 110.085 64.54 112.141 64.54C112.479 64.54 112.834 64.5004 113.198 64.4229C113.567 64.3432 113.819 64.2637 113.967 64.1788L114 64.1594V62.136L113.899 62.203C113.764 62.2929 113.596 62.3665 113.398 62.4212C113.2 62.4769 113.035 62.5048 112.907 62.5048C112.425 62.5048 112.069 62.375 111.848 62.1188C111.624 61.8603 111.51 61.4083 111.51 60.776V55.8419H114ZM95.5712 62.5051C94.6679 62.5051 93.9557 62.2056 93.4538 61.6156C92.9488 61.0226 92.693 60.1773 92.693 59.1031C92.693 57.995 92.9488 57.1276 93.454 56.5242C93.9562 55.9247 94.6616 55.6204 95.5509 55.6204C96.4138 55.6204 97.1007 55.911 97.5928 56.4846C98.0873 57.0611 98.3383 57.9215 98.3383 59.0426C98.3383 60.1775 98.1023 61.0492 97.6369 61.6324C97.1747 62.2111 96.4797 62.5051 95.5712 62.5051V62.5051ZM95.6818 53.5852C93.9584 53.5852 92.5897 54.0902 91.6137 55.0861C90.6384 56.0822 90.1439 57.4605 90.1439 59.1833C90.1439 60.8196 90.6266 62.1358 91.5787 63.0947C92.5309 64.0539 93.8267 64.5398 95.4298 64.5398C97.1003 64.5398 98.4418 64.0277 99.4173 63.018C100.393 62.0094 100.887 60.6441 100.887 58.9615C100.887 57.2996 100.423 55.9737 99.5082 55.0212C98.5928 54.0683 97.3052 53.5852 95.6818 53.5852V53.5852ZM86.1314 53.5852C84.9592 53.5852 83.9895 53.8851 83.2487 54.4763C82.5035 55.071 82.1255 55.851 82.1255 56.7949C82.1255 57.2855 82.2071 57.7213 82.3676 58.091C82.5292 58.4619 82.7792 58.7884 83.1113 59.0624C83.441 59.3343 83.9498 59.619 84.624 59.9087C85.1909 60.142 85.6136 60.3393 85.8821 60.4947C86.1446 60.6471 86.3308 60.8003 86.436 60.9495C86.5382 61.0955 86.5901 61.2954 86.5901 61.5419C86.5901 62.2441 86.0643 62.5857 84.9823 62.5857C84.581 62.5857 84.1233 62.5019 83.6218 62.3367C83.1239 62.174 82.654 61.9358 82.2286 61.6303L82.1252 61.5562V63.9522L82.1632 63.9698C82.5153 64.1324 82.9593 64.2695 83.4825 64.3773C84.0048 64.4853 84.4793 64.5402 84.8916 64.5402C86.1636 64.5402 87.188 64.2389 87.9355 63.6442C88.6877 63.0454 89.0689 62.247 89.0689 61.2704C89.0689 60.566 88.8637 59.9619 88.4592 59.4747C88.0574 58.9914 87.3602 58.5478 86.3876 58.1556C85.6128 57.8446 85.1164 57.5865 84.9116 57.3883C84.7142 57.1969 84.614 56.9261 84.614 56.5833C84.614 56.2793 84.7377 56.0359 84.9917 55.8387C85.2477 55.6405 85.604 55.5397 86.0508 55.5397C86.4655 55.5397 86.8897 55.6052 87.3116 55.7336C87.7332 55.8619 88.1035 56.0339 88.4126 56.2442L88.5143 56.3136V54.0408L88.4753 54.024C88.1901 53.9017 87.8141 53.7971 87.3573 53.7122C86.9026 53.6278 86.4902 53.5852 86.1314 53.5852V53.5852ZM75.6377 62.5051C74.7346 62.5051 74.0222 62.2056 73.5204 61.6156C73.0153 61.0226 72.7599 60.1775 72.7599 59.1031C72.7599 57.995 73.0157 57.1276 73.521 56.5242C74.0227 55.9247 74.728 55.6204 75.6177 55.6204C76.4803 55.6204 77.1672 55.911 77.6594 56.4846C78.154 57.0611 78.4049 57.9215 78.4049 59.0426C78.4049 60.1775 78.1688 61.0492 77.7034 61.6324C77.2412 62.2111 76.5466 62.5051 75.6377 62.5051V62.5051ZM75.7486 53.5852C74.0248 53.5852 72.6559 54.0902 71.6805 55.0861C70.7052 56.0822 70.2104 57.4605 70.2104 59.1833C70.2104 60.8203 70.6934 62.1358 71.6456 63.0947C72.5977 64.0539 73.8934 64.5398 75.4965 64.5398C77.1668 64.5398 78.5086 64.0277 79.4842 63.018C80.4594 62.0094 80.9537 60.6441 80.9537 58.9615C80.9537 57.2996 80.4899 55.9737 79.5747 55.0212C78.6591 54.0683 77.3717 53.5852 75.7486 53.5852V53.5852ZM66.4327 55.6469V53.837H63.9744V64.2878H66.4327V58.9418C66.4327 58.0328 66.6388 57.286 67.0455 56.7219C67.447 56.1645 67.9821 55.8821 68.6354 55.8821C68.8568 55.8821 69.1054 55.9186 69.3746 55.9909C69.641 56.0627 69.834 56.1406 69.9478 56.2227L70.0512 56.2975V53.8191L70.0114 53.8021C69.7824 53.7048 69.4585 53.6557 69.0487 53.6557C68.4309 53.6557 67.8781 53.8542 67.4046 54.245C66.9889 54.5886 66.6885 55.0596 66.4588 55.6469H66.4327ZM59.5719 53.5852C58.4441 53.5852 57.4382 53.8271 56.5825 54.3038C55.7251 54.7817 55.062 55.4638 54.6108 56.3313C54.1617 57.1966 53.9336 58.2075 53.9336 59.3347C53.9336 60.3222 54.1547 61.2283 54.5918 62.027C55.029 62.8269 55.6479 63.4527 56.4313 63.8868C57.2136 64.3203 58.1178 64.5401 59.1189 64.5401C60.2872 64.5401 61.2847 64.3065 62.0844 63.8459L62.1167 63.8274V61.5751L62.0134 61.6506C61.6511 61.9145 61.2463 62.1251 60.8107 62.2768C60.3762 62.4285 59.9801 62.5051 59.6327 62.5051C58.6681 62.5051 57.8937 62.2033 57.3316 61.6082C56.7683 61.0124 56.4827 60.1757 56.4827 59.1229C56.4827 58.0634 56.7806 57.2052 57.3676 56.572C57.9528 55.9407 58.7286 55.6204 59.6733 55.6204C60.4813 55.6204 61.2687 55.894 62.0136 56.4344L62.1167 56.5093V54.1362L62.0834 54.1174C61.8031 53.9605 61.4208 53.8309 60.9461 53.7327C60.4735 53.6346 60.0112 53.5852 59.5719 53.5852V53.5852ZM52.2405 53.8371H49.7822V64.2878H52.2405V53.8371V53.8371ZM51.0365 49.3851C50.6319 49.3851 50.279 49.5228 49.9891 49.7957C49.6979 50.0695 49.5503 50.4141 49.5503 50.8208C49.5503 51.2211 49.6962 51.5594 49.9845 51.8259C50.2711 52.0915 50.625 52.2262 51.0366 52.2262C51.4481 52.2262 51.8034 52.0915 52.0933 51.8263C52.3851 51.5594 52.5331 51.2212 52.5331 50.8208C52.5331 50.4283 52.3891 50.0872 52.1053 49.8068C51.8218 49.5269 51.4621 49.3851 51.0365 49.3851ZM44.9028 53.0661V64.2878H47.4116V49.705H43.9393L39.5257 60.5366L35.2426 49.705H31.6289V64.2877H33.9866V53.065H34.0675L38.5904 64.2878H40.3696L44.8219 53.0661H44.9028V53.0661Z" fill="#706D6E"/>
<path d="M11.5647 56.3967H0V44.832H11.5647V56.3967Z" fill="#F1511B"/>
<path d="M24.334 56.3967H12.7695V44.832H24.334V56.3967Z" fill="#80CC28"/>
<path d="M11.5644 69.17H0V57.6055H11.5644V69.17Z" fill="#00ADEF"/>
<path d="M24.334 69.17H12.7695V57.6055H24.334V69.17Z" fill="#FBBC09"/>
</g>
<defs>
<clipPath id="clip0_1053_87454">
<rect width="114" height="114" fill="white"/>
</clipPath>
</defs>
</svg>
