<svg width="114" height="114" viewBox="0 0 114 114" fill="none" xmlns="http://www.w3.org/2000/svg">
<path d="M8.82463 47.3058C7.71266 45.9936 6.75461 44.6517 6.56007 44.3763C6.55603 44.3705 6.55065 44.3657 6.54438 44.3624C6.53811 44.3591 6.53114 44.3574 6.52406 44.3574C6.51698 44.3574 6.51001 44.3591 6.50374 44.3624C6.49747 44.3657 6.49209 44.3705 6.48806 44.3763C6.29356 44.6517 5.33571 45.9936 4.22379 47.3058C-5.30662 59.4472 5.72801 67.6387 5.72801 67.6387L5.81746 67.7009C5.90112 68.9682 6.10896 70.7897 6.10896 70.7897H6.93941C6.93941 70.7897 7.14637 68.9761 7.23039 67.7091L7.3204 67.6387C7.3204 67.6387 18.3549 59.4472 8.82463 47.3058ZM6.52424 67.4607H6.52414C6.52414 67.4607 6.02945 67.0387 5.89595 66.8273L5.89474 66.8046L6.49308 53.5862C6.49346 53.5782 6.49691 53.5706 6.5027 53.5651C6.50849 53.5596 6.51619 53.5565 6.52419 53.5565C6.53219 53.5565 6.53989 53.5596 6.54568 53.5651C6.55147 53.5706 6.55491 53.5782 6.55529 53.5862L7.15363 66.8046L7.15247 66.8273C7.01904 67.0387 6.52424 67.4607 6.52424 67.4607Z" fill="#00684A"/>
<path d="M27.1313 64.7541L22.5496 53.5925L22.5366 53.5606H18.9637V54.308L19.5373 54.3089C19.6233 54.3091 19.7084 54.3262 19.7878 54.3594C19.8671 54.3926 19.939 54.4412 19.9995 54.5024C20.0599 54.5636 20.1077 54.6361 20.1399 54.7158C20.1722 54.7955 20.1884 54.8808 20.1875 54.9668L20.0819 66.2098C20.081 66.3792 20.0138 66.5416 19.8946 66.6621C19.7754 66.7826 19.6138 66.8517 19.4444 66.8545L18.8574 66.8615V67.6045H22.3344V66.8619L21.9766 66.8546C21.8064 66.8502 21.6447 66.7798 21.5256 66.6582C21.4065 66.5367 21.3394 66.3735 21.3385 66.2033V55.6117L26.3366 67.5967C26.3717 67.6807 26.4308 67.7524 26.5065 67.8029C26.5823 67.8534 26.6712 67.8803 26.7622 67.8803C26.8533 67.8802 26.9422 67.8533 27.0179 67.8028C27.0937 67.7524 27.1528 67.6806 27.1878 67.5966L32.0718 55.8762L32.1446 66.2009C32.1454 66.373 32.0783 66.5384 31.9579 66.6613C31.8374 66.7842 31.6733 66.8545 31.5013 66.857L31.134 66.8615V67.6045H35.2031V66.8613L34.646 66.857C34.4752 66.8541 34.3124 66.7846 34.1922 66.6633C34.0721 66.542 34.0041 66.3786 34.0028 66.2078L33.9676 54.9668C33.9677 54.7956 34.0348 54.6313 34.1547 54.5091C34.2746 54.3869 34.4377 54.3166 34.6088 54.3133L35.2033 54.3076V53.5605H31.7285L27.1313 64.7541Z" fill="#00684A"/>
<path d="M59.1652 66.6831C59.1067 66.6239 59.061 66.5532 59.031 66.4755C59.0011 66.3978 58.9875 66.3148 58.9911 66.2316V60.7224C58.9911 59.677 58.6809 58.8504 58.069 58.2653C57.4576 57.6811 56.6181 57.3848 55.5739 57.3848C54.0994 57.3848 52.9412 57.9807 52.1314 59.1561C52.1241 59.1667 52.114 59.175 52.1021 59.18C52.0903 59.185 52.0772 59.1864 52.0646 59.1842C52.0519 59.182 52.0402 59.1762 52.0307 59.1675C52.0213 59.1588 52.0145 59.1475 52.0113 59.1351L51.6304 57.6636H50.9939L49.3556 58.6014L49.3555 59.1174H49.7783C49.9501 59.1085 50.119 59.1642 50.2518 59.2736C50.3125 59.3349 50.3593 59.4086 50.389 59.4896C50.4187 59.5707 50.4306 59.6571 50.424 59.7432V66.2316C50.428 66.3148 50.4147 66.398 50.3846 66.4758C50.3546 66.5536 50.3087 66.6242 50.2497 66.6831C50.1908 66.7421 50.1202 66.788 50.0424 66.818C49.9646 66.848 49.8814 66.8614 49.7982 66.8573H49.3883V67.6049H53.1557V66.8573H52.7458C52.6625 66.8614 52.5793 66.8481 52.5016 66.8181C52.4238 66.7881 52.3531 66.7421 52.2942 66.6832C52.2352 66.6242 52.1893 66.5536 52.1593 66.4758C52.1293 66.398 52.1159 66.3148 52.12 66.2316V61.9372C52.1226 61.3776 52.2432 60.8248 52.4741 60.315C52.7024 59.7954 53.0643 59.3455 53.523 59.0112C54.0043 58.6674 54.5842 58.4892 55.1755 58.5032C55.8983 58.5032 56.4374 58.7308 56.7776 59.1799C57.1209 59.6337 57.2949 60.2197 57.2949 60.9214V66.2316C57.299 66.3148 57.2857 66.398 57.2557 66.4758C57.2257 66.5536 57.1798 66.6242 57.1208 66.6832C57.0619 66.7421 56.9912 66.7881 56.9135 66.8181C56.8357 66.8481 56.7525 66.8614 56.6693 66.8573H56.2593V67.6049H60.0267V66.8573H59.6168C59.5336 66.861 59.4505 66.8474 59.3728 66.8174C59.2951 66.7874 59.2244 66.7417 59.1652 66.6831Z" fill="#00684A"/>
<path d="M93.6852 54.4033C92.6095 53.8384 91.4106 53.549 90.1957 53.5609H85.2559V54.3084H85.7345C85.9275 54.3225 86.109 54.4055 86.2458 54.5423C86.3827 54.6792 86.4657 54.8607 86.4797 55.0537V66.112C86.4774 66.2086 86.4554 66.3038 86.4152 66.3917C86.375 66.4796 86.3174 66.5584 86.2458 66.6234C86.1812 66.6953 86.1024 66.7532 86.0144 66.7935C85.9265 66.8337 85.8312 66.8555 85.7345 66.8573H85.2559V67.6049H90.1957C91.4106 67.6168 92.6095 67.3274 93.6852 66.7625C94.736 66.2046 95.609 65.3629 96.2048 64.3333C96.8241 63.2815 97.138 62.0196 97.138 60.5828C97.138 59.1463 96.8241 57.8846 96.2048 56.8325C95.6089 55.8029 94.7359 54.9613 93.6852 54.4033V54.4033ZM95.1631 60.5828C95.1631 61.8956 94.9272 63.0133 94.4619 63.9049C93.9977 64.7944 93.3778 65.4642 92.62 65.8956C91.8569 66.3284 90.9933 66.5528 90.1161 66.5462H89.1202C89.0235 66.5443 88.9282 66.5226 88.8402 66.4824C88.7522 66.4421 88.6735 66.3842 88.6088 66.3122C88.5373 66.2472 88.4796 66.1684 88.4394 66.0805C88.3992 65.9926 88.3773 65.8975 88.375 65.8008V55.3648C88.3768 55.2681 88.3986 55.1728 88.4388 55.0849C88.479 54.9969 88.5369 54.9181 88.6088 54.8535C88.6739 54.782 88.7527 54.7244 88.8406 54.6842C88.9285 54.644 89.0236 54.6221 89.1202 54.6196H90.1161C90.9933 54.613 91.8569 54.8374 92.62 55.2702C93.3775 55.7013 93.9973 56.371 94.4619 57.2608C94.9272 58.1528 95.1631 59.2704 95.1631 60.5828V60.5828Z" fill="#00684A"/>
<path d="M108.772 61.3268C108.324 60.8064 107.449 60.3629 106.414 60.1269C107.837 59.4202 108.559 58.4152 108.559 57.1381C108.569 56.4751 108.375 55.8251 108.002 55.2767C107.608 54.7192 107.066 54.2822 106.438 54.0143C105.701 53.7002 104.907 53.5459 104.106 53.5616H98.5653V54.3092H99.004C99.1971 54.3232 99.3786 54.4062 99.5154 54.543C99.6523 54.6799 99.7353 54.8614 99.7493 55.0544V66.1128C99.7469 66.2094 99.7249 66.3045 99.6847 66.3924C99.6445 66.4803 99.5869 66.5591 99.5154 66.6242C99.4508 66.6961 99.372 66.754 99.284 66.7942C99.1961 66.8345 99.1008 66.8562 99.004 66.8581H98.5254V67.6056H104.541C105.409 67.615 106.27 67.4583 107.079 67.1439C107.805 66.8686 108.44 66.3975 108.914 65.7828C109.363 65.1856 109.591 64.4548 109.591 63.6109C109.609 62.7746 109.317 61.9613 108.772 61.3268V61.3268ZM101.878 66.313C101.807 66.248 101.749 66.1692 101.709 66.0813C101.669 65.9934 101.647 65.8982 101.644 65.8016V60.8342H104.501C105.504 60.8342 106.283 61.094 106.815 61.6065C107.347 62.1186 107.616 62.793 107.616 63.6109C107.616 64.1059 107.495 64.5934 107.264 65.0311C107.021 65.4879 106.655 65.8674 106.207 66.126C105.74 66.4053 105.166 66.5469 104.501 66.5469H102.39C102.293 66.5451 102.198 66.5234 102.11 66.4831C102.022 66.4429 101.943 66.385 101.878 66.313V66.313ZM101.644 59.7755V55.3656C101.646 55.2689 101.668 55.1736 101.708 55.0856C101.749 54.9976 101.807 54.9189 101.878 54.8542C101.943 54.7827 102.022 54.7252 102.11 54.685C102.198 54.6448 102.293 54.6228 102.39 54.6203H103.748C104.724 54.6203 105.448 54.8628 105.901 55.3412C106.354 55.8204 106.584 56.4452 106.584 57.1979C106.584 57.9775 106.371 58.6092 105.95 59.0754C105.531 59.5399 104.89 59.7755 104.046 59.7755H101.644Z" fill="#00684A"/>
<path d="M44.8239 58.0383C44.0124 57.6091 43.1082 57.3847 42.1901 57.3848C41.2721 57.3848 40.3679 57.6092 39.5564 58.0384C38.7705 58.4704 38.1193 59.1112 37.6745 59.8899C37.219 60.7329 36.9805 61.676 36.9805 62.6342C36.9805 63.5924 37.219 64.5355 37.6745 65.3785C38.1191 66.1574 38.7704 66.7982 39.5564 67.2302C40.3679 67.6594 41.2721 67.8837 42.1901 67.8837C43.1082 67.8837 44.0124 67.6593 44.8239 67.2301C45.6099 66.7982 46.2611 66.1574 46.7057 65.3785C47.1613 64.5355 47.3998 63.5924 47.3998 62.6342C47.3998 61.676 47.1613 60.7329 46.7057 59.8899C46.2609 59.1112 45.6097 58.4704 44.8239 58.0383ZM45.5843 62.6342C45.5843 63.9038 45.2733 64.9247 44.6599 65.6685C44.0488 66.4094 43.2179 66.7851 42.1901 66.7851C41.1621 66.7851 40.3312 66.4094 39.7204 65.6685C39.1071 64.9251 38.7961 63.9042 38.7961 62.6342C38.7961 61.3643 39.1071 60.3434 39.7204 59.5999C40.3311 58.859 41.162 58.4833 42.1901 58.4833C43.2179 58.4833 44.0489 58.859 44.6599 59.5999C45.2733 60.3438 45.5843 61.3647 45.5843 62.6342H45.5843Z" fill="#00684A"/>
<path d="M81.1111 58.0383C80.2995 57.6091 79.3953 57.3847 78.4773 57.3848C77.5592 57.3848 76.655 57.6092 75.8435 58.0384C75.0576 58.4704 74.4064 59.1112 73.9616 59.8899C73.5061 60.7329 73.2676 61.676 73.2676 62.6342C73.2676 63.5924 73.5061 64.5355 73.9616 65.3785C74.4062 66.1574 75.0575 66.7982 75.8435 67.2302C76.6551 67.6594 77.5592 67.8837 78.4773 67.8837C79.3954 67.8837 80.2995 67.6593 81.1111 67.2301C81.8971 66.7982 82.5483 66.1574 82.9929 65.3785C83.4484 64.5355 83.6869 63.5924 83.6869 62.6342C83.6869 61.676 83.4484 60.7329 82.9929 59.8899C82.5481 59.1112 81.8969 58.4704 81.1111 58.0383V58.0383ZM81.8714 62.6342C81.8714 63.9038 81.5605 64.9247 80.9471 65.6685C80.336 66.4094 79.505 66.7851 78.4773 66.7851C77.4492 66.7851 76.6183 66.4094 76.0075 65.6685C75.3941 64.9251 75.0832 63.9042 75.0832 62.6342C75.0832 61.3644 75.3941 60.3434 76.0075 59.5999C76.6182 58.859 77.4492 58.4833 78.4773 58.4833C79.5051 58.4833 80.3361 58.859 80.9471 59.5999C81.5605 60.3438 81.8714 61.3647 81.8714 62.6342H81.8714Z" fill="#00684A"/>
<path d="M66.4627 57.3831C65.682 57.3742 64.9105 57.5537 64.2139 57.9063C63.5652 58.2309 63.0152 58.7231 62.6208 59.3319C62.2409 59.9197 62.0402 60.6055 62.0434 61.3055C62.0354 61.9153 62.1876 62.5165 62.4849 63.049C62.7745 63.5558 63.1754 63.9902 63.6573 64.3195L62.1919 66.3115C62.103 66.4323 62.0494 66.5754 62.0369 66.7249C62.0245 66.8744 62.0537 67.0244 62.1214 67.1582C62.1891 67.2921 62.2926 67.4045 62.4204 67.4831C62.5482 67.5617 62.6952 67.6033 62.8452 67.6032H63.2662C62.8745 67.8589 62.5443 68.1981 62.2993 68.5965C62.0407 69.0116 61.902 69.49 61.8984 69.979C61.8984 70.8617 62.2888 71.5896 63.0586 72.1425C63.8229 72.6916 64.8916 72.9699 66.2348 72.9699C67.1365 72.9764 68.0324 72.8247 68.8816 72.5217C69.6461 72.2594 70.3305 71.8054 70.8693 71.203C71.3698 70.6297 71.6398 69.8912 71.6271 69.1303C71.6271 68.2889 71.3185 67.6869 70.5952 67.1172C69.9762 66.6304 69.0125 66.373 67.8083 66.373H63.6947C63.69 66.373 63.6853 66.3718 63.6812 66.3693C63.6772 66.3669 63.6738 66.3634 63.6716 66.3592C63.6693 66.355 63.6683 66.3503 63.6685 66.3456C63.6687 66.3408 63.6702 66.3362 63.6729 66.3323L64.7404 64.8885C64.9935 65.0058 65.2588 65.095 65.5314 65.1544C65.8043 65.206 66.0815 65.2306 66.3592 65.2279C67.1635 65.2406 67.9592 65.0613 68.6803 64.7048C69.3348 64.3809 69.8916 63.889 70.2938 63.2794C70.68 62.6937 70.8845 62.007 70.8819 61.3055C70.8819 60.5427 70.516 59.1537 69.5057 58.4455C69.5084 58.4383 69.5135 58.4387 69.5152 58.4392L71.7307 58.687V57.6729H68.1894C67.6342 57.4802 67.0505 57.3823 66.4627 57.3831V57.3831ZM67.7011 63.8166H67.7011C67.3209 64.0228 66.8953 64.131 66.4627 64.1314C65.7874 64.1362 65.1376 63.8733 64.6556 63.4002C64.1444 62.9163 63.8852 62.2114 63.8852 61.3055C63.8852 60.3996 64.1444 59.6947 64.6556 59.2107C65.1376 58.7377 65.7874 58.4749 66.4627 58.4796C66.8952 58.4801 67.3208 58.5883 67.7011 58.7943C68.1027 59.0144 68.4361 59.3408 68.6645 59.7378C68.9139 60.1558 69.0403 60.6833 69.0403 61.3055C69.0403 61.928 68.9139 62.4555 68.6645 62.8731C68.4363 63.2702 68.103 63.5967 67.7011 63.8166ZM64.9082 67.6032H67.6958C68.4702 67.6032 68.9627 67.7534 69.2929 68.0899C69.457 68.2609 69.5852 68.463 69.6698 68.6844C69.7543 68.9057 69.7936 69.1418 69.7853 69.3787C69.7934 69.7331 69.7167 70.0843 69.5617 70.4031C69.4067 70.7219 69.1779 70.9991 68.8942 71.2116C68.299 71.6782 67.4948 71.9148 66.5041 71.9148C65.6359 71.9148 64.925 71.723 64.3912 71.3447C63.8631 70.9704 63.5953 70.4134 63.5953 69.6892C63.5911 69.2461 63.7216 68.8122 63.9694 68.4449C64.2019 68.0858 64.526 67.7953 64.9082 67.6032V67.6032Z" fill="#00684A"/>
<path d="M111.689 67.4781C111.489 67.3656 111.322 67.2008 111.208 67.0012C111.095 66.7988 111.035 66.5705 111.035 66.3384C111.035 66.1062 111.095 65.8779 111.208 65.6755C111.323 65.476 111.489 65.3112 111.689 65.1987C111.901 65.0837 112.138 65.0234 112.379 65.0234C112.62 65.0234 112.857 65.0837 113.069 65.1987C113.269 65.3112 113.435 65.476 113.549 65.6755C113.663 65.8779 113.723 66.1062 113.723 66.3384C113.723 66.5705 113.663 66.7988 113.549 67.0012C113.435 67.2008 113.269 67.3656 113.069 67.4781C112.857 67.593 112.62 67.6532 112.379 67.6532C112.138 67.6532 111.901 67.593 111.689 67.4781ZM112.951 67.3264C113.119 67.2308 113.257 67.0908 113.351 66.9218C113.446 66.7419 113.495 66.5417 113.495 66.3384C113.495 66.135 113.446 65.9348 113.351 65.755C113.257 65.5859 113.119 65.4459 112.951 65.3504C112.776 65.2544 112.579 65.2041 112.379 65.2041C112.179 65.2041 111.982 65.2544 111.806 65.3504C111.639 65.4459 111.5 65.5859 111.407 65.755C111.312 65.9348 111.263 66.135 111.263 66.3384C111.263 66.5417 111.312 66.7419 111.407 66.9218C111.5 67.0908 111.639 67.2309 111.806 67.3264C111.982 67.4224 112.179 67.4727 112.379 67.4727C112.579 67.4727 112.776 67.4224 112.951 67.3264V67.3264ZM111.823 66.9669V66.8766L111.841 66.8622H111.902C111.922 66.8611 111.94 66.8527 111.954 66.8387C111.968 66.8247 111.977 66.8061 111.978 66.7863V65.8326C111.977 65.8129 111.968 65.7942 111.954 65.7802C111.94 65.7662 111.922 65.7579 111.902 65.7568H111.841L111.823 65.7423V65.652L111.841 65.6375H112.375C112.504 65.6307 112.631 65.6663 112.737 65.7387C112.781 65.7724 112.816 65.8163 112.839 65.8666C112.862 65.917 112.873 65.9723 112.87 66.0277C112.871 66.0743 112.862 66.1205 112.844 66.1636C112.826 66.2067 112.8 66.2459 112.767 66.2787C112.697 66.3505 112.605 66.3958 112.505 66.407L112.628 66.4431L112.867 66.8188C112.873 66.8313 112.883 66.8419 112.895 66.8495C112.907 66.8571 112.921 66.8615 112.935 66.8622H112.997L113.011 66.8766V66.9669L112.997 66.9814H112.682L112.661 66.9669L112.328 66.4142H112.249V66.7863C112.25 66.806 112.258 66.8247 112.272 66.8387C112.286 66.8526 112.305 66.861 112.325 66.8622H112.386L112.404 66.8766V66.9669L112.386 66.9814H111.841L111.823 66.9669ZM112.339 66.295C112.375 66.2973 112.41 66.2924 112.444 66.2806C112.477 66.2688 112.508 66.2504 112.534 66.2264C112.558 66.1996 112.577 66.1681 112.589 66.134C112.601 66.0999 112.605 66.0637 112.603 66.0277C112.606 65.9563 112.583 65.8861 112.538 65.8308C112.516 65.8064 112.49 65.787 112.46 65.7742C112.43 65.7614 112.397 65.7555 112.364 65.7568H112.325C112.305 65.7579 112.286 65.7663 112.272 65.7803C112.258 65.7943 112.25 65.8129 112.249 65.8326V66.295H112.339Z" fill="#00684A"/>
</svg>
