<svg width="114" height="114" viewBox="0 0 114 114" fill="none" xmlns="http://www.w3.org/2000/svg">
<path d="M17.8594 43.0664H21.4937V47.0341H17.8594V43.0664Z" fill="#192435"/>
<path d="M81.4902 43.0664H85.1245V47.0341H81.4902V43.0664Z" fill="#192435"/>
<path d="M9.82671 48.458C7.53602 48.458 6.2113 49.5234 5.57222 50.2594C5.49627 49.6253 5.09273 48.8026 3.51777 48.8026H0.0976562V52.5128H1.49937C1.73666 52.5128 1.81296 52.5911 1.81296 52.8367V69.7779H5.88966V63.4194C5.88966 63.2478 5.88651 63.0875 5.88231 62.9438C6.51894 63.55 7.73516 64.3846 9.63491 64.3846C13.6196 64.3846 16.4055 61.1109 16.4055 56.422C16.4055 51.6589 13.7603 48.458 9.82671 48.458ZM8.99863 60.7042C6.80383 60.7042 5.80671 58.5263 5.80671 56.5084C5.80671 53.33 7.48387 52.1972 9.05288 52.1972C10.9775 52.1972 12.2717 53.9169 12.2717 56.4786C12.2717 59.3998 10.6264 60.7042 8.99863 60.7042Z" fill="#192435"/>
<path d="M21.7719 60.0355V51.0586C21.7719 49.5409 21.0663 48.8027 19.6209 48.8027H15.9785V52.5129H17.3816C17.6179 52.5129 17.6938 52.5912 17.6938 52.8364V61.7835C17.6938 63.3226 18.3777 64.0391 19.8414 64.0391H23.4883V60.3612H22.0848C21.8591 60.3612 21.7719 60.268 21.7719 60.0355Z" fill="#192435"/>
<path d="M32.4219 48.458C30.1305 48.458 28.8075 49.5234 28.1656 50.2594C28.0897 49.6253 27.6882 48.8026 26.1136 48.8026H22.6914V52.5128H24.0945C24.3308 52.5128 24.4074 52.5911 24.4074 52.8367V69.7779H28.4859V63.4194C28.4859 63.2478 28.4817 63.0875 28.4764 62.9438C29.1106 63.55 30.3307 64.3846 32.2297 64.3846C36.2147 64.3846 38.9992 61.1109 38.9992 56.422C38.9992 51.6589 36.3558 48.458 32.4219 48.458ZM31.5903 60.7042C29.4014 60.7042 28.4008 58.5263 28.4008 56.5084C28.4008 53.33 30.0776 52.1972 31.648 52.1972C33.5723 52.1972 34.8662 53.9169 34.8662 56.4786C34.8662 59.3998 33.2226 60.7042 31.5903 60.7042Z" fill="#192435"/>
<path d="M46.5133 48.458C42.1216 48.458 39.0508 51.7336 39.0508 56.422C39.0508 61.0347 42.3645 64.3846 46.9301 64.3846C50.5221 64.3846 52.7165 62.181 52.8093 62.0877L52.9731 61.9202L51.1979 58.8655L50.9337 59.1245C50.9169 59.1375 49.3055 60.6767 47.1772 60.6767C45.1343 60.6767 43.6388 59.3846 43.2864 57.3572H52.9528L52.9759 57.0804C52.9822 57.0423 53.063 56.1431 53.063 55.7038C53.063 51.3705 50.4307 48.458 46.5133 48.458ZM43.4379 54.2227C43.8803 52.7275 44.9859 51.8801 46.5133 51.8801C47.7404 51.8801 48.686 52.8476 48.8519 54.2227H43.4379Z" fill="#192435"/>
<path d="M67.8895 60.0352V45.3219C67.8895 43.8053 67.1741 43.0664 65.7101 43.0664H62.0667V46.7765H63.4695C63.7054 46.7765 63.7834 46.8556 63.7834 47.1012V49.7608C63.1818 49.1975 62.0065 48.4579 59.9839 48.4579C56.028 48.4579 53.2676 51.7334 53.2676 56.4219C53.2676 61.1851 55.9128 64.3845 59.8464 64.3845C62.0958 64.3845 63.3918 63.3021 64.0249 62.5486C64.1075 63.2063 64.518 64.0388 66.0436 64.0388H69.5754V60.3613H68.202C67.9759 60.3613 67.8895 60.2677 67.8895 60.0352ZM60.6198 60.7041C58.6812 60.7041 57.4269 59.0228 57.4269 56.4219C57.4269 53.8939 58.732 52.197 60.6755 52.197C62.8787 52.197 63.8664 54.3028 63.8664 56.3943C63.8664 59.5734 62.1878 60.7041 60.6198 60.7041Z" fill="#192435"/>
<path d="M78.6665 48.6006C76.9701 48.6006 75.4077 49.6155 74.482 51.2327V50.8844C74.482 49.5038 73.7463 48.8019 72.3033 48.8019H68.7988V52.5124H70.2002C70.4364 52.5124 70.5145 52.5904 70.5145 52.8363V64.039H74.5905V57.9409C74.5905 57.1378 74.6892 56.3644 74.882 55.6501C75.4952 53.5473 77.1262 52.7986 78.4449 52.7986C78.9125 52.7986 79.2534 52.8501 79.2583 52.8516L79.5992 52.9049V48.7051L79.3511 48.6615C79.3385 48.659 78.9934 48.6006 78.6665 48.6006Z" fill="#192435"/>
<path d="M85.4008 60.0355V51.0586C85.4008 49.5409 84.6991 48.8027 83.2525 48.8027H79.957V52.5129H81.0105C81.2481 52.5129 81.3237 52.5912 81.3237 52.8364V61.7835C81.3237 63.3226 82.008 64.0391 83.4741 64.0391H87.1178V60.3612H85.7144C85.4883 60.3612 85.4008 60.268 85.4008 60.0355Z" fill="#192435"/>
<path d="M100.72 52.5129V48.8027H98.5448C97.2743 48.8027 96.5925 49.2591 96.19 50.381L93.5325 58.0737C93.4408 58.3592 93.3544 58.6788 93.2813 58.9857C93.2036 58.6773 93.1122 58.3538 93.0114 58.0679L90.3539 50.3785C89.9462 49.2449 89.2879 48.8027 87.9995 48.8027H85.6875V52.5129H86.2877C86.6055 52.5129 86.7077 52.6246 86.7837 52.831L90.8971 64.0391H95.4806L99.5947 52.831C99.67 52.6246 99.775 52.5129 100.094 52.5129H100.72Z" fill="#192435"/>
<path d="M113.821 57.0804C113.824 57.0423 113.907 56.1431 113.907 55.7038C113.907 51.3705 111.273 48.458 107.355 48.458C102.963 48.458 99.8945 51.7336 99.8945 56.422C99.8945 61.0347 103.204 64.3846 107.771 64.3846C111.364 64.3846 113.56 62.181 113.651 62.0877L113.817 61.9202L112.045 58.8655L111.775 59.1245C111.761 59.1375 110.142 60.6767 108.021 60.6767C105.977 60.6767 104.481 59.3846 104.127 57.3572H113.797L113.821 57.0804ZM104.28 54.2227C104.726 52.7275 105.828 51.8801 107.355 51.8801C108.585 51.8801 109.527 52.8476 109.694 54.2227H104.28Z" fill="#192435"/>
<path d="M78.6671 48.6006C77.3494 48.6006 76.1223 49.2183 75.2012 50.2464C75.9792 50.2391 76.7625 50.2326 77.5454 50.2326C78.2335 50.2326 78.9156 50.2391 79.5999 50.2435V48.7051L79.3517 48.6615C79.3391 48.659 78.994 48.6006 78.6671 48.6006Z" fill="#192435"/>
<path d="M96.1891 50.381L96.0215 50.87C97.5978 50.9825 99.1616 51.1065 100.719 51.2451V48.8027H98.5442C97.2737 48.8027 96.5916 49.2591 96.1891 50.381Z" fill="#192435"/>
<path d="M9.82671 48.458C7.53602 48.458 6.21095 49.5234 5.57222 50.259C5.49592 49.6253 5.09273 48.8026 3.51777 48.8026H0.0976562V52.5128H1.49937C1.73666 52.5128 1.81296 52.5911 1.81296 52.8363V62.2771C3.68646 61.6017 5.60582 60.9505 7.56226 60.3244C6.36425 59.6138 5.80671 58.017 5.80671 56.508C5.80671 53.33 7.48387 52.1972 9.05288 52.1972C10.9775 52.1972 12.2717 53.9169 12.2717 56.4786C12.2717 57.5545 12.0463 58.4077 11.6827 59.0599C13.2055 58.613 14.7493 58.1795 16.3169 57.7624C16.3677 57.3296 16.4055 56.8842 16.4055 56.422C16.4055 51.6589 13.7603 48.458 9.82671 48.458Z" fill="#192435"/>
<path d="M19.6209 48.8027H15.9785V52.5129H17.3816C17.6175 52.5129 17.6935 52.5912 17.6935 52.8368V57.4067C19.0374 57.0599 20.3947 56.7232 21.7719 56.399V51.0586C21.7719 49.5413 21.0663 48.8027 19.6209 48.8027Z" fill="#192435"/>
<path d="M17.8594 43.0664H21.4937V47.0341H17.8594V43.0664Z" fill="#192435"/>
<path d="M32.4219 48.458C30.1305 48.458 28.8075 49.5234 28.1656 50.259C28.0893 49.6253 27.6882 48.8026 26.1133 48.8026H22.6914V52.5128H24.0942C24.3304 52.5128 24.4074 52.5911 24.4074 52.8363V55.7959C25.7857 55.4931 27.1832 55.1992 28.5891 54.9167C29.056 52.9557 30.3797 52.1972 31.6477 52.1972C32.7956 52.1972 33.7102 52.8175 34.2681 53.8542C35.675 53.6111 37.0914 53.3768 38.5201 53.1552C37.5916 50.254 35.3677 48.458 32.4219 48.458Z" fill="#192435"/>
<path d="M46.5133 48.458C43.3046 48.458 40.8084 50.209 39.6934 52.9796C41.4262 52.721 43.1768 52.4794 44.9429 52.2552C45.3947 52.0111 45.9208 51.8805 46.5133 51.8805C46.738 51.8805 46.9466 51.924 47.1489 51.9839C48.7511 51.796 50.3681 51.6229 51.9976 51.4644C50.8773 49.58 48.9433 48.458 46.5133 48.458Z" fill="#192435"/>
<path d="M65.7104 43.0664H62.067V46.7765H63.4697C63.7053 46.7765 63.7837 46.8556 63.7837 47.1012V49.7608C63.182 49.1975 62.0067 48.4579 59.9841 48.4579C57.7701 48.4579 55.9313 49.4841 54.7402 51.2122C59.0483 50.8364 63.4344 50.5669 67.8898 50.4047V45.3219C67.8898 43.8053 67.1744 43.0664 65.7104 43.0664Z" fill="#192435"/>
<path d="M72.304 48.8027H68.7988V50.3785C70.6587 50.3172 72.5269 50.2733 74.4113 50.2512C74.2048 49.2932 73.5031 48.8027 72.304 48.8027Z" fill="#192435"/>
<path d="M81.4902 43.0664H85.1245V47.0341H81.4902V43.0664Z" fill="#192435"/>
<path d="M83.2545 48.8027H79.959V50.2465C81.759 50.2631 83.5506 50.2972 85.3324 50.3477C85.1298 49.3157 84.4504 48.8027 83.2545 48.8027Z" fill="#192435"/>
<path d="M87.9995 48.8027H85.6875V50.3589C87.2702 50.4075 88.8434 50.4674 90.4075 50.5414L90.3539 50.3785C89.9462 49.2449 89.2879 48.8027 87.9995 48.8027Z" fill="#192435"/>
<path d="M107.355 48.458C104.851 48.458 102.781 49.5256 101.459 51.3099C103.373 51.484 105.276 51.6795 107.158 51.8946C107.448 51.9277 107.732 51.9581 108.017 51.9926C109.833 52.2055 111.629 52.4395 113.41 52.6912C112.477 50.0758 110.273 48.458 107.355 48.458Z" fill="#192435"/>
</svg>
