<svg width="575" height="452" viewBox="0 0 575 452" fill="none" xmlns="http://www.w3.org/2000/svg">
<g filter="url(#filter0_d_835_11834)">
<rect x="127" y="9" width="391" height="42" rx="16" fill="#F9F9FA"/>
<rect x="126.5" y="8.5" width="392" height="43" rx="16.5" stroke="#EAEAEB"/>
</g>
<path d="M172 29.9123C172 27.1993 174.199 25 176.912 25H256.747C259.46 25 261.66 27.1993 261.66 29.9123C261.66 32.6253 259.46 34.8246 256.747 34.8246H176.912C174.199 34.8246 172 32.6253 172 29.9123Z" fill="#949799"/>
<path d="M385 29.9123C385 27.1993 387.199 25 389.912 25H469.747C472.46 25 474.66 27.1993 474.66 29.9123C474.66 32.6253 472.46 34.8246 469.747 34.8246H389.912C387.199 34.8246 385 32.6253 385 29.9123Z" fill="#BFC0C2"/>
<path d="M485 30C485 29.0707 485 28.606 485.077 28.2196C485.392 26.6329 486.633 25.3925 488.22 25.0769C488.606 25 489.071 25 490 25C490.929 25 491.394 25 491.78 25.0769C493.367 25.3925 494.608 26.6329 494.923 28.2196C495 28.606 495 29.0707 495 30C495 30.9293 495 31.394 494.923 31.7804C494.608 33.3671 493.367 34.6075 491.78 34.9231C491.394 35 490.929 35 490 35C489.071 35 488.606 35 488.22 34.9231C486.633 34.6075 485.392 33.3671 485.077 31.7804C485 31.394 485 30.9293 485 30Z" fill="#478ACC"/>
<rect x="140.5" y="22.5" width="15" height="15" rx="3.5" fill="white" stroke="#478ACC"/>
<g filter="url(#filter1_d_835_11834)">
<rect x="126.5" y="70.5" width="392" height="231" rx="16.5" fill="#F9F9FA" stroke="#D4D5D6"/>
<rect x="140" y="84" width="16" height="16" rx="4" fill="#6CA1D6"/>
<path d="M157 244.912C157 242.199 159.199 240 161.912 240H269.389C272.102 240 274.302 242.199 274.302 244.912C274.302 247.625 272.102 249.825 269.389 249.825H161.912C159.199 249.825 157 247.625 157 244.912Z" fill="#949799"/>
<rect x="157" y="258.421" width="331" height="7.36842" rx="3.68421" fill="#BFC0C2"/>
<rect x="157" y="273.158" width="282.855" height="7.36842" rx="3.68421" fill="#BFC0C2"/>
<rect x="235" y="102" width="202" height="16" rx="8" fill="#D4D5D6"/>
<rect x="157" y="211" width="202" height="16" rx="8" fill="#48C2A9"/>
<path d="M235.555 135.765C235.555 134.745 235.79 133.83 236.26 133.02C236.74 132.21 237.385 131.58 238.195 131.13C239.015 130.67 239.91 130.44 240.88 130.44C241.99 130.44 242.975 130.715 243.835 131.265C244.705 131.805 245.335 132.575 245.725 133.575H243.67C243.4 133.025 243.025 132.615 242.545 132.345C242.065 132.075 241.51 131.94 240.88 131.94C240.19 131.94 239.575 132.095 239.035 132.405C238.495 132.715 238.07 133.16 237.76 133.74C237.46 134.32 237.31 134.995 237.31 135.765C237.31 136.535 237.46 137.21 237.76 137.79C238.07 138.37 238.495 138.82 239.035 139.14C239.575 139.45 240.19 139.605 240.88 139.605C241.51 139.605 242.065 139.47 242.545 139.2C243.025 138.93 243.4 138.52 243.67 137.97H245.725C245.335 138.97 244.705 139.74 243.835 140.28C242.975 140.82 241.99 141.09 240.88 141.09C239.9 141.09 239.005 140.865 238.195 140.415C237.385 139.955 236.74 139.32 236.26 138.51C235.79 137.7 235.555 136.785 235.555 135.765ZM251.312 141.135C250.532 141.135 249.827 140.96 249.197 140.61C248.567 140.25 248.072 139.75 247.712 139.11C247.352 138.46 247.172 137.71 247.172 136.86C247.172 136.02 247.357 135.275 247.727 134.625C248.097 133.975 248.602 133.475 249.242 133.125C249.882 132.775 250.597 132.6 251.387 132.6C252.177 132.6 252.892 132.775 253.532 133.125C254.172 133.475 254.677 133.975 255.047 134.625C255.417 135.275 255.602 136.02 255.602 136.86C255.602 137.7 255.412 138.445 255.032 139.095C254.652 139.745 254.132 140.25 253.472 140.61C252.822 140.96 252.102 141.135 251.312 141.135ZM251.312 139.65C251.752 139.65 252.162 139.545 252.542 139.335C252.932 139.125 253.247 138.81 253.487 138.39C253.727 137.97 253.847 137.46 253.847 136.86C253.847 136.26 253.732 135.755 253.502 135.345C253.272 134.925 252.967 134.61 252.587 134.4C252.207 134.19 251.797 134.085 251.357 134.085C250.917 134.085 250.507 134.19 250.127 134.4C249.757 134.61 249.462 134.925 249.242 135.345C249.022 135.755 248.912 136.26 248.912 136.86C248.912 137.75 249.137 138.44 249.587 138.93C250.047 139.41 250.622 139.65 251.312 139.65ZM261.462 132.6C262.112 132.6 262.692 132.735 263.202 133.005C263.722 133.275 264.127 133.675 264.417 134.205C264.707 134.735 264.852 135.375 264.852 136.125V141H263.157V136.38C263.157 135.64 262.972 135.075 262.602 134.685C262.232 134.285 261.727 134.085 261.087 134.085C260.447 134.085 259.937 134.285 259.557 134.685C259.187 135.075 259.002 135.64 259.002 136.38V141H257.292V132.735H259.002V133.68C259.282 133.34 259.637 133.075 260.067 132.885C260.507 132.695 260.972 132.6 261.462 132.6ZM270.033 141.135C269.383 141.135 268.798 141.02 268.278 140.79C267.768 140.55 267.363 140.23 267.063 139.83C266.763 139.42 266.603 138.965 266.583 138.465H268.353C268.383 138.815 268.548 139.11 268.848 139.35C269.158 139.58 269.543 139.695 270.003 139.695C270.483 139.695 270.853 139.605 271.113 139.425C271.383 139.235 271.518 138.995 271.518 138.705C271.518 138.395 271.368 138.165 271.068 138.015C270.778 137.865 270.313 137.7 269.673 137.52C269.053 137.35 268.548 137.185 268.158 137.025C267.768 136.865 267.428 136.62 267.138 136.29C266.858 135.96 266.718 135.525 266.718 134.985C266.718 134.545 266.848 134.145 267.108 133.785C267.368 133.415 267.738 133.125 268.218 132.915C268.708 132.705 269.268 132.6 269.898 132.6C270.838 132.6 271.593 132.84 272.163 133.32C272.743 133.79 273.053 134.435 273.093 135.255H271.383C271.353 134.885 271.203 134.59 270.933 134.37C270.663 134.15 270.298 134.04 269.838 134.04C269.388 134.04 269.043 134.125 268.803 134.295C268.563 134.465 268.443 134.69 268.443 134.97C268.443 135.19 268.523 135.375 268.683 135.525C268.843 135.675 269.038 135.795 269.268 135.885C269.498 135.965 269.838 136.07 270.288 136.2C270.888 136.36 271.378 136.525 271.758 136.695C272.148 136.855 272.483 137.095 272.763 137.415C273.043 137.735 273.188 138.16 273.198 138.69C273.198 139.16 273.068 139.58 272.808 139.95C272.548 140.32 272.178 140.61 271.698 140.82C271.228 141.03 270.673 141.135 270.033 141.135ZM282.531 132.735V141H280.821V140.025C280.551 140.365 280.196 140.635 279.756 140.835C279.326 141.025 278.866 141.12 278.376 141.12C277.726 141.12 277.141 140.985 276.621 140.715C276.111 140.445 275.706 140.045 275.406 139.515C275.116 138.985 274.971 138.345 274.971 137.595V132.735H276.666V137.34C276.666 138.08 276.851 138.65 277.221 139.05C277.591 139.44 278.096 139.635 278.736 139.635C279.376 139.635 279.881 139.44 280.251 139.05C280.631 138.65 280.821 138.08 280.821 137.34V132.735H282.531ZM286.497 129.9V141H284.787V129.9H286.497ZM290.737 134.13V138.705C290.737 139.015 290.807 139.24 290.947 139.38C291.097 139.51 291.347 139.575 291.697 139.575H292.747V141H291.397C290.627 141 290.037 140.82 289.627 140.46C289.217 140.1 289.012 139.515 289.012 138.705V134.13H288.037V132.735H289.012V130.68H290.737V132.735H292.747V134.13H290.737ZM295.193 131.64C294.883 131.64 294.623 131.535 294.413 131.325C294.203 131.115 294.098 130.855 294.098 130.545C294.098 130.235 294.203 129.975 294.413 129.765C294.623 129.555 294.883 129.45 295.193 129.45C295.493 129.45 295.748 129.555 295.958 129.765C296.168 129.975 296.273 130.235 296.273 130.545C296.273 130.855 296.168 131.115 295.958 131.325C295.748 131.535 295.493 131.64 295.193 131.64ZM296.033 132.735V141H294.323V132.735H296.033ZM302.448 132.6C303.098 132.6 303.678 132.735 304.188 133.005C304.708 133.275 305.113 133.675 305.403 134.205C305.693 134.735 305.838 135.375 305.838 136.125V141H304.143V136.38C304.143 135.64 303.958 135.075 303.588 134.685C303.218 134.285 302.713 134.085 302.073 134.085C301.433 134.085 300.923 134.285 300.543 134.685C300.173 135.075 299.988 135.64 299.988 136.38V141H298.278V132.735H299.988V133.68C300.268 133.34 300.623 133.075 301.053 132.885C301.493 132.695 301.958 132.6 302.448 132.6ZM311.35 132.6C311.99 132.6 312.555 132.73 313.045 132.99C313.545 133.24 313.935 133.555 314.215 133.935V132.735H315.94V141.135C315.94 141.895 315.78 142.57 315.46 143.16C315.14 143.76 314.675 144.23 314.065 144.57C313.465 144.91 312.745 145.08 311.905 145.08C310.785 145.08 309.855 144.815 309.115 144.285C308.375 143.765 307.955 143.055 307.855 142.155H309.55C309.68 142.585 309.955 142.93 310.375 143.19C310.805 143.46 311.315 143.595 311.905 143.595C312.595 143.595 313.15 143.385 313.57 142.965C314 142.545 314.215 141.935 314.215 141.135V139.755C313.925 140.145 313.53 140.475 313.03 140.745C312.54 141.005 311.98 141.135 311.35 141.135C310.63 141.135 309.97 140.955 309.37 140.595C308.78 140.225 308.31 139.715 307.96 139.065C307.62 138.405 307.45 137.66 307.45 136.83C307.45 136 307.62 135.265 307.96 134.625C308.31 133.985 308.78 133.49 309.37 133.14C309.97 132.78 310.63 132.6 311.35 132.6ZM314.215 136.86C314.215 136.29 314.095 135.795 313.855 135.375C313.625 134.955 313.32 134.635 312.94 134.415C312.56 134.195 312.15 134.085 311.71 134.085C311.27 134.085 310.86 134.195 310.48 134.415C310.1 134.625 309.79 134.94 309.55 135.36C309.32 135.77 309.205 136.26 309.205 136.83C309.205 137.4 309.32 137.9 309.55 138.33C309.79 138.76 310.1 139.09 310.48 139.32C310.87 139.54 311.28 139.65 311.71 139.65C312.15 139.65 312.56 139.54 312.94 139.32C313.32 139.1 313.625 138.78 313.855 138.36C314.095 137.93 314.215 137.43 314.215 136.86ZM328.817 130.575V131.97H326.042V141H324.332V131.97H321.542V130.575H328.817ZM338.124 136.665C338.124 136.975 338.104 137.255 338.064 137.505H331.749C331.799 138.165 332.044 138.695 332.484 139.095C332.924 139.495 333.464 139.695 334.104 139.695C335.024 139.695 335.674 139.31 336.054 138.54H337.899C337.649 139.3 337.194 139.925 336.534 140.415C335.884 140.895 335.074 141.135 334.104 141.135C333.314 141.135 332.604 140.96 331.974 140.61C331.354 140.25 330.864 139.75 330.504 139.11C330.154 138.46 329.979 137.71 329.979 136.86C329.979 136.01 330.149 135.265 330.489 134.625C330.839 133.975 331.324 133.475 331.944 133.125C332.574 132.775 333.294 132.6 334.104 132.6C334.884 132.6 335.579 132.77 336.189 133.11C336.799 133.45 337.274 133.93 337.614 134.55C337.954 135.16 338.124 135.865 338.124 136.665ZM336.339 136.125C336.329 135.495 336.104 134.99 335.664 134.61C335.224 134.23 334.679 134.04 334.029 134.04C333.439 134.04 332.934 134.23 332.514 134.61C332.094 134.98 331.844 135.485 331.764 136.125H336.339ZM339.237 136.86C339.237 136.01 339.407 135.265 339.747 134.625C340.097 133.975 340.577 133.475 341.187 133.125C341.797 132.775 342.497 132.6 343.287 132.6C344.287 132.6 345.112 132.84 345.762 133.32C346.422 133.79 346.867 134.465 347.097 135.345H345.252C345.102 134.935 344.862 134.615 344.532 134.385C344.202 134.155 343.787 134.04 343.287 134.04C342.587 134.04 342.027 134.29 341.607 134.79C341.197 135.28 340.992 135.97 340.992 136.86C340.992 137.75 341.197 138.445 341.607 138.945C342.027 139.445 342.587 139.695 343.287 139.695C344.277 139.695 344.932 139.26 345.252 138.39H347.097C346.857 139.23 346.407 139.9 345.747 140.4C345.087 140.89 344.267 141.135 343.287 141.135C342.497 141.135 341.797 140.96 341.187 140.61C340.577 140.25 340.097 139.75 339.747 139.11C339.407 138.46 339.237 137.71 339.237 136.86ZM353.076 132.6C353.706 132.6 354.266 132.735 354.756 133.005C355.256 133.275 355.646 133.675 355.926 134.205C356.216 134.735 356.361 135.375 356.361 136.125V141H354.666V136.38C354.666 135.64 354.481 135.075 354.111 134.685C353.741 134.285 353.236 134.085 352.596 134.085C351.956 134.085 351.446 134.285 351.066 134.685C350.696 135.075 350.511 135.64 350.511 136.38V141H348.801V129.9H350.511V133.695C350.801 133.345 351.166 133.075 351.606 132.885C352.056 132.695 352.546 132.6 353.076 132.6ZM362.712 132.6C363.362 132.6 363.942 132.735 364.452 133.005C364.972 133.275 365.377 133.675 365.667 134.205C365.957 134.735 366.102 135.375 366.102 136.125V141H364.407V136.38C364.407 135.64 364.222 135.075 363.852 134.685C363.482 134.285 362.977 134.085 362.337 134.085C361.697 134.085 361.187 134.285 360.807 134.685C360.437 135.075 360.252 135.64 360.252 136.38V141H358.542V132.735H360.252V133.68C360.532 133.34 360.887 133.075 361.317 132.885C361.757 132.695 362.222 132.6 362.712 132.6ZM369.153 131.64C368.843 131.64 368.583 131.535 368.373 131.325C368.163 131.115 368.058 130.855 368.058 130.545C368.058 130.235 368.163 129.975 368.373 129.765C368.583 129.555 368.843 129.45 369.153 129.45C369.453 129.45 369.708 129.555 369.918 129.765C370.128 129.975 370.233 130.235 370.233 130.545C370.233 130.855 370.128 131.115 369.918 131.325C369.708 131.535 369.453 131.64 369.153 131.64ZM369.993 132.735V141H368.283V132.735H369.993ZM371.668 136.86C371.668 136.01 371.838 135.265 372.178 134.625C372.528 133.975 373.008 133.475 373.618 133.125C374.228 132.775 374.928 132.6 375.718 132.6C376.718 132.6 377.543 132.84 378.193 133.32C378.853 133.79 379.298 134.465 379.528 135.345H377.683C377.533 134.935 377.293 134.615 376.963 134.385C376.633 134.155 376.218 134.04 375.718 134.04C375.018 134.04 374.458 134.29 374.038 134.79C373.628 135.28 373.423 135.97 373.423 136.86C373.423 137.75 373.628 138.445 374.038 138.945C374.458 139.445 375.018 139.695 375.718 139.695C376.708 139.695 377.363 139.26 377.683 138.39H379.528C379.288 139.23 378.838 139.9 378.178 140.4C377.518 140.89 376.698 141.135 375.718 141.135C374.928 141.135 374.228 140.96 373.618 140.61C373.008 140.25 372.528 139.75 372.178 139.11C371.838 138.46 371.668 137.71 371.668 136.86ZM380.662 136.83C380.662 136 380.832 135.265 381.172 134.625C381.522 133.985 381.992 133.49 382.582 133.14C383.182 132.78 383.842 132.6 384.562 132.6C385.212 132.6 385.777 132.73 386.257 132.99C386.747 133.24 387.137 133.555 387.427 133.935V132.735H389.152V141H387.427V139.77C387.137 140.16 386.742 140.485 386.242 140.745C385.742 141.005 385.172 141.135 384.532 141.135C383.822 141.135 383.172 140.955 382.582 140.595C381.992 140.225 381.522 139.715 381.172 139.065C380.832 138.405 380.662 137.66 380.662 136.83ZM387.427 136.86C387.427 136.29 387.307 135.795 387.067 135.375C386.837 134.955 386.532 134.635 386.152 134.415C385.772 134.195 385.362 134.085 384.922 134.085C384.482 134.085 384.072 134.195 383.692 134.415C383.312 134.625 383.002 134.94 382.762 135.36C382.532 135.77 382.417 136.26 382.417 136.83C382.417 137.4 382.532 137.9 382.762 138.33C383.002 138.76 383.312 139.09 383.692 139.32C384.082 139.54 384.492 139.65 384.922 139.65C385.362 139.65 385.772 139.54 386.152 139.32C386.532 139.1 386.837 138.78 387.067 138.36C387.307 137.93 387.427 137.43 387.427 136.86ZM393.108 129.9V141H391.398V129.9H393.108ZM410.23 130.575V141H408.52V133.86L405.34 141H404.155L400.96 133.86V141H399.25V130.575H401.095L404.755 138.75L408.4 130.575H410.23ZM411.908 136.83C411.908 136 412.078 135.265 412.418 134.625C412.768 133.985 413.238 133.49 413.828 133.14C414.428 132.78 415.088 132.6 415.808 132.6C416.458 132.6 417.023 132.73 417.503 132.99C417.993 133.24 418.383 133.555 418.673 133.935V132.735H420.398V141H418.673V139.77C418.383 140.16 417.988 140.485 417.488 140.745C416.988 141.005 416.418 141.135 415.778 141.135C415.068 141.135 414.418 140.955 413.828 140.595C413.238 140.225 412.768 139.715 412.418 139.065C412.078 138.405 411.908 137.66 411.908 136.83ZM418.673 136.86C418.673 136.29 418.553 135.795 418.313 135.375C418.083 134.955 417.778 134.635 417.398 134.415C417.018 134.195 416.608 134.085 416.168 134.085C415.728 134.085 415.318 134.195 414.938 134.415C414.558 134.625 414.248 134.94 414.008 135.36C413.778 135.77 413.663 136.26 413.663 136.83C413.663 137.4 413.778 137.9 414.008 138.33C414.248 138.76 414.558 139.09 414.938 139.32C415.328 139.54 415.738 139.65 416.168 139.65C416.608 139.65 417.018 139.54 417.398 139.32C417.778 139.1 418.083 138.78 418.313 138.36C418.553 137.93 418.673 137.43 418.673 136.86ZM426.814 132.6C427.464 132.6 428.044 132.735 428.554 133.005C429.074 133.275 429.479 133.675 429.769 134.205C430.059 134.735 430.204 135.375 430.204 136.125V141H428.509V136.38C428.509 135.64 428.324 135.075 427.954 134.685C427.584 134.285 427.079 134.085 426.439 134.085C425.799 134.085 425.289 134.285 424.909 134.685C424.539 135.075 424.354 135.64 424.354 136.38V141H422.644V132.735H424.354V133.68C424.634 133.34 424.989 133.075 425.419 132.885C425.859 132.695 426.324 132.6 426.814 132.6ZM431.815 136.83C431.815 136 431.985 135.265 432.325 134.625C432.675 133.985 433.145 133.49 433.735 133.14C434.335 132.78 434.995 132.6 435.715 132.6C436.365 132.6 436.93 132.73 437.41 132.99C437.9 133.24 438.29 133.555 438.58 133.935V132.735H440.305V141H438.58V139.77C438.29 140.16 437.895 140.485 437.395 140.745C436.895 141.005 436.325 141.135 435.685 141.135C434.975 141.135 434.325 140.955 433.735 140.595C433.145 140.225 432.675 139.715 432.325 139.065C431.985 138.405 431.815 137.66 431.815 136.83ZM438.58 136.86C438.58 136.29 438.46 135.795 438.22 135.375C437.99 134.955 437.685 134.635 437.305 134.415C436.925 134.195 436.515 134.085 436.075 134.085C435.635 134.085 435.225 134.195 434.845 134.415C434.465 134.625 434.155 134.94 433.915 135.36C433.685 135.77 433.57 136.26 433.57 136.83C433.57 137.4 433.685 137.9 433.915 138.33C434.155 138.76 434.465 139.09 434.845 139.32C435.235 139.54 435.645 139.65 436.075 139.65C436.515 139.65 436.925 139.54 437.305 139.32C437.685 139.1 437.99 138.78 438.22 138.36C438.46 137.93 438.58 137.43 438.58 136.86ZM445.881 132.6C446.521 132.6 447.086 132.73 447.576 132.99C448.076 133.24 448.466 133.555 448.746 133.935V132.735H450.471V141.135C450.471 141.895 450.311 142.57 449.991 143.16C449.671 143.76 449.206 144.23 448.596 144.57C447.996 144.91 447.276 145.08 446.436 145.08C445.316 145.08 444.386 144.815 443.646 144.285C442.906 143.765 442.486 143.055 442.386 142.155H444.081C444.211 142.585 444.486 142.93 444.906 143.19C445.336 143.46 445.846 143.595 446.436 143.595C447.126 143.595 447.681 143.385 448.101 142.965C448.531 142.545 448.746 141.935 448.746 141.135V139.755C448.456 140.145 448.061 140.475 447.561 140.745C447.071 141.005 446.511 141.135 445.881 141.135C445.161 141.135 444.501 140.955 443.901 140.595C443.311 140.225 442.841 139.715 442.491 139.065C442.151 138.405 441.981 137.66 441.981 136.83C441.981 136 442.151 135.265 442.491 134.625C442.841 133.985 443.311 133.49 443.901 133.14C444.501 132.78 445.161 132.6 445.881 132.6ZM448.746 136.86C448.746 136.29 448.626 135.795 448.386 135.375C448.156 134.955 447.851 134.635 447.471 134.415C447.091 134.195 446.681 134.085 446.241 134.085C445.801 134.085 445.391 134.195 445.011 134.415C444.631 134.625 444.321 134.94 444.081 135.36C443.851 135.77 443.736 136.26 443.736 136.83C443.736 137.4 443.851 137.9 444.081 138.33C444.321 138.76 444.631 139.09 445.011 139.32C445.401 139.54 445.811 139.65 446.241 139.65C446.681 139.65 447.091 139.54 447.471 139.32C447.851 139.1 448.156 138.78 448.386 138.36C448.626 137.93 448.746 137.43 448.746 136.86ZM460.292 136.665C460.292 136.975 460.272 137.255 460.232 137.505H453.917C453.967 138.165 454.212 138.695 454.652 139.095C455.092 139.495 455.632 139.695 456.272 139.695C457.192 139.695 457.842 139.31 458.222 138.54H460.067C459.817 139.3 459.362 139.925 458.702 140.415C458.052 140.895 457.242 141.135 456.272 141.135C455.482 141.135 454.772 140.96 454.142 140.61C453.522 140.25 453.032 139.75 452.672 139.11C452.322 138.46 452.147 137.71 452.147 136.86C452.147 136.01 452.317 135.265 452.657 134.625C453.007 133.975 453.492 133.475 454.112 133.125C454.742 132.775 455.462 132.6 456.272 132.6C457.052 132.6 457.747 132.77 458.357 133.11C458.967 133.45 459.442 133.93 459.782 134.55C460.122 135.16 460.292 135.865 460.292 136.665ZM458.507 136.125C458.497 135.495 458.272 134.99 457.832 134.61C457.392 134.23 456.847 134.04 456.197 134.04C455.607 134.04 455.102 134.23 454.682 134.61C454.262 134.98 454.012 135.485 453.932 136.125H458.507ZM463.685 133.935C463.935 133.515 464.265 133.19 464.675 132.96C465.095 132.72 465.59 132.6 466.16 132.6V134.37H465.725C465.055 134.37 464.545 134.54 464.195 134.88C463.855 135.22 463.685 135.81 463.685 136.65V141H461.975V132.735H463.685V133.935Z" fill="#478ACC"/>
<path d="M235 162.912C235 160.199 237.199 158 239.912 158H319.747C322.46 158 324.66 160.199 324.66 162.912C324.66 165.625 322.46 167.825 319.747 167.825H239.912C237.199 167.825 235 165.625 235 162.912Z" fill="#949799"/>
<rect x="235" y="176.421" width="253" height="7.36842" rx="3.68421" fill="#BFC0C2"/>
<rect x="235" y="191.158" width="216.2" height="7.36842" rx="3.68421" fill="#BFC0C2"/>
<g clip-path="url(#clip0_835_11834)">
<rect x="157" y="101" width="63" height="63" fill="#BFC0C2"/>
<ellipse cx="188.499" cy="188.15" rx="42.175" ry="42.175" fill="#EAEAEB"/>
<circle cx="188.499" cy="127.425" r="15.05" fill="#EAEAEB"/>
</g>
<rect x="56.5" y="140.5" width="392" height="231" rx="16.5" fill="#F9F9FA" stroke="#D4D5D6"/>
<rect x="70" y="154" width="16" height="16" rx="4" fill="#6CA1D6"/>
<path d="M87 314.912C87 312.199 89.1993 310 91.9123 310H199.389C202.102 310 204.302 312.199 204.302 314.912C204.302 317.625 202.102 319.825 199.389 319.825H91.9123C89.1993 319.825 87 317.625 87 314.912Z" fill="#949799"/>
<rect x="87" y="328.421" width="331" height="7.36842" rx="3.68421" fill="#BFC0C2"/>
<rect x="87" y="343.158" width="282.855" height="7.36842" rx="3.68421" fill="#BFC0C2"/>
<rect x="165" y="172" width="202" height="16" rx="8" fill="#D4D5D6"/>
<rect x="87" y="281" width="202" height="16" rx="8" fill="#48C2A9"/>
<path d="M165.555 205.765C165.555 204.745 165.79 203.83 166.26 203.02C166.74 202.21 167.385 201.58 168.195 201.13C169.015 200.67 169.91 200.44 170.88 200.44C171.99 200.44 172.975 200.715 173.835 201.265C174.705 201.805 175.335 202.575 175.725 203.575H173.67C173.4 203.025 173.025 202.615 172.545 202.345C172.065 202.075 171.51 201.94 170.88 201.94C170.19 201.94 169.575 202.095 169.035 202.405C168.495 202.715 168.07 203.16 167.76 203.74C167.46 204.32 167.31 204.995 167.31 205.765C167.31 206.535 167.46 207.21 167.76 207.79C168.07 208.37 168.495 208.82 169.035 209.14C169.575 209.45 170.19 209.605 170.88 209.605C171.51 209.605 172.065 209.47 172.545 209.2C173.025 208.93 173.4 208.52 173.67 207.97H175.725C175.335 208.97 174.705 209.74 173.835 210.28C172.975 210.82 171.99 211.09 170.88 211.09C169.9 211.09 169.005 210.865 168.195 210.415C167.385 209.955 166.74 209.32 166.26 208.51C165.79 207.7 165.555 206.785 165.555 205.765ZM181.312 211.135C180.532 211.135 179.827 210.96 179.197 210.61C178.567 210.25 178.072 209.75 177.712 209.11C177.352 208.46 177.172 207.71 177.172 206.86C177.172 206.02 177.357 205.275 177.727 204.625C178.097 203.975 178.602 203.475 179.242 203.125C179.882 202.775 180.597 202.6 181.387 202.6C182.177 202.6 182.892 202.775 183.532 203.125C184.172 203.475 184.677 203.975 185.047 204.625C185.417 205.275 185.602 206.02 185.602 206.86C185.602 207.7 185.412 208.445 185.032 209.095C184.652 209.745 184.132 210.25 183.472 210.61C182.822 210.96 182.102 211.135 181.312 211.135ZM181.312 209.65C181.752 209.65 182.162 209.545 182.542 209.335C182.932 209.125 183.247 208.81 183.487 208.39C183.727 207.97 183.847 207.46 183.847 206.86C183.847 206.26 183.732 205.755 183.502 205.345C183.272 204.925 182.967 204.61 182.587 204.4C182.207 204.19 181.797 204.085 181.357 204.085C180.917 204.085 180.507 204.19 180.127 204.4C179.757 204.61 179.462 204.925 179.242 205.345C179.022 205.755 178.912 206.26 178.912 206.86C178.912 207.75 179.137 208.44 179.587 208.93C180.047 209.41 180.622 209.65 181.312 209.65ZM191.462 202.6C192.112 202.6 192.692 202.735 193.202 203.005C193.722 203.275 194.127 203.675 194.417 204.205C194.707 204.735 194.852 205.375 194.852 206.125V211H193.157V206.38C193.157 205.64 192.972 205.075 192.602 204.685C192.232 204.285 191.727 204.085 191.087 204.085C190.447 204.085 189.937 204.285 189.557 204.685C189.187 205.075 189.002 205.64 189.002 206.38V211H187.292V202.735H189.002V203.68C189.282 203.34 189.637 203.075 190.067 202.885C190.507 202.695 190.972 202.6 191.462 202.6ZM200.033 211.135C199.383 211.135 198.798 211.02 198.278 210.79C197.768 210.55 197.363 210.23 197.063 209.83C196.763 209.42 196.603 208.965 196.583 208.465H198.353C198.383 208.815 198.548 209.11 198.848 209.35C199.158 209.58 199.543 209.695 200.003 209.695C200.483 209.695 200.853 209.605 201.113 209.425C201.383 209.235 201.518 208.995 201.518 208.705C201.518 208.395 201.368 208.165 201.068 208.015C200.778 207.865 200.313 207.7 199.673 207.52C199.053 207.35 198.548 207.185 198.158 207.025C197.768 206.865 197.428 206.62 197.138 206.29C196.858 205.96 196.718 205.525 196.718 204.985C196.718 204.545 196.848 204.145 197.108 203.785C197.368 203.415 197.738 203.125 198.218 202.915C198.708 202.705 199.268 202.6 199.898 202.6C200.838 202.6 201.593 202.84 202.163 203.32C202.743 203.79 203.053 204.435 203.093 205.255H201.383C201.353 204.885 201.203 204.59 200.933 204.37C200.663 204.15 200.298 204.04 199.838 204.04C199.388 204.04 199.043 204.125 198.803 204.295C198.563 204.465 198.443 204.69 198.443 204.97C198.443 205.19 198.523 205.375 198.683 205.525C198.843 205.675 199.038 205.795 199.268 205.885C199.498 205.965 199.838 206.07 200.288 206.2C200.888 206.36 201.378 206.525 201.758 206.695C202.148 206.855 202.483 207.095 202.763 207.415C203.043 207.735 203.188 208.16 203.198 208.69C203.198 209.16 203.068 209.58 202.808 209.95C202.548 210.32 202.178 210.61 201.698 210.82C201.228 211.03 200.673 211.135 200.033 211.135ZM212.531 202.735V211H210.821V210.025C210.551 210.365 210.196 210.635 209.756 210.835C209.326 211.025 208.866 211.12 208.376 211.12C207.726 211.12 207.141 210.985 206.621 210.715C206.111 210.445 205.706 210.045 205.406 209.515C205.116 208.985 204.971 208.345 204.971 207.595V202.735H206.666V207.34C206.666 208.08 206.851 208.65 207.221 209.05C207.591 209.44 208.096 209.635 208.736 209.635C209.376 209.635 209.881 209.44 210.251 209.05C210.631 208.65 210.821 208.08 210.821 207.34V202.735H212.531ZM216.497 199.9V211H214.787V199.9H216.497ZM220.737 204.13V208.705C220.737 209.015 220.807 209.24 220.947 209.38C221.097 209.51 221.347 209.575 221.697 209.575H222.747V211H221.397C220.627 211 220.037 210.82 219.627 210.46C219.217 210.1 219.012 209.515 219.012 208.705V204.13H218.037V202.735H219.012V200.68H220.737V202.735H222.747V204.13H220.737ZM225.193 201.64C224.883 201.64 224.623 201.535 224.413 201.325C224.203 201.115 224.098 200.855 224.098 200.545C224.098 200.235 224.203 199.975 224.413 199.765C224.623 199.555 224.883 199.45 225.193 199.45C225.493 199.45 225.748 199.555 225.958 199.765C226.168 199.975 226.273 200.235 226.273 200.545C226.273 200.855 226.168 201.115 225.958 201.325C225.748 201.535 225.493 201.64 225.193 201.64ZM226.033 202.735V211H224.323V202.735H226.033ZM232.448 202.6C233.098 202.6 233.678 202.735 234.188 203.005C234.708 203.275 235.113 203.675 235.403 204.205C235.693 204.735 235.838 205.375 235.838 206.125V211H234.143V206.38C234.143 205.64 233.958 205.075 233.588 204.685C233.218 204.285 232.713 204.085 232.073 204.085C231.433 204.085 230.923 204.285 230.543 204.685C230.173 205.075 229.988 205.64 229.988 206.38V211H228.278V202.735H229.988V203.68C230.268 203.34 230.623 203.075 231.053 202.885C231.493 202.695 231.958 202.6 232.448 202.6ZM241.35 202.6C241.99 202.6 242.555 202.73 243.045 202.99C243.545 203.24 243.935 203.555 244.215 203.935V202.735H245.94V211.135C245.94 211.895 245.78 212.57 245.46 213.16C245.14 213.76 244.675 214.23 244.065 214.57C243.465 214.91 242.745 215.08 241.905 215.08C240.785 215.08 239.855 214.815 239.115 214.285C238.375 213.765 237.955 213.055 237.855 212.155H239.55C239.68 212.585 239.955 212.93 240.375 213.19C240.805 213.46 241.315 213.595 241.905 213.595C242.595 213.595 243.15 213.385 243.57 212.965C244 212.545 244.215 211.935 244.215 211.135V209.755C243.925 210.145 243.53 210.475 243.03 210.745C242.54 211.005 241.98 211.135 241.35 211.135C240.63 211.135 239.97 210.955 239.37 210.595C238.78 210.225 238.31 209.715 237.96 209.065C237.62 208.405 237.45 207.66 237.45 206.83C237.45 206 237.62 205.265 237.96 204.625C238.31 203.985 238.78 203.49 239.37 203.14C239.97 202.78 240.63 202.6 241.35 202.6ZM244.215 206.86C244.215 206.29 244.095 205.795 243.855 205.375C243.625 204.955 243.32 204.635 242.94 204.415C242.56 204.195 242.15 204.085 241.71 204.085C241.27 204.085 240.86 204.195 240.48 204.415C240.1 204.625 239.79 204.94 239.55 205.36C239.32 205.77 239.205 206.26 239.205 206.83C239.205 207.4 239.32 207.9 239.55 208.33C239.79 208.76 240.1 209.09 240.48 209.32C240.87 209.54 241.28 209.65 241.71 209.65C242.15 209.65 242.56 209.54 242.94 209.32C243.32 209.1 243.625 208.78 243.855 208.36C244.095 207.93 244.215 207.43 244.215 206.86ZM258.817 200.575V201.97H256.042V211H254.332V201.97H251.542V200.575H258.817ZM268.124 206.665C268.124 206.975 268.104 207.255 268.064 207.505H261.749C261.799 208.165 262.044 208.695 262.484 209.095C262.924 209.495 263.464 209.695 264.104 209.695C265.024 209.695 265.674 209.31 266.054 208.54H267.899C267.649 209.3 267.194 209.925 266.534 210.415C265.884 210.895 265.074 211.135 264.104 211.135C263.314 211.135 262.604 210.96 261.974 210.61C261.354 210.25 260.864 209.75 260.504 209.11C260.154 208.46 259.979 207.71 259.979 206.86C259.979 206.01 260.149 205.265 260.489 204.625C260.839 203.975 261.324 203.475 261.944 203.125C262.574 202.775 263.294 202.6 264.104 202.6C264.884 202.6 265.579 202.77 266.189 203.11C266.799 203.45 267.274 203.93 267.614 204.55C267.954 205.16 268.124 205.865 268.124 206.665ZM266.339 206.125C266.329 205.495 266.104 204.99 265.664 204.61C265.224 204.23 264.679 204.04 264.029 204.04C263.439 204.04 262.934 204.23 262.514 204.61C262.094 204.98 261.844 205.485 261.764 206.125H266.339ZM269.237 206.86C269.237 206.01 269.407 205.265 269.747 204.625C270.097 203.975 270.577 203.475 271.187 203.125C271.797 202.775 272.497 202.6 273.287 202.6C274.287 202.6 275.112 202.84 275.762 203.32C276.422 203.79 276.867 204.465 277.097 205.345H275.252C275.102 204.935 274.862 204.615 274.532 204.385C274.202 204.155 273.787 204.04 273.287 204.04C272.587 204.04 272.027 204.29 271.607 204.79C271.197 205.28 270.992 205.97 270.992 206.86C270.992 207.75 271.197 208.445 271.607 208.945C272.027 209.445 272.587 209.695 273.287 209.695C274.277 209.695 274.932 209.26 275.252 208.39H277.097C276.857 209.23 276.407 209.9 275.747 210.4C275.087 210.89 274.267 211.135 273.287 211.135C272.497 211.135 271.797 210.96 271.187 210.61C270.577 210.25 270.097 209.75 269.747 209.11C269.407 208.46 269.237 207.71 269.237 206.86ZM283.076 202.6C283.706 202.6 284.266 202.735 284.756 203.005C285.256 203.275 285.646 203.675 285.926 204.205C286.216 204.735 286.361 205.375 286.361 206.125V211H284.666V206.38C284.666 205.64 284.481 205.075 284.111 204.685C283.741 204.285 283.236 204.085 282.596 204.085C281.956 204.085 281.446 204.285 281.066 204.685C280.696 205.075 280.511 205.64 280.511 206.38V211H278.801V199.9H280.511V203.695C280.801 203.345 281.166 203.075 281.606 202.885C282.056 202.695 282.546 202.6 283.076 202.6ZM292.712 202.6C293.362 202.6 293.942 202.735 294.452 203.005C294.972 203.275 295.377 203.675 295.667 204.205C295.957 204.735 296.102 205.375 296.102 206.125V211H294.407V206.38C294.407 205.64 294.222 205.075 293.852 204.685C293.482 204.285 292.977 204.085 292.337 204.085C291.697 204.085 291.187 204.285 290.807 204.685C290.437 205.075 290.252 205.64 290.252 206.38V211H288.542V202.735H290.252V203.68C290.532 203.34 290.887 203.075 291.317 202.885C291.757 202.695 292.222 202.6 292.712 202.6ZM299.153 201.64C298.843 201.64 298.583 201.535 298.373 201.325C298.163 201.115 298.058 200.855 298.058 200.545C298.058 200.235 298.163 199.975 298.373 199.765C298.583 199.555 298.843 199.45 299.153 199.45C299.453 199.45 299.708 199.555 299.918 199.765C300.128 199.975 300.233 200.235 300.233 200.545C300.233 200.855 300.128 201.115 299.918 201.325C299.708 201.535 299.453 201.64 299.153 201.64ZM299.993 202.735V211H298.283V202.735H299.993ZM301.668 206.86C301.668 206.01 301.838 205.265 302.178 204.625C302.528 203.975 303.008 203.475 303.618 203.125C304.228 202.775 304.928 202.6 305.718 202.6C306.718 202.6 307.543 202.84 308.193 203.32C308.853 203.79 309.298 204.465 309.528 205.345H307.683C307.533 204.935 307.293 204.615 306.963 204.385C306.633 204.155 306.218 204.04 305.718 204.04C305.018 204.04 304.458 204.29 304.038 204.79C303.628 205.28 303.423 205.97 303.423 206.86C303.423 207.75 303.628 208.445 304.038 208.945C304.458 209.445 305.018 209.695 305.718 209.695C306.708 209.695 307.363 209.26 307.683 208.39H309.528C309.288 209.23 308.838 209.9 308.178 210.4C307.518 210.89 306.698 211.135 305.718 211.135C304.928 211.135 304.228 210.96 303.618 210.61C303.008 210.25 302.528 209.75 302.178 209.11C301.838 208.46 301.668 207.71 301.668 206.86ZM310.662 206.83C310.662 206 310.832 205.265 311.172 204.625C311.522 203.985 311.992 203.49 312.582 203.14C313.182 202.78 313.842 202.6 314.562 202.6C315.212 202.6 315.777 202.73 316.257 202.99C316.747 203.24 317.137 203.555 317.427 203.935V202.735H319.152V211H317.427V209.77C317.137 210.16 316.742 210.485 316.242 210.745C315.742 211.005 315.172 211.135 314.532 211.135C313.822 211.135 313.172 210.955 312.582 210.595C311.992 210.225 311.522 209.715 311.172 209.065C310.832 208.405 310.662 207.66 310.662 206.83ZM317.427 206.86C317.427 206.29 317.307 205.795 317.067 205.375C316.837 204.955 316.532 204.635 316.152 204.415C315.772 204.195 315.362 204.085 314.922 204.085C314.482 204.085 314.072 204.195 313.692 204.415C313.312 204.625 313.002 204.94 312.762 205.36C312.532 205.77 312.417 206.26 312.417 206.83C312.417 207.4 312.532 207.9 312.762 208.33C313.002 208.76 313.312 209.09 313.692 209.32C314.082 209.54 314.492 209.65 314.922 209.65C315.362 209.65 315.772 209.54 316.152 209.32C316.532 209.1 316.837 208.78 317.067 208.36C317.307 207.93 317.427 207.43 317.427 206.86ZM323.108 199.9V211H321.398V199.9H323.108ZM340.23 200.575V211H338.52V203.86L335.34 211H334.155L330.96 203.86V211H329.25V200.575H331.095L334.755 208.75L338.4 200.575H340.23ZM341.908 206.83C341.908 206 342.078 205.265 342.418 204.625C342.768 203.985 343.238 203.49 343.828 203.14C344.428 202.78 345.088 202.6 345.808 202.6C346.458 202.6 347.023 202.73 347.503 202.99C347.993 203.24 348.383 203.555 348.673 203.935V202.735H350.398V211H348.673V209.77C348.383 210.16 347.988 210.485 347.488 210.745C346.988 211.005 346.418 211.135 345.778 211.135C345.068 211.135 344.418 210.955 343.828 210.595C343.238 210.225 342.768 209.715 342.418 209.065C342.078 208.405 341.908 207.66 341.908 206.83ZM348.673 206.86C348.673 206.29 348.553 205.795 348.313 205.375C348.083 204.955 347.778 204.635 347.398 204.415C347.018 204.195 346.608 204.085 346.168 204.085C345.728 204.085 345.318 204.195 344.938 204.415C344.558 204.625 344.248 204.94 344.008 205.36C343.778 205.77 343.663 206.26 343.663 206.83C343.663 207.4 343.778 207.9 344.008 208.33C344.248 208.76 344.558 209.09 344.938 209.32C345.328 209.54 345.738 209.65 346.168 209.65C346.608 209.65 347.018 209.54 347.398 209.32C347.778 209.1 348.083 208.78 348.313 208.36C348.553 207.93 348.673 207.43 348.673 206.86ZM356.814 202.6C357.464 202.6 358.044 202.735 358.554 203.005C359.074 203.275 359.479 203.675 359.769 204.205C360.059 204.735 360.204 205.375 360.204 206.125V211H358.509V206.38C358.509 205.64 358.324 205.075 357.954 204.685C357.584 204.285 357.079 204.085 356.439 204.085C355.799 204.085 355.289 204.285 354.909 204.685C354.539 205.075 354.354 205.64 354.354 206.38V211H352.644V202.735H354.354V203.68C354.634 203.34 354.989 203.075 355.419 202.885C355.859 202.695 356.324 202.6 356.814 202.6ZM361.815 206.83C361.815 206 361.985 205.265 362.325 204.625C362.675 203.985 363.145 203.49 363.735 203.14C364.335 202.78 364.995 202.6 365.715 202.6C366.365 202.6 366.93 202.73 367.41 202.99C367.9 203.24 368.29 203.555 368.58 203.935V202.735H370.305V211H368.58V209.77C368.29 210.16 367.895 210.485 367.395 210.745C366.895 211.005 366.325 211.135 365.685 211.135C364.975 211.135 364.325 210.955 363.735 210.595C363.145 210.225 362.675 209.715 362.325 209.065C361.985 208.405 361.815 207.66 361.815 206.83ZM368.58 206.86C368.58 206.29 368.46 205.795 368.22 205.375C367.99 204.955 367.685 204.635 367.305 204.415C366.925 204.195 366.515 204.085 366.075 204.085C365.635 204.085 365.225 204.195 364.845 204.415C364.465 204.625 364.155 204.94 363.915 205.36C363.685 205.77 363.57 206.26 363.57 206.83C363.57 207.4 363.685 207.9 363.915 208.33C364.155 208.76 364.465 209.09 364.845 209.32C365.235 209.54 365.645 209.65 366.075 209.65C366.515 209.65 366.925 209.54 367.305 209.32C367.685 209.1 367.99 208.78 368.22 208.36C368.46 207.93 368.58 207.43 368.58 206.86ZM375.881 202.6C376.521 202.6 377.086 202.73 377.576 202.99C378.076 203.24 378.466 203.555 378.746 203.935V202.735H380.471V211.135C380.471 211.895 380.311 212.57 379.991 213.16C379.671 213.76 379.206 214.23 378.596 214.57C377.996 214.91 377.276 215.08 376.436 215.08C375.316 215.08 374.386 214.815 373.646 214.285C372.906 213.765 372.486 213.055 372.386 212.155H374.081C374.211 212.585 374.486 212.93 374.906 213.19C375.336 213.46 375.846 213.595 376.436 213.595C377.126 213.595 377.681 213.385 378.101 212.965C378.531 212.545 378.746 211.935 378.746 211.135V209.755C378.456 210.145 378.061 210.475 377.561 210.745C377.071 211.005 376.511 211.135 375.881 211.135C375.161 211.135 374.501 210.955 373.901 210.595C373.311 210.225 372.841 209.715 372.491 209.065C372.151 208.405 371.981 207.66 371.981 206.83C371.981 206 372.151 205.265 372.491 204.625C372.841 203.985 373.311 203.49 373.901 203.14C374.501 202.78 375.161 202.6 375.881 202.6ZM378.746 206.86C378.746 206.29 378.626 205.795 378.386 205.375C378.156 204.955 377.851 204.635 377.471 204.415C377.091 204.195 376.681 204.085 376.241 204.085C375.801 204.085 375.391 204.195 375.011 204.415C374.631 204.625 374.321 204.94 374.081 205.36C373.851 205.77 373.736 206.26 373.736 206.83C373.736 207.4 373.851 207.9 374.081 208.33C374.321 208.76 374.631 209.09 375.011 209.32C375.401 209.54 375.811 209.65 376.241 209.65C376.681 209.65 377.091 209.54 377.471 209.32C377.851 209.1 378.156 208.78 378.386 208.36C378.626 207.93 378.746 207.43 378.746 206.86ZM390.292 206.665C390.292 206.975 390.272 207.255 390.232 207.505H383.917C383.967 208.165 384.212 208.695 384.652 209.095C385.092 209.495 385.632 209.695 386.272 209.695C387.192 209.695 387.842 209.31 388.222 208.54H390.067C389.817 209.3 389.362 209.925 388.702 210.415C388.052 210.895 387.242 211.135 386.272 211.135C385.482 211.135 384.772 210.96 384.142 210.61C383.522 210.25 383.032 209.75 382.672 209.11C382.322 208.46 382.147 207.71 382.147 206.86C382.147 206.01 382.317 205.265 382.657 204.625C383.007 203.975 383.492 203.475 384.112 203.125C384.742 202.775 385.462 202.6 386.272 202.6C387.052 202.6 387.747 202.77 388.357 203.11C388.967 203.45 389.442 203.93 389.782 204.55C390.122 205.16 390.292 205.865 390.292 206.665ZM388.507 206.125C388.497 205.495 388.272 204.99 387.832 204.61C387.392 204.23 386.847 204.04 386.197 204.04C385.607 204.04 385.102 204.23 384.682 204.61C384.262 204.98 384.012 205.485 383.932 206.125H388.507ZM393.685 203.935C393.935 203.515 394.265 203.19 394.675 202.96C395.095 202.72 395.59 202.6 396.16 202.6V204.37H395.725C395.055 204.37 394.545 204.54 394.195 204.88C393.855 205.22 393.685 205.81 393.685 206.65V211H391.975V202.735H393.685V203.935Z" fill="#478ACC"/>
<path d="M165 232.912C165 230.199 167.199 228 169.912 228H249.747C252.46 228 254.66 230.199 254.66 232.912C254.66 235.625 252.46 237.825 249.747 237.825H169.912C167.199 237.825 165 235.625 165 232.912Z" fill="#949799"/>
<rect x="165" y="246.421" width="253" height="7.36842" rx="3.68421" fill="#BFC0C2"/>
<rect x="165" y="261.158" width="216.2" height="7.36842" rx="3.68421" fill="#BFC0C2"/>
<g clip-path="url(#clip1_835_11834)">
<rect x="87" y="171" width="63" height="63" fill="#BFC0C2"/>
<ellipse cx="118.499" cy="258.15" rx="42.175" ry="42.175" fill="#EAEAEB"/>
<circle cx="118.499" cy="197.425" r="15.05" fill="#EAEAEB"/>
</g>
</g>
<g filter="url(#filter2_d_835_11834)">
<rect x="385" y="58" width="173" height="170" rx="16" fill="#EFEEEE"/>
<rect x="384.5" y="57.5" width="174" height="171" rx="16.5" stroke="#EAEAEB"/>
</g>
<path d="M385 90C385 74.9151 385 67.3726 389.686 62.6863C394.373 58 401.915 58 417 58H526C541.085 58 548.627 58 553.314 62.6863C558 67.3726 558 74.9151 558 90V92H385V90Z" fill="#478ACC"/>
<g filter="url(#filter3_i_835_11834)">
<path d="M385 92H558V126H385V92Z" fill="#F9F9FA"/>
</g>
<path d="M385 91.5H384.5V92V126V126.5H385H558H558.5V126V92V91.5H558H385Z" stroke="#EAEAEB"/>
<g filter="url(#filter4_i_835_11834)">
<path d="M385 126H558V160H385V126Z" fill="#F9F9FA"/>
</g>
<path d="M385 125.5H384.5V126V160V160.5H385H558H558.5V160V126V125.5H558H385Z" stroke="#EAEAEB"/>
<g filter="url(#filter5_i_835_11834)">
<path d="M385 160H558V194H385V160Z" fill="#F9F9FA"/>
</g>
<path d="M385 159.5H384.5V160V194V194.5H385H558H558.5V194V160V159.5H558H385Z" stroke="#EAEAEB"/>
<g filter="url(#filter6_i_835_11834)">
<path d="M385 194H558V196C558 211.085 558 218.627 553.314 223.314C548.627 228 541.085 228 526 228H417C401.915 228 394.373 228 389.686 223.314C385 218.627 385 211.085 385 196V194Z" fill="#F9F9FA"/>
</g>
<path d="M385 193.5H384.5V194V196V196.04C384.5 203.549 384.5 209.233 385.09 213.623C385.683 218.035 386.881 221.216 389.333 223.667C391.784 226.119 394.965 227.317 399.377 227.91C403.767 228.5 409.451 228.5 416.96 228.5H417H526H526.04C533.549 228.5 539.233 228.5 543.623 227.91C548.035 227.317 551.216 226.119 553.667 223.667C556.119 221.216 557.317 218.035 557.91 213.623C558.5 209.233 558.5 203.549 558.5 196.041V196V194V193.5H558H385Z" stroke="#EAEAEB"/>
<path d="M410.232 80L408.312 76.664H407.268V80H405.9V71.66H408.78C409.42 71.66 409.96 71.772 410.4 71.996C410.848 72.22 411.18 72.52 411.396 72.896C411.62 73.272 411.732 73.692 411.732 74.156C411.732 74.7 411.572 75.196 411.252 75.644C410.94 76.084 410.456 76.384 409.8 76.544L411.864 80H410.232ZM407.268 75.572H408.78C409.292 75.572 409.676 75.444 409.932 75.188C410.196 74.932 410.328 74.588 410.328 74.156C410.328 73.724 410.2 73.388 409.944 73.148C409.688 72.9 409.3 72.776 408.78 72.776H407.268V75.572ZM419.542 76.532C419.542 76.78 419.526 77.004 419.494 77.204H414.442C414.482 77.732 414.678 78.156 415.03 78.476C415.382 78.796 415.814 78.956 416.326 78.956C417.062 78.956 417.582 78.648 417.886 78.032H419.362C419.162 78.64 418.798 79.14 418.27 79.532C417.75 79.916 417.102 80.108 416.326 80.108C415.694 80.108 415.126 79.968 414.622 79.688C414.126 79.4 413.734 79 413.446 78.488C413.166 77.968 413.026 77.368 413.026 76.688C413.026 76.008 413.162 75.412 413.434 74.9C413.714 74.38 414.102 73.98 414.598 73.7C415.102 73.42 415.678 73.28 416.326 73.28C416.95 73.28 417.506 73.416 417.994 73.688C418.482 73.96 418.862 74.344 419.134 74.84C419.406 75.328 419.542 75.892 419.542 76.532ZM418.114 76.1C418.106 75.596 417.926 75.192 417.574 74.888C417.222 74.584 416.786 74.432 416.266 74.432C415.794 74.432 415.39 74.584 415.054 74.888C414.718 75.184 414.518 75.588 414.454 76.1H418.114ZM423.444 78.776L425.316 73.388H426.768L424.248 80H422.616L420.108 73.388H421.572L423.444 78.776ZM433.862 76.532C433.862 76.78 433.846 77.004 433.814 77.204H428.762C428.802 77.732 428.998 78.156 429.35 78.476C429.702 78.796 430.134 78.956 430.646 78.956C431.382 78.956 431.902 78.648 432.206 78.032H433.682C433.482 78.64 433.118 79.14 432.59 79.532C432.07 79.916 431.422 80.108 430.646 80.108C430.014 80.108 429.446 79.968 428.942 79.688C428.446 79.4 428.054 79 427.766 78.488C427.486 77.968 427.346 77.368 427.346 76.688C427.346 76.008 427.482 75.412 427.754 74.9C428.034 74.38 428.422 73.98 428.918 73.7C429.422 73.42 429.998 73.28 430.646 73.28C431.27 73.28 431.826 73.416 432.314 73.688C432.802 73.96 433.182 74.344 433.454 74.84C433.726 75.328 433.862 75.892 433.862 76.532ZM432.434 76.1C432.426 75.596 432.246 75.192 431.894 74.888C431.542 74.584 431.106 74.432 430.586 74.432C430.114 74.432 429.71 74.584 429.374 74.888C429.038 75.184 428.838 75.588 428.774 76.1H432.434ZM434.753 76.664C434.753 76 434.889 75.412 435.161 74.9C435.441 74.388 435.817 73.992 436.289 73.712C436.769 73.424 437.297 73.28 437.873 73.28C438.393 73.28 438.845 73.384 439.229 73.592C439.621 73.792 439.933 74.044 440.165 74.348V73.388H441.545V80H440.165V79.016C439.933 79.328 439.617 79.588 439.217 79.796C438.817 80.004 438.361 80.108 437.849 80.108C437.281 80.108 436.761 79.964 436.289 79.676C435.817 79.38 435.441 78.972 435.161 78.452C434.889 77.924 434.753 77.328 434.753 76.664ZM440.165 76.688C440.165 76.232 440.069 75.836 439.877 75.5C439.693 75.164 439.449 74.908 439.145 74.732C438.841 74.556 438.513 74.468 438.161 74.468C437.809 74.468 437.481 74.556 437.177 74.732C436.873 74.9 436.625 75.152 436.433 75.488C436.249 75.816 436.157 76.208 436.157 76.664C436.157 77.12 436.249 77.52 436.433 77.864C436.625 78.208 436.873 78.472 437.177 78.656C437.489 78.832 437.817 78.92 438.161 78.92C438.513 78.92 438.841 78.832 439.145 78.656C439.449 78.48 439.693 78.224 439.877 77.888C440.069 77.544 440.165 77.144 440.165 76.688ZM444.709 71.12V80H443.341V71.12H444.709ZM449.167 76.688C449.167 76.008 449.303 75.412 449.575 74.9C449.855 74.38 450.239 73.98 450.727 73.7C451.215 73.42 451.775 73.28 452.407 73.28C453.207 73.28 453.867 73.472 454.387 73.856C454.915 74.232 455.271 74.772 455.455 75.476H453.979C453.859 75.148 453.667 74.892 453.403 74.708C453.139 74.524 452.807 74.432 452.407 74.432C451.847 74.432 451.399 74.632 451.063 75.032C450.735 75.424 450.571 75.976 450.571 76.688C450.571 77.4 450.735 77.956 451.063 78.356C451.399 78.756 451.847 78.956 452.407 78.956C453.199 78.956 453.723 78.608 453.979 77.912H455.455C455.263 78.584 454.903 79.12 454.375 79.52C453.847 79.912 453.191 80.108 452.407 80.108C451.775 80.108 451.215 79.968 450.727 79.688C450.239 79.4 449.855 79 449.575 78.488C449.303 77.968 449.167 77.368 449.167 76.688ZM459.686 80.108C459.062 80.108 458.498 79.968 457.994 79.688C457.49 79.4 457.094 79 456.806 78.488C456.518 77.968 456.374 77.368 456.374 76.688C456.374 76.016 456.522 75.42 456.818 74.9C457.114 74.38 457.518 73.98 458.03 73.7C458.542 73.42 459.114 73.28 459.746 73.28C460.378 73.28 460.95 73.42 461.462 73.7C461.974 73.98 462.378 74.38 462.674 74.9C462.97 75.42 463.118 76.016 463.118 76.688C463.118 77.36 462.966 77.956 462.662 78.476C462.358 78.996 461.942 79.4 461.414 79.688C460.894 79.968 460.318 80.108 459.686 80.108ZM459.686 78.92C460.038 78.92 460.366 78.836 460.67 78.668C460.982 78.5 461.234 78.248 461.426 77.912C461.618 77.576 461.714 77.168 461.714 76.688C461.714 76.208 461.622 75.804 461.438 75.476C461.254 75.14 461.01 74.888 460.706 74.72C460.402 74.552 460.074 74.468 459.722 74.468C459.37 74.468 459.042 74.552 458.738 74.72C458.442 74.888 458.206 75.14 458.03 75.476C457.854 75.804 457.766 76.208 457.766 76.688C457.766 77.4 457.946 77.952 458.306 78.344C458.674 78.728 459.134 78.92 459.686 78.92ZM467.806 73.28C468.326 73.28 468.79 73.388 469.198 73.604C469.614 73.82 469.938 74.14 470.17 74.564C470.402 74.988 470.518 75.5 470.518 76.1V80H469.162V76.304C469.162 75.712 469.014 75.26 468.718 74.948C468.422 74.628 468.018 74.468 467.506 74.468C466.994 74.468 466.586 74.628 466.282 74.948C465.986 75.26 465.838 75.712 465.838 76.304V80H464.47V73.388H465.838V74.144C466.062 73.872 466.346 73.66 466.69 73.508C467.042 73.356 467.414 73.28 467.806 73.28ZM473.859 74.504V78.164C473.859 78.412 473.915 78.592 474.027 78.704C474.147 78.808 474.347 78.86 474.627 78.86H475.467V80H474.387C473.771 80 473.299 79.856 472.971 79.568C472.643 79.28 472.479 78.812 472.479 78.164V74.504H471.699V73.388H472.479V71.744H473.859V73.388H475.467V74.504H473.859ZM476.272 76.664C476.272 76 476.408 75.412 476.68 74.9C476.96 74.388 477.336 73.992 477.808 73.712C478.288 73.424 478.816 73.28 479.392 73.28C479.912 73.28 480.364 73.384 480.748 73.592C481.14 73.792 481.452 74.044 481.684 74.348V73.388H483.064V80H481.684V79.016C481.452 79.328 481.136 79.588 480.736 79.796C480.336 80.004 479.88 80.108 479.368 80.108C478.8 80.108 478.28 79.964 477.808 79.676C477.336 79.38 476.96 78.972 476.68 78.452C476.408 77.924 476.272 77.328 476.272 76.664ZM481.684 76.688C481.684 76.232 481.588 75.836 481.396 75.5C481.212 75.164 480.968 74.908 480.664 74.732C480.36 74.556 480.032 74.468 479.68 74.468C479.328 74.468 479 74.556 478.696 74.732C478.392 74.9 478.144 75.152 477.952 75.488C477.768 75.816 477.676 76.208 477.676 76.664C477.676 77.12 477.768 77.52 477.952 77.864C478.144 78.208 478.392 78.472 478.696 78.656C479.008 78.832 479.336 78.92 479.68 78.92C480.032 78.92 480.36 78.832 480.664 78.656C480.968 78.48 481.212 78.224 481.396 77.888C481.588 77.544 481.684 77.144 481.684 76.688ZM484.405 76.688C484.405 76.008 484.541 75.412 484.813 74.9C485.093 74.38 485.477 73.98 485.965 73.7C486.453 73.42 487.013 73.28 487.645 73.28C488.445 73.28 489.105 73.472 489.625 73.856C490.153 74.232 490.509 74.772 490.693 75.476H489.217C489.097 75.148 488.905 74.892 488.641 74.708C488.377 74.524 488.045 74.432 487.645 74.432C487.085 74.432 486.637 74.632 486.301 75.032C485.973 75.424 485.809 75.976 485.809 76.688C485.809 77.4 485.973 77.956 486.301 78.356C486.637 78.756 487.085 78.956 487.645 78.956C488.437 78.956 488.961 78.608 489.217 77.912H490.693C490.501 78.584 490.141 79.12 489.613 79.52C489.085 79.912 488.429 80.108 487.645 80.108C487.013 80.108 486.453 79.968 485.965 79.688C485.477 79.4 485.093 79 484.813 78.488C484.541 77.968 484.405 77.368 484.405 76.688ZM493.652 74.504V78.164C493.652 78.412 493.708 78.592 493.82 78.704C493.94 78.808 494.14 78.86 494.42 78.86H495.26V80H494.18C493.564 80 493.092 79.856 492.764 79.568C492.436 79.28 492.272 78.812 492.272 78.164V74.504H491.492V73.388H492.272V71.744H493.652V73.388H495.26V74.504H493.652ZM498.921 80.108C498.401 80.108 497.933 80.016 497.517 79.832C497.109 79.64 496.785 79.384 496.545 79.064C496.305 78.736 496.177 78.372 496.161 77.972H497.577C497.601 78.252 497.733 78.488 497.973 78.68C498.221 78.864 498.529 78.956 498.897 78.956C499.281 78.956 499.577 78.884 499.785 78.74C500.001 78.588 500.109 78.396 500.109 78.164C500.109 77.916 499.989 77.732 499.749 77.612C499.517 77.492 499.145 77.36 498.633 77.216C498.137 77.08 497.733 76.948 497.421 76.82C497.109 76.692 496.837 76.496 496.605 76.232C496.381 75.968 496.269 75.62 496.269 75.188C496.269 74.836 496.373 74.516 496.581 74.228C496.789 73.932 497.085 73.7 497.469 73.532C497.861 73.364 498.309 73.28 498.813 73.28C499.565 73.28 500.169 73.472 500.625 73.856C501.089 74.232 501.337 74.748 501.369 75.404H500.001C499.977 75.108 499.857 74.872 499.641 74.696C499.425 74.52 499.133 74.432 498.765 74.432C498.405 74.432 498.129 74.5 497.937 74.636C497.745 74.772 497.649 74.952 497.649 75.176C497.649 75.352 497.713 75.5 497.841 75.62C497.969 75.74 498.125 75.836 498.309 75.908C498.493 75.972 498.765 76.056 499.125 76.16C499.605 76.288 499.997 76.42 500.301 76.556C500.613 76.684 500.881 76.876 501.105 77.132C501.329 77.388 501.445 77.728 501.453 78.152C501.453 78.528 501.349 78.864 501.141 79.16C500.933 79.456 500.637 79.688 500.253 79.856C499.877 80.024 499.433 80.108 498.921 80.108Z" fill="white"/>
<path d="M407.016 106.524V109.32H410.064V110.22H407.016V113.1H410.424V114H405.924V105.624H410.424V106.524H407.016ZM419.984 107.304C420.496 107.304 420.952 107.412 421.352 107.628C421.752 107.836 422.068 108.152 422.3 108.576C422.532 109 422.648 109.516 422.648 110.124V114H421.568V110.28C421.568 109.624 421.404 109.124 421.076 108.78C420.756 108.428 420.32 108.252 419.768 108.252C419.2 108.252 418.748 108.436 418.412 108.804C418.076 109.164 417.908 109.688 417.908 110.376V114H416.828V110.28C416.828 109.624 416.664 109.124 416.336 108.78C416.016 108.428 415.58 108.252 415.028 108.252C414.46 108.252 414.008 108.436 413.672 108.804C413.336 109.164 413.168 109.688 413.168 110.376V114H412.076V107.424H413.168V108.372C413.384 108.028 413.672 107.764 414.032 107.58C414.4 107.396 414.804 107.304 415.244 107.304C415.796 107.304 416.284 107.428 416.708 107.676C417.132 107.924 417.448 108.288 417.656 108.768C417.84 108.304 418.144 107.944 418.568 107.688C418.992 107.432 419.464 107.304 419.984 107.304ZM424.032 110.688C424.032 110.016 424.168 109.428 424.44 108.924C424.712 108.412 425.084 108.016 425.556 107.736C426.036 107.456 426.568 107.316 427.152 107.316C427.728 107.316 428.228 107.44 428.652 107.688C429.076 107.936 429.392 108.248 429.6 108.624V107.424H430.704V114H429.6V112.776C429.384 113.16 429.06 113.48 428.628 113.736C428.204 113.984 427.708 114.108 427.14 114.108C426.556 114.108 426.028 113.964 425.556 113.676C425.084 113.388 424.712 112.984 424.44 112.464C424.168 111.944 424.032 111.352 424.032 110.688ZM429.6 110.7C429.6 110.204 429.5 109.772 429.3 109.404C429.1 109.036 428.828 108.756 428.484 108.564C428.148 108.364 427.776 108.264 427.368 108.264C426.96 108.264 426.588 108.36 426.252 108.552C425.916 108.744 425.648 109.024 425.448 109.392C425.248 109.76 425.148 110.192 425.148 110.688C425.148 111.192 425.248 111.632 425.448 112.008C425.648 112.376 425.916 112.66 426.252 112.86C426.588 113.052 426.96 113.148 427.368 113.148C427.776 113.148 428.148 113.052 428.484 112.86C428.828 112.66 429.1 112.376 429.3 112.008C429.5 111.632 429.6 111.196 429.6 110.7ZM433.113 106.356C432.905 106.356 432.729 106.284 432.585 106.14C432.441 105.996 432.369 105.82 432.369 105.612C432.369 105.404 432.441 105.228 432.585 105.084C432.729 104.94 432.905 104.868 433.113 104.868C433.313 104.868 433.481 104.94 433.617 105.084C433.761 105.228 433.833 105.404 433.833 105.612C433.833 105.82 433.761 105.996 433.617 106.14C433.481 106.284 433.313 106.356 433.113 106.356ZM433.641 107.424V114H432.549V107.424H433.641ZM436.594 105.12V114H435.502V105.12H436.594ZM442.218 106.356C442.01 106.356 441.834 106.284 441.69 106.14C441.546 105.996 441.474 105.82 441.474 105.612C441.474 105.404 441.546 105.228 441.69 105.084C441.834 104.94 442.01 104.868 442.218 104.868C442.418 104.868 442.586 104.94 442.722 105.084C442.866 105.228 442.938 105.404 442.938 105.612C442.938 105.82 442.866 105.996 442.722 106.14C442.586 106.284 442.418 106.356 442.218 106.356ZM442.746 107.424V114H441.654V107.424H442.746ZM447.812 107.304C448.612 107.304 449.26 107.548 449.756 108.036C450.252 108.516 450.5 109.212 450.5 110.124V114H449.42V110.28C449.42 109.624 449.256 109.124 448.928 108.78C448.6 108.428 448.152 108.252 447.584 108.252C447.008 108.252 446.548 108.432 446.204 108.792C445.868 109.152 445.7 109.676 445.7 110.364V114H444.608V107.424H445.7V108.36C445.916 108.024 446.208 107.764 446.576 107.58C446.952 107.396 447.364 107.304 447.812 107.304ZM451.875 110.688C451.875 110.016 452.011 109.428 452.283 108.924C452.555 108.412 452.927 108.016 453.399 107.736C453.879 107.456 454.415 107.316 455.007 107.316C455.519 107.316 455.995 107.436 456.435 107.676C456.875 107.908 457.211 108.216 457.443 108.6V105.12H458.547V114H457.443V112.764C457.227 113.156 456.907 113.48 456.483 113.736C456.059 113.984 455.563 114.108 454.995 114.108C454.411 114.108 453.879 113.964 453.399 113.676C452.927 113.388 452.555 112.984 452.283 112.464C452.011 111.944 451.875 111.352 451.875 110.688ZM457.443 110.7C457.443 110.204 457.343 109.772 457.143 109.404C456.943 109.036 456.671 108.756 456.327 108.564C455.991 108.364 455.619 108.264 455.211 108.264C454.803 108.264 454.431 108.36 454.095 108.552C453.759 108.744 453.491 109.024 453.291 109.392C453.091 109.76 452.991 110.192 452.991 110.688C452.991 111.192 453.091 111.632 453.291 112.008C453.491 112.376 453.759 112.66 454.095 112.86C454.431 113.052 454.803 113.148 455.211 113.148C455.619 113.148 455.991 113.052 456.327 112.86C456.671 112.66 456.943 112.376 457.143 112.008C457.343 111.632 457.443 111.196 457.443 110.7ZM460.957 106.356C460.749 106.356 460.573 106.284 460.429 106.14C460.285 105.996 460.213 105.82 460.213 105.612C460.213 105.404 460.285 105.228 460.429 105.084C460.573 104.94 460.749 104.868 460.957 104.868C461.157 104.868 461.325 104.94 461.461 105.084C461.605 105.228 461.677 105.404 461.677 105.612C461.677 105.82 461.605 105.996 461.461 106.14C461.325 106.284 461.157 106.356 460.957 106.356ZM461.485 107.424V114H460.393V107.424H461.485ZM465.794 112.992L467.834 107.424H468.998L466.418 114H465.146L462.566 107.424H463.742L465.794 112.992ZM470.636 106.356C470.428 106.356 470.252 106.284 470.108 106.14C469.964 105.996 469.892 105.82 469.892 105.612C469.892 105.404 469.964 105.228 470.108 105.084C470.252 104.94 470.428 104.868 470.636 104.868C470.836 104.868 471.004 104.94 471.14 105.084C471.284 105.228 471.356 105.404 471.356 105.612C471.356 105.82 471.284 105.996 471.14 106.14C471.004 106.284 470.836 106.356 470.636 106.356ZM471.164 107.424V114H470.072V107.424H471.164ZM472.618 110.688C472.618 110.016 472.754 109.428 473.026 108.924C473.298 108.412 473.67 108.016 474.142 107.736C474.622 107.456 475.158 107.316 475.75 107.316C476.262 107.316 476.738 107.436 477.178 107.676C477.618 107.908 477.954 108.216 478.186 108.6V105.12H479.29V114H478.186V112.764C477.97 113.156 477.65 113.48 477.226 113.736C476.802 113.984 476.306 114.108 475.738 114.108C475.154 114.108 474.622 113.964 474.142 113.676C473.67 113.388 473.298 112.984 473.026 112.464C472.754 111.944 472.618 111.352 472.618 110.688ZM478.186 110.7C478.186 110.204 478.086 109.772 477.886 109.404C477.686 109.036 477.414 108.756 477.07 108.564C476.734 108.364 476.362 108.264 475.954 108.264C475.546 108.264 475.174 108.36 474.838 108.552C474.502 108.744 474.234 109.024 474.034 109.392C473.834 109.76 473.734 110.192 473.734 110.688C473.734 111.192 473.834 111.632 474.034 112.008C474.234 112.376 474.502 112.66 474.838 112.86C475.174 113.052 475.546 113.148 475.954 113.148C476.362 113.148 476.734 113.052 477.07 112.86C477.414 112.66 477.686 112.376 477.886 112.008C478.086 111.632 478.186 111.196 478.186 110.7ZM486.967 107.424V114H485.875V113.028C485.667 113.364 485.375 113.628 484.999 113.82C484.631 114.004 484.223 114.096 483.775 114.096C483.263 114.096 482.803 113.992 482.395 113.784C481.987 113.568 481.663 113.248 481.423 112.824C481.191 112.4 481.075 111.884 481.075 111.276V107.424H482.155V111.132C482.155 111.78 482.319 112.28 482.647 112.632C482.975 112.976 483.423 113.148 483.991 113.148C484.575 113.148 485.035 112.968 485.371 112.608C485.707 112.248 485.875 111.724 485.875 111.036V107.424H486.967ZM488.403 110.688C488.403 110.016 488.539 109.428 488.811 108.924C489.083 108.412 489.455 108.016 489.927 107.736C490.407 107.456 490.939 107.316 491.523 107.316C492.099 107.316 492.599 107.44 493.023 107.688C493.447 107.936 493.763 108.248 493.971 108.624V107.424H495.075V114H493.971V112.776C493.755 113.16 493.431 113.48 492.999 113.736C492.575 113.984 492.079 114.108 491.511 114.108C490.927 114.108 490.399 113.964 489.927 113.676C489.455 113.388 489.083 112.984 488.811 112.464C488.539 111.944 488.403 111.352 488.403 110.688ZM493.971 110.7C493.971 110.204 493.871 109.772 493.671 109.404C493.471 109.036 493.199 108.756 492.855 108.564C492.519 108.364 492.147 108.264 491.739 108.264C491.331 108.264 490.959 108.36 490.623 108.552C490.287 108.744 490.019 109.024 489.819 109.392C489.619 109.76 489.519 110.192 489.519 110.688C489.519 111.192 489.619 111.632 489.819 112.008C490.019 112.376 490.287 112.66 490.623 112.86C490.959 113.052 491.331 113.148 491.739 113.148C492.147 113.148 492.519 113.052 492.855 112.86C493.199 112.66 493.471 112.376 493.671 112.008C493.871 111.632 493.971 111.196 493.971 110.7ZM498.012 105.12V114H496.92V105.12H498.012ZM502.201 114.108C501.697 114.108 501.245 114.024 500.845 113.856C500.445 113.68 500.129 113.44 499.897 113.136C499.665 112.824 499.537 112.468 499.513 112.068H500.641C500.673 112.396 500.825 112.664 501.097 112.872C501.377 113.08 501.741 113.184 502.189 113.184C502.605 113.184 502.933 113.092 503.173 112.908C503.413 112.724 503.533 112.492 503.533 112.212C503.533 111.924 503.405 111.712 503.149 111.576C502.893 111.432 502.497 111.292 501.961 111.156C501.473 111.028 501.073 110.9 500.761 110.772C500.457 110.636 500.193 110.44 499.969 110.184C499.753 109.92 499.645 109.576 499.645 109.152C499.645 108.816 499.745 108.508 499.945 108.228C500.145 107.948 500.429 107.728 500.797 107.568C501.165 107.4 501.585 107.316 502.057 107.316C502.785 107.316 503.373 107.5 503.821 107.868C504.269 108.236 504.509 108.74 504.541 109.38H503.449C503.425 109.036 503.285 108.76 503.029 108.552C502.781 108.344 502.445 108.24 502.021 108.24C501.629 108.24 501.317 108.324 501.085 108.492C500.853 108.66 500.737 108.88 500.737 109.152C500.737 109.368 500.805 109.548 500.941 109.692C501.085 109.828 501.261 109.94 501.469 110.028C501.685 110.108 501.981 110.2 502.357 110.304C502.829 110.432 503.213 110.56 503.509 110.688C503.805 110.808 504.057 110.992 504.265 111.24C504.481 111.488 504.593 111.812 504.601 112.212C504.601 112.572 504.501 112.896 504.301 113.184C504.101 113.472 503.817 113.7 503.449 113.868C503.089 114.028 502.673 114.108 502.201 114.108ZM410.868 146.14H407.22L406.548 148H405.396L408.42 139.684H409.68L412.692 148H411.54L410.868 146.14ZM410.556 145.252L409.044 141.028L407.532 145.252H410.556ZM413.602 144.688C413.602 144.016 413.738 143.428 414.01 142.924C414.282 142.412 414.654 142.016 415.126 141.736C415.606 141.456 416.142 141.316 416.734 141.316C417.246 141.316 417.722 141.436 418.162 141.676C418.602 141.908 418.938 142.216 419.17 142.6V139.12H420.274V148H419.17V146.764C418.954 147.156 418.634 147.48 418.21 147.736C417.786 147.984 417.29 148.108 416.722 148.108C416.138 148.108 415.606 147.964 415.126 147.676C414.654 147.388 414.282 146.984 414.01 146.464C413.738 145.944 413.602 145.352 413.602 144.688ZM419.17 144.7C419.17 144.204 419.07 143.772 418.87 143.404C418.67 143.036 418.398 142.756 418.054 142.564C417.718 142.364 417.346 142.264 416.938 142.264C416.53 142.264 416.158 142.36 415.822 142.552C415.486 142.744 415.218 143.024 415.018 143.392C414.818 143.76 414.718 144.192 414.718 144.688C414.718 145.192 414.818 145.632 415.018 146.008C415.218 146.376 415.486 146.66 415.822 146.86C416.158 147.052 416.53 147.148 416.938 147.148C417.346 147.148 417.718 147.052 418.054 146.86C418.398 146.66 418.67 146.376 418.87 146.008C419.07 145.632 419.17 145.196 419.17 144.7ZM421.711 144.688C421.711 144.016 421.847 143.428 422.119 142.924C422.391 142.412 422.763 142.016 423.235 141.736C423.715 141.456 424.251 141.316 424.843 141.316C425.355 141.316 425.831 141.436 426.271 141.676C426.711 141.908 427.047 142.216 427.279 142.6V139.12H428.383V148H427.279V146.764C427.063 147.156 426.743 147.48 426.319 147.736C425.895 147.984 425.399 148.108 424.831 148.108C424.247 148.108 423.715 147.964 423.235 147.676C422.763 147.388 422.391 146.984 422.119 146.464C421.847 145.944 421.711 145.352 421.711 144.688ZM427.279 144.7C427.279 144.204 427.179 143.772 426.979 143.404C426.779 143.036 426.507 142.756 426.163 142.564C425.827 142.364 425.455 142.264 425.047 142.264C424.639 142.264 424.267 142.36 423.931 142.552C423.595 142.744 423.327 143.024 423.127 143.392C422.927 143.76 422.827 144.192 422.827 144.688C422.827 145.192 422.927 145.632 423.127 146.008C423.327 146.376 423.595 146.66 423.931 146.86C424.267 147.052 424.639 147.148 425.047 147.148C425.455 147.148 425.827 147.052 426.163 146.86C426.507 146.66 426.779 146.376 426.979 146.008C427.179 145.632 427.279 145.196 427.279 144.7ZM434.76 142.324V146.2C434.76 146.52 434.828 146.748 434.964 146.884C435.1 147.012 435.336 147.076 435.672 147.076H436.476V148H435.492C434.884 148 434.428 147.86 434.124 147.58C433.82 147.3 433.668 146.84 433.668 146.2V142.324H432.816V141.424H433.668V139.768H434.76V141.424H436.476V142.324H434.76ZM440.667 148.108C440.051 148.108 439.491 147.968 438.987 147.688C438.491 147.408 438.099 147.012 437.811 146.5C437.531 145.98 437.391 145.38 437.391 144.7C437.391 144.028 437.535 143.436 437.823 142.924C438.119 142.404 438.519 142.008 439.023 141.736C439.527 141.456 440.091 141.316 440.715 141.316C441.339 141.316 441.903 141.456 442.407 141.736C442.911 142.008 443.307 142.4 443.595 142.912C443.891 143.424 444.039 144.02 444.039 144.7C444.039 145.38 443.887 145.98 443.583 146.5C443.287 147.012 442.883 147.408 442.371 147.688C441.859 147.968 441.291 148.108 440.667 148.108ZM440.667 147.148C441.059 147.148 441.427 147.056 441.771 146.872C442.115 146.688 442.391 146.412 442.599 146.044C442.815 145.676 442.923 145.228 442.923 144.7C442.923 144.172 442.819 143.724 442.611 143.356C442.403 142.988 442.131 142.716 441.795 142.54C441.459 142.356 441.095 142.264 440.703 142.264C440.303 142.264 439.935 142.356 439.599 142.54C439.271 142.716 439.007 142.988 438.807 143.356C438.607 143.724 438.507 144.172 438.507 144.7C438.507 145.236 438.603 145.688 438.795 146.056C438.995 146.424 439.259 146.7 439.587 146.884C439.915 147.06 440.275 147.148 440.667 147.148ZM452.886 139.636V145.816C452.886 146.504 452.674 147.056 452.25 147.472C451.826 147.88 451.266 148.084 450.57 148.084C449.866 148.084 449.302 147.876 448.878 147.46C448.454 147.036 448.242 146.46 448.242 145.732H449.334C449.342 146.14 449.446 146.472 449.646 146.728C449.854 146.984 450.162 147.112 450.57 147.112C450.978 147.112 451.282 146.992 451.482 146.752C451.682 146.504 451.782 146.192 451.782 145.816V139.636H452.886ZM457.905 148.108C457.289 148.108 456.729 147.968 456.225 147.688C455.729 147.408 455.337 147.012 455.049 146.5C454.769 145.98 454.629 145.38 454.629 144.7C454.629 144.028 454.773 143.436 455.061 142.924C455.357 142.404 455.757 142.008 456.261 141.736C456.765 141.456 457.329 141.316 457.953 141.316C458.577 141.316 459.141 141.456 459.645 141.736C460.149 142.008 460.545 142.4 460.833 142.912C461.129 143.424 461.277 144.02 461.277 144.7C461.277 145.38 461.125 145.98 460.821 146.5C460.525 147.012 460.121 147.408 459.609 147.688C459.097 147.968 458.529 148.108 457.905 148.108ZM457.905 147.148C458.297 147.148 458.665 147.056 459.009 146.872C459.353 146.688 459.629 146.412 459.837 146.044C460.053 145.676 460.161 145.228 460.161 144.7C460.161 144.172 460.057 143.724 459.849 143.356C459.641 142.988 459.369 142.716 459.033 142.54C458.697 142.356 458.333 142.264 457.941 142.264C457.541 142.264 457.173 142.356 456.837 142.54C456.509 142.716 456.245 142.988 456.045 143.356C455.845 143.724 455.745 144.172 455.745 144.7C455.745 145.236 455.841 145.688 456.033 146.056C456.233 146.424 456.497 146.7 456.825 146.884C457.153 147.06 457.513 147.148 457.905 147.148ZM463.805 142.648C464.029 142.256 464.357 141.936 464.789 141.688C465.221 141.44 465.713 141.316 466.265 141.316C466.857 141.316 467.389 141.456 467.861 141.736C468.333 142.016 468.705 142.412 468.977 142.924C469.249 143.428 469.385 144.016 469.385 144.688C469.385 145.352 469.249 145.944 468.977 146.464C468.705 146.984 468.329 147.388 467.849 147.676C467.377 147.964 466.849 148.108 466.265 148.108C465.697 148.108 465.197 147.984 464.765 147.736C464.341 147.488 464.021 147.172 463.805 146.788V148H462.713V139.12H463.805V142.648ZM468.269 144.688C468.269 144.192 468.169 143.76 467.969 143.392C467.769 143.024 467.497 142.744 467.153 142.552C466.817 142.36 466.445 142.264 466.037 142.264C465.637 142.264 465.265 142.364 464.921 142.564C464.585 142.756 464.313 143.04 464.105 143.416C463.905 143.784 463.805 144.212 463.805 144.7C463.805 145.196 463.905 145.632 464.105 146.008C464.313 146.376 464.585 146.66 464.921 146.86C465.265 147.052 465.637 147.148 466.037 147.148C466.445 147.148 466.817 147.052 467.153 146.86C467.497 146.66 467.769 146.376 467.969 146.008C468.169 145.632 468.269 145.192 468.269 144.688ZM479.614 142.084C479.614 142.78 479.374 143.36 478.894 143.824C478.422 144.28 477.698 144.508 476.722 144.508H475.114V148H474.022V139.636H476.722C477.666 139.636 478.382 139.864 478.87 140.32C479.366 140.776 479.614 141.364 479.614 142.084ZM476.722 143.608C477.33 143.608 477.778 143.476 478.066 143.212C478.354 142.948 478.498 142.572 478.498 142.084C478.498 141.052 477.906 140.536 476.722 140.536H475.114V143.608H476.722ZM482.063 142.492C482.255 142.116 482.527 141.824 482.879 141.616C483.239 141.408 483.675 141.304 484.187 141.304V142.432H483.899C482.675 142.432 482.063 143.096 482.063 144.424V148H480.971V141.424H482.063V142.492ZM488.315 148.108C487.699 148.108 487.139 147.968 486.635 147.688C486.139 147.408 485.747 147.012 485.459 146.5C485.179 145.98 485.039 145.38 485.039 144.7C485.039 144.028 485.183 143.436 485.471 142.924C485.767 142.404 486.167 142.008 486.671 141.736C487.175 141.456 487.739 141.316 488.363 141.316C488.987 141.316 489.551 141.456 490.055 141.736C490.559 142.008 490.955 142.4 491.243 142.912C491.539 143.424 491.687 144.02 491.687 144.7C491.687 145.38 491.535 145.98 491.231 146.5C490.935 147.012 490.531 147.408 490.019 147.688C489.507 147.968 488.939 148.108 488.315 148.108ZM488.315 147.148C488.707 147.148 489.075 147.056 489.419 146.872C489.763 146.688 490.039 146.412 490.247 146.044C490.463 145.676 490.571 145.228 490.571 144.7C490.571 144.172 490.467 143.724 490.259 143.356C490.051 142.988 489.779 142.716 489.443 142.54C489.107 142.356 488.743 142.264 488.351 142.264C487.951 142.264 487.583 142.356 487.247 142.54C486.919 142.716 486.655 142.988 486.455 143.356C486.255 143.724 486.155 144.172 486.155 144.7C486.155 145.236 486.251 145.688 486.443 146.056C486.643 146.424 486.907 146.7 487.235 146.884C487.563 147.06 487.923 147.148 488.315 147.148ZM493.711 140.356C493.503 140.356 493.327 140.284 493.183 140.14C493.047 139.996 492.979 139.82 492.979 139.612C492.979 139.404 493.047 139.228 493.183 139.084C493.327 138.94 493.503 138.868 493.711 138.868C493.919 138.868 494.091 138.94 494.227 139.084C494.371 139.228 494.443 139.404 494.443 139.612C494.443 139.82 494.371 139.996 494.227 140.14C494.091 140.284 493.919 140.356 493.711 140.356ZM494.251 149.428C494.251 150.012 494.103 150.44 493.807 150.712C493.511 150.984 493.079 151.12 492.511 151.12H491.875V150.196H492.331C492.635 150.196 492.847 150.136 492.967 150.016C493.095 149.896 493.159 149.692 493.159 149.404V141.424H494.251V149.428ZM502.1 144.46C502.1 144.668 502.088 144.888 502.064 145.12H496.808C496.848 145.768 497.068 146.276 497.468 146.644C497.876 147.004 498.368 147.184 498.944 147.184C499.416 147.184 499.808 147.076 500.12 146.86C500.44 146.636 500.664 146.34 500.792 145.972H501.968C501.792 146.604 501.44 147.12 500.912 147.52C500.384 147.912 499.728 148.108 498.944 148.108C498.32 148.108 497.76 147.968 497.264 147.688C496.776 147.408 496.392 147.012 496.112 146.5C495.832 145.98 495.692 145.38 495.692 144.7C495.692 144.02 495.828 143.424 496.1 142.912C496.372 142.4 496.752 142.008 497.24 141.736C497.736 141.456 498.304 141.316 498.944 141.316C499.568 141.316 500.12 141.452 500.6 141.724C501.08 141.996 501.448 142.372 501.704 142.852C501.968 143.324 502.1 143.86 502.1 144.46ZM500.972 144.232C500.972 143.816 500.88 143.46 500.696 143.164C500.512 142.86 500.26 142.632 499.94 142.48C499.628 142.32 499.28 142.24 498.896 142.24C498.344 142.24 497.872 142.416 497.48 142.768C497.096 143.12 496.876 143.608 496.82 144.232H500.972ZM503.133 144.7C503.133 144.02 503.269 143.428 503.541 142.924C503.813 142.412 504.189 142.016 504.669 141.736C505.157 141.456 505.713 141.316 506.337 141.316C507.145 141.316 507.809 141.512 508.329 141.904C508.857 142.296 509.205 142.84 509.373 143.536H508.197C508.085 143.136 507.865 142.82 507.537 142.588C507.217 142.356 506.817 142.24 506.337 142.24C505.713 142.24 505.209 142.456 504.825 142.888C504.441 143.312 504.249 143.916 504.249 144.7C504.249 145.492 504.441 146.104 504.825 146.536C505.209 146.968 505.713 147.184 506.337 147.184C506.817 147.184 507.217 147.072 507.537 146.848C507.857 146.624 508.077 146.304 508.197 145.888H509.373C509.197 146.56 508.845 147.1 508.317 147.508C507.789 147.908 507.129 148.108 506.337 148.108C505.713 148.108 505.157 147.968 504.669 147.688C504.189 147.408 503.813 147.012 503.541 146.5C503.269 145.988 503.133 145.388 503.133 144.7ZM512.162 142.324V146.2C512.162 146.52 512.23 146.748 512.366 146.884C512.502 147.012 512.738 147.076 513.074 147.076H513.878V148H512.894C512.286 148 511.83 147.86 511.526 147.58C511.222 147.3 511.07 146.84 511.07 146.2V142.324H510.218V141.424H511.07V139.768H512.162V141.424H513.878V142.324H512.162ZM410.868 180.14H407.22L406.548 182H405.396L408.42 173.684H409.68L412.692 182H411.54L410.868 180.14ZM410.556 179.252L409.044 175.028L407.532 179.252H410.556ZM413.602 178.688C413.602 178.016 413.738 177.428 414.01 176.924C414.282 176.412 414.654 176.016 415.126 175.736C415.606 175.456 416.142 175.316 416.734 175.316C417.246 175.316 417.722 175.436 418.162 175.676C418.602 175.908 418.938 176.216 419.17 176.6V173.12H420.274V182H419.17V180.764C418.954 181.156 418.634 181.48 418.21 181.736C417.786 181.984 417.29 182.108 416.722 182.108C416.138 182.108 415.606 181.964 415.126 181.676C414.654 181.388 414.282 180.984 414.01 180.464C413.738 179.944 413.602 179.352 413.602 178.688ZM419.17 178.7C419.17 178.204 419.07 177.772 418.87 177.404C418.67 177.036 418.398 176.756 418.054 176.564C417.718 176.364 417.346 176.264 416.938 176.264C416.53 176.264 416.158 176.36 415.822 176.552C415.486 176.744 415.218 177.024 415.018 177.392C414.818 177.76 414.718 178.192 414.718 178.688C414.718 179.192 414.818 179.632 415.018 180.008C415.218 180.376 415.486 180.66 415.822 180.86C416.158 181.052 416.53 181.148 416.938 181.148C417.346 181.148 417.718 181.052 418.054 180.86C418.398 180.66 418.67 180.376 418.87 180.008C419.07 179.632 419.17 179.196 419.17 178.7ZM421.711 178.688C421.711 178.016 421.847 177.428 422.119 176.924C422.391 176.412 422.763 176.016 423.235 175.736C423.715 175.456 424.251 175.316 424.843 175.316C425.355 175.316 425.831 175.436 426.271 175.676C426.711 175.908 427.047 176.216 427.279 176.6V173.12H428.383V182H427.279V180.764C427.063 181.156 426.743 181.48 426.319 181.736C425.895 181.984 425.399 182.108 424.831 182.108C424.247 182.108 423.715 181.964 423.235 181.676C422.763 181.388 422.391 180.984 422.119 180.464C421.847 179.944 421.711 179.352 421.711 178.688ZM427.279 178.7C427.279 178.204 427.179 177.772 426.979 177.404C426.779 177.036 426.507 176.756 426.163 176.564C425.827 176.364 425.455 176.264 425.047 176.264C424.639 176.264 424.267 176.36 423.931 176.552C423.595 176.744 423.327 177.024 423.127 177.392C422.927 177.76 422.827 178.192 422.827 178.688C422.827 179.192 422.927 179.632 423.127 180.008C423.327 180.376 423.595 180.66 423.931 180.86C424.267 181.052 424.639 181.148 425.047 181.148C425.455 181.148 425.827 181.052 426.163 180.86C426.507 180.66 426.779 180.376 426.979 180.008C427.179 179.632 427.279 179.196 427.279 178.7ZM434.76 176.324V180.2C434.76 180.52 434.828 180.748 434.964 180.884C435.1 181.012 435.336 181.076 435.672 181.076H436.476V182H435.492C434.884 182 434.428 181.86 434.124 181.58C433.82 181.3 433.668 180.84 433.668 180.2V176.324H432.816V175.424H433.668V173.768H434.76V175.424H436.476V176.324H434.76ZM440.667 182.108C440.051 182.108 439.491 181.968 438.987 181.688C438.491 181.408 438.099 181.012 437.811 180.5C437.531 179.98 437.391 179.38 437.391 178.7C437.391 178.028 437.535 177.436 437.823 176.924C438.119 176.404 438.519 176.008 439.023 175.736C439.527 175.456 440.091 175.316 440.715 175.316C441.339 175.316 441.903 175.456 442.407 175.736C442.911 176.008 443.307 176.4 443.595 176.912C443.891 177.424 444.039 178.02 444.039 178.7C444.039 179.38 443.887 179.98 443.583 180.5C443.287 181.012 442.883 181.408 442.371 181.688C441.859 181.968 441.291 182.108 440.667 182.108ZM440.667 181.148C441.059 181.148 441.427 181.056 441.771 180.872C442.115 180.688 442.391 180.412 442.599 180.044C442.815 179.676 442.923 179.228 442.923 178.7C442.923 178.172 442.819 177.724 442.611 177.356C442.403 176.988 442.131 176.716 441.795 176.54C441.459 176.356 441.095 176.264 440.703 176.264C440.303 176.264 439.935 176.356 439.599 176.54C439.271 176.716 439.007 176.988 438.807 177.356C438.607 177.724 438.507 178.172 438.507 178.7C438.507 179.236 438.603 179.688 438.795 180.056C438.995 180.424 439.259 180.7 439.587 180.884C439.915 181.06 440.275 181.148 440.667 181.148ZM449.766 181.112H452.694V182H448.674V173.636H449.766V181.112ZM459.854 178.46C459.854 178.668 459.842 178.888 459.818 179.12H454.562C454.602 179.768 454.822 180.276 455.222 180.644C455.63 181.004 456.122 181.184 456.698 181.184C457.17 181.184 457.562 181.076 457.874 180.86C458.194 180.636 458.418 180.34 458.546 179.972H459.722C459.546 180.604 459.194 181.12 458.666 181.52C458.138 181.912 457.482 182.108 456.698 182.108C456.074 182.108 455.514 181.968 455.018 181.688C454.53 181.408 454.146 181.012 453.866 180.5C453.586 179.98 453.446 179.38 453.446 178.7C453.446 178.02 453.582 177.424 453.854 176.912C454.126 176.4 454.506 176.008 454.994 175.736C455.49 175.456 456.058 175.316 456.698 175.316C457.322 175.316 457.874 175.452 458.354 175.724C458.834 175.996 459.202 176.372 459.458 176.852C459.722 177.324 459.854 177.86 459.854 178.46ZM458.726 178.232C458.726 177.816 458.634 177.46 458.45 177.164C458.266 176.86 458.014 176.632 457.694 176.48C457.382 176.32 457.034 176.24 456.65 176.24C456.098 176.24 455.626 176.416 455.234 176.768C454.85 177.12 454.63 177.608 454.574 178.232H458.726ZM460.887 178.688C460.887 178.016 461.023 177.428 461.295 176.924C461.567 176.412 461.939 176.016 462.411 175.736C462.891 175.456 463.423 175.316 464.007 175.316C464.583 175.316 465.083 175.44 465.507 175.688C465.931 175.936 466.247 176.248 466.455 176.624V175.424H467.559V182H466.455V180.776C466.239 181.16 465.915 181.48 465.483 181.736C465.059 181.984 464.563 182.108 463.995 182.108C463.411 182.108 462.883 181.964 462.411 181.676C461.939 181.388 461.567 180.984 461.295 180.464C461.023 179.944 460.887 179.352 460.887 178.688ZM466.455 178.7C466.455 178.204 466.355 177.772 466.155 177.404C465.955 177.036 465.683 176.756 465.339 176.564C465.003 176.364 464.631 176.264 464.223 176.264C463.815 176.264 463.443 176.36 463.107 176.552C462.771 176.744 462.503 177.024 462.303 177.392C462.103 177.76 462.003 178.192 462.003 178.688C462.003 179.192 462.103 179.632 462.303 180.008C462.503 180.376 462.771 180.66 463.107 180.86C463.443 181.052 463.815 181.148 464.223 181.148C464.631 181.148 465.003 181.052 465.339 180.86C465.683 180.66 465.955 180.376 466.155 180.008C466.355 179.632 466.455 179.196 466.455 178.7ZM468.996 178.688C468.996 178.016 469.132 177.428 469.404 176.924C469.676 176.412 470.048 176.016 470.52 175.736C471 175.456 471.536 175.316 472.128 175.316C472.64 175.316 473.116 175.436 473.556 175.676C473.996 175.908 474.332 176.216 474.564 176.6V173.12H475.668V182H474.564V180.764C474.348 181.156 474.028 181.48 473.604 181.736C473.18 181.984 472.684 182.108 472.116 182.108C471.532 182.108 471 181.964 470.52 181.676C470.048 181.388 469.676 180.984 469.404 180.464C469.132 179.944 468.996 179.352 468.996 178.688ZM474.564 178.7C474.564 178.204 474.464 177.772 474.264 177.404C474.064 177.036 473.792 176.756 473.448 176.564C473.112 176.364 472.74 176.264 472.332 176.264C471.924 176.264 471.552 176.36 471.216 176.552C470.88 176.744 470.612 177.024 470.412 177.392C470.212 177.76 470.112 178.192 470.112 178.688C470.112 179.192 470.212 179.632 470.412 180.008C470.612 180.376 470.88 180.66 471.216 180.86C471.552 181.052 471.924 181.148 472.332 181.148C472.74 181.148 473.112 181.052 473.448 180.86C473.792 180.66 474.064 180.376 474.264 180.008C474.464 179.632 474.564 179.196 474.564 178.7ZM481.805 181.112H484.733V182H480.713V173.636H481.805V181.112ZM486.457 174.356C486.249 174.356 486.073 174.284 485.929 174.14C485.785 173.996 485.713 173.82 485.713 173.612C485.713 173.404 485.785 173.228 485.929 173.084C486.073 172.94 486.249 172.868 486.457 172.868C486.657 172.868 486.825 172.94 486.961 173.084C487.105 173.228 487.177 173.404 487.177 173.612C487.177 173.82 487.105 173.996 486.961 174.14C486.825 174.284 486.657 174.356 486.457 174.356ZM486.985 175.424V182H485.893V175.424H486.985ZM491.174 182.108C490.67 182.108 490.218 182.024 489.818 181.856C489.418 181.68 489.102 181.44 488.87 181.136C488.638 180.824 488.51 180.468 488.486 180.068H489.614C489.646 180.396 489.798 180.664 490.07 180.872C490.35 181.08 490.714 181.184 491.162 181.184C491.578 181.184 491.906 181.092 492.146 180.908C492.386 180.724 492.506 180.492 492.506 180.212C492.506 179.924 492.378 179.712 492.122 179.576C491.866 179.432 491.47 179.292 490.934 179.156C490.446 179.028 490.046 178.9 489.734 178.772C489.43 178.636 489.166 178.44 488.942 178.184C488.726 177.92 488.618 177.576 488.618 177.152C488.618 176.816 488.718 176.508 488.918 176.228C489.118 175.948 489.402 175.728 489.77 175.568C490.138 175.4 490.558 175.316 491.03 175.316C491.758 175.316 492.346 175.5 492.794 175.868C493.242 176.236 493.482 176.74 493.514 177.38H492.422C492.398 177.036 492.258 176.76 492.002 176.552C491.754 176.344 491.418 176.24 490.994 176.24C490.602 176.24 490.29 176.324 490.058 176.492C489.826 176.66 489.71 176.88 489.71 177.152C489.71 177.368 489.778 177.548 489.914 177.692C490.058 177.828 490.234 177.94 490.442 178.028C490.658 178.108 490.954 178.2 491.33 178.304C491.802 178.432 492.186 178.56 492.482 178.688C492.778 178.808 493.03 178.992 493.238 179.24C493.454 179.488 493.566 179.812 493.574 180.212C493.574 180.572 493.474 180.896 493.274 181.184C493.074 181.472 492.79 181.7 492.422 181.868C492.062 182.028 491.646 182.108 491.174 182.108ZM496.447 176.324V180.2C496.447 180.52 496.515 180.748 496.651 180.884C496.787 181.012 497.023 181.076 497.359 181.076H498.163V182H497.179C496.571 182 496.115 181.86 495.811 181.58C495.507 181.3 495.355 180.84 495.355 180.2V176.324H494.503V175.424H495.355V173.768H496.447V175.424H498.163V176.324H496.447ZM407.016 208.524V211.32H410.064V212.22H407.016V215.1H410.424V216H405.924V207.624H410.424V208.524H407.016ZM415.508 216L413.948 213.552L412.448 216H411.308L413.432 212.736L411.308 209.424H412.544L414.104 211.86L415.592 209.424H416.732L414.62 212.676L416.744 216H415.508ZM418.911 210.636C419.127 210.26 419.447 209.948 419.871 209.7C420.303 209.444 420.803 209.316 421.371 209.316C421.955 209.316 422.483 209.456 422.955 209.736C423.435 210.016 423.811 210.412 424.083 210.924C424.355 211.428 424.491 212.016 424.491 212.688C424.491 213.352 424.355 213.944 424.083 214.464C423.811 214.984 423.435 215.388 422.955 215.676C422.483 215.964 421.955 216.108 421.371 216.108C420.811 216.108 420.315 215.984 419.883 215.736C419.459 215.48 419.135 215.164 418.911 214.788V219.12H417.819V209.424H418.911V210.636ZM423.375 212.688C423.375 212.192 423.275 211.76 423.075 211.392C422.875 211.024 422.603 210.744 422.259 210.552C421.923 210.36 421.551 210.264 421.143 210.264C420.743 210.264 420.371 210.364 420.027 210.564C419.691 210.756 419.419 211.04 419.211 211.416C419.011 211.784 418.911 212.212 418.911 212.7C418.911 213.196 419.011 213.632 419.211 214.008C419.419 214.376 419.691 214.66 420.027 214.86C420.371 215.052 420.743 215.148 421.143 215.148C421.551 215.148 421.923 215.052 422.259 214.86C422.603 214.66 422.875 214.376 423.075 214.008C423.275 213.632 423.375 213.192 423.375 212.688ZM428.796 216.108C428.18 216.108 427.62 215.968 427.116 215.688C426.62 215.408 426.228 215.012 425.94 214.5C425.66 213.98 425.52 213.38 425.52 212.7C425.52 212.028 425.664 211.436 425.952 210.924C426.248 210.404 426.648 210.008 427.152 209.736C427.656 209.456 428.22 209.316 428.844 209.316C429.468 209.316 430.032 209.456 430.536 209.736C431.04 210.008 431.436 210.4 431.724 210.912C432.02 211.424 432.168 212.02 432.168 212.7C432.168 213.38 432.016 213.98 431.712 214.5C431.416 215.012 431.012 215.408 430.5 215.688C429.988 215.968 429.42 216.108 428.796 216.108ZM428.796 215.148C429.188 215.148 429.556 215.056 429.9 214.872C430.244 214.688 430.52 214.412 430.728 214.044C430.944 213.676 431.052 213.228 431.052 212.7C431.052 212.172 430.948 211.724 430.74 211.356C430.532 210.988 430.26 210.716 429.924 210.54C429.588 210.356 429.224 210.264 428.832 210.264C428.432 210.264 428.064 210.356 427.728 210.54C427.4 210.716 427.136 210.988 426.936 211.356C426.736 211.724 426.636 212.172 426.636 212.7C426.636 213.236 426.732 213.688 426.924 214.056C427.124 214.424 427.388 214.7 427.716 214.884C428.044 215.06 428.404 215.148 428.796 215.148ZM434.696 210.492C434.888 210.116 435.16 209.824 435.512 209.616C435.872 209.408 436.308 209.304 436.82 209.304V210.432H436.532C435.308 210.432 434.696 211.096 434.696 212.424V216H433.604V209.424H434.696V210.492ZM439.412 210.324V214.2C439.412 214.52 439.48 214.748 439.616 214.884C439.752 215.012 439.988 215.076 440.324 215.076H441.128V216H440.144C439.536 216 439.08 215.86 438.776 215.58C438.472 215.3 438.32 214.84 438.32 214.2V210.324H437.468V209.424H438.32V207.768H439.412V209.424H441.128V210.324H439.412ZM446.983 210.324V214.2C446.983 214.52 447.051 214.748 447.187 214.884C447.323 215.012 447.559 215.076 447.895 215.076H448.699V216H447.715C447.107 216 446.651 215.86 446.347 215.58C446.043 215.3 445.891 214.84 445.891 214.2V210.324H445.039V209.424H445.891V207.768H446.983V209.424H448.699V210.324H446.983ZM452.89 216.108C452.274 216.108 451.714 215.968 451.21 215.688C450.714 215.408 450.322 215.012 450.034 214.5C449.754 213.98 449.614 213.38 449.614 212.7C449.614 212.028 449.758 211.436 450.046 210.924C450.342 210.404 450.742 210.008 451.246 209.736C451.75 209.456 452.314 209.316 452.938 209.316C453.562 209.316 454.126 209.456 454.63 209.736C455.134 210.008 455.53 210.4 455.818 210.912C456.114 211.424 456.262 212.02 456.262 212.7C456.262 213.38 456.11 213.98 455.806 214.5C455.51 215.012 455.106 215.408 454.594 215.688C454.082 215.968 453.514 216.108 452.89 216.108ZM452.89 215.148C453.282 215.148 453.65 215.056 453.994 214.872C454.338 214.688 454.614 214.412 454.822 214.044C455.038 213.676 455.146 213.228 455.146 212.7C455.146 212.172 455.042 211.724 454.834 211.356C454.626 210.988 454.354 210.716 454.018 210.54C453.682 210.356 453.318 210.264 452.926 210.264C452.526 210.264 452.158 210.356 451.822 210.54C451.494 210.716 451.23 210.988 451.03 211.356C450.83 211.724 450.73 212.172 450.73 212.7C450.73 213.236 450.826 213.688 451.018 214.056C451.218 214.424 451.482 214.7 451.81 214.884C452.138 215.06 452.498 215.148 452.89 215.148ZM460.489 211.812C460.489 210.996 460.673 210.264 461.041 209.616C461.409 208.96 461.909 208.448 462.541 208.08C463.181 207.712 463.889 207.528 464.665 207.528C465.577 207.528 466.373 207.748 467.053 208.188C467.733 208.628 468.229 209.252 468.541 210.06H467.233C467.001 209.556 466.665 209.168 466.225 208.896C465.793 208.624 465.273 208.488 464.665 208.488C464.081 208.488 463.557 208.624 463.093 208.896C462.629 209.168 462.265 209.556 462.001 210.06C461.737 210.556 461.605 211.14 461.605 211.812C461.605 212.476 461.737 213.06 462.001 213.564C462.265 214.06 462.629 214.444 463.093 214.716C463.557 214.988 464.081 215.124 464.665 215.124C465.273 215.124 465.793 214.992 466.225 214.728C466.665 214.456 467.001 214.068 467.233 213.564H468.541C468.229 214.364 467.733 214.984 467.053 215.424C466.373 215.856 465.577 216.072 464.665 216.072C463.889 216.072 463.181 215.892 462.541 215.532C461.909 215.164 461.409 214.656 461.041 214.008C460.673 213.36 460.489 212.628 460.489 211.812ZM472.818 216.084C472.266 216.084 471.77 215.988 471.33 215.796C470.898 215.596 470.558 215.324 470.31 214.98C470.062 214.628 469.934 214.224 469.926 213.768H471.09C471.13 214.16 471.29 214.492 471.57 214.764C471.858 215.028 472.274 215.16 472.818 215.16C473.338 215.16 473.746 215.032 474.042 214.776C474.346 214.512 474.498 214.176 474.498 213.768C474.498 213.448 474.41 213.188 474.234 212.988C474.058 212.788 473.838 212.636 473.574 212.532C473.31 212.428 472.954 212.316 472.506 212.196C471.954 212.052 471.51 211.908 471.174 211.764C470.846 211.62 470.562 211.396 470.322 211.092C470.09 210.78 469.974 210.364 469.974 209.844C469.974 209.388 470.09 208.984 470.322 208.632C470.554 208.28 470.878 208.008 471.294 207.816C471.718 207.624 472.202 207.528 472.746 207.528C473.53 207.528 474.17 207.724 474.666 208.116C475.17 208.508 475.454 209.028 475.518 209.676H474.318C474.278 209.356 474.11 209.076 473.814 208.836C473.518 208.588 473.126 208.464 472.638 208.464C472.182 208.464 471.81 208.584 471.522 208.824C471.234 209.056 471.09 209.384 471.09 209.808C471.09 210.112 471.174 210.36 471.342 210.552C471.518 210.744 471.73 210.892 471.978 210.996C472.234 211.092 472.59 211.204 473.046 211.332C473.598 211.484 474.042 211.636 474.378 211.788C474.714 211.932 475.002 212.16 475.242 212.472C475.482 212.776 475.602 213.192 475.602 213.72C475.602 214.128 475.494 214.512 475.278 214.872C475.062 215.232 474.742 215.524 474.318 215.748C473.894 215.972 473.394 216.084 472.818 216.084ZM484.121 207.636L480.965 216H479.705L476.549 207.636H477.713L480.341 214.848L482.969 207.636H484.121Z" fill="#54585C"/>
<defs>
<filter id="filter0_d_835_11834" x="102" y="0" width="441" height="92" filterUnits="userSpaceOnUse" color-interpolation-filters="sRGB">
<feFlood flood-opacity="0" result="BackgroundImageFix"/>
<feColorMatrix in="SourceAlpha" type="matrix" values="0 0 0 0 0 0 0 0 0 0 0 0 0 0 0 0 0 0 127 0" result="hardAlpha"/>
<feOffset dy="16"/>
<feGaussianBlur stdDeviation="12"/>
<feComposite in2="hardAlpha" operator="out"/>
<feColorMatrix type="matrix" values="0 0 0 0 0.629167 0 0 0 0 0.629167 0 0 0 0 0.629167 0 0 0 0.1 0"/>
<feBlend mode="normal" in2="BackgroundImageFix" result="effect1_dropShadow_835_11834"/>
<feBlend mode="normal" in="SourceGraphic" in2="effect1_dropShadow_835_11834" result="shape"/>
</filter>
<filter id="filter1_d_835_11834" x="0" y="38" width="575" height="414" filterUnits="userSpaceOnUse" color-interpolation-filters="sRGB">
<feFlood flood-opacity="0" result="BackgroundImageFix"/>
<feColorMatrix in="SourceAlpha" type="matrix" values="0 0 0 0 0 0 0 0 0 0 0 0 0 0 0 0 0 0 127 0" result="hardAlpha"/>
<feOffset dy="24"/>
<feGaussianBlur stdDeviation="28"/>
<feComposite in2="hardAlpha" operator="out"/>
<feColorMatrix type="matrix" values="0 0 0 0 0.141176 0 0 0 0 0.196078 0 0 0 0 0.227451 0 0 0 0.25 0"/>
<feBlend mode="normal" in2="BackgroundImageFix" result="effect1_dropShadow_835_11834"/>
<feBlend mode="normal" in="SourceGraphic" in2="effect1_dropShadow_835_11834" result="shape"/>
</filter>
<filter id="filter2_d_835_11834" x="368" y="49" width="207" height="204" filterUnits="userSpaceOnUse" color-interpolation-filters="sRGB">
<feFlood flood-opacity="0" result="BackgroundImageFix"/>
<feColorMatrix in="SourceAlpha" type="matrix" values="0 0 0 0 0 0 0 0 0 0 0 0 0 0 0 0 0 0 127 0" result="hardAlpha"/>
<feOffset dy="8"/>
<feGaussianBlur stdDeviation="8"/>
<feComposite in2="hardAlpha" operator="out"/>
<feColorMatrix type="matrix" values="0 0 0 0 0.192157 0 0 0 0 0.219608 0 0 0 0 0.215686 0 0 0 0.15 0"/>
<feBlend mode="normal" in2="BackgroundImageFix" result="effect1_dropShadow_835_11834"/>
<feBlend mode="normal" in="SourceGraphic" in2="effect1_dropShadow_835_11834" result="shape"/>
</filter>
<filter id="filter3_i_835_11834" x="384" y="91" width="175" height="36" filterUnits="userSpaceOnUse" color-interpolation-filters="sRGB">
<feFlood flood-opacity="0" result="BackgroundImageFix"/>
<feBlend mode="normal" in="SourceGraphic" in2="BackgroundImageFix" result="shape"/>
<feColorMatrix in="SourceAlpha" type="matrix" values="0 0 0 0 0 0 0 0 0 0 0 0 0 0 0 0 0 0 127 0" result="hardAlpha"/>
<feOffset dy="1"/>
<feComposite in2="hardAlpha" operator="arithmetic" k2="-1" k3="1"/>
<feColorMatrix type="matrix" values="0 0 0 0 0.804167 0 0 0 0 0.804167 0 0 0 0 0.804167 0 0 0 0.25 0"/>
<feBlend mode="normal" in2="shape" result="effect1_innerShadow_835_11834"/>
</filter>
<filter id="filter4_i_835_11834" x="384" y="125" width="175" height="36" filterUnits="userSpaceOnUse" color-interpolation-filters="sRGB">
<feFlood flood-opacity="0" result="BackgroundImageFix"/>
<feBlend mode="normal" in="SourceGraphic" in2="BackgroundImageFix" result="shape"/>
<feColorMatrix in="SourceAlpha" type="matrix" values="0 0 0 0 0 0 0 0 0 0 0 0 0 0 0 0 0 0 127 0" result="hardAlpha"/>
<feOffset dy="1"/>
<feComposite in2="hardAlpha" operator="arithmetic" k2="-1" k3="1"/>
<feColorMatrix type="matrix" values="0 0 0 0 0.804167 0 0 0 0 0.804167 0 0 0 0 0.804167 0 0 0 0.25 0"/>
<feBlend mode="normal" in2="shape" result="effect1_innerShadow_835_11834"/>
</filter>
<filter id="filter5_i_835_11834" x="384" y="159" width="175" height="36" filterUnits="userSpaceOnUse" color-interpolation-filters="sRGB">
<feFlood flood-opacity="0" result="BackgroundImageFix"/>
<feBlend mode="normal" in="SourceGraphic" in2="BackgroundImageFix" result="shape"/>
<feColorMatrix in="SourceAlpha" type="matrix" values="0 0 0 0 0 0 0 0 0 0 0 0 0 0 0 0 0 0 127 0" result="hardAlpha"/>
<feOffset dy="1"/>
<feComposite in2="hardAlpha" operator="arithmetic" k2="-1" k3="1"/>
<feColorMatrix type="matrix" values="0 0 0 0 0.804167 0 0 0 0 0.804167 0 0 0 0 0.804167 0 0 0 0.25 0"/>
<feBlend mode="normal" in2="shape" result="effect1_innerShadow_835_11834"/>
</filter>
<filter id="filter6_i_835_11834" x="384" y="193" width="175" height="36" filterUnits="userSpaceOnUse" color-interpolation-filters="sRGB">
<feFlood flood-opacity="0" result="BackgroundImageFix"/>
<feBlend mode="normal" in="SourceGraphic" in2="BackgroundImageFix" result="shape"/>
<feColorMatrix in="SourceAlpha" type="matrix" values="0 0 0 0 0 0 0 0 0 0 0 0 0 0 0 0 0 0 127 0" result="hardAlpha"/>
<feOffset dy="1"/>
<feComposite in2="hardAlpha" operator="arithmetic" k2="-1" k3="1"/>
<feColorMatrix type="matrix" values="0 0 0 0 0.804167 0 0 0 0 0.804167 0 0 0 0 0.804167 0 0 0 0.25 0"/>
<feBlend mode="normal" in2="shape" result="effect1_innerShadow_835_11834"/>
</filter>
<clipPath id="clip0_835_11834">
<rect x="157" y="101" width="63" height="63" rx="16" fill="white"/>
</clipPath>
<clipPath id="clip1_835_11834">
<rect x="87" y="171" width="63" height="63" rx="16" fill="white"/>
</clipPath>
</defs>
</svg>
