<svg width="537" height="490" viewBox="0 0 537 490" fill="none" xmlns="http://www.w3.org/2000/svg">
<g filter="url(#filter0_d_835_11763)">
<rect x="57" y="33" width="358" height="376" rx="16" fill="#F9F9FA"/>
<rect x="56.5" y="32.5" width="359" height="377" rx="16.5" stroke="#EAEAEB"/>
</g>
<g clip-path="url(#clip0_835_11763)">
<rect x="77" y="53" width="102" height="102" fill="#BFC0C2"/>
<ellipse cx="127.998" cy="194.1" rx="68.2833" ry="68.2833" fill="#EAEAEB"/>
<circle cx="127.999" cy="95.7827" r="24.3667" fill="#EAEAEB"/>
</g>
<rect x="77" y="223" width="192" height="7" rx="3.5" fill="#BFC0C2"/>
<rect x="304" y="223" width="29" height="7" rx="3.5" fill="#BFC0C2"/>
<circle cx="349.999" cy="227" r="4.58333" stroke="#1AB393" stroke-width="3"/>
<path d="M215 74C215 71.2386 217.239 69 220 69H306C308.761 69 311 71.2386 311 74V74C311 76.7614 308.761 79 306 79H220C217.239 79 215 76.7614 215 74V74Z" fill="#478ACC"/>
<rect x="215" y="87.4209" width="165" height="7.36842" rx="3.68421" fill="#BFC0C2"/>
<rect x="215" y="102.158" width="141" height="7.36842" rx="3.68421" fill="#BFC0C2"/>
<rect x="215" y="131.632" width="51" height="7.36842" rx="3.68421" fill="#BFC0C2"/>
<rect x="215" y="116.895" width="165" height="7.36842" rx="3.68421" fill="#BFC0C2"/>
<rect x="77" y="311" width="202" height="16" rx="8" fill="#1AB393"/>
<rect x="77" y="347" width="30" height="30" rx="6" fill="#BFC0C2"/>
<rect x="119" y="347" width="30" height="30" rx="6" fill="#BFC0C2"/>
<rect x="161" y="347" width="30" height="30" rx="6" fill="#BFC0C2"/>
<path d="M77.56 198.4C77.56 197.301 77.8053 196.32 78.296 195.456C78.7973 194.581 79.4747 193.904 80.328 193.424C81.192 192.933 82.1573 192.688 83.224 192.688C84.472 192.688 85.5653 193.008 86.504 193.648C87.4427 194.288 88.0987 195.173 88.472 196.304H85.896C85.64 195.771 85.2773 195.371 84.808 195.104C84.3493 194.837 83.816 194.704 83.208 194.704C82.5573 194.704 81.976 194.859 81.464 195.168C80.9627 195.467 80.568 195.893 80.28 196.448C80.0027 197.003 79.864 197.653 79.864 198.4C79.864 199.136 80.0027 199.787 80.28 200.352C80.568 200.907 80.9627 201.339 81.464 201.648C81.976 201.947 82.5573 202.096 83.208 202.096C83.816 202.096 84.3493 201.963 84.808 201.696C85.2773 201.419 85.64 201.013 85.896 200.48H88.472C88.0987 201.621 87.4427 202.512 86.504 203.152C85.576 203.781 84.4827 204.096 83.224 204.096C82.1573 204.096 81.192 203.856 80.328 203.376C79.4747 202.885 78.7973 202.208 78.296 201.344C77.8053 200.48 77.56 199.499 77.56 198.4ZM94.3213 204.144C93.4679 204.144 92.6999 203.957 92.0173 203.584C91.3346 203.2 90.7959 202.661 90.4013 201.968C90.0173 201.275 89.8253 200.475 89.8253 199.568C89.8253 198.661 90.0226 197.861 90.4173 197.168C90.8226 196.475 91.3719 195.941 92.0653 195.568C92.7586 195.184 93.5319 194.992 94.3853 194.992C95.2386 194.992 96.0119 195.184 96.7053 195.568C97.3986 195.941 97.9426 196.475 98.3373 197.168C98.7426 197.861 98.9453 198.661 98.9453 199.568C98.9453 200.475 98.7373 201.275 98.3212 201.968C97.9159 202.661 97.3613 203.2 96.6573 203.584C95.9639 203.957 95.1853 204.144 94.3213 204.144ZM94.3213 202.192C94.7266 202.192 95.1053 202.096 95.4573 201.904C95.8199 201.701 96.1079 201.403 96.3213 201.008C96.5346 200.613 96.6413 200.133 96.6413 199.568C96.6413 198.725 96.4173 198.08 95.9693 197.632C95.5319 197.173 94.9933 196.944 94.3533 196.944C93.7133 196.944 93.1746 197.173 92.7373 197.632C92.3106 198.08 92.0973 198.725 92.0973 199.568C92.0973 200.411 92.3053 201.061 92.7213 201.52C93.1479 201.968 93.6813 202.192 94.3213 202.192ZM105.5 195.008C106.556 195.008 107.41 195.344 108.06 196.016C108.711 196.677 109.036 197.605 109.036 198.8V204H106.796V199.104C106.796 198.4 106.62 197.861 106.268 197.488C105.916 197.104 105.436 196.912 104.828 196.912C104.21 196.912 103.719 197.104 103.356 197.488C103.004 197.861 102.828 198.4 102.828 199.104V204H100.588V195.136H102.828V196.24C103.127 195.856 103.506 195.557 103.964 195.344C104.434 195.12 104.946 195.008 105.5 195.008ZM113.775 196.976V201.264C113.775 201.563 113.844 201.781 113.983 201.92C114.132 202.048 114.377 202.112 114.719 202.112H115.759V204H114.351C112.463 204 111.519 203.083 111.519 201.248V196.976H110.463V195.136H111.519V192.944H113.775V195.136H115.759V196.976H113.775ZM116.794 199.536C116.794 198.64 116.97 197.845 117.322 197.152C117.684 196.459 118.17 195.925 118.778 195.552C119.396 195.179 120.084 194.992 120.842 194.992C121.503 194.992 122.079 195.125 122.57 195.392C123.071 195.659 123.471 195.995 123.77 196.4V195.136H126.026V204H123.77V202.704C123.482 203.12 123.082 203.467 122.57 203.744C122.068 204.011 121.487 204.144 120.826 204.144C120.079 204.144 119.396 203.952 118.778 203.568C118.17 203.184 117.684 202.645 117.322 201.952C116.97 201.248 116.794 200.443 116.794 199.536ZM123.77 199.568C123.77 199.024 123.663 198.56 123.45 198.176C123.236 197.781 122.948 197.483 122.586 197.28C122.223 197.067 121.834 196.96 121.418 196.96C121.002 196.96 120.618 197.061 120.266 197.264C119.914 197.467 119.626 197.765 119.402 198.16C119.188 198.544 119.082 199.003 119.082 199.536C119.082 200.069 119.188 200.539 119.402 200.944C119.626 201.339 119.914 201.643 120.266 201.856C120.628 202.069 121.012 202.176 121.418 202.176C121.834 202.176 122.223 202.075 122.586 201.872C122.948 201.659 123.236 201.36 123.45 200.976C123.663 200.581 123.77 200.112 123.77 199.568ZM127.637 199.568C127.637 198.651 127.824 197.851 128.197 197.168C128.571 196.475 129.088 195.941 129.749 195.568C130.411 195.184 131.168 194.992 132.021 194.992C133.12 194.992 134.027 195.269 134.741 195.824C135.467 196.368 135.952 197.136 136.197 198.128H133.781C133.653 197.744 133.435 197.445 133.125 197.232C132.827 197.008 132.453 196.896 132.005 196.896C131.365 196.896 130.859 197.131 130.485 197.6C130.112 198.059 129.925 198.715 129.925 199.568C129.925 200.411 130.112 201.067 130.485 201.536C130.859 201.995 131.365 202.224 132.005 202.224C132.912 202.224 133.504 201.819 133.781 201.008H136.197C135.952 201.968 135.467 202.731 134.741 203.296C134.016 203.861 133.109 204.144 132.021 204.144C131.168 204.144 130.411 203.957 129.749 203.584C129.088 203.2 128.571 202.667 128.197 201.984C127.824 201.291 127.637 200.485 127.637 199.568ZM140.446 196.976V201.264C140.446 201.563 140.516 201.781 140.654 201.92C140.804 202.048 141.049 202.112 141.39 202.112H142.43V204H141.022C139.134 204 138.19 203.083 138.19 201.248V196.976H137.134V195.136H138.19V192.944H140.446V195.136H142.43V196.976H140.446ZM148.99 194.08C148.595 194.08 148.265 193.957 147.998 193.712C147.742 193.456 147.614 193.141 147.614 192.768C147.614 192.395 147.742 192.085 147.998 191.84C148.265 191.584 148.595 191.456 148.99 191.456C149.385 191.456 149.71 191.584 149.966 191.84C150.233 192.085 150.366 192.395 150.366 192.768C150.366 193.141 150.233 193.456 149.966 193.712C149.71 193.957 149.385 194.08 148.99 194.08ZM150.094 195.136V204H147.854V195.136H150.094ZM157.219 195.008C158.275 195.008 159.128 195.344 159.779 196.016C160.43 196.677 160.755 197.605 160.755 198.8V204H158.515V199.104C158.515 198.4 158.339 197.861 157.987 197.488C157.635 197.104 157.155 196.912 156.547 196.912C155.928 196.912 155.438 197.104 155.075 197.488C154.723 197.861 154.547 198.4 154.547 199.104V204H152.307V195.136H154.547V196.24C154.846 195.856 155.224 195.557 155.683 195.344C156.152 195.12 156.664 195.008 157.219 195.008ZM166.949 196.976H165.397V204H163.125V196.976H162.117V195.136H163.125V194.688C163.125 193.6 163.435 192.8 164.053 192.288C164.672 191.776 165.605 191.536 166.853 191.568V193.456C166.309 193.445 165.931 193.536 165.717 193.728C165.504 193.92 165.397 194.267 165.397 194.768V195.136H166.949V196.976ZM172.337 204.144C171.484 204.144 170.716 203.957 170.033 203.584C169.35 203.2 168.812 202.661 168.417 201.968C168.033 201.275 167.841 200.475 167.841 199.568C167.841 198.661 168.038 197.861 168.433 197.168C168.838 196.475 169.388 195.941 170.081 195.568C170.774 195.184 171.548 194.992 172.401 194.992C173.254 194.992 174.028 195.184 174.721 195.568C175.414 195.941 175.958 196.475 176.353 197.168C176.758 197.861 176.961 198.661 176.961 199.568C176.961 200.475 176.753 201.275 176.337 201.968C175.932 202.661 175.377 203.2 174.673 203.584C173.98 203.957 173.201 204.144 172.337 204.144ZM172.337 202.192C172.742 202.192 173.121 202.096 173.473 201.904C173.836 201.701 174.124 201.403 174.337 201.008C174.55 200.613 174.657 200.133 174.657 199.568C174.657 198.725 174.433 198.08 173.985 197.632C173.548 197.173 173.009 196.944 172.369 196.944C171.729 196.944 171.19 197.173 170.753 197.632C170.326 198.08 170.113 198.725 170.113 199.568C170.113 200.411 170.321 201.061 170.737 201.52C171.164 201.968 171.697 202.192 172.337 202.192Z" fill="#292E33"/>
<path d="M288.408 221.664C289.624 221.664 290.675 221.888 291.56 222.336C292.445 222.784 293.117 223.413 293.576 224.224C294.045 225.024 294.28 225.957 294.28 227.024C294.28 227.877 294.131 228.693 293.832 229.472C293.544 230.251 293.123 230.885 292.568 231.376C292.024 231.867 291.379 232.112 290.632 232.112C290.088 232.112 289.661 231.995 289.352 231.76C289.043 231.515 288.851 231.173 288.776 230.736C288.445 231.163 288.029 231.499 287.528 231.744C287.027 231.989 286.504 232.112 285.96 232.112C285.139 232.112 284.493 231.867 284.024 231.376C283.565 230.875 283.336 230.197 283.336 229.344C283.336 228.533 283.501 227.776 283.832 227.072C284.173 226.368 284.648 225.808 285.256 225.392C285.864 224.965 286.547 224.752 287.304 224.752C288.232 224.752 288.883 225.067 289.256 225.696L289.4 224.896H290.984L290.184 229.472C290.152 229.696 290.136 229.893 290.136 230.064C290.136 230.341 290.189 230.549 290.296 230.688C290.413 230.827 290.616 230.896 290.904 230.896C291.309 230.896 291.656 230.699 291.944 230.304C292.232 229.899 292.445 229.403 292.584 228.816C292.733 228.229 292.808 227.659 292.808 227.104C292.808 225.749 292.413 224.715 291.624 224C290.835 223.285 289.688 222.928 288.184 222.928C286.925 222.928 285.795 223.227 284.792 223.824C283.8 224.421 283.021 225.243 282.456 226.288C281.891 227.333 281.608 228.496 281.608 229.776C281.608 231.141 282.013 232.181 282.824 232.896C283.635 233.611 284.792 233.968 286.296 233.968C287.309 233.968 288.195 233.781 288.952 233.408L289.192 234.624C288.221 235.04 287.133 235.248 285.928 235.248C284.765 235.248 283.747 235.029 282.872 234.592C281.997 234.155 281.32 233.531 280.84 232.72C280.36 231.92 280.12 230.987 280.12 229.92C280.12 228.395 280.472 227.003 281.176 225.744C281.891 224.485 282.877 223.493 284.136 222.768C285.395 222.032 286.819 221.664 288.408 221.664ZM286.52 230.704C286.968 230.704 287.373 230.576 287.736 230.32C288.109 230.053 288.403 229.707 288.616 229.28C288.829 228.843 288.936 228.379 288.936 227.888C288.936 227.376 288.792 226.96 288.504 226.64C288.227 226.309 287.832 226.144 287.32 226.144C286.861 226.144 286.456 226.288 286.104 226.576C285.763 226.853 285.496 227.216 285.304 227.664C285.123 228.112 285.032 228.581 285.032 229.072C285.032 229.573 285.155 229.973 285.4 230.272C285.645 230.56 286.019 230.704 286.52 230.704Z" fill="#478ACC"/>
<rect x="77" y="247" width="143" height="7" rx="3.5" fill="#BFC0C2"/>
<rect x="255" y="247" width="53" height="7" rx="3.5" fill="#BFC0C2"/>
<circle cx="324.999" cy="251" r="4.58333" stroke="#1AB393" stroke-width="3"/>
<path d="M239.408 245.664C240.624 245.664 241.675 245.888 242.56 246.336C243.445 246.784 244.117 247.413 244.576 248.224C245.045 249.024 245.28 249.957 245.28 251.024C245.28 251.877 245.131 252.693 244.832 253.472C244.544 254.251 244.123 254.885 243.568 255.376C243.024 255.867 242.379 256.112 241.632 256.112C241.088 256.112 240.661 255.995 240.352 255.76C240.043 255.515 239.851 255.173 239.776 254.736C239.445 255.163 239.029 255.499 238.528 255.744C238.027 255.989 237.504 256.112 236.96 256.112C236.139 256.112 235.493 255.867 235.024 255.376C234.565 254.875 234.336 254.197 234.336 253.344C234.336 252.533 234.501 251.776 234.832 251.072C235.173 250.368 235.648 249.808 236.256 249.392C236.864 248.965 237.547 248.752 238.304 248.752C239.232 248.752 239.883 249.067 240.256 249.696L240.4 248.896H241.984L241.184 253.472C241.152 253.696 241.136 253.893 241.136 254.064C241.136 254.341 241.189 254.549 241.296 254.688C241.413 254.827 241.616 254.896 241.904 254.896C242.309 254.896 242.656 254.699 242.944 254.304C243.232 253.899 243.445 253.403 243.584 252.816C243.733 252.229 243.808 251.659 243.808 251.104C243.808 249.749 243.413 248.715 242.624 248C241.835 247.285 240.688 246.928 239.184 246.928C237.925 246.928 236.795 247.227 235.792 247.824C234.8 248.421 234.021 249.243 233.456 250.288C232.891 251.333 232.608 252.496 232.608 253.776C232.608 255.141 233.013 256.181 233.824 256.896C234.635 257.611 235.792 257.968 237.296 257.968C238.309 257.968 239.195 257.781 239.952 257.408L240.192 258.624C239.221 259.04 238.133 259.248 236.928 259.248C235.765 259.248 234.747 259.029 233.872 258.592C232.997 258.155 232.32 257.531 231.84 256.72C231.36 255.92 231.12 254.987 231.12 253.92C231.12 252.395 231.472 251.003 232.176 249.744C232.891 248.485 233.877 247.493 235.136 246.768C236.395 246.032 237.819 245.664 239.408 245.664ZM237.52 254.704C237.968 254.704 238.373 254.576 238.736 254.32C239.109 254.053 239.403 253.707 239.616 253.28C239.829 252.843 239.936 252.379 239.936 251.888C239.936 251.376 239.792 250.96 239.504 250.64C239.227 250.309 238.832 250.144 238.32 250.144C237.861 250.144 237.456 250.288 237.104 250.576C236.763 250.853 236.496 251.216 236.304 251.664C236.123 252.112 236.032 252.581 236.032 253.072C236.032 253.573 236.155 253.973 236.4 254.272C236.645 254.56 237.019 254.704 237.52 254.704Z" fill="#478ACC"/>
<rect x="77" y="269" width="155" height="8" rx="4" fill="#BFC0C2"/>
<rect x="267" y="269" width="51" height="8" rx="4" fill="#BFC0C2"/>
<circle cx="334.999" cy="273" r="4.58333" stroke="#1AB393" stroke-width="3"/>
<path d="M251.408 267.664C252.624 267.664 253.675 267.888 254.56 268.336C255.445 268.784 256.117 269.413 256.576 270.224C257.045 271.024 257.28 271.957 257.28 273.024C257.28 273.877 257.131 274.693 256.832 275.472C256.544 276.251 256.123 276.885 255.568 277.376C255.024 277.867 254.379 278.112 253.632 278.112C253.088 278.112 252.661 277.995 252.352 277.76C252.043 277.515 251.851 277.173 251.776 276.736C251.445 277.163 251.029 277.499 250.528 277.744C250.027 277.989 249.504 278.112 248.96 278.112C248.139 278.112 247.493 277.867 247.024 277.376C246.565 276.875 246.336 276.197 246.336 275.344C246.336 274.533 246.501 273.776 246.832 273.072C247.173 272.368 247.648 271.808 248.256 271.392C248.864 270.965 249.547 270.752 250.304 270.752C251.232 270.752 251.883 271.067 252.256 271.696L252.4 270.896H253.984L253.184 275.472C253.152 275.696 253.136 275.893 253.136 276.064C253.136 276.341 253.189 276.549 253.296 276.688C253.413 276.827 253.616 276.896 253.904 276.896C254.309 276.896 254.656 276.699 254.944 276.304C255.232 275.899 255.445 275.403 255.584 274.816C255.733 274.229 255.808 273.659 255.808 273.104C255.808 271.749 255.413 270.715 254.624 270C253.835 269.285 252.688 268.928 251.184 268.928C249.925 268.928 248.795 269.227 247.792 269.824C246.8 270.421 246.021 271.243 245.456 272.288C244.891 273.333 244.608 274.496 244.608 275.776C244.608 277.141 245.013 278.181 245.824 278.896C246.635 279.611 247.792 279.968 249.296 279.968C250.309 279.968 251.195 279.781 251.952 279.408L252.192 280.624C251.221 281.04 250.133 281.248 248.928 281.248C247.765 281.248 246.747 281.029 245.872 280.592C244.997 280.155 244.32 279.531 243.84 278.72C243.36 277.92 243.12 276.987 243.12 275.92C243.12 274.395 243.472 273.003 244.176 271.744C244.891 270.485 245.877 269.493 247.136 268.768C248.395 268.032 249.819 267.664 251.408 267.664ZM249.52 276.704C249.968 276.704 250.373 276.576 250.736 276.32C251.109 276.053 251.403 275.707 251.616 275.28C251.829 274.843 251.936 274.379 251.936 273.888C251.936 273.376 251.792 272.96 251.504 272.64C251.227 272.309 250.832 272.144 250.32 272.144C249.861 272.144 249.456 272.288 249.104 272.576C248.763 272.853 248.496 273.216 248.304 273.664C248.123 274.112 248.032 274.581 248.032 275.072C248.032 275.573 248.155 275.973 248.4 276.272C248.645 276.56 249.019 276.704 249.52 276.704Z" fill="#478ACC"/>
<g filter="url(#filter1_d_835_11763)">
<rect x="349" y="232" width="164" height="40" rx="8" fill="#EAEAEB"/>
<path d="M343.414 250.586L349.121 244.879C349.684 244.316 350 243.553 350 242.757L350 261.243C350 260.447 349.684 259.684 349.121 259.121L343.414 253.414C342.633 252.633 342.633 251.367 343.414 250.586Z" fill="#EAEAEB"/>
<path d="M348.328 245.172L347.975 244.818L348.328 245.172ZM343.621 249.879L343.975 250.232L343.621 249.879ZM343.621 254.121L343.975 253.768L343.621 254.121ZM348.328 258.828L347.975 259.182H347.975L348.328 258.828ZM349 239L349 242.343L350 242.343L350 239L349 239ZM347.975 244.818L343.268 249.525L343.975 250.232L348.682 245.525L347.975 244.818ZM343.268 254.475L347.975 259.182L348.682 258.475L343.975 253.768L343.268 254.475ZM349 261.657L349 265L350 265L350 261.657L349 261.657ZM347.975 259.182C348.631 259.838 349 260.729 349 261.657L350 261.657C350 260.463 349.526 259.319 348.682 258.475L347.975 259.182ZM343.268 249.525C341.901 250.892 341.901 253.108 343.268 254.475L343.975 253.768C342.999 252.791 342.999 251.209 343.975 250.232L343.268 249.525ZM349 242.343C349 243.271 348.631 244.162 347.975 244.818L348.682 245.525C349.526 244.681 350 243.537 350 242.343L349 242.343Z" fill="#BFC0C2"/>
<path d="M363.718 257.098C363.065 257.098 362.477 256.986 361.954 256.762C361.431 256.529 361.021 256.202 360.722 255.782C360.423 255.362 360.274 254.872 360.274 254.312H361.982C362.019 254.732 362.183 255.077 362.472 255.348C362.771 255.619 363.186 255.754 363.718 255.754C364.269 255.754 364.698 255.623 365.006 255.362C365.314 255.091 365.468 254.746 365.468 254.326C365.468 253.999 365.37 253.733 365.174 253.528C364.987 253.323 364.749 253.164 364.46 253.052C364.18 252.94 363.788 252.819 363.284 252.688C362.649 252.52 362.131 252.352 361.73 252.184C361.338 252.007 361.002 251.736 360.722 251.372C360.442 251.008 360.302 250.523 360.302 249.916C360.302 249.356 360.442 248.866 360.722 248.446C361.002 248.026 361.394 247.704 361.898 247.48C362.402 247.256 362.985 247.144 363.648 247.144C364.591 247.144 365.361 247.382 365.958 247.858C366.565 248.325 366.901 248.969 366.966 249.79H365.202C365.174 249.435 365.006 249.132 364.698 248.88C364.39 248.628 363.984 248.502 363.48 248.502C363.023 248.502 362.649 248.619 362.36 248.852C362.071 249.085 361.926 249.421 361.926 249.86C361.926 250.159 362.015 250.406 362.192 250.602C362.379 250.789 362.612 250.938 362.892 251.05C363.172 251.162 363.555 251.283 364.04 251.414C364.684 251.591 365.207 251.769 365.608 251.946C366.019 252.123 366.364 252.399 366.644 252.772C366.933 253.136 367.078 253.626 367.078 254.242C367.078 254.737 366.943 255.203 366.672 255.642C366.411 256.081 366.023 256.435 365.51 256.706C365.006 256.967 364.409 257.098 363.718 257.098ZM375.947 249.286V257H374.351V256.09C374.099 256.407 373.768 256.659 373.357 256.846C372.956 257.023 372.526 257.112 372.069 257.112C371.462 257.112 370.916 256.986 370.431 256.734C369.955 256.482 369.577 256.109 369.297 255.614C369.026 255.119 368.891 254.522 368.891 253.822V249.286H370.473V253.584C370.473 254.275 370.646 254.807 370.991 255.18C371.336 255.544 371.808 255.726 372.405 255.726C373.002 255.726 373.474 255.544 373.819 255.18C374.174 254.807 374.351 254.275 374.351 253.584V249.286H375.947ZM377.521 253.136C377.521 252.343 377.68 251.647 377.997 251.05C378.324 250.443 378.772 249.977 379.341 249.65C379.91 249.323 380.564 249.16 381.301 249.16C382.234 249.16 383.004 249.384 383.611 249.832C384.227 250.271 384.642 250.901 384.857 251.722H383.135C382.995 251.339 382.771 251.041 382.463 250.826C382.155 250.611 381.768 250.504 381.301 250.504C380.648 250.504 380.125 250.737 379.733 251.204C379.35 251.661 379.159 252.305 379.159 253.136C379.159 253.967 379.35 254.615 379.733 255.082C380.125 255.549 380.648 255.782 381.301 255.782C382.225 255.782 382.836 255.376 383.135 254.564H384.857C384.633 255.348 384.213 255.973 383.597 256.44C382.981 256.897 382.216 257.126 381.301 257.126C380.564 257.126 379.91 256.963 379.341 256.636C378.772 256.3 378.324 255.833 377.997 255.236C377.68 254.629 377.521 253.929 377.521 253.136ZM385.915 253.136C385.915 252.343 386.074 251.647 386.391 251.05C386.718 250.443 387.166 249.977 387.735 249.65C388.305 249.323 388.958 249.16 389.695 249.16C390.629 249.16 391.399 249.384 392.005 249.832C392.621 250.271 393.037 250.901 393.251 251.722H391.529C391.389 251.339 391.165 251.041 390.857 250.826C390.549 250.611 390.162 250.504 389.695 250.504C389.042 250.504 388.519 250.737 388.127 251.204C387.745 251.661 387.553 252.305 387.553 253.136C387.553 253.967 387.745 254.615 388.127 255.082C388.519 255.549 389.042 255.782 389.695 255.782C390.619 255.782 391.231 255.376 391.529 254.564H393.251C393.027 255.348 392.607 255.973 391.991 256.44C391.375 256.897 390.61 257.126 389.695 257.126C388.958 257.126 388.305 256.963 387.735 256.636C387.166 256.3 386.718 255.833 386.391 255.236C386.074 254.629 385.915 253.929 385.915 253.136ZM401.912 252.954C401.912 253.243 401.893 253.505 401.856 253.738H395.962C396.009 254.354 396.237 254.849 396.648 255.222C397.059 255.595 397.563 255.782 398.16 255.782C399.019 255.782 399.625 255.423 399.98 254.704H401.702C401.469 255.413 401.044 255.997 400.428 256.454C399.821 256.902 399.065 257.126 398.16 257.126C397.423 257.126 396.76 256.963 396.172 256.636C395.593 256.3 395.136 255.833 394.8 255.236C394.473 254.629 394.31 253.929 394.31 253.136C394.31 252.343 394.469 251.647 394.786 251.05C395.113 250.443 395.565 249.977 396.144 249.65C396.732 249.323 397.404 249.16 398.16 249.16C398.888 249.16 399.537 249.319 400.106 249.636C400.675 249.953 401.119 250.401 401.436 250.98C401.753 251.549 401.912 252.207 401.912 252.954ZM400.246 252.45C400.237 251.862 400.027 251.391 399.616 251.036C399.205 250.681 398.697 250.504 398.09 250.504C397.539 250.504 397.068 250.681 396.676 251.036C396.284 251.381 396.051 251.853 395.976 252.45H400.246ZM406.283 257.126C405.676 257.126 405.13 257.019 404.645 256.804C404.169 256.58 403.791 256.281 403.511 255.908C403.231 255.525 403.081 255.101 403.063 254.634H404.715C404.743 254.961 404.897 255.236 405.177 255.46C405.466 255.675 405.825 255.782 406.255 255.782C406.703 255.782 407.048 255.698 407.291 255.53C407.543 255.353 407.669 255.129 407.669 254.858C407.669 254.569 407.529 254.354 407.249 254.214C406.978 254.074 406.544 253.92 405.947 253.752C405.368 253.593 404.897 253.439 404.533 253.29C404.169 253.141 403.851 252.912 403.581 252.604C403.319 252.296 403.189 251.89 403.189 251.386C403.189 250.975 403.31 250.602 403.553 250.266C403.795 249.921 404.141 249.65 404.589 249.454C405.046 249.258 405.569 249.16 406.157 249.16C407.034 249.16 407.739 249.384 408.271 249.832C408.812 250.271 409.101 250.873 409.139 251.638H407.543C407.515 251.293 407.375 251.017 407.123 250.812C406.871 250.607 406.53 250.504 406.101 250.504C405.681 250.504 405.359 250.583 405.135 250.742C404.911 250.901 404.799 251.111 404.799 251.372C404.799 251.577 404.873 251.75 405.023 251.89C405.172 252.03 405.354 252.142 405.569 252.226C405.783 252.301 406.101 252.399 406.521 252.52C407.081 252.669 407.538 252.823 407.893 252.982C408.257 253.131 408.569 253.355 408.831 253.654C409.092 253.953 409.227 254.349 409.237 254.844C409.237 255.283 409.115 255.675 408.873 256.02C408.63 256.365 408.285 256.636 407.837 256.832C407.398 257.028 406.88 257.126 406.283 257.126ZM413.761 257.126C413.154 257.126 412.608 257.019 412.123 256.804C411.647 256.58 411.269 256.281 410.989 255.908C410.709 255.525 410.56 255.101 410.541 254.634H412.193C412.221 254.961 412.375 255.236 412.655 255.46C412.944 255.675 413.304 255.782 413.733 255.782C414.181 255.782 414.526 255.698 414.769 255.53C415.021 255.353 415.147 255.129 415.147 254.858C415.147 254.569 415.007 254.354 414.727 254.214C414.456 254.074 414.022 253.92 413.425 253.752C412.846 253.593 412.375 253.439 412.011 253.29C411.647 253.141 411.33 252.912 411.059 252.604C410.798 252.296 410.667 251.89 410.667 251.386C410.667 250.975 410.788 250.602 411.031 250.266C411.274 249.921 411.619 249.65 412.067 249.454C412.524 249.258 413.047 249.16 413.635 249.16C414.512 249.16 415.217 249.384 415.749 249.832C416.29 250.271 416.58 250.873 416.617 251.638H415.021C414.993 251.293 414.853 251.017 414.601 250.812C414.349 250.607 414.008 250.504 413.579 250.504C413.159 250.504 412.837 250.583 412.613 250.742C412.389 250.901 412.277 251.111 412.277 251.372C412.277 251.577 412.352 251.75 412.501 251.89C412.65 252.03 412.832 252.142 413.047 252.226C413.262 252.301 413.579 252.399 413.999 252.52C414.559 252.669 415.016 252.823 415.371 252.982C415.735 253.131 416.048 253.355 416.309 253.654C416.57 253.953 416.706 254.349 416.715 254.844C416.715 255.283 416.594 255.675 416.351 256.02C416.108 256.365 415.763 256.636 415.315 256.832C414.876 257.028 414.358 257.126 413.761 257.126ZM421.674 250.588H420.246V257H418.636V250.588H417.726V249.286H418.636V248.74C418.636 247.853 418.869 247.209 419.336 246.808C419.812 246.397 420.554 246.192 421.562 246.192V247.522C421.076 247.522 420.736 247.615 420.54 247.802C420.344 247.979 420.246 248.292 420.246 248.74V249.286H421.674V250.588ZM430.074 249.286V257H428.478V256.09C428.226 256.407 427.895 256.659 427.484 256.846C427.083 257.023 426.653 257.112 426.196 257.112C425.589 257.112 425.043 256.986 424.558 256.734C424.082 256.482 423.704 256.109 423.424 255.614C423.153 255.119 423.018 254.522 423.018 253.822V249.286H424.6V253.584C424.6 254.275 424.773 254.807 425.118 255.18C425.463 255.544 425.935 255.726 426.532 255.726C427.129 255.726 427.601 255.544 427.946 255.18C428.301 254.807 428.478 254.275 428.478 253.584V249.286H430.074ZM433.776 246.64V257H432.18V246.64H433.776ZM437.467 246.64V257H435.871V246.64H437.467ZM446.507 249.286L441.775 260.626H440.123L441.691 256.874L438.653 249.286H440.431L442.601 255.166L444.855 249.286H446.507ZM454.33 255.572L456.514 249.286H458.208L455.268 257H453.364L450.438 249.286H452.146L454.33 255.572ZM466.484 252.954C466.484 253.243 466.466 253.505 466.428 253.738H460.534C460.581 254.354 460.81 254.849 461.22 255.222C461.631 255.595 462.135 255.782 462.732 255.782C463.591 255.782 464.198 255.423 464.552 254.704H466.274C466.041 255.413 465.616 255.997 465 256.454C464.394 256.902 463.638 257.126 462.732 257.126C461.995 257.126 461.332 256.963 460.744 256.636C460.166 256.3 459.708 255.833 459.372 255.236C459.046 254.629 458.882 253.929 458.882 253.136C458.882 252.343 459.041 251.647 459.358 251.05C459.685 250.443 460.138 249.977 460.716 249.65C461.304 249.323 461.976 249.16 462.732 249.16C463.46 249.16 464.109 249.319 464.678 249.636C465.248 249.953 465.691 250.401 466.008 250.98C466.326 251.549 466.484 252.207 466.484 252.954ZM464.818 252.45C464.809 251.862 464.599 251.391 464.188 251.036C463.778 250.681 463.269 250.504 462.662 250.504C462.112 250.504 461.64 250.681 461.248 251.036C460.856 251.381 460.623 251.853 460.548 252.45H464.818ZM469.651 250.406C469.884 250.014 470.192 249.711 470.575 249.496C470.967 249.272 471.429 249.16 471.961 249.16V250.812H471.555C470.93 250.812 470.454 250.971 470.127 251.288C469.81 251.605 469.651 252.156 469.651 252.94V257H468.055V249.286H469.651V250.406ZM474.24 248.264C473.951 248.264 473.708 248.166 473.512 247.97C473.316 247.774 473.218 247.531 473.218 247.242C473.218 246.953 473.316 246.71 473.512 246.514C473.708 246.318 473.951 246.22 474.24 246.22C474.52 246.22 474.758 246.318 474.954 246.514C475.15 246.71 475.248 246.953 475.248 247.242C475.248 247.531 475.15 247.774 474.954 247.97C474.758 248.166 474.52 248.264 474.24 248.264ZM475.024 249.286V257H473.428V249.286H475.024ZM480.353 250.588H478.925V257H477.315V250.588H476.405V249.286H477.315V248.74C477.315 247.853 477.549 247.209 478.015 246.808C478.491 246.397 479.233 246.192 480.241 246.192V247.522C479.756 247.522 479.415 247.615 479.219 247.802C479.023 247.979 478.925 248.292 478.925 248.74V249.286H480.353V250.588ZM482.58 248.264C482.29 248.264 482.048 248.166 481.852 247.97C481.656 247.774 481.558 247.531 481.558 247.242C481.558 246.953 481.656 246.71 481.852 246.514C482.048 246.318 482.29 246.22 482.58 246.22C482.86 246.22 483.098 246.318 483.294 246.514C483.49 246.71 483.588 246.953 483.588 247.242C483.588 247.531 483.49 247.774 483.294 247.97C483.098 248.166 482.86 248.264 482.58 248.264ZM483.364 249.286V257H481.768V249.286H483.364ZM492.529 252.954C492.529 253.243 492.511 253.505 492.473 253.738H486.579C486.626 254.354 486.855 254.849 487.265 255.222C487.676 255.595 488.18 255.782 488.777 255.782C489.636 255.782 490.243 255.423 490.597 254.704H492.319C492.086 255.413 491.661 255.997 491.045 256.454C490.439 256.902 489.683 257.126 488.777 257.126C488.04 257.126 487.377 256.963 486.789 256.636C486.211 256.3 485.753 255.833 485.417 255.236C485.091 254.629 484.927 253.929 484.927 253.136C484.927 252.343 485.086 251.647 485.403 251.05C485.73 250.443 486.183 249.977 486.761 249.65C487.349 249.323 488.021 249.16 488.777 249.16C489.505 249.16 490.154 249.319 490.723 249.636C491.293 249.953 491.736 250.401 492.053 250.98C492.371 251.549 492.529 252.207 492.529 252.954ZM490.863 252.45C490.854 251.862 490.644 251.391 490.233 251.036C489.823 250.681 489.314 250.504 488.707 250.504C488.157 250.504 487.685 250.681 487.293 251.036C486.901 251.381 486.668 251.853 486.593 252.45H490.863ZM493.568 253.108C493.568 252.333 493.726 251.647 494.044 251.05C494.37 250.453 494.809 249.991 495.36 249.664C495.92 249.328 496.54 249.16 497.222 249.16C497.726 249.16 498.22 249.272 498.706 249.496C499.2 249.711 499.592 250 499.882 250.364V246.64H501.492V257H499.882V255.838C499.62 256.211 499.256 256.519 498.79 256.762C498.332 257.005 497.805 257.126 497.208 257.126C496.536 257.126 495.92 256.958 495.36 256.622C494.809 256.277 494.37 255.801 494.044 255.194C493.726 254.578 493.568 253.883 493.568 253.108ZM499.882 253.136C499.882 252.604 499.77 252.142 499.546 251.75C499.331 251.358 499.046 251.059 498.692 250.854C498.337 250.649 497.954 250.546 497.544 250.546C497.133 250.546 496.75 250.649 496.396 250.854C496.041 251.05 495.752 251.344 495.528 251.736C495.313 252.119 495.206 252.576 495.206 253.108C495.206 253.64 495.313 254.107 495.528 254.508C495.752 254.909 496.041 255.217 496.396 255.432C496.76 255.637 497.142 255.74 497.544 255.74C497.954 255.74 498.337 255.637 498.692 255.432C499.046 255.227 499.331 254.928 499.546 254.536C499.77 254.135 499.882 253.668 499.882 253.136Z" fill="#292E33"/>
<rect x="349.5" y="232.5" width="163" height="39" rx="7.5" stroke="#BFC0C2"/>
</g>
<defs>
<filter id="filter0_d_835_11763" x="0" y="0" width="472" height="490" filterUnits="userSpaceOnUse" color-interpolation-filters="sRGB">
<feFlood flood-opacity="0" result="BackgroundImageFix"/>
<feColorMatrix in="SourceAlpha" type="matrix" values="0 0 0 0 0 0 0 0 0 0 0 0 0 0 0 0 0 0 127 0" result="hardAlpha"/>
<feOffset dy="24"/>
<feGaussianBlur stdDeviation="28"/>
<feComposite in2="hardAlpha" operator="out"/>
<feColorMatrix type="matrix" values="0 0 0 0 0.141176 0 0 0 0 0.196078 0 0 0 0 0.227451 0 0 0 0.25 0"/>
<feBlend mode="normal" in2="BackgroundImageFix" result="effect1_dropShadow_835_11763"/>
<feBlend mode="normal" in="SourceGraphic" in2="effect1_dropShadow_835_11763" result="shape"/>
</filter>
<filter id="filter1_d_835_11763" x="318.242" y="224" width="218.758" height="88" filterUnits="userSpaceOnUse" color-interpolation-filters="sRGB">
<feFlood flood-opacity="0" result="BackgroundImageFix"/>
<feColorMatrix in="SourceAlpha" type="matrix" values="0 0 0 0 0 0 0 0 0 0 0 0 0 0 0 0 0 0 127 0" result="hardAlpha"/>
<feOffset dy="16"/>
<feGaussianBlur stdDeviation="12"/>
<feComposite in2="hardAlpha" operator="out"/>
<feColorMatrix type="matrix" values="0 0 0 0 0.12549 0 0 0 0 0.156863 0 0 0 0 0.152941 0 0 0 0.1 0"/>
<feBlend mode="normal" in2="BackgroundImageFix" result="effect1_dropShadow_835_11763"/>
<feBlend mode="normal" in="SourceGraphic" in2="effect1_dropShadow_835_11763" result="shape"/>
</filter>
<clipPath id="clip0_835_11763">
<rect x="77" y="53" width="102" height="102" rx="16" fill="white"/>
</clipPath>
</defs>
</svg>
