<svg width="525" height="341" viewBox="0 0 525 341" fill="none" xmlns="http://www.w3.org/2000/svg">
<g filter="url(#filter0_d_835_11807)">
<rect x="57" y="33" width="411" height="227" rx="16" fill="#F9F9FA"/>
<rect x="56.5" y="32.5" width="412" height="228" rx="16.5" stroke="#D4D5D6"/>
</g>
<path d="M154.82 159.575V166.22C154.82 167.01 155.025 167.605 155.435 168.005C155.855 168.405 156.435 168.605 157.175 168.605C157.925 168.605 158.505 168.405 158.915 168.005C159.335 167.605 159.545 167.01 159.545 166.22V159.575H161.255V166.19C161.255 167.04 161.07 167.76 160.7 168.35C160.33 168.94 159.835 169.38 159.215 169.67C158.595 169.96 157.91 170.105 157.16 170.105C156.41 170.105 155.725 169.96 155.105 169.67C154.495 169.38 154.01 168.94 153.65 168.35C153.29 167.76 153.11 167.04 153.11 166.19V159.575H154.82ZM167.651 161.6C168.301 161.6 168.881 161.735 169.391 162.005C169.911 162.275 170.316 162.675 170.606 163.205C170.896 163.735 171.041 164.375 171.041 165.125V170H169.346V165.38C169.346 164.64 169.161 164.075 168.791 163.685C168.421 163.285 167.916 163.085 167.276 163.085C166.636 163.085 166.126 163.285 165.746 163.685C165.376 164.075 165.191 164.64 165.191 165.38V170H163.481V161.735H165.191V162.68C165.471 162.34 165.826 162.075 166.256 161.885C166.696 161.695 167.161 161.6 167.651 161.6ZM174.093 160.64C173.783 160.64 173.523 160.535 173.313 160.325C173.103 160.115 172.998 159.855 172.998 159.545C172.998 159.235 173.103 158.975 173.313 158.765C173.523 158.555 173.783 158.45 174.093 158.45C174.393 158.45 174.648 158.555 174.858 158.765C175.068 158.975 175.173 159.235 175.173 159.545C175.173 159.855 175.068 160.115 174.858 160.325C174.648 160.535 174.393 160.64 174.093 160.64ZM174.933 161.735V170H173.223V161.735H174.933ZM179.173 163.13V167.705C179.173 168.015 179.243 168.24 179.383 168.38C179.533 168.51 179.783 168.575 180.133 168.575H181.183V170H179.833C179.063 170 178.473 169.82 178.063 169.46C177.653 169.1 177.448 168.515 177.448 167.705V163.13H176.473V161.735H177.448V159.68H179.173V161.735H181.183V163.13H179.173ZM190.334 165.665C190.334 165.975 190.314 166.255 190.274 166.505H183.959C184.009 167.165 184.254 167.695 184.694 168.095C185.134 168.495 185.674 168.695 186.314 168.695C187.234 168.695 187.884 168.31 188.264 167.54H190.109C189.859 168.3 189.404 168.925 188.744 169.415C188.094 169.895 187.284 170.135 186.314 170.135C185.524 170.135 184.814 169.96 184.184 169.61C183.564 169.25 183.074 168.75 182.714 168.11C182.364 167.46 182.189 166.71 182.189 165.86C182.189 165.01 182.359 164.265 182.699 163.625C183.049 162.975 183.534 162.475 184.154 162.125C184.784 161.775 185.504 161.6 186.314 161.6C187.094 161.6 187.789 161.77 188.399 162.11C189.009 162.45 189.484 162.93 189.824 163.55C190.164 164.16 190.334 164.865 190.334 165.665ZM188.549 165.125C188.539 164.495 188.314 163.99 187.874 163.61C187.434 163.23 186.889 163.04 186.239 163.04C185.649 163.04 185.144 163.23 184.724 163.61C184.304 163.98 184.054 164.485 183.974 165.125H188.549ZM191.447 165.83C191.447 165 191.617 164.265 191.957 163.625C192.307 162.985 192.777 162.49 193.367 162.14C193.967 161.78 194.632 161.6 195.362 161.6C195.902 161.6 196.432 161.72 196.952 161.96C197.482 162.19 197.902 162.5 198.212 162.89V158.9H199.937V170H198.212V168.755C197.932 169.155 197.542 169.485 197.042 169.745C196.552 170.005 195.987 170.135 195.347 170.135C194.627 170.135 193.967 169.955 193.367 169.595C192.777 169.225 192.307 168.715 191.957 168.065C191.617 167.405 191.447 166.66 191.447 165.83ZM198.212 165.86C198.212 165.29 198.092 164.795 197.852 164.375C197.622 163.955 197.317 163.635 196.937 163.415C196.557 163.195 196.147 163.085 195.707 163.085C195.267 163.085 194.857 163.195 194.477 163.415C194.097 163.625 193.787 163.94 193.547 164.36C193.317 164.77 193.202 165.26 193.202 165.83C193.202 166.4 193.317 166.9 193.547 167.33C193.787 167.76 194.097 168.09 194.477 168.32C194.867 168.54 195.277 168.65 195.707 168.65C196.147 168.65 196.557 168.54 196.937 168.32C197.317 168.1 197.622 167.78 197.852 167.36C198.092 166.93 198.212 166.43 198.212 165.86ZM211.824 170L207.789 165.335V170H206.079V159.575H207.789V164.33L211.839 159.575H213.984L209.454 164.795L214.059 170H211.824ZM216.441 160.64C216.131 160.64 215.871 160.535 215.661 160.325C215.451 160.115 215.346 159.855 215.346 159.545C215.346 159.235 215.451 158.975 215.661 158.765C215.871 158.555 216.131 158.45 216.441 158.45C216.741 158.45 216.996 158.555 217.206 158.765C217.416 158.975 217.521 159.235 217.521 159.545C217.521 159.855 217.416 160.115 217.206 160.325C216.996 160.535 216.741 160.64 216.441 160.64ZM217.281 161.735V170H215.571V161.735H217.281ZM223.696 161.6C224.346 161.6 224.926 161.735 225.436 162.005C225.956 162.275 226.361 162.675 226.651 163.205C226.941 163.735 227.086 164.375 227.086 165.125V170H225.391V165.38C225.391 164.64 225.206 164.075 224.836 163.685C224.466 163.285 223.961 163.085 223.321 163.085C222.681 163.085 222.171 163.285 221.791 163.685C221.421 164.075 221.236 164.64 221.236 165.38V170H219.526V161.735H221.236V162.68C221.516 162.34 221.871 162.075 222.301 161.885C222.741 161.695 223.206 161.6 223.696 161.6ZM232.598 161.6C233.238 161.6 233.803 161.73 234.293 161.99C234.793 162.24 235.183 162.555 235.463 162.935V161.735H237.188V170.135C237.188 170.895 237.028 171.57 236.708 172.16C236.388 172.76 235.923 173.23 235.313 173.57C234.713 173.91 233.993 174.08 233.153 174.08C232.033 174.08 231.103 173.815 230.363 173.285C229.623 172.765 229.203 172.055 229.103 171.155H230.798C230.928 171.585 231.203 171.93 231.623 172.19C232.053 172.46 232.563 172.595 233.153 172.595C233.843 172.595 234.398 172.385 234.818 171.965C235.248 171.545 235.463 170.935 235.463 170.135V168.755C235.173 169.145 234.778 169.475 234.278 169.745C233.788 170.005 233.228 170.135 232.598 170.135C231.878 170.135 231.218 169.955 230.618 169.595C230.028 169.225 229.558 168.715 229.208 168.065C228.868 167.405 228.698 166.66 228.698 165.83C228.698 165 228.868 164.265 229.208 163.625C229.558 162.985 230.028 162.49 230.618 162.14C231.218 161.78 231.878 161.6 232.598 161.6ZM235.463 165.86C235.463 165.29 235.343 164.795 235.103 164.375C234.873 163.955 234.568 163.635 234.188 163.415C233.808 163.195 233.398 163.085 232.958 163.085C232.518 163.085 232.108 163.195 231.728 163.415C231.348 163.625 231.038 163.94 230.798 164.36C230.568 164.77 230.453 165.26 230.453 165.83C230.453 166.4 230.568 166.9 230.798 167.33C231.038 167.76 231.348 168.09 231.728 168.32C232.118 168.54 232.528 168.65 232.958 168.65C233.398 168.65 233.808 168.54 234.188 168.32C234.568 168.1 234.873 167.78 235.103 167.36C235.343 166.93 235.463 166.43 235.463 165.86ZM238.864 165.83C238.864 165 239.034 164.265 239.374 163.625C239.724 162.985 240.194 162.49 240.784 162.14C241.384 161.78 242.049 161.6 242.779 161.6C243.319 161.6 243.849 161.72 244.369 161.96C244.899 162.19 245.319 162.5 245.629 162.89V158.9H247.354V170H245.629V168.755C245.349 169.155 244.959 169.485 244.459 169.745C243.969 170.005 243.404 170.135 242.764 170.135C242.044 170.135 241.384 169.955 240.784 169.595C240.194 169.225 239.724 168.715 239.374 168.065C239.034 167.405 238.864 166.66 238.864 165.83ZM245.629 165.86C245.629 165.29 245.509 164.795 245.269 164.375C245.039 163.955 244.734 163.635 244.354 163.415C243.974 163.195 243.564 163.085 243.124 163.085C242.684 163.085 242.274 163.195 241.894 163.415C241.514 163.625 241.204 163.94 240.964 164.36C240.734 164.77 240.619 165.26 240.619 165.83C240.619 166.4 240.734 166.9 240.964 167.33C241.204 167.76 241.514 168.09 241.894 168.32C242.284 168.54 242.694 168.65 243.124 168.65C243.564 168.65 243.974 168.54 244.354 168.32C244.734 168.1 245.039 167.78 245.269 167.36C245.509 166.93 245.629 166.43 245.629 165.86ZM253.185 170.135C252.405 170.135 251.7 169.96 251.07 169.61C250.44 169.25 249.945 168.75 249.585 168.11C249.225 167.46 249.045 166.71 249.045 165.86C249.045 165.02 249.23 164.275 249.6 163.625C249.97 162.975 250.475 162.475 251.115 162.125C251.755 161.775 252.47 161.6 253.26 161.6C254.05 161.6 254.765 161.775 255.405 162.125C256.045 162.475 256.55 162.975 256.92 163.625C257.29 164.275 257.475 165.02 257.475 165.86C257.475 166.7 257.285 167.445 256.905 168.095C256.525 168.745 256.005 169.25 255.345 169.61C254.695 169.96 253.975 170.135 253.185 170.135ZM253.185 168.65C253.625 168.65 254.035 168.545 254.415 168.335C254.805 168.125 255.12 167.81 255.36 167.39C255.6 166.97 255.72 166.46 255.72 165.86C255.72 165.26 255.605 164.755 255.375 164.345C255.145 163.925 254.84 163.61 254.46 163.4C254.08 163.19 253.67 163.085 253.23 163.085C252.79 163.085 252.38 163.19 252 163.4C251.63 163.61 251.335 163.925 251.115 164.345C250.895 164.755 250.785 165.26 250.785 165.86C250.785 166.75 251.01 167.44 251.46 167.93C251.92 168.41 252.495 168.65 253.185 168.65ZM269.17 161.6C269.82 161.6 270.4 161.735 270.91 162.005C271.43 162.275 271.835 162.675 272.125 163.205C272.425 163.735 272.575 164.375 272.575 165.125V170H270.88V165.38C270.88 164.64 270.695 164.075 270.325 163.685C269.955 163.285 269.45 163.085 268.81 163.085C268.17 163.085 267.66 163.285 267.28 163.685C266.91 164.075 266.725 164.64 266.725 165.38V170H265.03V165.38C265.03 164.64 264.845 164.075 264.475 163.685C264.105 163.285 263.6 163.085 262.96 163.085C262.32 163.085 261.81 163.285 261.43 163.685C261.06 164.075 260.875 164.64 260.875 165.38V170H259.165V161.735H260.875V162.68C261.155 162.34 261.51 162.075 261.94 161.885C262.37 161.695 262.83 161.6 263.32 161.6C263.98 161.6 264.57 161.74 265.09 162.02C265.61 162.3 266.01 162.705 266.29 163.235C266.54 162.735 266.93 162.34 267.46 162.05C267.99 161.75 268.56 161.6 269.17 161.6Z" fill="#1AB393"/>
<path d="M157.704 55.832V57.64H154.728V67H152.488V57.64H149.512V55.832H157.704ZM160.474 57.08C160.08 57.08 159.749 56.9573 159.482 56.712C159.226 56.456 159.098 56.1413 159.098 55.768C159.098 55.3947 159.226 55.0853 159.482 54.84C159.749 54.584 160.08 54.456 160.474 54.456C160.869 54.456 161.194 54.584 161.45 54.84C161.717 55.0853 161.85 55.3947 161.85 55.768C161.85 56.1413 161.717 56.456 161.45 56.712C161.194 56.9573 160.869 57.08 160.474 57.08ZM161.578 58.136V67H159.338V58.136H161.578ZM174.8 58.008C175.888 58.008 176.762 58.344 177.424 59.016C178.096 59.6773 178.432 60.6053 178.432 61.8V67H176.192V62.104C176.192 61.4107 176.016 60.8827 175.664 60.52C175.312 60.1467 174.832 59.96 174.224 59.96C173.616 59.96 173.13 60.1467 172.768 60.52C172.416 60.8827 172.24 61.4107 172.24 62.104V67H170V62.104C170 61.4107 169.824 60.8827 169.472 60.52C169.12 60.1467 168.64 59.96 168.032 59.96C167.413 59.96 166.922 60.1467 166.56 60.52C166.208 60.8827 166.032 61.4107 166.032 62.104V67H163.792V58.136H166.032V59.208C166.32 58.8347 166.688 58.5413 167.136 58.328C167.594 58.1147 168.096 58.008 168.64 58.008C169.333 58.008 169.952 58.1573 170.496 58.456C171.04 58.744 171.461 59.16 171.76 59.704C172.048 59.192 172.464 58.7813 173.008 58.472C173.562 58.1627 174.16 58.008 174.8 58.008ZM184.493 67.144C183.64 67.144 182.872 66.9573 182.189 66.584C181.506 66.2 180.968 65.6613 180.573 64.968C180.189 64.2747 179.997 63.4747 179.997 62.568C179.997 61.6613 180.194 60.8613 180.589 60.168C180.994 59.4747 181.544 58.9413 182.237 58.568C182.93 58.184 183.704 57.992 184.557 57.992C185.41 57.992 186.184 58.184 186.877 58.568C187.57 58.9413 188.114 59.4747 188.509 60.168C188.914 60.8613 189.117 61.6613 189.117 62.568C189.117 63.4747 188.909 64.2747 188.493 64.968C188.088 65.6613 187.533 66.2 186.829 66.584C186.136 66.9573 185.357 67.144 184.493 67.144ZM184.493 65.192C184.898 65.192 185.277 65.096 185.629 64.904C185.992 64.7013 186.28 64.4027 186.493 64.008C186.706 63.6133 186.813 63.1333 186.813 62.568C186.813 61.7253 186.589 61.08 186.141 60.632C185.704 60.1733 185.165 59.944 184.525 59.944C183.885 59.944 183.346 60.1733 182.909 60.632C182.482 61.08 182.269 61.7253 182.269 62.568C182.269 63.4107 182.477 64.0613 182.893 64.52C183.32 64.968 183.853 65.192 184.493 65.192ZM193.368 59.976V64.264C193.368 64.5627 193.438 64.7813 193.576 64.92C193.726 65.048 193.971 65.112 194.312 65.112H195.352V67H193.944C192.056 67 191.112 66.0827 191.112 64.248V59.976H190.056V58.136H191.112V55.944H193.368V58.136H195.352V59.976H193.368ZM201.955 58.008C202.627 58.008 203.225 58.1573 203.747 58.456C204.27 58.744 204.675 59.176 204.963 59.752C205.262 60.3173 205.411 61 205.411 61.8V67H203.171V62.104C203.171 61.4 202.995 60.8613 202.643 60.488C202.291 60.104 201.811 59.912 201.203 59.912C200.585 59.912 200.094 60.104 199.731 60.488C199.379 60.8613 199.203 61.4 199.203 62.104V67H196.963V55.16H199.203V59.24C199.491 58.856 199.875 58.5573 200.355 58.344C200.835 58.12 201.369 58.008 201.955 58.008ZM216.022 58.136L210.534 71.192H208.15L210.07 66.776L206.518 58.136H209.03L211.318 64.328L213.638 58.136H216.022ZM224.946 55.832C226.119 55.832 227.148 56.0613 228.034 56.52C228.93 56.9787 229.618 57.6347 230.098 58.488C230.588 59.3307 230.834 60.312 230.834 61.432C230.834 62.552 230.588 63.5333 230.098 64.376C229.618 65.208 228.93 65.8533 228.034 66.312C227.148 66.7707 226.119 67 224.946 67H221.042V55.832H224.946ZM224.866 65.096C226.039 65.096 226.946 64.776 227.586 64.136C228.226 63.496 228.546 62.5947 228.546 61.432C228.546 60.2693 228.226 59.3627 227.586 58.712C226.946 58.0507 226.039 57.72 224.866 57.72H223.282V65.096H224.866ZM236.446 67.144C235.593 67.144 234.825 66.9573 234.142 66.584C233.46 66.2 232.921 65.6613 232.526 64.968C232.142 64.2747 231.95 63.4747 231.95 62.568C231.95 61.6613 232.148 60.8613 232.542 60.168C232.948 59.4747 233.497 58.9413 234.19 58.568C234.884 58.184 235.657 57.992 236.51 57.992C237.364 57.992 238.137 58.184 238.83 58.568C239.524 58.9413 240.068 59.4747 240.462 60.168C240.868 60.8613 241.07 61.6613 241.07 62.568C241.07 63.4747 240.862 64.2747 240.446 64.968C240.041 65.6613 239.486 66.2 238.782 66.584C238.089 66.9573 237.31 67.144 236.446 67.144ZM236.446 65.192C236.852 65.192 237.23 65.096 237.582 64.904C237.945 64.7013 238.233 64.4027 238.446 64.008C238.66 63.6133 238.766 63.1333 238.766 62.568C238.766 61.7253 238.542 61.08 238.094 60.632C237.657 60.1733 237.118 59.944 236.478 59.944C235.838 59.944 235.3 60.1733 234.862 60.632C234.436 61.08 234.222 61.7253 234.222 62.568C234.222 63.4107 234.43 64.0613 234.846 64.52C235.273 64.968 235.806 65.192 236.446 65.192ZM247.625 58.008C248.681 58.008 249.535 58.344 250.185 59.016C250.836 59.6773 251.161 60.6053 251.161 61.8V67H248.921V62.104C248.921 61.4 248.745 60.8613 248.393 60.488C248.041 60.104 247.561 59.912 246.953 59.912C246.335 59.912 245.844 60.104 245.481 60.488C245.129 60.8613 244.953 61.4 244.953 62.104V67H242.713V58.136H244.953V59.24C245.252 58.856 245.631 58.5573 246.089 58.344C246.559 58.12 247.071 58.008 247.625 58.008ZM257.228 67.144C256.374 67.144 255.606 66.9573 254.924 66.584C254.241 66.2 253.702 65.6613 253.308 64.968C252.924 64.2747 252.732 63.4747 252.732 62.568C252.732 61.6613 252.929 60.8613 253.324 60.168C253.729 59.4747 254.278 58.9413 254.972 58.568C255.665 58.184 256.438 57.992 257.292 57.992C258.145 57.992 258.918 58.184 259.612 58.568C260.305 58.9413 260.849 59.4747 261.244 60.168C261.649 60.8613 261.852 61.6613 261.852 62.568C261.852 63.4747 261.644 64.2747 261.227 64.968C260.822 65.6613 260.268 66.2 259.564 66.584C258.87 66.9573 258.092 67.144 257.228 67.144ZM257.228 65.192C257.633 65.192 258.012 65.096 258.364 64.904C258.726 64.7013 259.014 64.4027 259.228 64.008C259.441 63.6133 259.548 63.1333 259.548 62.568C259.548 61.7253 259.324 61.08 258.876 60.632C258.438 60.1733 257.9 59.944 257.26 59.944C256.62 59.944 256.081 60.1733 255.644 60.632C255.217 61.08 255.004 61.7253 255.004 62.568C255.004 63.4107 255.212 64.0613 255.628 64.52C256.054 64.968 256.588 65.192 257.228 65.192ZM267.191 64.936L269.431 58.136H271.815L268.535 67H265.815L262.551 58.136H264.951L267.191 64.936ZM272.497 62.536C272.497 61.64 272.673 60.8453 273.025 60.152C273.387 59.4587 273.873 58.9253 274.481 58.552C275.099 58.1787 275.787 57.992 276.545 57.992C277.206 57.992 277.782 58.1253 278.273 58.392C278.774 58.6587 279.174 58.9947 279.473 59.4V58.136H281.729V67H279.473V65.704C279.185 66.12 278.785 66.4667 278.273 66.744C277.771 67.0107 277.19 67.144 276.529 67.144C275.782 67.144 275.099 66.952 274.481 66.568C273.873 66.184 273.387 65.6453 273.025 64.952C272.673 64.248 272.497 63.4427 272.497 62.536ZM279.473 62.568C279.473 62.024 279.366 61.56 279.153 61.176C278.939 60.7813 278.651 60.4827 278.289 60.28C277.926 60.0667 277.537 59.96 277.121 59.96C276.705 59.96 276.321 60.0613 275.969 60.264C275.617 60.4667 275.329 60.7653 275.105 61.16C274.891 61.544 274.785 62.0027 274.785 62.536C274.785 63.0693 274.891 63.5387 275.105 63.944C275.329 64.3387 275.617 64.6427 275.969 64.856C276.331 65.0693 276.715 65.176 277.121 65.176C277.537 65.176 277.926 65.0747 278.289 64.872C278.651 64.6587 278.939 64.36 279.153 63.976C279.366 63.5813 279.473 63.112 279.473 62.568ZM288.829 58.008C289.885 58.008 290.738 58.344 291.389 59.016C292.039 59.6773 292.365 60.6053 292.365 61.8V67H290.125V62.104C290.125 61.4 289.949 60.8613 289.597 60.488C289.245 60.104 288.765 59.912 288.157 59.912C287.538 59.912 287.047 60.104 286.685 60.488C286.333 60.8613 286.157 61.4 286.157 62.104V67H283.917V58.136H286.157V59.24C286.455 58.856 286.834 58.5573 287.293 58.344C287.762 58.12 288.274 58.008 288.829 58.008Z" fill="#292E33"/>
<path d="M149.555 81.765C149.555 80.745 149.79 79.83 150.26 79.02C150.74 78.21 151.385 77.58 152.195 77.13C153.015 76.67 153.91 76.44 154.88 76.44C155.99 76.44 156.975 76.715 157.835 77.265C158.705 77.805 159.335 78.575 159.725 79.575H157.67C157.4 79.025 157.025 78.615 156.545 78.345C156.065 78.075 155.51 77.94 154.88 77.94C154.19 77.94 153.575 78.095 153.035 78.405C152.495 78.715 152.07 79.16 151.76 79.74C151.46 80.32 151.31 80.995 151.31 81.765C151.31 82.535 151.46 83.21 151.76 83.79C152.07 84.37 152.495 84.82 153.035 85.14C153.575 85.45 154.19 85.605 154.88 85.605C155.51 85.605 156.065 85.47 156.545 85.2C157.025 84.93 157.4 84.52 157.67 83.97H159.725C159.335 84.97 158.705 85.74 157.835 86.28C156.975 86.82 155.99 87.09 154.88 87.09C153.9 87.09 153.005 86.865 152.195 86.415C151.385 85.955 150.74 85.32 150.26 84.51C149.79 83.7 149.555 82.785 149.555 81.765ZM165.312 87.135C164.532 87.135 163.827 86.96 163.197 86.61C162.567 86.25 162.072 85.75 161.712 85.11C161.352 84.46 161.172 83.71 161.172 82.86C161.172 82.02 161.357 81.275 161.727 80.625C162.097 79.975 162.602 79.475 163.242 79.125C163.882 78.775 164.597 78.6 165.387 78.6C166.177 78.6 166.892 78.775 167.532 79.125C168.172 79.475 168.677 79.975 169.047 80.625C169.417 81.275 169.602 82.02 169.602 82.86C169.602 83.7 169.412 84.445 169.032 85.095C168.652 85.745 168.132 86.25 167.472 86.61C166.822 86.96 166.102 87.135 165.312 87.135ZM165.312 85.65C165.752 85.65 166.162 85.545 166.542 85.335C166.932 85.125 167.247 84.81 167.487 84.39C167.727 83.97 167.847 83.46 167.847 82.86C167.847 82.26 167.732 81.755 167.502 81.345C167.272 80.925 166.967 80.61 166.587 80.4C166.207 80.19 165.797 80.085 165.357 80.085C164.917 80.085 164.507 80.19 164.127 80.4C163.757 80.61 163.462 80.925 163.242 81.345C163.022 81.755 162.912 82.26 162.912 82.86C162.912 83.75 163.137 84.44 163.587 84.93C164.047 85.41 164.622 85.65 165.312 85.65ZM175.462 78.6C176.112 78.6 176.692 78.735 177.202 79.005C177.722 79.275 178.127 79.675 178.417 80.205C178.707 80.735 178.852 81.375 178.852 82.125V87H177.157V82.38C177.157 81.64 176.972 81.075 176.602 80.685C176.232 80.285 175.727 80.085 175.087 80.085C174.447 80.085 173.937 80.285 173.557 80.685C173.187 81.075 173.002 81.64 173.002 82.38V87H171.292V78.735H173.002V79.68C173.282 79.34 173.637 79.075 174.067 78.885C174.507 78.695 174.972 78.6 175.462 78.6ZM184.033 87.135C183.383 87.135 182.798 87.02 182.278 86.79C181.768 86.55 181.363 86.23 181.063 85.83C180.763 85.42 180.603 84.965 180.583 84.465H182.353C182.383 84.815 182.548 85.11 182.848 85.35C183.158 85.58 183.543 85.695 184.003 85.695C184.483 85.695 184.853 85.605 185.113 85.425C185.383 85.235 185.518 84.995 185.518 84.705C185.518 84.395 185.368 84.165 185.068 84.015C184.778 83.865 184.313 83.7 183.673 83.52C183.053 83.35 182.548 83.185 182.158 83.025C181.768 82.865 181.428 82.62 181.138 82.29C180.858 81.96 180.718 81.525 180.718 80.985C180.718 80.545 180.848 80.145 181.108 79.785C181.368 79.415 181.738 79.125 182.218 78.915C182.708 78.705 183.268 78.6 183.898 78.6C184.838 78.6 185.593 78.84 186.163 79.32C186.743 79.79 187.053 80.435 187.093 81.255H185.383C185.353 80.885 185.203 80.59 184.933 80.37C184.663 80.15 184.298 80.04 183.838 80.04C183.388 80.04 183.043 80.125 182.803 80.295C182.563 80.465 182.443 80.69 182.443 80.97C182.443 81.19 182.523 81.375 182.683 81.525C182.843 81.675 183.038 81.795 183.268 81.885C183.498 81.965 183.838 82.07 184.288 82.2C184.888 82.36 185.378 82.525 185.758 82.695C186.148 82.855 186.483 83.095 186.763 83.415C187.043 83.735 187.188 84.16 187.198 84.69C187.198 85.16 187.068 85.58 186.808 85.95C186.548 86.32 186.178 86.61 185.698 86.82C185.228 87.03 184.673 87.135 184.033 87.135ZM196.531 78.735V87H194.821V86.025C194.551 86.365 194.196 86.635 193.756 86.835C193.326 87.025 192.866 87.12 192.376 87.12C191.726 87.12 191.141 86.985 190.621 86.715C190.111 86.445 189.706 86.045 189.406 85.515C189.116 84.985 188.971 84.345 188.971 83.595V78.735H190.666V83.34C190.666 84.08 190.851 84.65 191.221 85.05C191.591 85.44 192.096 85.635 192.736 85.635C193.376 85.635 193.881 85.44 194.251 85.05C194.631 84.65 194.821 84.08 194.821 83.34V78.735H196.531ZM200.497 75.9V87H198.787V75.9H200.497ZM204.737 80.13V84.705C204.737 85.015 204.807 85.24 204.947 85.38C205.097 85.51 205.347 85.575 205.697 85.575H206.747V87H205.397C204.627 87 204.037 86.82 203.627 86.46C203.217 86.1 203.012 85.515 203.012 84.705V80.13H202.037V78.735H203.012V76.68H204.737V78.735H206.747V80.13H204.737ZM209.193 77.64C208.883 77.64 208.623 77.535 208.413 77.325C208.203 77.115 208.098 76.855 208.098 76.545C208.098 76.235 208.203 75.975 208.413 75.765C208.623 75.555 208.883 75.45 209.193 75.45C209.493 75.45 209.748 75.555 209.958 75.765C210.168 75.975 210.273 76.235 210.273 76.545C210.273 76.855 210.168 77.115 209.958 77.325C209.748 77.535 209.493 77.64 209.193 77.64ZM210.033 78.735V87H208.323V78.735H210.033ZM216.448 78.6C217.098 78.6 217.678 78.735 218.188 79.005C218.708 79.275 219.113 79.675 219.403 80.205C219.693 80.735 219.838 81.375 219.838 82.125V87H218.143V82.38C218.143 81.64 217.958 81.075 217.588 80.685C217.218 80.285 216.713 80.085 216.073 80.085C215.433 80.085 214.923 80.285 214.543 80.685C214.173 81.075 213.988 81.64 213.988 82.38V87H212.278V78.735H213.988V79.68C214.268 79.34 214.623 79.075 215.053 78.885C215.493 78.695 215.958 78.6 216.448 78.6ZM225.35 78.6C225.99 78.6 226.555 78.73 227.045 78.99C227.545 79.24 227.935 79.555 228.215 79.935V78.735H229.94V87.135C229.94 87.895 229.78 88.57 229.46 89.16C229.14 89.76 228.675 90.23 228.065 90.57C227.465 90.91 226.745 91.08 225.905 91.08C224.785 91.08 223.855 90.815 223.115 90.285C222.375 89.765 221.955 89.055 221.855 88.155H223.55C223.68 88.585 223.955 88.93 224.375 89.19C224.805 89.46 225.315 89.595 225.905 89.595C226.595 89.595 227.15 89.385 227.57 88.965C228 88.545 228.215 87.935 228.215 87.135V85.755C227.925 86.145 227.53 86.475 227.03 86.745C226.54 87.005 225.98 87.135 225.35 87.135C224.63 87.135 223.97 86.955 223.37 86.595C222.78 86.225 222.31 85.715 221.96 85.065C221.62 84.405 221.45 83.66 221.45 82.83C221.45 82 221.62 81.265 221.96 80.625C222.31 79.985 222.78 79.49 223.37 79.14C223.97 78.78 224.63 78.6 225.35 78.6ZM228.215 82.86C228.215 82.29 228.095 81.795 227.855 81.375C227.625 80.955 227.32 80.635 226.94 80.415C226.56 80.195 226.15 80.085 225.71 80.085C225.27 80.085 224.86 80.195 224.48 80.415C224.1 80.625 223.79 80.94 223.55 81.36C223.32 81.77 223.205 82.26 223.205 82.83C223.205 83.4 223.32 83.9 223.55 84.33C223.79 84.76 224.1 85.09 224.48 85.32C224.87 85.54 225.28 85.65 225.71 85.65C226.15 85.65 226.56 85.54 226.94 85.32C227.32 85.1 227.625 84.78 227.855 84.36C228.095 83.93 228.215 83.43 228.215 82.86ZM242.817 76.575V77.97H240.042V87H238.332V77.97H235.542V76.575H242.817ZM252.124 82.665C252.124 82.975 252.104 83.255 252.064 83.505H245.749C245.799 84.165 246.044 84.695 246.484 85.095C246.924 85.495 247.464 85.695 248.104 85.695C249.024 85.695 249.674 85.31 250.054 84.54H251.899C251.649 85.3 251.194 85.925 250.534 86.415C249.884 86.895 249.074 87.135 248.104 87.135C247.314 87.135 246.604 86.96 245.974 86.61C245.354 86.25 244.864 85.75 244.504 85.11C244.154 84.46 243.979 83.71 243.979 82.86C243.979 82.01 244.149 81.265 244.489 80.625C244.839 79.975 245.324 79.475 245.944 79.125C246.574 78.775 247.294 78.6 248.104 78.6C248.884 78.6 249.579 78.77 250.189 79.11C250.799 79.45 251.274 79.93 251.614 80.55C251.954 81.16 252.124 81.865 252.124 82.665ZM250.339 82.125C250.329 81.495 250.104 80.99 249.664 80.61C249.224 80.23 248.679 80.04 248.029 80.04C247.439 80.04 246.934 80.23 246.514 80.61C246.094 80.98 245.844 81.485 245.764 82.125H250.339ZM253.237 82.86C253.237 82.01 253.407 81.265 253.747 80.625C254.097 79.975 254.577 79.475 255.187 79.125C255.797 78.775 256.497 78.6 257.287 78.6C258.287 78.6 259.112 78.84 259.762 79.32C260.422 79.79 260.867 80.465 261.097 81.345H259.252C259.102 80.935 258.862 80.615 258.532 80.385C258.202 80.155 257.787 80.04 257.287 80.04C256.587 80.04 256.027 80.29 255.607 80.79C255.197 81.28 254.992 81.97 254.992 82.86C254.992 83.75 255.197 84.445 255.607 84.945C256.027 85.445 256.587 85.695 257.287 85.695C258.277 85.695 258.932 85.26 259.252 84.39H261.097C260.857 85.23 260.407 85.9 259.747 86.4C259.087 86.89 258.267 87.135 257.287 87.135C256.497 87.135 255.797 86.96 255.187 86.61C254.577 86.25 254.097 85.75 253.747 85.11C253.407 84.46 253.237 83.71 253.237 82.86ZM267.076 78.6C267.706 78.6 268.266 78.735 268.756 79.005C269.256 79.275 269.646 79.675 269.926 80.205C270.216 80.735 270.361 81.375 270.361 82.125V87H268.666V82.38C268.666 81.64 268.481 81.075 268.111 80.685C267.741 80.285 267.236 80.085 266.596 80.085C265.956 80.085 265.446 80.285 265.066 80.685C264.696 81.075 264.511 81.64 264.511 82.38V87H262.801V75.9H264.511V79.695C264.801 79.345 265.166 79.075 265.606 78.885C266.056 78.695 266.546 78.6 267.076 78.6ZM276.712 78.6C277.362 78.6 277.942 78.735 278.452 79.005C278.972 79.275 279.377 79.675 279.667 80.205C279.957 80.735 280.102 81.375 280.102 82.125V87H278.407V82.38C278.407 81.64 278.222 81.075 277.852 80.685C277.482 80.285 276.977 80.085 276.337 80.085C275.697 80.085 275.187 80.285 274.807 80.685C274.437 81.075 274.252 81.64 274.252 82.38V87H272.542V78.735H274.252V79.68C274.532 79.34 274.887 79.075 275.317 78.885C275.757 78.695 276.222 78.6 276.712 78.6ZM283.153 77.64C282.843 77.64 282.583 77.535 282.373 77.325C282.163 77.115 282.058 76.855 282.058 76.545C282.058 76.235 282.163 75.975 282.373 75.765C282.583 75.555 282.843 75.45 283.153 75.45C283.453 75.45 283.708 75.555 283.918 75.765C284.128 75.975 284.233 76.235 284.233 76.545C284.233 76.855 284.128 77.115 283.918 77.325C283.708 77.535 283.453 77.64 283.153 77.64ZM283.993 78.735V87H282.283V78.735H283.993ZM285.668 82.86C285.668 82.01 285.838 81.265 286.178 80.625C286.528 79.975 287.008 79.475 287.618 79.125C288.228 78.775 288.928 78.6 289.718 78.6C290.718 78.6 291.543 78.84 292.193 79.32C292.853 79.79 293.298 80.465 293.528 81.345H291.683C291.533 80.935 291.293 80.615 290.963 80.385C290.633 80.155 290.218 80.04 289.718 80.04C289.018 80.04 288.458 80.29 288.038 80.79C287.628 81.28 287.423 81.97 287.423 82.86C287.423 83.75 287.628 84.445 288.038 84.945C288.458 85.445 289.018 85.695 289.718 85.695C290.708 85.695 291.363 85.26 291.683 84.39H293.528C293.288 85.23 292.838 85.9 292.178 86.4C291.518 86.89 290.698 87.135 289.718 87.135C288.928 87.135 288.228 86.96 287.618 86.61C287.008 86.25 286.528 85.75 286.178 85.11C285.838 84.46 285.668 83.71 285.668 82.86ZM294.662 82.83C294.662 82 294.832 81.265 295.172 80.625C295.522 79.985 295.992 79.49 296.582 79.14C297.182 78.78 297.842 78.6 298.562 78.6C299.212 78.6 299.777 78.73 300.257 78.99C300.747 79.24 301.137 79.555 301.427 79.935V78.735H303.152V87H301.427V85.77C301.137 86.16 300.742 86.485 300.242 86.745C299.742 87.005 299.172 87.135 298.532 87.135C297.822 87.135 297.172 86.955 296.582 86.595C295.992 86.225 295.522 85.715 295.172 85.065C294.832 84.405 294.662 83.66 294.662 82.83ZM301.427 82.86C301.427 82.29 301.307 81.795 301.067 81.375C300.837 80.955 300.532 80.635 300.152 80.415C299.772 80.195 299.362 80.085 298.922 80.085C298.482 80.085 298.072 80.195 297.692 80.415C297.312 80.625 297.002 80.94 296.762 81.36C296.532 81.77 296.417 82.26 296.417 82.83C296.417 83.4 296.532 83.9 296.762 84.33C297.002 84.76 297.312 85.09 297.692 85.32C298.082 85.54 298.492 85.65 298.922 85.65C299.362 85.65 299.772 85.54 300.152 85.32C300.532 85.1 300.837 84.78 301.067 84.36C301.307 83.93 301.427 83.43 301.427 82.86ZM307.108 75.9V87H305.398V75.9H307.108ZM324.23 76.575V87H322.52V79.86L319.34 87H318.155L314.96 79.86V87H313.25V76.575H315.095L318.755 84.75L322.4 76.575H324.23ZM325.908 82.83C325.908 82 326.078 81.265 326.418 80.625C326.768 79.985 327.238 79.49 327.828 79.14C328.428 78.78 329.088 78.6 329.808 78.6C330.458 78.6 331.023 78.73 331.503 78.99C331.993 79.24 332.383 79.555 332.673 79.935V78.735H334.398V87H332.673V85.77C332.383 86.16 331.988 86.485 331.488 86.745C330.988 87.005 330.418 87.135 329.778 87.135C329.068 87.135 328.418 86.955 327.828 86.595C327.238 86.225 326.768 85.715 326.418 85.065C326.078 84.405 325.908 83.66 325.908 82.83ZM332.673 82.86C332.673 82.29 332.553 81.795 332.313 81.375C332.083 80.955 331.778 80.635 331.398 80.415C331.018 80.195 330.608 80.085 330.168 80.085C329.728 80.085 329.318 80.195 328.938 80.415C328.558 80.625 328.248 80.94 328.008 81.36C327.778 81.77 327.663 82.26 327.663 82.83C327.663 83.4 327.778 83.9 328.008 84.33C328.248 84.76 328.558 85.09 328.938 85.32C329.328 85.54 329.738 85.65 330.168 85.65C330.608 85.65 331.018 85.54 331.398 85.32C331.778 85.1 332.083 84.78 332.313 84.36C332.553 83.93 332.673 83.43 332.673 82.86ZM340.814 78.6C341.464 78.6 342.044 78.735 342.554 79.005C343.074 79.275 343.479 79.675 343.769 80.205C344.059 80.735 344.204 81.375 344.204 82.125V87H342.509V82.38C342.509 81.64 342.324 81.075 341.954 80.685C341.584 80.285 341.079 80.085 340.439 80.085C339.799 80.085 339.289 80.285 338.909 80.685C338.539 81.075 338.354 81.64 338.354 82.38V87H336.644V78.735H338.354V79.68C338.634 79.34 338.989 79.075 339.419 78.885C339.859 78.695 340.324 78.6 340.814 78.6ZM345.815 82.83C345.815 82 345.985 81.265 346.325 80.625C346.675 79.985 347.145 79.49 347.735 79.14C348.335 78.78 348.995 78.6 349.715 78.6C350.365 78.6 350.93 78.73 351.41 78.99C351.9 79.24 352.29 79.555 352.58 79.935V78.735H354.305V87H352.58V85.77C352.29 86.16 351.895 86.485 351.395 86.745C350.895 87.005 350.325 87.135 349.685 87.135C348.975 87.135 348.325 86.955 347.735 86.595C347.145 86.225 346.675 85.715 346.325 85.065C345.985 84.405 345.815 83.66 345.815 82.83ZM352.58 82.86C352.58 82.29 352.46 81.795 352.22 81.375C351.99 80.955 351.685 80.635 351.305 80.415C350.925 80.195 350.515 80.085 350.075 80.085C349.635 80.085 349.225 80.195 348.845 80.415C348.465 80.625 348.155 80.94 347.915 81.36C347.685 81.77 347.57 82.26 347.57 82.83C347.57 83.4 347.685 83.9 347.915 84.33C348.155 84.76 348.465 85.09 348.845 85.32C349.235 85.54 349.645 85.65 350.075 85.65C350.515 85.65 350.925 85.54 351.305 85.32C351.685 85.1 351.99 84.78 352.22 84.36C352.46 83.93 352.58 83.43 352.58 82.86ZM359.881 78.6C360.521 78.6 361.086 78.73 361.576 78.99C362.076 79.24 362.466 79.555 362.746 79.935V78.735H364.471V87.135C364.471 87.895 364.311 88.57 363.991 89.16C363.671 89.76 363.206 90.23 362.596 90.57C361.996 90.91 361.276 91.08 360.436 91.08C359.316 91.08 358.386 90.815 357.646 90.285C356.906 89.765 356.486 89.055 356.386 88.155H358.081C358.211 88.585 358.486 88.93 358.906 89.19C359.336 89.46 359.846 89.595 360.436 89.595C361.126 89.595 361.681 89.385 362.101 88.965C362.531 88.545 362.746 87.935 362.746 87.135V85.755C362.456 86.145 362.061 86.475 361.561 86.745C361.071 87.005 360.511 87.135 359.881 87.135C359.161 87.135 358.501 86.955 357.901 86.595C357.311 86.225 356.841 85.715 356.491 85.065C356.151 84.405 355.981 83.66 355.981 82.83C355.981 82 356.151 81.265 356.491 80.625C356.841 79.985 357.311 79.49 357.901 79.14C358.501 78.78 359.161 78.6 359.881 78.6ZM362.746 82.86C362.746 82.29 362.626 81.795 362.386 81.375C362.156 80.955 361.851 80.635 361.471 80.415C361.091 80.195 360.681 80.085 360.241 80.085C359.801 80.085 359.391 80.195 359.011 80.415C358.631 80.625 358.321 80.94 358.081 81.36C357.851 81.77 357.736 82.26 357.736 82.83C357.736 83.4 357.851 83.9 358.081 84.33C358.321 84.76 358.631 85.09 359.011 85.32C359.401 85.54 359.811 85.65 360.241 85.65C360.681 85.65 361.091 85.54 361.471 85.32C361.851 85.1 362.156 84.78 362.386 84.36C362.626 83.93 362.746 83.43 362.746 82.86ZM374.292 82.665C374.292 82.975 374.272 83.255 374.232 83.505H367.917C367.967 84.165 368.212 84.695 368.652 85.095C369.092 85.495 369.632 85.695 370.272 85.695C371.192 85.695 371.842 85.31 372.222 84.54H374.067C373.817 85.3 373.362 85.925 372.702 86.415C372.052 86.895 371.242 87.135 370.272 87.135C369.482 87.135 368.772 86.96 368.142 86.61C367.522 86.25 367.032 85.75 366.672 85.11C366.322 84.46 366.147 83.71 366.147 82.86C366.147 82.01 366.317 81.265 366.657 80.625C367.007 79.975 367.492 79.475 368.112 79.125C368.742 78.775 369.462 78.6 370.272 78.6C371.052 78.6 371.747 78.77 372.357 79.11C372.967 79.45 373.442 79.93 373.782 80.55C374.122 81.16 374.292 81.865 374.292 82.665ZM372.507 82.125C372.497 81.495 372.272 80.99 371.832 80.61C371.392 80.23 370.847 80.04 370.197 80.04C369.607 80.04 369.102 80.23 368.682 80.61C368.262 80.98 368.012 81.485 367.932 82.125H372.507ZM377.685 79.935C377.935 79.515 378.265 79.19 378.675 78.96C379.095 78.72 379.59 78.6 380.16 78.6V80.37H379.725C379.055 80.37 378.545 80.54 378.195 80.88C377.855 81.22 377.685 81.81 377.685 82.65V87H375.975V78.735H377.685V79.935Z" fill="#478ACC"/>
<path d="M150 108.912C150 106.199 152.199 104 154.912 104H232.621C235.334 104 237.533 106.199 237.533 108.912V108.912C237.533 111.625 235.334 113.825 232.621 113.825H154.912C152.199 113.825 150 111.625 150 108.912V108.912Z" fill="#1AB393"/>
<rect x="150" y="122.421" width="247" height="7.36842" rx="3.68421" fill="#BFC0C2"/>
<rect x="150" y="137.158" width="211.073" height="7.36842" rx="3.68421" fill="#BFC0C2"/>
<path d="M72 200.912C72 198.199 74.1993 196 76.9123 196H198.919C201.632 196 203.832 198.199 203.832 200.912V200.912C203.832 203.625 201.632 205.825 198.919 205.825H76.9123C74.1993 205.825 72 203.625 72 200.912V200.912Z" fill="#478ACC"/>
<rect x="72" y="214.421" width="372" height="7.36842" rx="3.68421" fill="#BFC0C2"/>
<rect x="72" y="229.158" width="317.891" height="7.36842" rx="3.68421" fill="#BFC0C2"/>
<g clip-path="url(#clip0_835_11807)">
<rect x="72" y="48" width="63" height="63" fill="#BFC0C2"/>
<ellipse cx="103.499" cy="135.15" rx="42.175" ry="42.175" fill="#EAEAEB"/>
<circle cx="103.499" cy="74.425" r="15.05" fill="#EAEAEB"/>
</g>
<defs>
<filter id="filter0_d_835_11807" x="0" y="0" width="525" height="341" filterUnits="userSpaceOnUse" color-interpolation-filters="sRGB">
<feFlood flood-opacity="0" result="BackgroundImageFix"/>
<feColorMatrix in="SourceAlpha" type="matrix" values="0 0 0 0 0 0 0 0 0 0 0 0 0 0 0 0 0 0 127 0" result="hardAlpha"/>
<feOffset dy="24"/>
<feGaussianBlur stdDeviation="28"/>
<feComposite in2="hardAlpha" operator="out"/>
<feColorMatrix type="matrix" values="0 0 0 0 0.141176 0 0 0 0 0.196078 0 0 0 0 0.227451 0 0 0 0.25 0"/>
<feBlend mode="normal" in2="BackgroundImageFix" result="effect1_dropShadow_835_11807"/>
<feBlend mode="normal" in="SourceGraphic" in2="effect1_dropShadow_835_11807" result="shape"/>
</filter>
<clipPath id="clip0_835_11807">
<rect x="72" y="48" width="63" height="63" rx="16" fill="white"/>
</clipPath>
</defs>
</svg>
