<svg width="114" height="114" viewBox="0 0 114 114" fill="none" xmlns="http://www.w3.org/2000/svg">
<g clip-path="url(#clip0_1685_12521)">
<path d="M32.1899 59.6855C32.1899 61.6695 31.3714 63.5724 29.9089 64.922C29.8149 65.0165 29.6673 65.0165 29.5734 64.922C29.0367 64.4092 28.406 64.0043 27.7217 63.7209C27.3058 63.5589 26.6349 63.4645 26.6349 62.8706C26.6349 62.7492 26.6751 62.6277 26.7288 62.5197C26.7422 62.5062 26.7422 62.4927 26.7556 62.4792C27.3058 61.656 27.668 60.7247 27.8156 59.7395V59.726C27.8559 59.4696 27.8827 59.2132 27.8827 58.9433V58.9568C27.8291 57.4857 26.5946 56.3385 25.132 56.3925C23.75 56.4465 22.6363 57.5666 22.5826 58.9568C22.596 59.2132 22.6094 59.4696 22.6497 59.7395V59.753C22.7973 60.7382 23.1596 61.6695 23.7097 62.4927C23.7231 62.5062 23.7231 62.5197 23.7365 62.5332C23.8036 62.6412 23.8305 62.7492 23.8305 62.8841C23.8305 63.451 23.2132 63.5319 22.8107 63.6939C22.6899 63.7479 22.6229 63.8963 22.6765 64.0178C22.6899 64.0448 22.7034 64.0718 22.7168 64.0853C22.8778 64.2742 23.0388 64.4767 23.1998 64.6791C23.656 65.2864 24.0586 65.9478 24.3806 66.6496L24.394 66.663C24.4075 66.6765 24.4075 66.69 24.4075 66.7035L24.4209 66.7305C24.4209 66.744 24.4209 66.7575 24.4209 66.7845C24.4209 66.906 24.3404 67.0005 24.233 67.0274C24.2196 67.0274 24.2062 67.0274 24.1793 67.0274C24.1123 67.0274 24.0586 67.0005 24.0183 66.96C22.596 65.4349 21.0127 64.2202 19 63.6264C18.9597 63.6129 18.906 63.5859 18.8658 63.5589C18.839 63.5454 18.8121 63.5319 18.7853 63.5049C18.3156 63.181 18.2351 62.5872 18.4901 62.1014C18.8524 61.3996 19.2952 60.7652 19.5904 60.0229C20.3552 58.12 20.8248 55.7717 19.5501 53.9767C18.1949 52.0467 15.5515 51.5879 13.6327 52.951C13.6059 52.9645 13.5925 52.978 13.5656 53.005C13.2034 53.2749 12.8813 53.6123 12.613 53.9767C11.3382 55.7717 11.8079 58.12 12.5727 60.0229C12.8679 60.7652 13.3107 61.3996 13.673 62.1014C13.9279 62.5872 13.8474 63.181 13.3778 63.5049L13.2973 63.5589C13.257 63.5859 13.2034 63.5994 13.1631 63.6264C11.1504 64.2202 9.56706 65.4349 8.14474 66.96C8.10449 67.0005 8.0374 67.0274 7.97031 67.0274C7.95689 67.0274 7.94347 67.0274 7.91664 67.0274C7.80929 67.0005 7.72878 66.906 7.72878 66.7845C7.72878 66.771 7.72878 66.7575 7.72878 66.7305C7.72878 66.717 7.72878 66.717 7.7422 66.7035C7.7422 66.69 7.75562 66.6765 7.75562 66.663L7.76904 66.6496C8.09107 65.9478 8.48019 65.2864 8.94983 64.6791C9.09743 64.4767 9.25844 64.2742 9.43288 64.0853C9.5268 63.9908 9.51339 63.8289 9.41946 63.7479C9.39262 63.7344 9.3792 63.7074 9.35237 63.7074C8.94983 63.5454 8.33259 63.4645 8.33259 62.8976C8.33259 62.7762 8.37285 62.6547 8.42652 62.5467C8.43994 62.5332 8.43994 62.5197 8.45336 62.5062C9.0035 61.683 9.36579 60.7517 9.51339 59.7665V59.753C9.55364 59.4966 9.58048 59.2402 9.58048 58.9702V58.9568C9.5268 57.4857 8.30576 56.3385 6.84319 56.3925C5.46113 56.4465 4.34743 57.5666 4.29375 58.9568C4.30717 59.2132 4.32059 59.4696 4.36084 59.7395V59.753C4.50844 60.7382 4.87073 61.6695 5.42087 62.4927C5.43429 62.5062 5.43429 62.5197 5.44771 62.5332C5.5148 62.6412 5.54163 62.7492 5.54163 62.8841C5.54163 63.478 4.85731 63.5724 4.45477 63.7344C3.77045 64.0178 3.1398 64.4227 2.60308 64.9355C2.50915 65.03 2.36155 65.03 2.26762 64.9355C-0.57701 62.2903 -0.778281 57.8366 1.79799 54.9349C2.93853 53.6528 4.50844 52.843 6.21254 52.6541C6.30647 52.6406 6.37356 52.5866 6.41381 52.5056C8.72172 47.0532 14.9209 44.5429 20.2613 46.8912C22.7302 47.9844 24.7027 49.9953 25.7493 52.5056C25.7895 52.5866 25.8566 52.6406 25.9505 52.6541C29.5063 53.0184 32.1899 56.0551 32.1899 59.6855Z" fill="#1999E3"/>
<path d="M45.7282 53.8016C45.7417 54.3954 45.6343 54.9758 45.4062 55.5156C45.0305 55.4616 44.6414 55.4346 44.2657 55.4346C43.7826 55.4346 43.313 55.5156 42.8702 55.6911C42.4274 55.907 42.1322 56.2984 42.1322 57.1352V63.1409C41.582 63.4109 40.9514 63.5188 40.2402 63.5188V56.2849C40.2402 55.1377 40.683 54.5304 41.676 54.1255C42.4945 53.8016 43.3667 53.6396 44.2388 53.6396C44.7487 53.6396 45.2452 53.6936 45.7282 53.8016Z" fill="#131C24"/>
<path d="M51.4055 63.5323C48.2388 63.5323 46.3066 61.5214 46.3066 58.5927C46.3066 55.6641 48.212 53.6396 51.1237 53.6396C53.6061 53.6396 55.3773 55.0972 55.3773 57.4726C55.3773 58.8762 54.76 59.2945 53.2975 59.2945H48.2254C48.4938 60.8871 49.7014 61.7778 51.4726 61.7778C52.3045 61.7643 53.123 61.6159 53.9013 61.3459C54.1294 61.8723 54.2367 62.4526 54.2233 63.033C53.3243 63.3569 52.3716 63.5188 51.4055 63.5323ZM52.7473 57.756C53.3645 57.756 53.539 57.486 53.539 57.0677C53.539 55.988 52.3984 55.3132 51.1237 55.3132C49.6746 55.3132 48.534 56.1904 48.2523 57.756H52.7473Z" fill="#131C24"/>
<path d="M56.6113 58.5791C56.6113 55.6639 58.5569 53.626 61.6968 53.626C62.636 53.6395 63.5753 53.8014 64.4609 54.1118C64.4743 54.6787 64.367 55.259 64.1523 55.7854C63.4009 55.5289 62.6226 55.394 61.831 55.3805C59.7914 55.3805 58.5167 56.6491 58.5167 58.5791C58.5167 60.509 59.7914 61.7372 61.7907 61.7372C62.6092 61.7102 63.4277 61.5617 64.206 61.2918C64.4341 61.8316 64.5414 62.4255 64.528 63.0193C63.629 63.3432 62.6763 63.5186 61.7102 63.5321C58.5569 63.5321 56.6113 61.4942 56.6113 58.5791Z" fill="#131C24"/>
<path d="M71.9079 53.8016C71.9213 54.3954 71.814 54.9758 71.5859 55.5156C71.2102 55.4616 70.821 55.4346 70.4453 55.4346C69.9623 55.4346 69.4926 55.5156 69.0499 55.6911C68.6071 55.907 68.3119 56.2984 68.3119 57.1352V63.1409C67.7751 63.4109 67.1311 63.5188 66.4199 63.5188V56.2849C66.4199 55.1377 66.8627 54.5304 67.8557 54.1255C68.6742 53.8016 69.5463 53.6396 70.4319 53.6396C70.915 53.6396 71.4249 53.6936 71.9079 53.8016Z" fill="#131C24"/>
<path d="M75.1539 59.1189C75.1539 60.617 75.9456 61.7507 77.4618 61.7507C77.9315 61.7507 78.3877 61.6697 78.8305 61.5077C79.3672 61.2918 79.5551 60.9409 79.5551 60.4145V54.0039C80.1052 53.7339 80.7358 53.626 81.447 53.626V60.8734C81.447 62.0206 80.9908 62.6414 80.0113 63.0328C79.1391 63.3432 78.2267 63.5186 77.3008 63.5186C74.8185 63.5186 73.2754 61.8451 73.2754 59.2674V54.0039C73.8255 53.7339 74.4562 53.626 75.1673 53.626V59.1189H75.1539Z" fill="#131C24"/>
<path d="M86.1847 50.765C86.1847 51.4668 85.6212 52.0336 84.9234 52.0336C84.2257 52.0336 83.6621 51.4668 83.6621 50.765C83.6621 50.0632 84.2257 49.4963 84.9234 49.4963C85.6212 49.4828 86.1847 50.0497 86.1847 50.765ZM85.8761 63.1544C85.3394 63.4244 84.6953 63.5323 83.9841 63.5323V54.004C84.5343 53.7341 85.1649 53.6262 85.8761 53.6262V63.1544Z" fill="#131C24"/>
<path d="M91.014 55.5824V60.1576C91.014 61.5207 91.8996 61.7367 93.5366 61.7367C93.55 62.3305 93.4427 62.9108 93.2146 63.4507C92.9865 63.5047 92.7584 63.5316 92.5169 63.5182C91.5239 63.5182 90.0345 63.2752 89.4173 61.9256C89.1489 61.3183 89.1087 60.6165 89.1087 59.8607V55.5824H87.4314C87.4046 54.9751 87.5253 54.3678 87.7669 53.8144H89.1087V51.1152C89.6588 50.8453 90.2895 50.7373 91.0006 50.7373V53.8144H93.5769C93.5903 54.4218 93.483 55.0291 93.2414 55.5824H91.014Z" fill="#131C24"/>
<path d="M99.7241 63.5323C96.5709 63.5323 94.6387 61.5214 94.6387 58.5927C94.6387 55.6641 96.544 53.6396 99.4558 53.6396C101.938 53.6396 103.709 55.0972 103.709 57.4726C103.709 58.8762 103.092 59.2945 101.629 59.2945H96.5575C96.8258 60.8871 98.0334 61.7778 99.8046 61.7778C100.637 61.7643 101.455 61.6159 102.233 61.3459C102.461 61.8723 102.569 62.4526 102.555 63.033C101.643 63.3569 100.69 63.5323 99.7241 63.5323ZM101.066 57.7695C101.683 57.7695 101.858 57.4995 101.858 57.0812C101.858 56.0015 100.717 55.3267 99.4423 55.3267C97.9932 55.3267 96.8527 56.2039 96.5709 57.7695H101.066Z" fill="#131C24"/>
<path d="M110.029 63.5323C106.875 63.5323 104.93 61.5214 104.93 58.5927C104.93 55.6641 106.835 53.6396 109.747 53.6396C112.229 53.6396 114 55.0972 114 57.4726C114 58.8762 113.383 59.2945 111.921 59.2945H106.862C107.13 60.8871 108.338 61.7778 110.109 61.7778C110.941 61.7643 111.759 61.6159 112.538 61.3459C112.766 61.8723 112.873 62.4526 112.86 63.033C111.947 63.3569 110.995 63.5323 110.029 63.5323ZM111.37 57.7695C111.988 57.7695 112.162 57.4995 112.162 57.0812C112.162 56.0015 111.021 55.3267 109.747 55.3267C108.298 55.3267 107.157 56.2039 106.875 57.7695H111.37Z" fill="#131C24"/>
</g>
<defs>
<clipPath id="clip0_1685_12521">
<rect width="114" height="21" fill="white" transform="translate(0 46)"/>
</clipPath>
</defs>
</svg>
