<svg width="60" height="60" viewBox="0 0 60 60" fill="none" xmlns="http://www.w3.org/2000/svg">
<path d="M30 27.5C35.5228 27.5 40 23.0228 40 17.5C40 11.9772 35.5228 7.5 30 7.5C24.4772 7.5 20 11.9772 20 17.5C20 23.0228 24.4772 27.5 30 27.5Z" stroke="#1AB393" stroke-width="3.75" stroke-linecap="round" stroke-linejoin="round"/>
<path d="M15 52.5V47.5C15 44.8478 16.0536 42.3043 17.9289 40.4289C19.8043 38.5536 22.3478 37.5 25 37.5H27.5" stroke="#1AB393" stroke-width="3.75" stroke-linecap="round" stroke-linejoin="round"/>
<path d="M41.25 50C44.7018 50 47.5 47.2018 47.5 43.75C47.5 40.2982 44.7018 37.5 41.25 37.5C37.7982 37.5 35 40.2982 35 43.75C35 47.2018 37.7982 50 41.25 50Z" stroke="#1AB393" stroke-width="3.75" stroke-linecap="round" stroke-linejoin="round"/>
<path d="M46.25 48.75L52.5 55" stroke="#1AB393" stroke-width="3.75" stroke-linecap="round" stroke-linejoin="round"/>
</svg>
