<svg width="114" height="114" viewBox="0 0 114 114" fill="none" xmlns="http://www.w3.org/2000/svg">
<g clip-path="url(#clip0_1053_87464)">
<path fill-rule="evenodd" clip-rule="evenodd" d="M49.7413 34.3256C52.433 31.5425 56.1829 29.8143 60.3281 29.8143C65.8383 29.8143 70.6473 32.8648 73.2075 37.3933C75.4981 36.3777 77.9793 35.8542 80.4881 35.8572C90.4275 35.8572 98.4842 43.9246 98.4842 53.878C98.4842 63.8313 90.4275 71.8988 80.4881 71.8988C79.2728 71.8988 78.0877 71.7782 76.9418 71.5489C74.6875 75.5392 70.3889 78.2362 65.4576 78.2362C63.3932 78.2362 61.4402 77.7649 59.7026 76.9212C57.4164 82.259 52.0906 86 45.8846 86C39.4221 86 33.9128 81.94 31.7991 76.2479C30.8573 76.4451 29.8974 76.5444 28.9349 76.5442C21.2389 76.5451 15 70.2884 15 62.5698C14.9943 60.1237 15.6345 57.7189 16.857 55.595C18.0796 53.4711 19.8416 51.7023 21.9675 50.465C21.0855 48.4479 20.6317 46.2721 20.6344 44.0733C20.6344 35.1956 27.894 28 36.8492 28C39.3439 27.9971 41.8055 28.5665 44.0418 29.6638C46.2782 30.7611 48.2288 32.3566 49.7413 34.3256Z" fill="#00A1E0"/>
<path fill-rule="evenodd" clip-rule="evenodd" d="M27.0918 58.0774L27.4296 57.1467C27.4834 56.9872 27.6049 57.0397 27.6542 57.0696C27.7482 57.1249 27.8158 57.1747 27.9372 57.2454C28.9324 57.8698 29.8546 57.8762 30.1422 57.8762C30.8873 57.8762 31.3493 57.4847 31.3493 56.9563V56.9292C31.3493 56.3546 30.6371 56.1371 29.8144 55.887L29.6318 55.829C28.5024 55.51 27.2944 55.0487 27.2944 53.6295V53.6005C27.2944 52.2538 28.3892 51.314 29.956 51.314L30.1276 51.3122C31.048 51.3122 31.9373 51.5777 32.5819 51.9656C32.6403 52.0019 32.6969 52.0689 32.6641 52.1577L32.3171 53.0885C32.2559 53.2471 32.0888 53.1419 32.0888 53.1419C31.4163 52.7941 30.6721 52.6046 29.914 52.5882C29.2493 52.5882 28.822 52.938 28.822 53.4129V53.4428C28.822 53.9965 29.5542 54.2331 30.4034 54.5077L30.5494 54.553C31.6752 54.9064 32.8768 55.3958 32.8768 56.7416V56.7697C32.8768 58.2242 31.8122 59.1277 30.1002 59.1277C29.2593 59.1277 28.4549 58.999 27.604 58.5504C27.4433 58.458 27.2844 58.3782 27.1274 58.265C27.1109 58.2414 27.0388 58.2133 27.0908 58.0774H27.0918ZM52.1612 58.0774L52.4999 57.1467C52.5492 56.9944 52.6926 57.0506 52.7236 57.0696C52.8168 57.1267 52.8861 57.1747 53.0067 57.2454C54.0037 57.8698 54.9241 57.8762 55.2144 57.8762C55.9567 57.8762 56.4196 57.4847 56.4196 56.9563V56.9292C56.4196 56.3546 55.7084 56.1371 54.8857 55.887L54.7031 55.829C53.5718 55.51 52.3639 55.0487 52.3639 53.6295V53.6005C52.3639 52.2538 53.4595 51.314 55.0263 51.314L55.1971 51.3122C56.1174 51.3122 57.0076 51.5777 57.6531 51.9656C57.7098 52.0019 57.7673 52.0689 57.7353 52.1577C57.7034 52.2402 57.4185 53.0015 57.3884 53.0885C57.3254 53.2471 57.1601 53.1419 57.1601 53.1419C56.4873 52.794 55.7428 52.6045 54.9843 52.5882C54.3196 52.5882 53.8923 52.938 53.8923 53.4129V53.4428C53.8923 53.9965 54.6237 54.2331 55.4737 54.5077L55.6198 54.553C56.7456 54.9064 57.9462 55.3958 57.9462 56.7416V56.7697C57.9462 58.2242 56.8825 59.1277 55.1706 59.1277C54.3288 59.1277 53.5244 58.999 52.6743 58.5504C52.5136 58.458 52.3548 58.3782 52.1968 58.265C52.1804 58.2414 52.1082 58.2133 52.1612 58.0774V58.0774ZM70.7051 53.7011C70.8457 54.1687 70.9151 54.6826 70.9151 55.2254C70.9151 55.7692 70.8457 56.2812 70.7051 56.7488C70.5765 57.1997 70.3559 57.6196 70.0568 57.9822C69.7572 58.3344 69.3815 58.6151 68.9575 58.8033C68.5193 59.0027 68.0043 59.1023 67.4254 59.1023C66.8466 59.1023 66.3298 59.0027 65.8934 58.8033C65.4694 58.6151 65.0937 58.3344 64.7941 57.9822C64.4953 57.6196 64.2744 57.2002 64.1449 56.7497C64.0013 56.2543 63.9306 55.7409 63.9349 55.2254C63.9349 54.6817 64.0052 54.1687 64.1449 53.7011C64.2855 53.2298 64.5037 52.8148 64.7931 52.4686C65.0935 52.1149 65.4693 51.832 65.8934 51.6403C66.3307 51.4373 66.8448 51.3349 67.4254 51.3349C68.0061 51.3349 68.5202 51.4373 68.9575 51.6403C69.394 51.8424 69.7647 52.1206 70.0568 52.4686C70.3472 52.8148 70.5663 53.2298 70.7051 53.7011ZM69.2771 55.2254C69.2771 54.4034 69.1237 53.7573 68.8188 53.3042C68.5174 52.8547 68.0609 52.6372 67.4254 52.6372C66.79 52.6372 66.3371 52.8547 66.0395 53.3042C65.7409 53.7573 65.5884 54.4034 65.5884 55.2254C65.5884 56.0465 65.7409 56.6972 66.0413 57.1539C66.3371 57.6088 66.79 57.8291 67.4254 57.8291C68.0609 57.8291 68.5174 57.6079 68.8188 57.1539C69.1219 56.6972 69.2771 56.0465 69.2771 55.2254V55.2254ZM82.445 57.6088L82.7956 58.5713C82.8413 58.6891 82.7381 58.7407 82.7381 58.7407C82.1967 58.9492 81.4452 59.0978 80.7139 59.0978C79.474 59.0978 78.5244 58.7435 77.8908 58.0438C77.2608 57.346 76.9394 56.3972 76.9394 55.22C76.9394 54.6753 77.0188 54.1597 77.174 53.6929C77.3292 53.2217 77.5621 52.8066 77.8688 52.4604C78.1874 52.1045 78.5803 51.8219 79.0202 51.6321C79.4767 51.43 80.0136 51.3285 80.6125 51.3285C81.017 51.3285 81.3768 51.353 81.6854 51.3983C82.015 51.4491 82.4541 51.5669 82.6395 51.6385C82.6733 51.6512 82.7673 51.6965 82.729 51.8061C82.5938 52.184 82.5016 52.4305 82.3765 52.7749C82.3218 52.9217 82.2104 52.8728 82.2104 52.8728C81.7401 52.726 81.2891 52.6589 80.7002 52.6589C79.9926 52.6589 79.4612 52.8927 79.1142 53.3504C78.7636 53.8117 78.5673 54.4161 78.5646 55.22C78.5618 56.1017 78.7846 56.7552 79.1791 57.1593C79.5726 57.5626 80.1222 57.7665 80.8143 57.7665C81.0946 57.7665 81.3594 57.7484 81.5977 57.7112C81.8333 57.6741 82.0542 57.6016 82.2624 57.5209C82.2624 57.5209 82.3966 57.4711 82.445 57.6088ZM89.7585 53.4337C90.0698 54.5158 89.9073 55.4502 89.9018 55.5018C89.89 55.6251 89.7621 55.6269 89.7621 55.6269L84.9239 55.6232C84.9541 56.3528 85.1303 56.8693 85.4864 57.2201C85.8361 57.5635 86.3912 57.7837 87.1426 57.7847C88.2912 57.7874 88.7815 57.5581 89.1294 57.4303C89.1294 57.4303 89.2618 57.3832 89.312 57.5137L89.627 58.3937C89.6909 58.5414 89.6398 58.593 89.5859 58.6229C89.2828 58.7888 88.5478 59.0987 87.149 59.1023C86.4706 59.1051 85.8799 59.009 85.3932 58.8214C84.9308 58.6514 84.5142 58.3775 84.1761 58.0212C83.853 57.6716 83.613 57.2544 83.474 56.8005C83.3242 56.3031 83.2507 55.7862 83.2558 55.2671C83.2558 54.7233 83.3261 54.2068 83.4676 53.7346C83.6091 53.2588 83.8292 52.8392 84.1223 52.4867C84.426 52.1269 84.8069 51.839 85.2371 51.6439C85.6808 51.4364 86.2305 51.3349 86.8349 51.3349C87.3526 51.3349 87.8256 51.4454 88.2191 51.614C88.5222 51.7427 88.8272 51.9756 89.1394 52.3091C89.3367 52.5193 89.6371 52.9797 89.7585 53.4337V53.4337ZM84.9468 54.437H88.3981C88.3625 53.9965 88.2757 53.6014 88.0767 53.3042C87.7735 52.8547 87.3554 52.6072 86.7208 52.6072C86.0853 52.6072 85.6343 52.8547 85.3357 53.3042C85.1403 53.6014 85.0143 53.9802 84.9458 54.437H84.9468ZM51.0044 53.4337C51.3148 54.5158 51.155 55.4502 51.1495 55.5018C51.1368 55.6251 51.0089 55.6269 51.0089 55.6269L46.1698 55.6232C46.2008 56.3528 46.3761 56.8693 46.7331 57.2201C47.0828 57.5635 47.6371 57.7837 48.3885 57.7847C49.5371 57.7874 50.0292 57.5581 50.3762 57.4303C50.3762 57.4303 50.5086 57.3832 50.5579 57.5137L50.8738 58.3937C50.9377 58.5414 50.8866 58.593 50.8336 58.6229C50.5287 58.7888 49.7928 59.0987 48.3958 59.1023C47.7165 59.1051 47.1258 59.009 46.64 58.8214C46.1774 58.6512 45.7606 58.3773 45.422 58.0212C45.0997 57.6712 44.8605 57.2541 44.7217 56.8005C44.5709 56.3033 44.4967 55.7863 44.5017 55.2671C44.5017 54.7233 44.5729 54.2068 44.7135 53.7346C44.8451 53.2791 45.068 52.8546 45.3691 52.4867C45.6727 52.1272 46.0533 51.8393 46.483 51.6439C46.9285 51.4364 47.4782 51.3349 48.0808 51.3349C48.5571 51.3338 49.0286 51.4287 49.4668 51.614C49.7699 51.7427 50.0749 51.9756 50.3862 52.3091C50.5834 52.5193 50.8838 52.9797 51.0044 53.4337V53.4337ZM46.1917 54.437H49.6448C49.6083 53.9965 49.5216 53.6014 49.3234 53.3042C49.0221 52.8547 48.6021 52.6072 47.9676 52.6072C47.3321 52.6072 46.8801 52.8547 46.5834 53.3042C46.3862 53.6014 46.2611 53.9802 46.1908 54.437H46.1917ZM37.6584 54.2077C37.6584 54.2077 38.0401 54.2412 38.4564 54.301V54.098C38.4564 53.4573 38.3222 53.1555 38.0583 52.9534C37.7881 52.7486 37.3845 52.6426 36.8622 52.6426C36.8622 52.6426 35.6844 52.6281 34.7531 53.1302C34.7102 53.1555 34.6746 53.17 34.6746 53.17C34.6746 53.17 34.5577 53.2108 34.5157 53.0921L34.1733 52.1786C34.1204 52.0472 34.2162 51.9874 34.2162 51.9874C34.6518 51.6502 35.7072 51.4463 35.7072 51.4463C36.1357 51.3716 36.5696 51.3319 37.0047 51.3276C37.9707 51.3276 38.7184 51.5506 39.227 51.9919C39.7365 52.4351 39.9958 53.1492 39.9958 54.1116L39.9985 58.5051C39.9985 58.5051 40.0086 58.632 39.8871 58.661C39.8871 58.661 39.7091 58.7099 39.5493 58.7471C39.3877 58.7842 38.8052 58.9021 38.3295 58.9818C37.8437 59.0626 37.352 59.1032 36.8595 59.1032C36.3893 59.1032 35.9583 59.0597 35.5785 58.9737C35.2245 58.9001 34.8893 58.7558 34.5933 58.5495C34.3236 58.3551 34.107 58.0968 33.9633 57.7982C33.8145 57.4965 33.7396 57.1276 33.7396 56.7017C33.7396 56.2839 33.8282 55.9114 33.9989 55.5942C34.1706 55.2789 34.4061 55.0115 34.702 54.8022C35.0076 54.5886 35.3493 54.4312 35.7109 54.3373C36.088 54.2376 36.4888 54.1859 36.9033 54.1859C37.2074 54.1859 37.4612 54.1923 37.6584 54.2077V54.2077ZM35.7328 57.5826C35.7301 57.5817 36.1665 57.9224 37.1517 57.8626C37.8438 57.8209 38.4573 57.6904 38.4573 57.6904V55.5063C38.4573 55.5063 37.8383 55.4057 37.1434 55.3958C36.1583 55.384 35.7383 55.7438 35.741 55.7429C35.4507 55.9477 35.3091 56.2513 35.3091 56.6718C35.3091 56.9409 35.3575 57.1512 35.4552 57.298C35.5164 57.395 35.5429 57.4312 35.7328 57.5826V57.5826ZM76.6874 51.7327C76.6417 51.8641 76.4071 52.5221 76.3221 52.7405C76.2911 52.8238 76.24 52.8809 76.1459 52.871C76.1459 52.871 75.8684 52.8075 75.6145 52.8075C75.4401 52.8075 75.1909 52.8293 74.9663 52.8982C74.741 52.9669 74.536 53.0891 74.3691 53.2543C74.192 53.4238 74.0487 53.6621 73.9446 53.9612C73.8387 54.2621 73.7839 54.7406 73.7839 55.2209V58.7987C73.784 58.8179 73.7803 58.8368 73.773 58.8545C73.7657 58.8722 73.755 58.8883 73.7414 58.9019C73.7278 58.9154 73.7117 58.9262 73.6939 58.9335C73.6761 58.9409 73.6571 58.9447 73.6378 58.9447H72.3678C72.3483 58.9449 72.329 58.9413 72.311 58.9342C72.293 58.927 72.2765 58.9164 72.2626 58.9029C72.2487 58.8895 72.2376 58.8734 72.23 58.8557C72.2223 58.838 72.2183 58.8189 72.218 58.7997V51.6357C72.218 51.5551 72.2774 51.4907 72.3586 51.4907H73.5976C73.6798 51.4907 73.7382 51.5551 73.7382 51.6357V52.2212C73.9236 51.9747 74.2559 51.7572 74.5563 51.6231C74.8576 51.4871 75.1945 51.3874 75.8035 51.4237C76.1204 51.4427 76.5321 51.5288 76.6152 51.5605C76.6315 51.567 76.6463 51.5766 76.6587 51.5888C76.6712 51.601 76.681 51.6155 76.6878 51.6316C76.6945 51.6476 76.6979 51.6648 76.6978 51.6822C76.6978 51.6996 76.6942 51.7167 76.6874 51.7327V51.7327ZM64.7539 48.4131C64.7877 48.4267 64.8799 48.4711 64.8434 48.5799L64.4718 49.5885C64.4407 49.6647 64.4206 49.71 64.2627 49.6628C64.0538 49.5976 63.8361 49.564 63.6171 49.5632C63.4254 49.5632 63.2519 49.5876 63.0985 49.6384C62.9451 49.6872 62.8059 49.7724 62.6931 49.8867C62.5431 50.0306 62.4271 50.2058 62.3535 50.3996C62.1754 50.9071 62.107 51.4482 62.0978 51.4826H63.6445C63.7751 51.4826 63.8162 51.5424 63.8034 51.6376L63.6226 52.6362C63.5934 52.7812 63.461 52.7758 63.461 52.7758H61.8668L60.7776 58.8984C60.6839 59.4475 60.5415 59.9873 60.3521 60.5116C60.1814 60.9547 60.0051 61.2782 59.7221 61.5873C59.4805 61.8638 59.1733 62.0763 58.8282 62.2053C58.4931 62.3277 58.0859 62.3902 57.6413 62.3902C57.4294 62.3902 57.2012 62.3857 56.9318 62.3222C56.7818 62.2882 56.6339 62.2452 56.489 62.1936C56.4297 62.1727 56.3813 62.0975 56.416 62.0014C56.4488 61.9063 56.7355 61.1278 56.7739 61.0254C56.8232 60.9022 56.9492 60.9493 56.9492 60.9493C57.035 60.9855 57.0953 61.0091 57.2094 61.0317C57.3254 61.0544 57.4806 61.0743 57.5984 61.0743C57.8093 61.0743 58.001 61.049 58.1681 60.9928C58.369 60.9284 58.4877 60.8115 58.61 60.6557C58.7378 60.4916 58.8419 60.2696 58.9488 59.9714C59.0556 59.6697 59.1533 59.2709 59.2373 58.7879L60.322 52.7767H59.2537C59.1259 52.7767 59.0821 52.7169 59.0967 52.6208L59.2756 51.6222C59.3039 51.4772 59.44 51.4826 59.44 51.4826H60.5365L60.5959 51.1582C60.7602 50.1939 61.0862 49.4607 61.5683 48.9795C62.0531 48.4947 62.7425 48.25 63.6171 48.25C63.8673 48.25 64.0883 48.2663 64.2755 48.2998C64.459 48.3343 64.5987 48.366 64.7539 48.4131V48.4131ZM43.1367 58.7987C43.1367 58.8803 43.0801 58.9447 42.9979 58.9447H41.7151C41.6329 58.9447 41.5772 58.8794 41.5772 58.7997V48.5472C41.5772 48.4684 41.6338 48.4032 41.7141 48.4032H42.9979C43.0801 48.4032 43.1367 48.4684 43.1367 48.5482V58.7987V58.7987Z" fill="white"/>
</g>
<defs>
<clipPath id="clip0_1053_87464">
<rect width="84" height="58" fill="white" transform="translate(15 28)"/>
</clipPath>
</defs>
</svg>
