<svg width="114" height="114" viewBox="0 0 114 114" fill="none" xmlns="http://www.w3.org/2000/svg">
<g clip-path="url(#clip0_1685_12564)">
<path fill-rule="evenodd" clip-rule="evenodd" d="M49.7413 34.3256C52.433 31.5425 56.1829 29.8143 60.3281 29.8143C65.8383 29.8143 70.6473 32.8648 73.2075 37.3933C75.4981 36.3777 77.9793 35.8542 80.4881 35.8572C90.4275 35.8572 98.4842 43.9246 98.4842 53.878C98.4842 63.8313 90.4275 71.8988 80.4881 71.8988C79.2728 71.8988 78.0877 71.7782 76.9418 71.549C74.6875 75.5392 70.3889 78.2362 65.4576 78.2362C63.3932 78.2362 61.4402 77.7649 59.7026 76.9212C57.4164 82.259 52.0906 86 45.8846 86C39.4221 86 33.9128 81.94 31.7991 76.2479C30.8573 76.4451 29.8974 76.5444 28.9349 76.5442C21.2389 76.5451 15 70.2884 15 62.5698C14.9943 60.1237 15.6345 57.7189 16.857 55.595C18.0796 53.4711 19.8416 51.7023 21.9675 50.465C21.0855 48.4479 20.6317 46.2721 20.6344 44.0733C20.6344 35.1956 27.894 28 36.8492 28C39.3439 27.9971 41.8055 28.5665 44.0418 29.6638C46.2782 30.7611 48.2288 32.3566 49.7413 34.3256Z" fill="#00A1E0"/>
<path fill-rule="evenodd" clip-rule="evenodd" d="M27.0918 58.0783L27.4296 57.1476C27.4834 56.9881 27.6049 57.0407 27.6542 57.0706C27.7482 57.1259 27.8158 57.1757 27.9372 57.2464C28.9324 57.8708 29.8546 57.8772 30.1422 57.8772C30.8873 57.8772 31.3493 57.4857 31.3493 56.9573V56.9301C31.3493 56.3556 30.6371 56.1381 29.8144 55.8879L29.6318 55.8299C28.5024 55.5109 27.2944 55.0497 27.2944 53.6305V53.6015C27.2944 52.2548 28.3892 51.315 29.956 51.315L30.1276 51.3132C31.048 51.3132 31.9373 51.5787 32.5819 51.9666C32.6403 52.0028 32.6969 52.0699 32.6641 52.1587L32.3171 53.0894C32.2559 53.248 32.0888 53.1429 32.0888 53.1429C31.4163 52.7951 30.6721 52.6056 29.914 52.5892C29.2493 52.5892 28.822 52.939 28.822 53.4139V53.4438C28.822 53.9975 29.5542 54.234 30.4034 54.5086L30.5494 54.5539C31.6752 54.9074 32.8768 55.3968 32.8768 56.7425V56.7706C32.8768 58.2252 31.8122 59.1287 30.1002 59.1287C29.2593 59.1287 28.4549 59 27.604 58.5514C27.4433 58.459 27.2844 58.3792 27.1274 58.2659C27.1109 58.2424 27.0388 58.2143 27.0908 58.0783H27.0918ZM52.1612 58.0783L52.4999 57.1476C52.5492 56.9954 52.6926 57.0516 52.7236 57.0706C52.8168 57.1277 52.8861 57.1757 53.0067 57.2464C54.0037 57.8708 54.9241 57.8772 55.2144 57.8772C55.9567 57.8772 56.4196 57.4857 56.4196 56.9573V56.9301C56.4196 56.3556 55.7084 56.1381 54.8857 55.8879L54.7031 55.8299C53.5718 55.5109 52.3639 55.0497 52.3639 53.6305V53.6015C52.3639 52.2548 53.4595 51.315 55.0263 51.315L55.1971 51.3132C56.1174 51.3132 57.0076 51.5787 57.6531 51.9666C57.7098 52.0028 57.7673 52.0699 57.7353 52.1587C57.7034 52.2412 57.4185 53.0024 57.3884 53.0894C57.3254 53.248 57.1601 53.1429 57.1601 53.1429C56.4873 52.7949 55.7428 52.6055 54.9843 52.5892C54.3196 52.5892 53.8923 52.939 53.8923 53.4139V53.4438C53.8923 53.9975 54.6237 54.234 55.4737 54.5086L55.6198 54.5539C56.7456 54.9074 57.9462 55.3968 57.9462 56.7425V56.7706C57.9462 58.2252 56.8825 59.1287 55.1706 59.1287C54.3288 59.1287 53.5244 59 52.6743 58.5514C52.5136 58.459 52.3548 58.3792 52.1968 58.2659C52.1804 58.2424 52.1082 58.2143 52.1612 58.0783ZM70.7051 53.7021C70.8457 54.1697 70.9151 54.6835 70.9151 55.2264C70.9151 55.7701 70.8457 56.2822 70.7051 56.7498C70.5765 57.2007 70.3559 57.6205 70.0568 57.9832C69.7572 58.3354 69.3815 58.6161 68.9575 58.8043C68.5193 59.0036 68.0043 59.1033 67.4254 59.1033C66.8466 59.1033 66.3298 59.0036 65.8934 58.8043C65.4694 58.6161 65.0937 58.3354 64.7941 57.9832C64.4953 57.6206 64.2744 57.2011 64.1449 56.7507C64.0013 56.2553 63.9306 55.7419 63.9349 55.2264C63.9349 54.6826 64.0052 54.1697 64.1449 53.7021C64.2855 53.2308 64.5037 52.8158 64.7931 52.4696C65.0935 52.1159 65.4693 51.833 65.8934 51.6413C66.3307 51.4383 66.8448 51.3359 67.4254 51.3359C68.0061 51.3359 68.5202 51.4383 68.9575 51.6413C69.394 51.8434 69.7647 52.1216 70.0568 52.4696C70.3472 52.8158 70.5663 53.2308 70.7051 53.7021ZM69.2771 55.2264C69.2771 54.4044 69.1237 53.7583 68.8188 53.3051C68.5174 52.8556 68.0609 52.6381 67.4254 52.6381C66.79 52.6381 66.3371 52.8556 66.0395 53.3051C65.7409 53.7583 65.5884 54.4044 65.5884 55.2264C65.5884 56.0474 65.7409 56.6981 66.0413 57.1549C66.3371 57.6098 66.79 57.83 67.4254 57.83C68.0609 57.83 68.5174 57.6089 68.8188 57.1549C69.1219 56.6981 69.2771 56.0474 69.2771 55.2264ZM82.445 57.6098L82.7956 58.5723C82.8413 58.6901 82.7381 58.7417 82.7381 58.7417C82.1967 58.9502 81.4452 59.0988 80.7139 59.0988C79.474 59.0988 78.5244 58.7444 77.8908 58.0448C77.2607 57.347 76.9394 56.3982 76.9394 55.2209C76.9394 54.6763 77.0188 54.1606 77.174 53.6939C77.3292 53.2227 77.5621 52.8076 77.8688 52.4614C78.1874 52.1055 78.5803 51.8228 79.0202 51.6331C79.4767 51.431 80.0136 51.3295 80.6125 51.3295C81.017 51.3295 81.3768 51.354 81.6854 51.3993C82.015 51.45 82.4541 51.5678 82.6395 51.6394C82.6733 51.6521 82.7673 51.6974 82.729 51.8071C82.5938 52.185 82.5016 52.4315 82.3765 52.7759C82.3218 52.9227 82.2104 52.8738 82.2104 52.8738C81.7401 52.7269 81.2891 52.6599 80.7002 52.6599C79.9926 52.6599 79.4612 52.8937 79.1142 53.3514C78.7636 53.8126 78.5673 54.4171 78.5646 55.2209C78.5618 56.1027 78.7846 56.7561 79.1791 57.1603C79.5726 57.5636 80.1222 57.7675 80.8143 57.7675C81.0946 57.7675 81.3594 57.7494 81.5977 57.7122C81.8333 57.6751 82.0542 57.6026 82.2624 57.5219C82.2624 57.5219 82.3966 57.4721 82.445 57.6098ZM89.7585 53.4347C90.0698 54.5168 89.9073 55.4511 89.9018 55.5028C89.89 55.626 89.7621 55.6279 89.7621 55.6279L84.9239 55.6242C84.9541 56.3538 85.1303 56.8703 85.4864 57.221C85.8361 57.5645 86.3912 57.7847 87.1426 57.7856C88.2912 57.7884 88.7815 57.5591 89.1294 57.4313C89.1294 57.4313 89.2618 57.3842 89.312 57.5147L89.627 58.3946C89.6909 58.5424 89.6398 58.594 89.5859 58.6239C89.2828 58.7898 88.5478 59.0997 87.149 59.1033C86.4706 59.106 85.8799 59.01 85.3932 58.8224C84.9308 58.6524 84.5142 58.3785 84.1761 58.0222C83.853 57.6726 83.613 57.2554 83.474 56.8014C83.3242 56.3041 83.2507 55.7872 83.2558 55.2681C83.2558 54.7243 83.3261 54.2078 83.4676 53.7356C83.6091 53.2598 83.8292 52.8402 84.1223 52.4877C84.426 52.1279 84.8069 51.8399 85.2371 51.6449C85.6808 51.4374 86.2305 51.3359 86.8349 51.3359C87.3526 51.3359 87.8256 51.4464 88.2191 51.615C88.5222 51.7437 88.8272 51.9766 89.1394 52.3101C89.3367 52.5203 89.6371 52.9807 89.7585 53.4347ZM84.9468 54.4379H88.3981C88.3624 53.9975 88.2757 53.6024 88.0767 53.3051C87.7735 52.8556 87.3554 52.6082 86.7208 52.6082C86.0853 52.6082 85.6343 52.8556 85.3357 53.3051C85.1403 53.6024 85.0143 53.9812 84.9458 54.4379H84.9468ZM51.0044 53.4347C51.3148 54.5168 51.155 55.4511 51.1495 55.5028C51.1368 55.626 51.0089 55.6279 51.0089 55.6279L46.1698 55.6242C46.2008 56.3538 46.3761 56.8703 46.7331 57.221C47.0828 57.5645 47.6371 57.7847 48.3885 57.7856C49.5371 57.7884 50.0292 57.5591 50.3762 57.4313C50.3762 57.4313 50.5086 57.3842 50.5579 57.5147L50.8738 58.3946C50.9377 58.5424 50.8866 58.594 50.8336 58.6239C50.5287 58.7898 49.7928 59.0997 48.3958 59.1033C47.7165 59.106 47.1258 59.01 46.64 58.8224C46.1774 58.6521 45.7606 58.3783 45.422 58.0222C45.0997 57.6722 44.8605 57.2551 44.7217 56.8014C44.5709 56.3043 44.4967 55.7873 44.5017 55.2681C44.5017 54.7243 44.5729 54.2078 44.7135 53.7356C44.8451 53.28 45.068 52.8556 45.3691 52.4877C45.6727 52.1282 46.0533 51.8403 46.483 51.6449C46.9285 51.4374 47.4782 51.3359 48.0808 51.3359C48.5571 51.3347 49.0286 51.4297 49.4668 51.615C49.7699 51.7437 50.0749 51.9766 50.3862 52.3101C50.5835 52.5203 50.8838 52.9807 51.0044 53.4347ZM46.1917 54.4379H49.6448C49.6083 53.9975 49.5216 53.6024 49.3234 53.3051C49.0221 52.8556 48.6021 52.6082 47.9676 52.6082C47.3321 52.6082 46.8801 52.8556 46.5834 53.3051C46.3862 53.6024 46.2611 53.9812 46.1908 54.4379H46.1917ZM37.6584 54.2087C37.6584 54.2087 38.0401 54.2422 38.4564 54.302V54.099C38.4564 53.4583 38.3222 53.1565 38.0583 52.9544C37.7881 52.7496 37.3845 52.6436 36.8622 52.6436C36.8622 52.6436 35.6844 52.6291 34.7531 53.1311C34.7102 53.1565 34.6746 53.171 34.6746 53.171C34.6746 53.171 34.5577 53.2118 34.5157 53.0931L34.1733 52.1796C34.1204 52.0482 34.2162 51.9884 34.2162 51.9884C34.6518 51.6512 35.7072 51.4473 35.7072 51.4473C36.1357 51.3726 36.5696 51.3329 37.0047 51.3286C37.9707 51.3286 38.7184 51.5515 39.227 51.9929C39.7365 52.436 39.9958 53.1502 39.9958 54.1126L39.9985 58.5061C39.9985 58.5061 40.0086 58.633 39.8871 58.662C39.8871 58.662 39.7091 58.7109 39.5493 58.7481C39.3877 58.7852 38.8052 58.903 38.3295 58.9828C37.8437 59.0636 37.352 59.1042 36.8595 59.1042C36.3893 59.1042 35.9583 59.0607 35.5785 58.9746C35.2245 58.901 34.8893 58.7567 34.5933 58.5505C34.3236 58.3561 34.107 58.0978 33.9633 57.7992C33.8145 57.4974 33.7396 57.1286 33.7396 56.7027C33.7396 56.2849 33.8282 55.9124 33.9989 55.5952C34.1706 55.2799 34.4061 55.0125 34.702 54.8032C35.0076 54.5896 35.3493 54.4321 35.7109 54.3383C36.088 54.2386 36.4888 54.1869 36.9033 54.1869C37.2074 54.1869 37.4612 54.1933 37.6584 54.2087ZM35.7328 57.5835C35.7301 57.5826 36.1665 57.9234 37.1517 57.8636C37.8438 57.8219 38.4573 57.6914 38.4573 57.6914V55.5073C38.4573 55.5073 37.8383 55.4067 37.1434 55.3968C36.1583 55.385 35.7383 55.7448 35.741 55.7439C35.4507 55.9487 35.3091 56.2523 35.3091 56.6728C35.3091 56.9419 35.3575 57.1522 35.4552 57.299C35.5164 57.3959 35.5429 57.4322 35.7328 57.5835ZM76.6874 51.7337C76.6417 51.8651 76.4071 52.523 76.3221 52.7414C76.2911 52.8248 76.24 52.8819 76.1459 52.8719C76.1459 52.8719 75.8684 52.8085 75.6145 52.8085C75.4401 52.8085 75.1909 52.8303 74.9663 52.8991C74.741 52.9679 74.536 53.0901 74.3691 53.2553C74.192 53.4248 74.0487 53.6631 73.9446 53.9622C73.8387 54.263 73.7839 54.7415 73.7839 55.2219V58.7997C73.784 58.8188 73.7803 58.8378 73.773 58.8555C73.7657 58.8732 73.755 58.8893 73.7414 58.9028C73.7278 58.9164 73.7117 58.9272 73.6939 58.9345C73.6761 58.9419 73.6571 58.9456 73.6378 58.9456H72.3678C72.3483 58.9459 72.329 58.9423 72.311 58.9352C72.293 58.928 72.2765 58.9174 72.2626 58.9039C72.2487 58.8904 72.2376 58.8744 72.23 58.8567C72.2223 58.839 72.2183 58.8199 72.218 58.8006V51.6367C72.218 51.5561 72.2774 51.4917 72.3586 51.4917H73.5976C73.6798 51.4917 73.7382 51.5561 73.7382 51.6367V52.2222C73.9236 51.9757 74.2559 51.7582 74.5563 51.624C74.8576 51.4881 75.1945 51.3884 75.8035 51.4247C76.1204 51.4437 76.5321 51.5298 76.6152 51.5615C76.6315 51.568 76.6463 51.5776 76.6587 51.5898C76.6712 51.602 76.681 51.6165 76.6878 51.6326C76.6945 51.6486 76.6979 51.6658 76.6978 51.6832C76.6978 51.7005 76.6942 51.7177 76.6874 51.7337ZM64.7539 48.4141C64.7877 48.4277 64.8799 48.4721 64.8434 48.5809L64.4718 49.5895C64.4407 49.6656 64.4206 49.7109 64.2627 49.6638C64.0538 49.5986 63.8361 49.565 63.6171 49.5641C63.4254 49.5641 63.2519 49.5886 63.0985 49.6394C62.9451 49.6881 62.8059 49.7734 62.6931 49.8877C62.5431 50.0316 62.4271 50.2068 62.3535 50.4006C62.1754 50.9081 62.107 51.4491 62.0978 51.4836H63.6445C63.7751 51.4836 63.8162 51.5434 63.8034 51.6385L63.6226 52.6372C63.5934 52.7822 63.461 52.7768 63.461 52.7768H61.8668L60.7776 58.8994C60.6839 59.4485 60.5415 59.9883 60.3521 60.5125C60.1814 60.9557 60.0051 61.2792 59.7221 61.5883C59.4805 61.8648 59.1733 62.0772 58.8282 62.2063C58.4931 62.3287 58.0859 62.3912 57.6413 62.3912C57.4294 62.3912 57.2012 62.3867 56.9318 62.3232C56.7818 62.2892 56.6339 62.2462 56.489 62.1945C56.4297 62.1737 56.3813 62.0985 56.416 62.0024C56.4488 61.9073 56.7355 61.1288 56.7739 61.0264C56.8232 60.9031 56.9492 60.9503 56.9492 60.9503C57.035 60.9865 57.0953 61.0101 57.2094 61.0327C57.3254 61.0554 57.4806 61.0753 57.5984 61.0753C57.8093 61.0753 58.001 61.0499 58.1681 60.9938C58.369 60.9294 58.4877 60.8125 58.61 60.6566C58.7378 60.4926 58.8419 60.2706 58.9488 59.9724C59.0556 59.6706 59.1533 59.2719 59.2373 58.7888L60.322 52.7777H59.2537C59.1259 52.7777 59.0821 52.7179 59.0967 52.6218L59.2756 51.6231C59.3039 51.4781 59.44 51.4836 59.44 51.4836H60.5365L60.5959 51.1591C60.7602 50.1949 61.0862 49.4617 61.5683 48.9805C62.0531 48.4957 62.7425 48.251 63.6171 48.251C63.8673 48.251 64.0883 48.2673 64.2755 48.3008C64.459 48.3353 64.5987 48.367 64.7539 48.4141ZM43.1367 58.7997C43.1367 58.8813 43.0801 58.9456 42.9979 58.9456H41.7151C41.6329 58.9456 41.5772 58.8804 41.5772 58.8006V48.5482C41.5772 48.4694 41.6338 48.4041 41.7141 48.4041H42.9979C43.0801 48.4041 43.1367 48.4694 43.1367 48.5491V58.7997Z" fill="white"/>
</g>
<defs>
<clipPath id="clip0_1685_12564">
<rect width="84" height="58" fill="white" transform="translate(15 28)"/>
</clipPath>
</defs>
</svg>
