<svg width="114" height="114" viewBox="0 0 114 114" fill="none" xmlns="http://www.w3.org/2000/svg">
<g clip-path="url(#clip0_1053_87506)">
<path d="M78.3285 50.0187L75.4395 50.0262V64.8501H88.6886C90.1378 64.2351 90.9139 63.1721 91.2139 61.931H78.321L78.3285 50.0187ZM99.9485 52.9808H111C112.536 52.6771 113.679 51.3216 114 50.0112H96.947C97.2657 51.3216 98.4262 52.6771 99.9485 52.9808ZM64.157 52.9396C65.6925 52.4934 66.9861 51.3216 67.301 50.0224H51.0841V58.7814H64.3576V61.856L53.9469 61.8654C52.314 62.3191 50.9341 63.414 50.2424 64.8613L51.0841 64.8463H67.211V55.8699H53.9469V52.9396H64.157V52.9396ZM97.3932 64.8463H100.267V58.8789H110.73V64.8463H113.603V55.8961L97.3932 55.8811V64.8463ZM28.7479 52.9714H39.7979C41.3352 52.6659 42.477 51.3104 42.7976 49.9999H25.7464C26.0651 51.3104 27.2237 52.6659 28.7479 52.9714V52.9714ZM0 50.0337C0.331837 51.331 1.45483 52.6527 2.99403 52.9864H7.64537L7.88159 53.0802V64.8163H10.7875V53.0802L11.05 52.9864H15.7069C17.2611 52.5852 18.3598 51.331 18.6878 50.0337V50.0055H0V50.0337V50.0337ZM28.7479 64.8482H39.7979C41.3352 64.5407 42.477 63.189 42.7976 61.8767H25.7464C26.0651 63.189 27.2237 64.5407 28.7479 64.8482V64.8482ZM28.7479 58.8301H39.7979C41.3352 58.5264 42.477 57.171 42.7976 55.8605H25.7464C26.0651 57.171 27.2237 58.5264 28.7479 58.8301Z" fill="#E82127"/>
</g>
<defs>
<clipPath id="clip0_1053_87506">
<rect width="114" height="14.8614" fill="white" transform="translate(0 50)"/>
</clipPath>
</defs>
</svg>
