<svg width="48" height="48" viewBox="0 0 48 48" fill="none" xmlns="http://www.w3.org/2000/svg">
<circle cx="24" cy="24" r="23.5" fill="#F4FAFF" stroke="#DAE8F5"/>
<path d="M32 31.9999C31.8034 32.0021 31.6111 31.9427 31.45 31.8299L24 26.8999L16.55 31.8299C16.3664 31.9482 16.1491 32.0032 15.9313 31.9864C15.7135 31.9696 15.5072 31.8819 15.3439 31.7368C15.1807 31.5916 15.0694 31.397 15.0272 31.1827C14.9849 30.9684 15.014 30.7461 15.11 30.5499L23.11 14.5499C23.194 14.3861 23.3214 14.2486 23.4785 14.1526C23.6355 14.0567 23.816 14.0059 24 14.0059C24.1841 14.0059 24.3646 14.0567 24.5216 14.1526C24.6786 14.2486 24.8061 14.3861 24.89 14.5499L32.89 30.5499C32.9897 30.7472 33.0212 30.972 32.9796 31.1891C32.938 31.4062 32.8256 31.6034 32.66 31.7499C32.4777 31.9107 32.2431 31.9995 32 31.9999ZM24 24.6999C24.1961 24.7014 24.3873 24.7605 24.55 24.8699L29.43 28.0999L24 17.2399L18.57 28.0999L23.45 24.8699C23.6127 24.7605 23.804 24.7014 24 24.6999Z" fill="#6CA1D6"/>
</svg>
