<svg width="114" height="114" viewBox="0 0 114 114" fill="none" xmlns="http://www.w3.org/2000/svg">
<path d="M114 45.3066V72.0558L110.26 75.6694V49.4931L114 45.3066Z" fill="#E79225"/>
<path d="M89.4855 45.3287L85.6113 49.4931L85.8117 49.7575L110.104 49.6694L110.326 49.4931L114 45.3066L89.4855 45.3287Z" fill="#FFF16D"/>
<path d="M110.326 49.4932H85.6113V75.6915H110.326V49.4932Z" fill="url(#paint0_linear_1685_12419)"/>
<path d="M106.563 58.9236C106.073 57.7117 105.338 56.61 104.381 55.6626C103.468 54.7371 102.444 54.0321 101.286 53.5693C100.15 53.1066 98.9258 52.8643 97.5898 52.8643C96.2539 52.8643 95.007 53.1066 93.8715 53.5693C92.7137 54.0321 91.6895 54.7371 90.7766 55.6626C89.8191 56.61 89.1066 57.7117 88.6168 58.9236C88.127 60.1354 87.9043 61.4575 87.9043 62.9117C87.9043 64.3219 88.1492 65.6439 88.6391 66.8778C89.1289 68.1117 89.8414 69.2134 90.7988 70.1829C91.6895 71.0863 92.7137 71.7694 93.8492 72.2321C94.9848 72.6948 96.2539 72.9371 97.6121 72.9371C98.9258 72.9371 100.15 72.6948 101.286 72.2321C102.421 71.7694 103.468 71.0863 104.381 70.1829C105.338 69.2134 106.073 68.1117 106.563 66.8999C107.053 65.688 107.298 64.3439 107.298 62.9338C107.298 61.4575 107.053 60.1354 106.563 58.9236ZM101.464 67.5609C100.507 68.6846 99.2375 69.2575 97.5898 69.2575C95.9422 69.2575 94.6508 68.6846 93.6934 67.5609C92.7359 66.4371 92.2684 64.8727 92.2684 62.8897C92.2684 60.8626 92.7582 59.2982 93.6934 58.1524C94.6508 57.0066 95.9199 56.4558 97.5898 56.4558C99.2375 56.4558 100.507 57.0287 101.464 58.1524C102.399 59.2982 102.889 60.8626 102.889 62.8897C102.889 64.8727 102.421 66.4371 101.464 67.5609Z" fill="white"/>
<path d="M83.184 43.125V43.2572L86.3457 67.2962L84.4977 72.364L84.2527 72.1877L81.002 49.1403L81.0687 48.8318L83.0949 43.2572L83.184 43.125Z" fill="#009ADA"/>
<path d="M58.8469 46.4742L83.1832 43.125L81.1348 48.8979L80.8453 49.2064L58.0898 52.5114L58.2012 48.3911L58.8469 46.4742Z" fill="#91C9ED"/>
<path d="M81.1356 48.8975L84.4977 72.3636L60.5176 75.6907L57.2891 53.0178L58.6918 51.9381L81.1356 48.8975Z" fill="url(#paint1_linear_1685_12419)"/>
<path d="M77.0605 53.393C76.9492 52.6659 76.7043 52.1151 76.3035 51.7405C75.9695 51.454 75.5687 51.2998 75.1012 51.2998C74.9898 51.2998 74.8562 51.2998 74.7226 51.3218C74.0992 51.41 73.6316 51.6964 73.3422 52.1591C73.1195 52.4896 73.0305 52.9083 73.0305 53.393C73.0305 53.5693 73.0527 53.7676 73.075 53.9659L73.9433 60.0693L67.041 61.0829L66.1727 54.9795C66.0613 54.2744 65.8164 53.7235 65.4156 53.349C65.0816 53.0405 64.6809 52.8862 64.2355 52.8862C64.1242 52.8862 64.0129 52.8862 63.9016 52.9083C63.2559 52.9964 62.766 53.2829 62.4543 53.7456C62.2316 54.0761 62.1426 54.4947 62.1426 54.9795C62.1426 55.1557 62.1648 55.354 62.1871 55.5744L64.5473 71.4608C64.6586 72.1879 64.9035 72.7388 65.3488 73.1134C65.6828 73.3998 66.0836 73.532 66.5734 73.532C66.707 73.532 66.8406 73.532 66.9742 73.51C67.5754 73.4218 68.0207 73.1354 68.3102 72.6727C68.5105 72.3422 68.5996 71.9456 68.5996 71.4828C68.5996 71.3066 68.5773 71.1083 68.5551 70.91L67.5977 64.6303L74.5 63.6167L75.4574 69.8964C75.5687 70.6235 75.8137 71.1744 76.2367 71.5269C76.5707 71.8134 76.9715 71.9676 77.4391 71.9676C77.5504 71.9676 77.684 71.9676 77.8176 71.9456C78.441 71.8574 78.9086 71.571 79.198 71.1083C79.3984 70.7778 79.5098 70.3812 79.5098 69.8964C79.5098 69.7201 79.4875 69.5218 79.4652 69.3235L77.0605 53.393Z" fill="white"/>
<path d="M36.0695 37L27.4082 57.3593L28.5883 66.3051L28.6551 66.2831L38.3852 44.6237L38.3406 44.161L36.2477 37.2864L36.0695 37Z" fill="#66BF6B"/>
<path d="M36.0703 37L38.3191 44.4695L38.3637 44.6237L59.7832 54.1203L59.85 54.0763L58.0242 46.9373L36.0703 37Z" fill="#98D0A0"/>
<path d="M38.318 44.4697L59.8488 54.0765L50.1187 75.9121L28.5879 66.3053L38.318 44.4697Z" fill="url(#paint2_linear_1685_12419)"/>
<path d="M53.3262 55.8395C52.8586 54.6056 52.2129 53.5479 51.3668 52.6666C50.5207 51.7852 49.4965 51.0802 48.2941 50.5734C47.0918 50.0666 45.8895 49.8242 44.6648 49.8242H44.598C43.3512 49.8242 42.1266 50.1107 40.9242 50.6395C39.6551 51.1903 38.5641 51.9395 37.6289 52.931C36.6937 53.9005 35.9367 55.0903 35.3578 56.4564C34.7789 57.8005 34.4672 59.1666 34.4004 60.5107V60.9734C34.4004 62.1632 34.6008 63.331 35.0238 64.4768C35.4691 65.6886 36.1148 66.7242 36.9609 67.6056C37.807 68.4869 38.8535 69.192 40.1004 69.6988C41.2805 70.2056 42.4828 70.4479 43.7074 70.4479H43.7297C44.9543 70.4479 46.1789 70.1835 47.3812 69.6768C48.6504 69.1259 49.7637 68.3547 50.6988 67.3632C51.634 66.3937 52.4133 65.2259 52.9922 63.8598C53.5711 62.4937 53.8828 61.1496 53.9496 59.8056V59.409C53.9719 58.1971 53.7715 57.0073 53.3262 55.8395ZM49.0289 62.1852C48.2273 64.0802 47.1363 65.3802 45.8227 66.0852C45.1102 66.4598 44.3754 66.6581 43.6406 66.6581C42.9949 66.6581 42.3047 66.5039 41.6145 66.2174C40.1004 65.5785 39.1652 64.5649 38.7645 63.1107C38.6309 62.6259 38.5641 62.1191 38.5641 61.5903C38.5641 60.5327 38.8312 59.3649 39.3656 58.109C40.1895 56.17 41.2805 54.8479 42.5941 54.1208C43.3066 53.7242 44.0414 53.5479 44.7762 53.5479C45.4441 53.5479 46.1121 53.7022 46.8246 53.9886C48.3164 54.6276 49.2516 55.6412 49.6523 57.0954C49.7859 57.5581 49.8527 58.0649 49.8527 58.5937C49.8527 59.6954 49.5855 60.8852 49.0289 62.1852Z" fill="white"/>
<path d="M25.6937 40.459L29.2117 63.7708L27.6086 71.9675L27.3859 71.681L23.957 49.1624V48.7217L25.4711 40.8556L25.6937 40.459Z" fill="#760D16"/>
<path d="M0 52.5115L1.66992 44.2708L25.6945 40.459L24.0691 48.8539V49.4047L0.289453 52.7319L0 52.5115Z" fill="#EF463E"/>
<path d="M24.0691 48.8535L27.6094 71.9671L3.82969 75.6467L0 52.5111L24.0691 48.8535Z" fill="url(#paint3_linear_1685_12419)"/>
<path d="M21.5086 68.2882C21.3305 68.0679 21.0633 67.9137 20.7516 67.8035C20.4398 67.6933 20.0613 67.6493 19.5938 67.6493C19.1707 67.6493 18.6809 67.6933 18.1465 67.7815L11.8676 68.8391C11.9344 68.3543 12.1793 67.7374 12.6023 66.9662C13.0699 66.1069 13.7824 65.0713 14.6953 63.8815C15.007 63.4628 15.252 63.1543 15.4301 62.934C15.5414 62.7798 15.7195 62.5815 15.9422 62.295C17.3895 60.4221 18.2578 58.9018 18.6141 57.712C18.8145 57.0289 18.9258 56.3459 18.9703 55.6628C18.9926 55.4645 18.9926 55.2882 18.9926 55.112C18.9926 54.6272 18.948 54.1425 18.859 53.6577C18.7922 53.2171 18.6809 52.8645 18.525 52.5781C18.3691 52.2916 18.191 52.0713 17.9684 51.9391C17.7234 51.7849 17.3449 51.7188 16.8773 51.7188C16.4988 51.7188 16.0313 51.7628 15.4746 51.851L8.21602 53.0849C7.34766 53.2391 6.67969 53.4815 6.27891 53.8781C5.94492 54.1865 5.78906 54.5832 5.78906 55.0238C5.78906 55.134 5.78906 55.2662 5.81133 55.3984C5.92266 56.0154 6.23437 56.456 6.74648 56.6764C7.0582 56.8086 7.41445 56.8747 7.85977 56.8747C8.14922 56.8747 8.4832 56.8526 8.83945 56.7865L14.8957 55.7289C14.8957 55.8391 14.918 55.9493 14.918 56.0374C14.918 56.412 14.8512 56.7865 14.7176 57.1391C14.5395 57.6459 14.0941 58.351 13.3594 59.2543C13.159 59.4967 12.8473 59.8933 12.4242 60.4001C10.7766 62.3611 9.61875 64.0357 8.90625 65.4238C8.39414 66.3933 8.06016 67.3188 7.85977 68.2662C7.74844 68.8171 7.68164 69.3238 7.68164 69.8306C7.68164 70.1832 7.70391 70.5357 7.7707 70.8662C7.85977 71.351 7.97109 71.7476 8.12695 72.056C8.28281 72.3645 8.50547 72.6069 8.75039 72.7391C8.99531 72.8713 9.3293 72.9154 9.81914 72.9154C10.4203 72.9154 11.2441 72.8272 12.2906 72.651L18.8813 71.5272C20.0391 71.3289 20.8629 71.0425 21.3305 70.6679C21.709 70.3594 21.9094 69.9408 21.9094 69.456C21.9094 69.3238 21.8871 69.1916 21.8648 69.0594C21.8203 68.773 21.709 68.5086 21.5086 68.2882Z" fill="white"/>
<defs>
<linearGradient id="paint0_linear_1685_12419" x1="97.9677" y1="49.8681" x2="97.9677" y2="74.9006" gradientUnits="userSpaceOnUse">
<stop offset="0.005618" stop-color="#FFE513"/>
<stop offset="1" stop-color="#FDB924"/>
</linearGradient>
<linearGradient id="paint1_linear_1685_12419" x1="58.5168" y1="52.513" x2="83.0182" y2="72.5932" gradientUnits="userSpaceOnUse">
<stop offset="0.005618" stop-color="#008CD2"/>
<stop offset="1" stop-color="#00649D"/>
</linearGradient>
<linearGradient id="paint2_linear_1685_12419" x1="44.2189" y1="53.204" x2="44.2189" y2="75.1351" gradientUnits="userSpaceOnUse">
<stop stop-color="#26A146"/>
<stop offset="1" stop-color="#008A52"/>
</linearGradient>
<linearGradient id="paint3_linear_1685_12419" x1="12.0746" y1="51.0526" x2="15.6708" y2="73.8584" gradientUnits="userSpaceOnUse">
<stop stop-color="#D92231"/>
<stop offset="1" stop-color="#BA2234"/>
</linearGradient>
</defs>
</svg>
